<svg width="968" height="831" viewBox="0 0 968 831" fill="none" xmlns="http://www.w3.org/2000/svg">
<path d="M502.363 830.829C640.602 830.829 752.666 826.827 752.666 821.89C752.666 816.953 640.602 812.95 502.363 812.95C364.124 812.95 252.059 816.953 252.059 821.89C252.059 826.827 364.124 830.829 502.363 830.829Z" fill="#3F3D56"/>
<path d="M280.159 798.44C321.848 798.44 355.644 795.324 355.644 791.481C355.644 787.639 321.848 784.523 280.159 784.523C238.469 784.523 204.673 787.639 204.673 791.481C204.673 795.324 238.469 798.44 280.159 798.44Z" fill="#3F3D56"/>
<path d="M417.676 822.501C417.676 822.501 480.328 655.431 445.789 552.618C411.251 449.805 383.941 453.821 383.941 453.821C383.941 453.821 337.354 441.773 279.522 477.115C221.69 512.457 206.428 522.899 173.496 508.441C140.564 493.983 134.138 471.492 53.816 473.902C53.816 473.902 96.3868 450.609 138.154 471.492C179.922 492.376 208.035 503.621 250.606 471.492C293.177 439.363 351.812 397.596 408.841 422.496C408.841 422.496 367.073 381.531 353.418 381.531C339.764 381.531 275.506 375.106 254.622 353.418C254.622 353.418 224.903 332.535 171.89 383.941C118.877 435.347 131.729 435.347 84.3385 431.331C36.9483 427.315 0 404.022 0 404.022C0 404.022 55.4224 426.512 89.1578 415.267C122.893 404.022 151.809 361.451 181.529 346.993C211.248 332.535 228.919 313.257 269.08 334.141C269.08 334.141 252.212 265.064 220.083 270.686C187.954 276.309 235.345 254.622 235.345 254.622C235.345 254.622 226.509 137.351 209.641 129.319C192.774 121.287 203.216 100.403 171.89 96.3869C171.89 96.3869 210.445 91.5675 217.674 118.074C224.903 144.58 274.702 287.554 274.702 287.554C274.702 287.554 305.225 348.599 338.96 334.141C372.696 319.683 326.109 238.557 326.109 238.557L268.277 212.051C268.277 212.051 311.651 210.445 338.157 235.345C364.664 260.244 366.27 340.567 366.27 340.567C366.27 340.567 432.938 350.206 449.002 386.351C449.002 386.351 459.444 354.222 439.363 334.944C434.343 330.125 429.072 321.741 423.989 311.877C404.551 274.152 397.957 231.15 404.072 189.156C407.064 168.605 408.906 148.512 405.628 143.777C398.399 133.335 367.876 69.0772 365.467 52.2095C363.057 35.3418 367.876 0 367.876 0C367.876 0 368.68 43.3741 378.318 57.0289C387.957 70.6837 415.267 138.154 415.267 138.154C415.267 138.154 415.267 223.296 437.757 265.064C460.247 306.831 503.621 353.418 501.212 383.941V401.612C501.212 401.612 549.405 355.828 546.192 340.567C542.979 325.306 538.963 289.161 508.441 267.474C477.918 245.786 457.837 211.248 479.525 161.448C501.212 111.648 501.212 102.813 501.212 102.813L486.754 164.661C486.754 164.661 478.721 220.083 501.212 239.361C523.702 258.638 553.421 293.98 553.421 293.98L546.995 178.316L567.879 224.099C567.879 224.099 612.86 166.267 665.872 146.99C718.885 127.713 751.817 60.2417 751.817 60.2417L796.798 24.8999L759.85 69.0772C759.85 69.0772 748.605 121.287 685.15 158.235C621.695 195.183 580.731 249.803 578.321 283.538C575.911 317.273 573.502 346.993 573.502 346.993C573.502 346.993 692.379 342.977 718.885 290.767C745.392 238.557 747.801 134.942 773.504 118.074C799.208 101.206 847.401 80.3224 847.401 80.3224L793.585 124.5C793.585 124.5 782.34 160.645 784.75 186.348C787.159 212.051 767.079 236.148 767.079 236.148L751.817 281.128L734.95 319.683C734.95 319.683 804.027 321.289 840.172 362.254C876.317 403.218 966.278 415.267 966.278 415.267L915.675 428.921C915.675 428.921 867.482 412.857 821.698 383.138C775.914 353.418 780.733 326.912 723.705 356.631C666.676 386.351 588.763 411.251 588.763 411.251C588.763 411.251 633.743 390.367 714.869 440.97C795.995 491.573 674.708 432.134 638.563 451.412C602.418 470.689 585.55 446.592 571.092 494.786C556.634 542.979 530.128 674.708 560.65 748.604L591.173 822.501H417.676Z" fill="#3F3D56"/>
<path opacity="0.1" d="M720.104 290.767C698.569 333.184 616.065 343.791 585.873 346.277C585.027 357.166 584.468 364.052 584.468 364.052C584.468 364.052 703.345 360.036 729.852 307.826C756.358 255.617 758.768 152.001 784.471 135.133C787.197 133.344 790.178 131.51 793.325 129.66C794.208 126.418 794.804 124.5 794.804 124.5L848.62 80.3224C848.62 80.3224 800.426 101.206 774.723 118.074C749.02 134.942 746.61 238.557 720.104 290.767Z" fill="black"/>
<path opacity="0.1" d="M581.588 209.621C581.412 229.397 578.846 241.159 578.846 241.159C578.846 241.159 623.807 183.351 676.806 164.062C679.938 162.08 683.116 160.129 686.368 158.235C749.823 121.287 761.068 69.0772 761.068 69.0772L798.016 24.8999L753.036 60.2418C753.036 60.2418 720.104 127.713 667.091 146.99C630.955 160.13 598.557 191.18 581.588 209.621Z" fill="black"/>
<path opacity="0.1" d="M512.178 401V418.671C512.178 418.671 560.371 372.887 557.158 357.626C554.701 345.955 551.76 322.074 536.866 301.782C543.579 317.117 545.623 332.075 547.41 340.567C549.714 351.511 525.585 378.148 511.748 392.345C512.233 395.203 512.377 398.108 512.178 401Z" fill="black"/>
<path opacity="0.1" d="M447.531 279.733C447.913 280.547 448.306 281.348 448.724 282.123C461.041 304.998 479.61 329.313 493.504 351.648C482.275 329.53 462.733 304.236 447.531 279.733Z" fill="black"/>
<path opacity="0.1" d="M486.69 245.537C480.213 229.667 479.146 210.782 486.587 188.653C486.494 180.633 486.957 172.617 487.972 164.661L500.62 110.558C498.288 118.36 492.953 133.412 480.743 161.448C465.286 196.941 471.055 224.676 486.69 245.537Z" fill="black"/>
<path opacity="0.1" d="M841.391 362.254C816.324 333.845 775.425 324.367 752.705 321.225L745.917 336.742C745.917 336.742 814.994 338.349 851.139 379.313C871.183 402.03 907.771 415.85 936.396 423.659L967.497 415.267C967.497 415.267 877.536 403.218 841.391 362.254Z" fill="black"/>
<path opacity="0.1" d="M349.927 351.2C383.662 336.742 337.075 255.617 337.075 255.617L335.801 255.032C347.415 279.537 364.259 323.821 340.179 334.141C317.645 343.798 296.549 319.772 285.021 302.75C285.439 303.954 285.669 304.613 285.669 304.613C285.669 304.613 316.191 365.658 349.927 351.2Z" fill="black"/>
<path opacity="0.1" d="M459.969 403.41C459.969 403.41 470.134 372.076 451.038 352.73C455.72 369.397 450.221 386.351 450.221 386.351C437.794 358.39 395.092 346.293 376.389 342.248C377.114 351.557 377.237 357.626 377.237 357.626C377.237 357.626 443.904 367.265 459.969 403.41Z" fill="black"/>
<path opacity="0.1" d="M500.62 110.558C502.43 104.501 502.43 102.813 502.43 102.813L500.62 110.558Z" fill="black"/>
<path opacity="0.1" d="M99.6372 432.479C99.7992 432.427 99.9637 432.379 100.125 432.326C133.86 421.081 162.776 378.51 192.495 364.052C222.215 349.594 239.886 330.316 280.047 351.2C280.047 351.2 273.021 322.441 259.405 303.546C263.915 313.41 267.56 323.647 270.299 334.141C230.137 313.257 212.467 332.535 182.747 346.993C153.028 361.451 124.112 404.022 90.3766 415.267C56.6412 426.512 1.21875 404.022 1.21875 404.022C1.21875 404.022 38.167 427.315 85.5573 431.331C90.9784 431.791 95.604 432.196 99.6372 432.479Z" fill="black"/>
<path opacity="0.1" d="M434.51 822.501C449.228 777.385 484.622 652.627 456.756 569.677C444.721 533.854 433.567 511.011 424.137 496.438C431.189 510.234 438.899 528.481 447.007 552.618C481.546 655.431 418.895 822.501 418.895 822.501H434.51Z" fill="black"/>
<path opacity="0.1" d="M120.829 480.363C130.677 481.362 140.262 484.137 149.121 488.552C182.108 505.045 206.583 515.505 236.384 503.356C243.173 499.77 250.766 495.332 259.524 490.049C260.206 489.551 260.882 489.072 261.573 488.552C304.143 456.423 362.779 414.655 419.808 439.555C419.808 439.555 408.282 428.254 395.362 417.523C343.091 404.7 290.744 442.119 251.825 471.492C209.254 503.621 181.141 492.376 139.373 471.492C97.6054 450.609 55.0347 473.902 55.0347 473.902C86.0692 472.971 106.067 475.759 120.829 480.363Z" fill="black"/>
<path opacity="0.1" d="M202.359 121.521C203.276 123.064 204.386 124.484 205.663 125.744C204.725 124.216 203.617 122.8 202.359 121.521Z" fill="black"/>
<path opacity="0.1" d="M349.124 252.404C350.365 253.578 351.528 254.832 352.606 256.158C349.087 247.7 344.742 240.386 339.376 235.345C312.869 210.445 269.495 212.051 269.495 212.051L323.891 236.982C333.212 240.46 341.778 245.695 349.124 252.404Z" fill="black"/>
<path opacity="0.1" d="M406.847 143.777C410.125 148.512 408.283 168.605 405.29 189.156C399.176 231.15 405.77 274.153 425.208 311.877C427.767 316.94 430.625 321.845 433.766 326.569C415.257 289.418 409.051 247.335 415.039 206.215C418.031 185.664 419.873 165.571 416.595 160.836C409.366 150.394 378.843 86.1364 376.434 69.2687C375.711 62.7248 375.543 56.1316 375.93 49.5594C369.691 31.8562 369.095 0 369.095 0C369.095 0 364.276 35.3419 366.685 52.2095C369.095 69.0772 399.618 133.335 406.847 143.777Z" fill="black"/>
<path opacity="0.1" d="M482.201 32.7344C481.879 31.1468 481.391 29.5977 480.743 28.1129C480.743 28.1129 481.36 29.8464 482.201 32.7344Z" fill="black"/>
<path opacity="0.1" d="M198.499 113.629C205.578 114.496 213.721 116.668 219.932 121.705C219.527 120.335 219.174 119.106 218.892 118.074C211.663 91.5675 173.108 96.3869 173.108 96.3869C190.532 98.6207 195.032 106.073 198.499 113.629Z" fill="black"/>
<path d="M398.138 788.182C403.865 809.352 423.481 822.463 423.481 822.463C423.481 822.463 433.812 801.251 428.085 780.08C422.358 758.91 402.742 745.799 402.742 745.799C402.742 745.799 392.411 767.011 398.138 788.182Z" fill="#3F3D56"/>
<path d="M406.552 783.632C422.267 798.93 424.187 822.446 424.187 822.446C424.187 822.446 400.627 821.16 384.913 805.862C369.198 790.564 367.278 767.048 367.278 767.048C367.278 767.048 390.838 768.334 406.552 783.632Z" fill="#4E7DFF"/>
<path d="M354.467 209.64C353.101 231.529 336.512 248.307 336.512 248.307C336.512 248.307 322.138 229.597 323.504 207.708C324.87 185.819 341.459 169.041 341.459 169.041C341.459 169.041 355.833 187.752 354.467 209.64Z" fill="#4E7DFF"/>
<path d="M181.541 71.2646C200.093 82.9608 206.859 105.564 206.859 105.564C206.859 105.564 183.547 109.204 164.995 97.5077C146.443 85.8115 139.677 63.2082 139.677 63.2082C139.677 63.2082 162.989 59.5683 181.541 71.2646Z" fill="#4E7DFF"/>
<path d="M140.111 338.118C158.663 349.815 165.43 372.418 165.43 372.418C165.43 372.418 142.118 376.058 123.566 364.361C105.014 352.665 98.2476 330.062 98.2476 330.062C98.2476 330.062 121.56 326.422 140.111 338.118Z" fill="#4E7DFF"/>
<path d="M238.811 440.473C257.363 452.169 264.129 474.773 264.129 474.773C264.129 474.773 240.817 478.412 222.265 466.716C203.713 455.02 196.947 432.417 196.947 432.417C196.947 432.417 220.259 428.777 238.811 440.473Z" fill="#4E7DFF"/>
<path d="M517.264 110.277C511.669 131.482 492.135 144.715 492.135 144.715C492.135 144.715 481.672 123.568 487.267 102.362C492.862 81.1568 512.396 67.9233 512.396 67.9233C512.396 67.9233 522.859 89.0709 517.264 110.277Z" fill="#4E7DFF"/>
<path d="M693.748 126.811C687.172 147.733 667.043 160.043 667.043 160.043C667.043 160.043 657.576 138.431 664.152 117.509C670.727 96.5869 690.856 84.2771 690.856 84.2771C690.856 84.2771 700.323 105.889 693.748 126.811Z" fill="#4E7DFF"/>
<path d="M884.498 359.665C872.587 378.079 849.906 384.582 849.906 384.582C849.906 384.582 846.538 361.229 858.45 342.815C870.361 324.4 893.042 317.897 893.042 317.897C893.042 317.897 896.41 341.25 884.498 359.665Z" fill="#4E7DFF"/>
<path d="M585.035 510.239C585.035 510.239 583.122 517.254 586.948 519.806C590.775 522.357 592.051 534.474 592.051 534.474L584.397 555.521L563.989 559.347L556.335 544.679V522.994C556.335 522.994 558.887 512.152 558.249 508.963C557.611 505.775 585.035 510.239 585.035 510.239Z" fill="#FFB9B9"/>
<path opacity="0.2" d="M585.035 510.239C585.035 510.239 583.122 517.254 586.948 519.806C590.775 522.357 592.051 534.474 592.051 534.474L584.397 555.521L563.989 559.347L556.335 544.679V522.994C556.335 522.994 558.887 512.152 558.249 508.963C557.611 505.775 585.035 510.239 585.035 510.239Z" fill="black"/>
<path d="M605.444 630.778L622.026 633.967C622.026 633.967 623.301 652.462 622.026 656.926C620.75 661.391 619.475 666.493 620.75 667.769C622.026 669.044 615.01 701.571 615.648 703.484C616.286 705.397 617.561 711.137 616.924 714.964C616.286 718.79 614.373 717.515 615.648 721.341C616.924 725.168 618.199 725.806 616.924 728.357C615.648 730.908 609.27 792.772 607.357 793.41C605.444 794.047 588.224 794.685 588.224 793.41C588.224 792.134 593.964 782.568 592.051 780.016C590.137 777.465 592.688 734.097 592.688 732.184C592.688 730.27 596.515 727.081 594.602 725.806C592.688 724.53 591.413 723.255 592.051 721.341C592.688 719.428 593.964 718.79 592.688 716.877C591.413 714.964 591.413 676.697 586.948 675.422C586.948 675.422 581.208 703.484 583.122 710.499C585.035 717.515 582.484 720.066 582.484 720.066L591.413 727.719L579.295 750.679L566.54 736.01C566.54 736.01 566.54 732.184 563.989 731.546C561.438 730.908 560.162 730.27 560.162 728.357C560.162 726.444 555.698 714.326 555.698 714.326C555.698 714.326 542.942 674.146 549.32 653.738C555.698 633.329 558.155 634.004 558.155 634.004L605.444 630.778Z" fill="#2F2E41"/>
<path d="M615.648 762.797L622.664 770.45L620.113 791.496H614.373L605.444 771.725L615.648 762.797Z" fill="#FFB9B9"/>
<path d="M620.113 776.828C620.113 776.828 617.562 782.568 615.648 781.292C613.735 780.016 613.101 778.103 610.229 778.103C607.357 778.103 604.806 778.741 605.444 780.016C606.082 781.292 613.735 795.323 613.735 795.323C614.858 797.718 615.44 800.331 615.44 802.976C615.44 805.621 614.858 808.234 613.735 810.629C609.908 818.92 623.939 823.385 626.49 814.456C629.041 805.527 629.679 795.323 629.041 791.496C628.404 787.67 632.23 767.899 632.23 767.899C632.23 767.899 621.927 763.149 618.788 762.973C618.788 762.973 621.388 774.276 620.113 776.828Z" fill="#2F2E41"/>
<path d="M602.893 790.859L605.444 798.512C605.444 798.512 605.444 806.165 607.995 809.992C610.546 813.818 613.097 822.109 602.893 822.747C592.688 823.385 588.224 819.558 588.224 819.558C588.224 819.558 590.137 814.456 588.224 812.543C586.311 810.629 588.224 806.803 588.224 806.803L590.137 791.496L602.893 790.859Z" fill="#2F2E41"/>
<path d="M585.673 727.081H591.413L620.113 764.71C620.113 764.71 615.01 776.827 607.357 778.103C607.357 778.103 606.082 777.465 600.342 773.639C594.602 769.812 579.295 750.679 579.295 750.679L577.382 739.837L585.673 727.081Z" fill="#2F2E41"/>
<path d="M571.642 518.53C582.913 518.53 592.051 509.393 592.051 498.121C592.051 486.85 582.913 477.713 571.642 477.713C560.371 477.713 551.233 486.85 551.233 498.121C551.233 509.393 560.371 518.53 571.642 518.53Z" fill="#FFB9B9"/>
<path d="M596.515 524.27L590.138 521.719C590.138 521.719 589.5 544.041 577.382 544.041C565.264 544.041 552.509 540.852 552.509 534.474C552.509 528.097 542.305 545.954 542.305 545.954C542.305 545.954 551.871 609.731 551.233 610.369C550.596 611.007 558.249 644.809 558.249 644.809C558.249 644.809 590.775 646.084 601.617 641.62C612.46 637.156 615.648 628.865 615.648 628.865L611.184 572.741L602.255 529.372L596.515 524.27Z" fill="#4E7DFF"/>
<path d="M585.677 518.53C585.677 518.53 588.224 515.979 592.051 518.53C595.877 521.081 619.475 526.821 619.475 528.734V552.97C619.475 552.97 620.113 556.796 618.199 559.347C616.286 561.899 611.822 571.465 614.373 575.929C616.924 580.394 626.49 632.053 624.577 638.431C622.664 644.809 617.562 650.549 617.562 650.549C617.562 650.549 590.137 592.512 590.137 575.929C590.137 559.347 590.404 539.004 590.404 539.004L585.677 518.53Z" fill="#575A89"/>
<path d="M613.735 529.372H619.475C619.475 529.372 641.159 570.827 641.159 579.118C641.159 587.409 627.128 633.329 625.852 633.967C624.577 634.604 620.75 626.951 620.75 626.951L617.561 601.44C617.561 601.44 623.939 586.134 622.026 583.583C620.112 581.032 610.546 561.261 610.546 561.261L613.735 529.372Z" fill="#575A89"/>
<path d="M557.278 518.53C557.278 518.53 549.958 523.632 548.682 525.546C547.406 527.459 528.273 538.301 527.636 540.852C526.998 543.403 542.304 565.087 542.304 565.087C542.304 565.087 548.682 600.803 548.682 603.354C548.682 605.905 551.233 649.273 551.233 649.273C551.233 649.273 577.382 656.926 577.382 652.462C577.382 647.998 578.02 584.22 574.193 570.19C570.366 556.159 557.278 518.53 557.278 518.53Z" fill="#575A89"/>
<path d="M561.438 650.549C561.438 650.549 583.122 679.886 571.642 679.249C560.162 678.611 552.509 653.738 552.509 653.738L561.438 650.549Z" fill="#FFB9B9"/>
<path d="M535.289 538.939L527.636 540.852C527.636 540.852 521.258 596.976 525.085 604.629C528.911 612.282 549.32 662.029 549.32 660.115C549.32 658.202 567.273 654.792 566.587 652.989C565.902 651.187 562.075 643.533 560.8 640.982C559.524 638.431 557.611 635.242 558.249 632.053C558.886 628.865 551.233 615.215 551.233 615.215C551.233 615.215 549.32 607.18 548.682 603.354C548.044 599.527 542.304 557.434 542.304 557.434L535.289 538.939Z" fill="#575A89"/>
<path d="M591.652 482.323C591.262 481.123 590.439 480.111 589.343 479.486C589.4 478.219 589.235 476.951 588.855 475.741C587.585 472.206 584.576 472.409 581.736 470.846C580.504 470.168 580.58 469.569 579.939 468.455C579.078 466.975 577.819 465.766 576.306 464.966C574.554 463.723 572.532 462.915 570.406 462.61C565.877 462.32 562.405 466.329 558.076 467.616C556.168 468.183 554.118 468.206 552.2 468.743C550.282 469.279 548.368 470.559 548.082 472.423C547.95 473.284 548.183 474.166 548.049 475.027C547.783 476.737 546.189 477.934 545.122 479.34C542.763 482.45 543.033 486.844 544.92 490.228C545.319 490.931 545.774 491.601 546.28 492.232C546.44 493.84 546.929 495.398 547.717 496.809C549.603 500.193 552.85 502.722 556.242 504.823C555.964 503.702 555.796 502.558 555.739 501.406C555.691 501.021 555.744 500.631 555.893 500.273C556.271 499.53 557.269 499.333 558.03 498.926C558.755 498.449 559.344 497.791 559.737 497.016C560.13 496.242 560.313 495.378 560.269 494.511C560.315 492.805 559.931 491.097 560.121 489.4C560.131 489.004 560.227 488.616 560.403 488.261C560.578 487.906 560.829 487.594 561.137 487.346C561.724 487.032 562.386 486.883 563.052 486.916C566.281 486.792 569.655 486.736 572.503 485.299C573.428 484.722 574.415 484.252 575.445 483.898C577.866 483.304 580.34 484.901 581.735 486.855C583.13 488.81 583.826 491.136 585.113 493.155C586.4 495.174 588.624 496.974 591.113 496.735C591.251 496.736 591.389 496.709 591.516 496.656C591.644 496.602 591.76 496.523 591.856 496.424C591.963 496.245 592.011 496.036 591.993 495.828L592.132 486.874C592.247 485.34 592.085 483.799 591.652 482.323Z" fill="#2F2E41"/>
</svg>
