<svg width="738" height="730" viewBox="0 0 738 730" fill="none" xmlns="http://www.w3.org/2000/svg">
<g clip-path="url(#clip0_117_3542)">
<path d="M550.445 172.947H546.446V63.4019C546.446 55.0759 544.806 46.8313 541.62 39.1391C538.434 31.4468 533.763 24.4574 527.876 18.57C521.989 12.6826 514.999 8.01245 507.307 4.8262C499.615 1.63995 491.37 7.87946e-06 483.044 1.54799e-10H250.957C234.142 -3.71302e-05 218.016 6.67974 206.125 18.5699C194.235 30.46 187.555 46.5865 187.555 63.4017V664.376C187.555 681.191 194.235 697.318 206.125 709.208C218.016 721.098 234.142 727.778 250.957 727.778H483.044C499.859 727.778 515.986 721.098 527.876 709.208C539.766 697.318 546.446 681.192 546.446 664.376V250.923H550.445L550.445 172.947Z" fill="#E6E6E6"/>
<path d="M532.951 63.8444V663.934C532.951 676.492 527.962 688.536 519.082 697.416C510.203 706.295 498.159 711.284 485.601 711.284H252.401C239.843 711.284 227.8 706.295 218.92 697.416C210.04 688.536 205.051 676.492 205.051 663.934V63.8444C205.051 51.2865 210.04 39.2429 218.92 30.3631C227.8 21.4833 239.843 16.4946 252.401 16.4944H280.691C279.301 19.9104 278.772 23.6156 279.149 27.2842C279.527 30.9527 280.801 34.4722 282.858 37.5331C284.916 40.5939 287.694 43.1022 290.948 44.8375C294.202 46.5727 297.833 47.4817 301.521 47.4844H434.481C438.169 47.4816 441.8 46.5727 445.054 44.8374C448.308 43.1022 451.086 40.5938 453.144 37.533C455.201 34.4722 456.475 30.9527 456.853 27.2841C457.23 23.6156 456.701 19.9104 455.311 16.4944H485.601C498.159 16.4946 510.203 21.4833 519.082 30.3631C527.962 39.2429 532.951 51.2865 532.951 63.8444Z" fill="white"/>
<path d="M304.603 181.04H268.791C265.841 181.036 263.012 179.863 260.925 177.776C258.839 175.69 257.665 172.861 257.662 169.91V134.098C257.665 131.148 258.839 128.319 260.925 126.233C263.012 124.146 265.841 122.973 268.791 122.969H304.603C307.554 122.973 310.383 124.146 312.469 126.233C314.556 128.319 315.729 131.148 315.733 134.098V169.91C315.729 172.861 314.556 175.69 312.469 177.776C310.383 179.863 307.554 181.036 304.603 181.04Z" fill="#2B876B"/>
<path d="M386.907 181.04H351.095C348.144 181.036 345.316 179.863 343.229 177.776C341.143 175.69 339.969 172.861 339.966 169.91V134.098C339.969 131.148 341.143 128.319 343.229 126.233C345.316 124.146 348.144 122.973 351.095 122.969H386.907C389.858 122.973 392.687 124.146 394.773 126.233C396.859 128.319 398.033 131.148 398.036 134.098V169.91C398.033 172.861 396.859 175.69 394.773 177.776C392.687 179.863 389.858 181.036 386.907 181.04Z" fill="#2B876B"/>
<path d="M469.211 181.04H433.399C430.448 181.036 427.619 179.863 425.533 177.776C423.446 175.69 422.273 172.861 422.27 169.91V134.098C422.273 131.148 423.446 128.319 425.533 126.233C427.619 124.146 430.448 122.973 433.399 122.969H469.211C472.162 122.973 474.99 124.146 477.077 126.233C479.163 128.319 480.337 131.148 480.34 134.098V169.91C480.337 172.861 479.163 175.69 477.077 177.776C474.99 179.863 472.162 181.036 469.211 181.04Z" fill="#E6E6E6"/>
<path d="M304.603 272.548H268.791C265.841 272.545 263.012 271.371 260.925 269.285C258.839 267.199 257.665 264.37 257.662 261.419V225.607C257.665 222.657 258.839 219.828 260.925 217.741C263.012 215.655 265.841 214.481 268.791 214.478H304.603C307.554 214.481 310.383 215.655 312.469 217.741C314.556 219.828 315.729 222.657 315.733 225.607V261.419C315.729 264.37 314.556 267.199 312.469 269.285C310.383 271.371 307.554 272.545 304.603 272.548Z" fill="#E6E6E6"/>
<path d="M386.907 272.548H351.095C348.144 272.545 345.316 271.371 343.229 269.285C341.143 267.199 339.969 264.37 339.966 261.419V225.607C339.969 222.657 341.143 219.828 343.229 217.741C345.316 215.655 348.144 214.481 351.095 214.478H386.907C389.858 214.481 392.687 215.655 394.773 217.741C396.859 219.828 398.033 222.657 398.036 225.607V261.419C398.033 264.37 396.859 267.199 394.773 269.285C392.687 271.371 389.858 272.545 386.907 272.548Z" fill="#E6E6E6"/>
<path d="M469.211 272.548H433.399C430.448 272.545 427.619 271.371 425.533 269.285C423.446 267.199 422.273 264.37 422.27 261.419V225.607C422.273 222.657 423.446 219.828 425.533 217.741C427.619 215.655 430.448 214.481 433.399 214.478H469.211C472.162 214.481 474.99 215.655 477.077 217.741C479.163 219.828 480.337 222.657 480.34 225.607V261.419C480.337 264.37 479.163 267.199 477.077 269.285C474.99 271.371 472.162 272.545 469.211 272.548Z" fill="#E6E6E6"/>
<path d="M304.603 364.04H268.791C265.841 364.036 263.012 362.863 260.925 360.776C258.839 358.69 257.665 355.861 257.662 352.91V317.098C257.665 314.148 258.839 311.319 260.925 309.233C263.012 307.146 265.841 305.973 268.791 305.969H304.603C307.554 305.973 310.383 307.146 312.469 309.233C314.556 311.319 315.729 314.148 315.733 317.098V352.91C315.729 355.861 314.556 358.69 312.469 360.776C310.383 362.863 307.554 364.036 304.603 364.04Z" fill="#E6E6E6"/>
<path d="M386.907 364.04H351.095C348.144 364.036 345.316 362.863 343.229 360.776C341.143 358.69 339.969 355.861 339.966 352.91V317.098C339.969 314.148 341.143 311.319 343.229 309.233C345.316 307.146 348.144 305.973 351.095 305.969H386.907C389.858 305.973 392.687 307.146 394.773 309.233C396.859 311.319 398.033 314.148 398.036 317.098V352.91C398.033 355.861 396.859 358.69 394.773 360.776C392.687 362.863 389.858 364.036 386.907 364.04Z" fill="#E6E6E6"/>
<path d="M469.211 364.04H433.399C430.448 364.036 427.619 362.863 425.533 360.776C423.446 358.69 422.273 355.861 422.27 352.91V317.098C422.273 314.148 423.446 311.319 425.533 309.233C427.619 307.146 430.448 305.973 433.399 305.969H469.211C472.162 305.973 474.99 307.146 477.077 309.233C479.163 311.319 480.337 314.148 480.34 317.098V352.91C480.337 355.861 479.163 358.69 477.077 360.776C474.99 362.863 472.162 364.036 469.211 364.04Z" fill="#E6E6E6"/>
<path d="M304.603 455.548H268.791C265.841 455.545 263.012 454.371 260.925 452.285C258.839 450.199 257.665 447.37 257.662 444.419V408.607C257.665 405.657 258.839 402.828 260.925 400.741C263.012 398.655 265.841 397.481 268.791 397.478H304.603C307.554 397.481 310.383 398.655 312.469 400.741C314.556 402.828 315.729 405.657 315.733 408.607V444.419C315.729 447.37 314.556 450.199 312.469 452.285C310.383 454.371 307.554 455.545 304.603 455.548Z" fill="#E6E6E6"/>
<path d="M386.907 455.548H351.095C348.144 455.545 345.316 454.371 343.229 452.285C341.143 450.199 339.969 447.37 339.966 444.419V408.607C339.969 405.657 341.143 402.828 343.229 400.741C345.316 398.655 348.144 397.481 351.095 397.478H386.907C389.858 397.481 392.687 398.655 394.773 400.741C396.859 402.828 398.033 405.657 398.036 408.607V444.419C398.033 447.37 396.859 450.199 394.773 452.285C392.687 454.371 389.858 455.545 386.907 455.548Z" fill="#E6E6E6"/>
<path d="M469.211 455.548H433.399C430.448 455.545 427.619 454.371 425.533 452.285C423.446 450.199 422.273 447.37 422.27 444.419V408.607C422.273 405.657 423.446 402.828 425.533 400.741C427.619 398.655 430.448 397.481 433.399 397.478H469.211C472.162 397.481 474.99 398.655 477.077 400.741C479.163 402.828 480.337 405.657 480.34 408.607V444.419C480.337 447.37 479.163 450.199 477.077 452.285C474.99 454.371 472.162 455.545 469.211 455.548Z" fill="#E6E6E6"/>
<path d="M409.941 444.936H374.129C371.046 444.933 368.09 443.706 365.91 441.526C363.73 439.346 362.503 436.39 362.5 433.307V397.495C362.504 394.411 363.73 391.456 365.91 389.276C368.09 387.095 371.046 385.869 374.129 385.866H409.941C413.025 385.869 415.98 387.095 418.161 389.276C420.341 391.456 421.567 394.411 421.571 397.495V433.307C421.567 436.39 420.341 439.346 418.161 441.526C415.981 443.706 413.025 444.933 409.941 444.936Z" fill="#2B876B"/>
<path d="M240.496 537.352C241.85 536.678 243.039 535.716 243.981 534.533C244.922 533.35 245.593 531.975 245.945 530.505C246.298 529.034 246.324 527.505 246.021 526.023C245.719 524.542 245.095 523.145 244.194 521.931L251.928 446.32H235.215L229.069 520.15C227.13 521.799 225.862 524.101 225.507 526.622C225.152 529.143 225.734 531.706 227.142 533.826C228.551 535.947 230.688 537.477 233.149 538.126C235.61 538.776 238.224 538.501 240.496 537.352Z" fill="#FFB8B8"/>
<path d="M255.841 404.592C268.9 404.592 279.486 394.006 279.486 380.947C279.486 367.888 268.9 357.302 255.841 357.302C242.782 357.302 232.196 367.888 232.196 380.947C232.196 394.006 242.782 404.592 255.841 404.592Z" fill="#FFB8B8"/>
<path d="M260.293 490.353C259.346 490.353 258.426 490.042 257.673 489.469C256.92 488.895 256.376 488.09 256.125 487.178C254.231 480.295 249.302 468.658 241.476 452.588C239.71 448.955 238.733 444.99 238.607 440.953C238.481 436.916 239.21 432.898 240.747 429.163C242.283 425.427 244.592 422.059 247.522 419.279C250.452 416.498 253.936 414.369 257.747 413.03C261.358 411.755 265.188 411.217 269.011 411.448C272.834 411.679 276.571 412.675 280.002 414.376C283.433 416.077 286.489 418.449 288.987 421.351C291.485 424.254 293.376 427.628 294.548 431.274C300.614 450.291 300.321 470.662 299.913 478.537C299.863 479.485 299.503 480.391 298.888 481.115C298.274 481.839 297.439 482.342 296.511 482.546L261.222 490.253C260.917 490.32 260.605 490.354 260.293 490.353Z" fill="#CCCCCC"/>
<path d="M294.466 714.884L306.269 714.883L311.884 669.359L294.464 669.36L294.466 714.884Z" fill="#FFB8B8"/>
<path d="M329.031 725.842L291.938 725.843L291.937 711.512L314.699 711.511C316.581 711.511 318.445 711.881 320.183 712.601C321.922 713.322 323.502 714.377 324.833 715.708C326.164 717.039 327.22 718.619 327.94 720.357C328.66 722.096 329.031 723.96 329.031 725.842Z" fill="#2F2E41"/>
<path d="M176.447 699.587L186.79 705.273L213.644 668.087L198.379 659.695L176.447 699.587Z" fill="#FFB8B8"/>
<path d="M201.456 725.843L168.951 707.973L175.855 695.414L195.802 706.38C199.133 708.211 201.6 711.29 202.66 714.941C203.72 718.591 203.287 722.512 201.456 725.843Z" fill="#2F2E41"/>
<path d="M293.915 689.616C292.863 689.615 291.848 689.231 291.058 688.537C290.268 687.842 289.758 686.884 289.623 685.841L274.862 572.099C274.797 571.596 274.575 571.126 274.227 570.757C273.879 570.388 273.423 570.138 272.924 570.044C272.426 569.949 271.91 570.014 271.451 570.23C270.992 570.446 270.613 570.802 270.368 571.246L208.853 682.853C208.345 683.764 207.527 684.463 206.548 684.823C205.569 685.182 204.493 685.178 203.517 684.811L190.108 679.703C189.569 679.497 189.076 679.186 188.658 678.788C188.241 678.389 187.907 677.911 187.677 677.382C187.447 676.853 187.325 676.283 187.318 675.706C187.312 675.129 187.42 674.556 187.638 674.021L230.251 569.339C230.359 569.074 230.432 568.795 230.469 568.51C236.241 523.837 250.926 501.12 255.289 495.221C255.608 494.788 255.817 494.284 255.9 493.752C255.984 493.221 255.938 492.677 255.766 492.167L255.167 490.367C254.927 489.653 254.878 488.889 255.024 488.15C255.17 487.411 255.507 486.723 256 486.154C271.722 468.246 299.126 478.018 299.401 478.118L299.538 478.169L299.624 478.287C330.351 520.427 318.99 657.296 316.401 684.306C316.304 685.321 315.852 686.269 315.123 686.982C314.395 687.696 313.438 688.129 312.421 688.204L294.251 689.603C294.138 689.612 294.026 689.616 293.915 689.616Z" fill="#2F2E41"/>
<path d="M347.764 408.413C347.646 408.932 347.569 409.46 347.534 409.992L306.178 433.85L296.126 428.063L285.41 442.092L302.21 454.065C303.567 455.033 305.201 455.533 306.868 455.493C308.534 455.452 310.142 454.872 311.45 453.84L354.095 420.198C356.019 420.91 358.115 421.02 360.103 420.512C362.092 420.004 363.878 418.903 365.226 417.355C366.573 415.807 367.417 413.885 367.646 411.846C367.874 409.807 367.476 407.746 366.505 405.938C365.534 404.13 364.036 402.661 362.209 401.726C360.383 400.79 358.314 400.433 356.28 400.702C354.245 400.97 352.341 401.852 350.82 403.229C349.299 404.607 348.233 406.415 347.764 408.413Z" fill="#FFB8B8"/>
<path d="M304.796 434.979L291.43 452.302C291.05 452.795 290.568 453.2 290.017 453.49C289.466 453.78 288.859 453.947 288.237 453.981C287.615 454.016 286.994 453.915 286.414 453.687C285.835 453.46 285.312 453.109 284.88 452.661L269.749 436.949C267.239 434.988 265.609 432.113 265.216 428.953C264.823 425.792 265.699 422.605 267.651 420.09C269.604 417.574 272.475 415.936 275.633 415.533C278.792 415.13 281.982 415.996 284.504 417.941L303.481 428.552C304.025 428.856 304.496 429.274 304.863 429.777C305.231 430.279 305.485 430.855 305.61 431.465C305.735 432.075 305.727 432.704 305.586 433.311C305.446 433.917 305.176 434.487 304.796 434.979Z" fill="#CCCCCC"/>
<path d="M252.991 465.076L231.46 461.188C230.847 461.077 230.265 460.836 229.754 460.48C229.243 460.125 228.815 459.663 228.499 459.127C228.182 458.591 227.985 457.993 227.921 457.374C227.856 456.754 227.926 456.129 228.125 455.539L235.105 434.872C235.689 431.741 237.49 428.969 240.115 427.164C242.739 425.359 245.972 424.669 249.105 425.244C252.238 425.819 255.015 427.613 256.827 430.232C258.639 432.852 259.339 436.083 258.772 439.217L258.091 460.95C258.071 461.572 257.918 462.183 257.641 462.74C257.364 463.298 256.97 463.789 256.486 464.181C256.002 464.572 255.439 464.855 254.836 465.009C254.233 465.164 253.604 465.187 252.991 465.076Z" fill="#CCCCCC"/>
<path d="M259.584 375.508C265.661 379.667 273.641 383.943 279.848 379.514C281.789 378.035 283.2 375.967 283.868 373.62C284.536 371.273 284.426 368.773 283.555 366.493C280.582 357.994 272.417 354.252 264.608 351.384C254.457 347.655 243.404 344.689 232.924 347.359C222.445 350.029 213.183 360.176 215.075 370.823C216.596 379.386 224.673 386.51 223.527 395.131C222.373 403.807 212.616 408.374 204.002 409.925C195.388 411.475 185.748 411.973 179.558 418.161C171.661 426.054 173.633 440.162 181.064 448.495C188.495 456.829 199.708 460.606 210.574 463.174C224.971 466.576 240.542 468.365 254.216 462.718C267.889 457.071 278.529 441.871 274.568 427.618C272.895 421.597 268.954 416.509 265.145 411.556C261.336 406.602 257.479 401.422 256.026 395.345C254.815 390.28 255.711 384.4 259.07 380.601C259.681 379.936 260.065 379.095 260.168 378.198C260.271 377.301 260.087 376.394 259.642 375.608L259.584 375.508Z" fill="#2F2E41"/>
<path d="M500 716.459H487.74L481.908 669.171H500.002L500 716.459Z" fill="#FFB8B8"/>
<path d="M478.983 712.956H502.627V727.842H464.096C464.096 725.887 464.482 723.952 465.23 722.145C465.978 720.339 467.074 718.698 468.457 717.316C469.839 715.933 471.48 714.837 473.286 714.089C475.093 713.341 477.028 712.956 478.983 712.956Z" fill="#2F2E41"/>
<path d="M546 716.459H533.74L527.908 669.171H546.002L546 716.459Z" fill="#FFB8B8"/>
<path d="M524.983 712.956H548.627V727.842H510.096C510.096 725.887 510.482 723.952 511.23 722.145C511.978 720.339 513.074 718.698 514.457 717.316C515.839 715.933 517.48 714.837 519.286 714.089C521.093 713.341 523.028 712.956 524.983 712.956Z" fill="#2F2E41"/>
<path d="M544.503 575.621C543.182 574.771 542.063 573.642 541.226 572.313C540.389 570.985 539.853 569.489 539.656 567.931C539.46 566.372 539.607 564.79 540.088 563.295C540.569 561.8 541.372 560.429 542.44 559.278L534.368 444.72L557.621 446.975L558.26 559.161C560.074 561.085 561.121 563.606 561.201 566.249C561.28 568.892 560.388 571.473 558.692 573.502C556.996 575.53 554.615 576.867 552 577.257C549.385 577.648 546.717 577.065 544.503 575.621Z" fill="#FFB8B8"/>
<path d="M499.421 692.636L485.925 691.993C484.775 691.938 483.69 691.445 482.893 690.615C482.095 689.785 481.647 688.681 481.639 687.53L480.697 550.973C480.692 550.325 480.828 549.684 481.094 549.093C481.361 548.502 481.752 547.975 482.241 547.549C482.729 547.123 483.304 546.808 483.926 546.625C484.548 546.442 485.202 546.395 485.843 546.488L539.837 554.326C540.904 554.475 541.881 555.004 542.589 555.816C543.297 556.628 543.688 557.669 543.691 558.746L550.635 685.28C550.639 685.874 550.526 686.463 550.302 687.012C550.078 687.562 549.747 688.062 549.329 688.484C548.911 688.905 548.413 689.24 547.865 689.468C547.317 689.697 546.729 689.814 546.135 689.814H531.585C530.511 689.818 529.472 689.437 528.656 688.739C527.84 688.042 527.302 687.074 527.139 686.013L518.162 628.946C518.031 628.111 517.602 627.352 516.955 626.808C516.308 626.265 515.485 625.974 514.64 625.99C513.795 626.005 512.984 626.326 512.357 626.893C511.73 627.46 511.33 628.235 511.23 629.074L504.103 688.676C503.969 689.768 503.441 690.774 502.618 691.504C501.796 692.234 500.735 692.639 499.635 692.642C499.564 692.642 499.493 692.64 499.421 692.636Z" fill="#2F2E41"/>
<path d="M508.922 558.752C497.022 552.14 487.725 550.403 483.242 549.956C482.646 549.898 482.068 549.72 481.543 549.433C481.019 549.145 480.558 548.754 480.189 548.283C479.811 547.809 479.534 547.262 479.374 546.678C479.214 546.093 479.174 545.482 479.257 544.882L492.195 448.831C492.94 443.212 495.11 437.876 498.499 433.333C501.889 428.789 506.384 425.189 511.558 422.874C516.567 420.571 522.081 419.589 527.576 420.02C533.072 420.45 538.365 422.28 542.954 425.335C543.397 425.63 543.832 425.931 544.259 426.238C549.543 430.11 553.563 435.459 555.812 441.611C558.06 447.764 558.438 454.445 556.896 460.811C548.962 493.266 546.237 546.473 545.771 556.81C545.734 557.691 545.438 558.542 544.918 559.255C544.399 559.967 543.681 560.51 542.853 560.815C537.972 562.589 532.821 563.506 527.627 563.526C521.086 563.566 514.644 561.922 508.922 558.752Z" fill="#2B876B"/>
<path d="M539.632 483.213C539.087 482.821 538.637 482.312 538.316 481.724C537.994 481.135 537.809 480.482 537.773 479.812L536.069 448.936C535.9 445.877 536.87 442.864 538.792 440.478C540.713 438.091 543.45 436.501 546.475 436.013C549.499 435.525 552.597 436.175 555.172 437.836C557.746 439.497 559.614 442.052 560.416 445.009L567.9 472.614C568.211 473.766 568.052 474.994 567.459 476.029C566.865 477.064 565.886 477.821 564.735 478.135L543.444 483.907C542.797 484.084 542.119 484.114 541.459 483.993C540.799 483.873 540.175 483.606 539.632 483.213Z" fill="#2B876B"/>
<path d="M519.744 409.832C533.308 409.832 544.305 398.835 544.305 385.271C544.305 371.706 533.308 360.709 519.744 360.709C506.179 360.709 495.183 371.706 495.183 385.271C495.183 398.835 506.179 409.832 519.744 409.832Z" fill="#FFB8B8"/>
<path d="M430.74 433.525C430.863 434.065 430.943 434.613 430.979 435.165L473.937 459.947L484.378 453.936L495.509 468.509L473.172 484.429L424.164 445.767C422.165 446.506 419.989 446.62 417.924 446.092C415.859 445.565 414.003 444.421 412.604 442.813C411.205 441.206 410.329 439.21 410.091 437.092C409.854 434.974 410.267 432.834 411.275 430.956C412.284 429.079 413.84 427.553 415.737 426.581C417.634 425.61 419.782 425.239 421.895 425.517C424.008 425.796 425.986 426.712 427.566 428.142C429.146 429.573 430.253 431.45 430.74 433.525Z" fill="#FFB8B8"/>
<path d="M475.471 457.84C475.399 457.173 475.478 456.499 475.702 455.867C475.926 455.234 476.289 454.66 476.764 454.187L498.627 432.318C500.794 430.152 503.685 428.864 506.745 428.704C509.804 428.543 512.815 429.521 515.196 431.448C517.577 433.376 519.161 436.117 519.641 439.143C520.121 442.168 519.463 445.265 517.796 447.835L502.226 471.827C501.575 472.827 500.554 473.528 499.387 473.776C498.22 474.025 497.003 473.8 496.001 473.152L477.497 461.143C476.934 460.779 476.459 460.294 476.109 459.722C475.758 459.15 475.54 458.507 475.471 457.84Z" fill="#2B876B"/>
<path d="M537.124 404.702C532.542 409.583 524.033 406.963 523.436 400.295C523.389 399.777 523.392 399.256 523.446 398.739C523.754 395.786 525.461 393.104 525.052 389.986C524.959 389.21 524.67 388.47 524.212 387.837C520.56 382.947 511.989 390.024 508.544 385.597C506.431 382.883 508.914 378.61 507.293 375.577C505.153 371.573 498.814 373.548 494.839 371.356C490.416 368.916 490.681 362.131 493.592 358.003C497.143 352.97 503.368 350.284 509.515 349.896C515.663 349.509 521.768 351.171 527.508 353.408C534.029 355.949 540.495 359.461 544.508 365.195C549.389 372.169 549.858 381.543 547.418 389.697C545.933 394.657 540.866 400.716 537.124 404.702Z" fill="#2F2E41"/>
<path d="M737 729.046H1C0.734784 729.046 0.480429 728.941 0.292892 728.753C0.105356 728.566 0 728.312 0 728.046C0 727.781 0.105356 727.527 0.292892 727.339C0.480429 727.152 0.734784 727.046 1 727.046H737C737.265 727.046 737.52 727.152 737.707 727.339C737.895 727.527 738 727.781 738 728.046C738 728.312 737.895 728.566 737.707 728.753C737.52 728.941 737.265 729.046 737 729.046Z" fill="#CCCCCC"/>
</g>
<defs>
<clipPath id="clip0_117_3542">
<rect width="738" height="729.047" fill="white"/>
</clipPath>
</defs>
</svg>
