<svg width="485" height="453" viewBox="0 0 485 453" fill="none" xmlns="http://www.w3.org/2000/svg">
<g clip-path="url(#clip0_15_243)">
<path d="M369.575 107.65H367.086V39.4642C367.086 28.9977 362.928 18.9598 355.528 11.5588C348.127 4.15783 338.09 0 327.624 0H183.176C172.71 0 162.672 4.15783 155.272 11.5588C147.871 18.9598 143.714 28.9977 143.714 39.4642V413.536C143.714 424.002 147.871 434.04 155.272 441.441C162.672 448.842 172.71 453 183.176 453H327.627C338.093 453 348.13 448.842 355.53 441.441C362.931 434.04 367.089 424.002 367.089 413.536V156.186H369.575V107.65Z" fill="#3F3D56"/>
<path d="M359.043 36.8235V416.178C359.042 424.114 355.89 431.724 350.279 437.336C344.669 442.948 337.06 446.102 329.125 446.105H181.706C173.767 446.106 166.153 442.953 160.539 437.34C154.925 431.727 151.77 424.114 151.769 416.175V36.8235C151.771 28.8852 154.927 21.2729 160.541 15.6609C166.155 10.0489 173.768 6.89668 181.706 6.89756H199.588C198.71 9.05703 198.376 11.3991 198.615 13.718C198.854 16.0369 199.659 18.2615 200.959 20.1964C202.259 22.1313 204.015 23.7171 206.071 24.8146C208.128 25.9121 210.422 26.4876 212.753 26.4904H296.798C299.129 26.4873 301.424 25.9115 303.48 24.8137C305.537 23.7159 307.292 22.1297 308.592 20.1945C309.892 18.2594 310.697 16.0345 310.935 13.7155C311.174 11.3964 310.839 9.0543 309.961 6.8949H329.116C337.051 6.89631 344.661 10.0488 350.272 15.6594C355.883 21.27 359.037 28.8795 359.04 36.8148L359.043 36.8235Z" fill="#E6E6E6"/>
<path d="M343.336 426.303H167.476C165.975 426.301 164.536 425.704 163.474 424.642C162.413 423.581 161.816 422.142 161.814 420.64V50.9129C161.816 49.4116 162.413 47.9723 163.474 46.9108C164.536 45.8492 165.975 45.2521 167.476 45.2504H343.336C344.837 45.2521 346.276 45.8492 347.338 46.9108C348.399 47.9723 348.996 49.4116 348.998 50.9129V420.64C348.996 422.142 348.399 423.581 347.338 424.642C346.276 425.704 344.837 426.301 343.336 426.303Z" fill="white"/>
<path d="M254.74 170.079C281.499 170.079 303.192 148.385 303.192 121.624C303.192 94.8632 281.499 73.1692 254.74 73.1692C227.98 73.1692 206.288 94.8632 206.288 121.624C206.288 148.385 227.98 170.079 254.74 170.079Z" fill="#E6E6E6"/>
<path d="M254.074 163.519C277.21 163.519 295.966 144.762 295.966 121.624C295.966 98.4861 277.21 79.729 254.074 79.729C230.937 79.729 212.181 98.4861 212.181 121.624C212.181 144.762 230.937 163.519 254.074 163.519Z" fill="white"/>
<path d="M255.006 97.8616C250.282 97.8616 245.664 99.2626 241.737 101.887C237.809 104.512 234.747 108.242 232.939 112.607C231.132 116.972 230.659 121.775 231.58 126.408C232.502 131.042 234.777 135.298 238.117 138.638C241.457 141.979 245.713 144.254 250.347 145.175C254.98 146.097 259.782 145.624 264.147 143.816C268.511 142.008 272.241 138.947 274.866 135.019C277.49 131.09 278.891 126.472 278.891 121.748C278.891 115.413 276.375 109.337 271.895 104.858C267.416 100.378 261.341 97.8616 255.006 97.8616ZM255.006 105.028C256.423 105.028 257.809 105.448 258.987 106.235C260.166 107.023 261.084 108.142 261.626 109.451C262.169 110.761 262.311 112.202 262.034 113.592C261.758 114.982 261.075 116.259 260.073 117.261C259.071 118.263 257.794 118.946 256.404 119.222C255.014 119.499 253.573 119.357 252.264 118.814C250.955 118.272 249.836 117.353 249.048 116.175C248.261 114.997 247.841 113.611 247.841 112.194C247.841 111.253 248.026 110.321 248.386 109.451C248.746 108.582 249.274 107.792 249.939 107.127C250.605 106.461 251.395 105.933 252.264 105.573C253.133 105.213 254.065 105.028 255.006 105.028ZM255.006 139.525C252.176 139.512 249.391 138.809 246.893 137.476C244.396 136.143 242.262 134.221 240.675 131.877C240.79 127.099 250.229 124.469 255.006 124.469C259.784 124.469 269.222 127.099 269.337 131.877C267.749 134.22 265.615 136.141 263.118 137.474C260.621 138.807 257.837 139.511 255.006 139.527V139.525Z" fill="#8C7AE6"/>
<path d="M294.727 186.362H210.902V192.663H294.727V186.362Z" fill="#E6E6E6"/>
<path d="M305.18 202.735H199.686V209.036H305.18V202.735Z" fill="#E6E6E6"/>
<path d="M329.711 249.764H181.101V398.384H329.711V249.764Z" fill="#E6E6E6"/>
<path d="M325.786 252.909H183.463V395.24H325.786V252.909Z" fill="white"/>
<path d="M268.174 266.648H212.773V270.812H268.174V266.648Z" fill="#E6E6E6"/>
<path d="M298.324 278.874H212.773V283.038H298.324V278.874Z" fill="#8C7AE6"/>
<path d="M283.385 290.516H213.663V294.681H283.385V290.516Z" fill="#E6E6E6"/>
<path d="M253.476 303.291H212.773V307.455H253.476V303.291Z" fill="#E6E6E6"/>
<path d="M274.204 315.769H212.773V319.933H274.204V315.769Z" fill="#8C7AE6"/>
<path d="M268.174 328.325H212.773V332.489H268.174V328.325Z" fill="#E6E6E6"/>
<path d="M298.324 340.55H212.773V344.714H298.324V340.55Z" fill="#8C7AE6"/>
<path d="M283.385 352.193H213.663V356.357H283.385V352.193Z" fill="#E6E6E6"/>
<path d="M253.476 364.968H212.773V369.132H253.476V364.968Z" fill="#E6E6E6"/>
<path d="M274.204 377.446H212.773V381.61H274.204V377.446Z" fill="#E6E6E6"/>
<path d="M461.476 323.112C461.08 323.806 460.551 324.414 459.919 324.903C459.288 325.392 458.566 325.752 457.795 325.962C457.025 326.172 456.221 326.228 455.428 326.127C454.636 326.026 453.871 325.77 453.178 325.373C452.485 324.977 451.876 324.448 451.387 323.816C450.898 323.185 450.539 322.463 450.329 321.692C450.119 320.922 450.063 320.117 450.164 319.325C450.265 318.533 450.521 317.768 450.917 317.074C450.931 317.051 450.944 317.027 450.958 317.004C451.128 316.719 451.32 316.447 451.531 316.191L446.415 279.724L446.262 278.632L445.223 271.191L445.07 270.118L445.636 270.145L455.548 270.598L458.206 270.718L458.539 277.506L460.424 315.671C461.409 316.614 462.048 317.86 462.239 319.21C462.43 320.559 462.161 321.934 461.476 323.112Z" fill="#FFB8B8"/>
<path d="M446.291 278.962L458.878 277.808C459.531 277.746 460.133 277.429 460.552 276.925C460.972 276.421 461.176 275.772 461.119 275.118L458.787 248.943C458.676 247.695 458.32 246.481 457.739 245.37C457.158 244.259 456.365 243.274 455.403 242.47C454.442 241.666 453.331 241.059 452.136 240.685C450.94 240.31 449.682 240.174 448.433 240.286C447.185 240.397 445.971 240.754 444.861 241.334C443.75 241.915 442.765 242.709 441.961 243.67C441.157 244.632 440.55 245.742 440.176 246.938C439.801 248.134 439.665 249.392 439.777 250.64C439.793 250.821 439.814 251 439.84 251.179L443.615 276.854C443.701 277.442 443.996 277.98 444.446 278.369C444.896 278.757 445.47 278.972 446.065 278.973C446.14 278.974 446.216 278.971 446.291 278.962Z" fill="#A0616A"/>
<path d="M455.832 257.816C457.105 254.21 457.164 250.286 456 246.643C454.835 243.001 452.512 239.838 449.384 237.639C444.638 234.391 438.143 233.225 431.149 241.553C417.16 258.207 413.496 276.527 413.496 276.527L442.14 281.19C442.14 281.19 451.881 269.282 455.832 257.816Z" fill="#A0616A"/>
<path d="M409.504 445.415H401.337L397.452 413.913H409.505L409.504 445.415Z" fill="#FFB8B8"/>
<path d="M385.589 452.998H411.256V443.081H395.506C392.876 443.081 390.353 444.125 388.494 445.985C386.634 447.845 385.589 450.368 385.589 452.998Z" fill="#2F2E41"/>
<path d="M476.646 438.291L468.892 440.855L455.317 412.164L466.761 408.381L476.646 438.291Z" fill="#FFB8B8"/>
<path d="M456.318 452.998L480.688 444.942L477.576 435.526L462.622 440.469C461.385 440.878 460.241 441.526 459.255 442.377C458.269 443.228 457.46 444.265 456.875 445.428C456.29 446.591 455.939 447.859 455.844 449.157C455.748 450.456 455.909 451.761 456.318 452.998Z" fill="#2F2E41"/>
<path d="M437.851 229.379C446.887 229.379 454.212 222.053 454.212 213.017C454.212 203.98 446.887 196.655 437.851 196.655C428.815 196.655 421.49 203.98 421.49 213.017C421.49 222.053 428.815 229.379 437.851 229.379Z" fill="#FFB8B8"/>
<path d="M423.526 436.646L431.109 386.586C431.19 386.052 431.454 385.562 431.856 385.201C432.258 384.84 432.773 384.63 433.313 384.606C433.853 384.583 434.384 384.747 434.816 385.072C435.247 385.397 435.553 385.861 435.68 386.386L447.23 434.093C447.412 434.823 447.86 435.46 448.487 435.877C449.114 436.294 449.875 436.462 450.619 436.348L482.477 431.227C482.899 431.16 483.302 431.002 483.659 430.766C484.016 430.529 484.317 430.219 484.544 429.856C484.771 429.493 484.917 429.086 484.974 428.662C485.03 428.238 484.995 427.806 484.87 427.397L443.33 290.431C443.212 290.042 443.198 289.628 443.289 289.232L444.672 283.236C444.824 282.587 444.754 281.904 444.473 281.299C444.192 280.694 443.716 280.2 443.122 279.896C437.465 277.01 423.138 271.009 412.326 277.582C411.975 277.796 411.671 278.079 411.433 278.415C411.195 278.75 411.027 279.13 410.941 279.532L378.49 432.066C378.401 432.481 378.402 432.91 378.492 433.324C378.581 433.739 378.758 434.129 379.01 434.471C379.262 434.812 379.583 435.096 379.953 435.303C380.322 435.511 380.732 435.638 381.154 435.676L420.294 439.181C420.383 439.189 420.472 439.193 420.561 439.193C421.277 439.192 421.97 438.935 422.513 438.467C423.057 438 423.415 437.354 423.524 436.645L423.526 436.646Z" fill="#2F2E41"/>
<path d="M448.699 201.457C447.466 200.715 446.372 199.764 445.465 198.646C445.018 198.081 444.723 197.41 444.61 196.698C444.497 195.987 444.569 195.258 444.819 194.582C445.646 192.758 448.102 192.184 450.006 192.803C451.909 193.421 453.38 194.916 454.77 196.355C455.995 197.621 457.256 198.948 457.835 200.613C458.413 202.278 458.117 204.389 456.671 205.399C455.253 206.39 453.213 205.985 451.849 204.92C450.484 203.856 449.64 202.276 448.834 200.743L448.699 201.457Z" fill="#2F2E41"/>
<path d="M454.241 196.795C454.332 192.185 459.586 188.879 464.124 189.696C468.663 190.514 472.151 194.383 473.897 198.65C477.586 207.667 474.817 217.955 471.262 227.029C467.708 236.103 463.308 245.308 463.827 255.037C464.178 260.296 465.943 265.362 468.934 269.7C471.926 274.039 476.034 277.489 480.824 279.686C475.702 282.007 469.581 279.609 465.277 275.99C455.719 267.952 452.03 253.642 456.51 241.986C458.719 236.236 462.614 231.317 465.654 225.96C468.694 220.603 470.925 214.29 469.355 208.334C467.785 202.377 461.105 197.556 455.394 199.86L454.241 196.795Z" fill="#2F2E41"/>
<path d="M436.869 220.278C438.296 217.867 439.734 214.703 437.128 212.596C436.561 212.159 435.913 211.839 435.22 211.656C434.528 211.473 433.807 211.43 433.098 211.53C430.159 211.884 426.958 212.03 424.113 210.962C423.046 210.595 422.064 210.017 421.224 209.263C420.385 208.509 419.706 207.594 419.227 206.572C417.761 203.092 419.597 198.863 422.667 196.663C424.546 195.366 426.765 194.653 429.047 194.612C431.33 194.572 433.573 195.206 435.496 196.436C439.473 194.679 444.297 195.461 447.911 197.879C451.524 200.297 453.996 204.169 455.339 208.304C456.576 211.864 456.789 215.699 455.954 219.373C455.281 221.929 454.003 224.285 452.227 226.243C450.451 228.2 448.23 229.701 445.751 230.617C444.785 230.998 443.737 231.119 442.71 230.967C441.684 230.815 440.715 230.396 439.901 229.751C439.901 229.751 437.646 227.783 436.941 225.412C436.398 223.588 436.108 221.565 436.869 220.278Z" fill="#2F2E41"/>
<path d="M388.334 234.877C388.415 235.237 388.469 235.602 388.493 235.97L417.108 252.479L424.063 248.475L431.478 258.182L419.854 266.468C418.915 267.138 417.783 267.485 416.63 267.457C415.477 267.428 414.364 267.027 413.459 266.312L383.949 243.032C382.617 243.526 381.166 243.602 379.79 243.25C378.414 242.899 377.177 242.137 376.244 241.066C375.311 239.994 374.727 238.664 374.569 237.252C374.41 235.84 374.686 234.414 375.358 233.163C376.03 231.911 377.068 230.894 378.332 230.247C379.596 229.599 381.028 229.352 382.436 229.538C383.844 229.725 385.163 230.335 386.215 231.289C387.268 232.243 388.006 233.494 388.33 234.877H388.334Z" fill="#FFB8B8"/>
<path d="M418.065 253.261L427.314 265.248C427.577 265.589 427.91 265.869 428.291 266.069C428.672 266.27 429.092 266.385 429.522 266.409C429.952 266.433 430.381 266.363 430.782 266.206C431.183 266.049 431.545 265.807 431.843 265.497L442.313 254.624C444.085 253.306 445.26 251.337 445.58 249.152C445.901 246.967 445.34 244.744 444.022 242.972C442.703 241.201 440.735 240.025 438.55 239.705C436.365 239.384 434.142 239.945 432.371 241.264C432.28 241.331 432.191 241.4 432.103 241.471L418.972 248.814C418.597 249.024 418.27 249.313 418.016 249.661C417.762 250.009 417.586 250.407 417.499 250.829C417.413 251.251 417.419 251.687 417.516 252.107C417.613 252.526 417.8 252.92 418.063 253.261L418.065 253.261Z" fill="#A0616A"/>
<path d="M82.4017 281.83C82.0749 281.98 81.7606 282.155 81.4618 282.354L51.5843 269.602L50.5185 261.731L38.5801 261.658L39.2855 279.711L78.7206 290.142C78.8037 290.416 78.9034 290.685 79.0191 290.947C79.5892 292.163 80.5062 293.185 81.6548 293.882C82.8033 294.579 84.1323 294.921 85.4748 294.866C86.8173 294.81 88.1134 294.359 89.2004 293.569C90.2873 292.779 91.1167 291.686 91.5843 290.426C92.0519 289.167 92.1369 287.797 91.8286 286.489C91.5203 285.181 90.8324 283.993 89.8514 283.075C88.8704 282.157 87.64 281.549 86.3147 281.328C84.9894 281.107 83.6283 281.282 82.4023 281.832L82.4017 281.83Z" fill="#A0616A"/>
<path d="M34.2382 445.416H42.4049L46.2898 413.913H34.2368L34.2382 445.416Z" fill="#A0616A"/>
<path d="M48.2384 443.082H32.4883V452.996H58.1551C58.1551 450.366 57.1103 447.843 55.2506 445.983C53.3908 444.123 50.8684 443.079 48.2384 443.079V443.082Z" fill="#2F2E41"/>
<path d="M2.47681 443.108L10.6036 443.907L17.5587 412.938L5.56367 411.76L2.47681 443.108Z" fill="#A0616A"/>
<path d="M16.6431 442.16L0.971838 440.616L0 450.484L25.5378 452.999C25.6654 451.703 25.5366 450.395 25.1586 449.149C24.7807 447.903 24.161 446.744 23.335 445.737C22.509 444.731 21.4928 443.896 20.3445 443.283C19.1962 442.669 17.9389 442.287 16.6431 442.16Z" fill="#2F2E41"/>
<path d="M31.9647 228.318C41.0006 228.318 48.3256 220.993 48.3256 211.956C48.3256 202.92 41.0006 195.594 31.9647 195.594C22.9288 195.594 15.6038 202.92 15.6038 211.956C15.6038 220.993 22.9288 228.318 31.9647 228.318Z" fill="#A0616A"/>
<path d="M44.2303 439.045C44.9324 439.047 45.6125 438.8 46.1506 438.349C46.6887 437.898 47.0502 437.272 47.1712 436.58C51.3952 413.118 65.2155 336.387 65.5459 334.26C65.5533 334.211 65.5569 334.162 65.5565 334.112V328.391C65.5571 328.183 65.4921 327.98 65.3707 327.81L63.5455 325.254C63.4587 325.131 63.3449 325.029 63.2128 324.957C63.0807 324.885 62.9338 324.844 62.7834 324.837C52.3771 324.35 18.2964 322.919 16.6497 324.976C14.9963 327.042 15.5839 333.308 15.7171 334.543L15.7104 334.671L0.399341 432.599C0.279404 433.38 0.47183 434.177 0.934974 434.817C1.39812 435.457 2.09472 435.889 2.87403 436.02L12.437 437.595C13.1493 437.71 13.8789 437.565 14.4932 437.187C15.1075 436.808 15.5657 436.222 15.7844 435.535C18.742 426.083 28.6601 394.287 32.0973 381.983C32.1193 381.906 32.1686 381.839 32.2361 381.795C32.3036 381.751 32.3847 381.733 32.4644 381.744C32.5442 381.755 32.6171 381.795 32.6698 381.856C32.7224 381.917 32.7512 381.995 32.7508 382.076C32.5789 393.804 32.1639 423.727 32.018 434.062L32.0027 435.175C31.9964 435.929 32.273 436.657 32.7778 437.217C33.2826 437.776 33.979 438.126 34.7292 438.197L43.9505 439.032C44.0435 439.041 44.1369 439.045 44.2303 439.045Z" fill="#2F2E41"/>
<path d="M42.3483 234.752C45.2034 236.45 46.912 239.569 47.8926 242.746C49.7076 248.623 50.8001 254.698 51.146 260.839L52.1825 279.225L65.0089 327.969C53.8918 337.377 47.4796 335.238 32.5142 327.544C17.5488 319.85 15.8395 330.109 15.8395 330.109L12.8473 288.635L8.57202 243.313C9.53185 242.158 10.6182 241.113 11.8108 240.2C15.7624 237.126 20.3601 234.989 25.2574 233.951C30.1547 232.912 35.2239 232.999 40.0828 234.204L42.3483 234.752Z" fill="#E6E6E6"/>
<path d="M46.5144 291.674C46.1696 291.803 45.8355 291.959 45.5152 292.141L15.9722 277.352L15.4819 269.34L3.29563 268.5L2.64282 286.762L42.1219 299.819C42.444 301.202 43.1797 302.455 44.2311 303.41C45.2825 304.365 46.5999 304.978 48.0078 305.166C49.4158 305.354 50.8476 305.109 52.1128 304.463C53.3781 303.818 54.4168 302.802 55.0908 301.552C55.7647 300.301 56.042 298.875 55.8857 297.463C55.7293 296.051 55.1469 294.72 54.2157 293.648C53.2846 292.575 52.0489 291.811 50.673 291.458C49.2972 291.105 47.8464 291.179 46.5137 291.67L46.5144 291.674Z" fill="#A0616A"/>
<path d="M8.78524 243.517C1.51706 246.083 0.236084 273.877 0.236084 273.877C8.78724 269.174 19.0484 276.871 19.0484 276.871C19.0484 276.871 21.186 269.601 23.7513 260.195C24.5259 257.549 24.6185 254.75 24.0206 252.059C23.4226 249.367 22.1535 246.871 20.3313 244.802C20.3313 244.802 16.0541 240.95 8.78524 243.517Z" fill="#E6E6E6"/>
<path d="M17.2976 216.284C19.336 214.653 22.1171 217.616 22.1171 217.616L23.7478 202.94C23.7478 202.94 33.9396 204.161 40.4638 202.532C46.9879 200.903 48.0064 208.444 48.0064 208.444C48.3427 205.398 48.4109 202.328 48.2102 199.27C47.8026 195.601 42.5028 191.931 33.1256 189.485C23.7485 187.039 18.8564 197.64 18.8564 197.64C12.3296 200.901 15.2566 217.915 17.2976 216.284Z" fill="#2F2E41"/>
</g>
<defs>
<clipPath id="clip0_15_243">
<rect width="485" height="453" fill="white"/>
</clipPath>
</defs>
</svg>
