<svg width="675" height="647" viewBox="0 0 675 647" fill="none" xmlns="http://www.w3.org/2000/svg">
<g clip-path="url(#clip0_121_218)">
<path d="M6.85078e-05 289C-0.10043 357.219 24.0303 423.257 68.09 475.34C69.69 477.24 71.3201 479.11 72.98 480.97C92.5149 502.94 115.271 521.818 140.47 536.96C146.25 540.43 152.157 543.7 158.19 546.77C158.8 547.08 159.42 547.39 160.03 547.69C160.76 548.06 161.5 548.42 162.24 548.78C177.507 556.253 193.41 562.35 209.76 567C211.46 567.48 213.163 567.947 214.87 568.4C236.378 574.091 258.471 577.275 280.71 577.89C281.87 577.92 283.01 577.94 284.11 577.96C284.5 577.97 284.88 577.98 285.26 577.98C286.51 577.99 287.75 578 289 578C312.436 578.017 335.787 575.187 358.54 569.57C360.82 569.01 363.09 568.42 365.35 567.8C377.254 564.55 388.936 560.532 400.32 555.77C406.32 553.27 412.213 550.573 418 547.68C419.31 547.02 420.62 546.36 421.91 545.68C422.46 545.41 423 545.12 423.54 544.84C454.382 528.562 482.04 506.862 505.19 480.78C506.79 478.99 508.36 477.17 509.91 475.34C552.39 425.03 674.071 350.252 674.071 279.252C674.071 183.772 531.7 108.86 460.32 56.24C458.68 55.03 457.03 53.83 455.36 52.66C455.03 52.43 454.7 52.2 454.37 51.97C425.027 31.416 392.092 16.5427 357.27 8.11999C355.29 7.62999 353.31 7.16999 351.31 6.73999C313.593 -1.51032 274.613 -2.19351 236.63 4.72999C234.64 5.09999 232.65 5.47999 230.67 5.88999C196.16 12.9685 163.245 26.3342 133.57 45.32C132.91 45.74 132.25 46.16 131.59 46.6C130.26 47.46 128.93 48.34 127.62 49.23C88.3093 75.6583 56.1057 111.354 33.8495 153.168C11.5934 194.983 -0.031537 241.631 6.85078e-05 289Z" fill="#F2F2F2"/>
<path d="M362.17 436.21C362.125 436.823 362.322 437.429 362.72 437.898C363.119 438.366 363.685 438.659 364.297 438.714L454.37 446.71L455.36 446.8V52.6598C455.03 52.4298 454.7 52.1998 454.37 51.9698C435.119 38.5045 414.295 27.4425 392.36 19.0298L387.64 84.1298L387.21 90.0898L382.54 154.65L381.1 174.51L362.17 436.21Z" fill="#E6E6E6"/>
<path d="M133.57 45.3199C132.91 45.7399 132.25 46.1599 131.59 46.5999V446.8L133.57 446.62L224.94 438.51L224.77 436.21L205.84 174.51L204.4 154.65L199.73 90.0899L199.3 84.1299L194.35 15.8599C173.003 23.2592 152.603 33.1474 133.57 45.3199Z" fill="#E6E6E6"/>
<path d="M131.59 46.5998C130.26 47.4598 128.93 48.3398 127.62 49.2298V452.26C127.62 462.33 133.59 470.77 141.57 472.92C142.874 473.273 144.219 473.451 145.57 473.45H442.37C443.718 473.452 445.06 473.274 446.36 472.92C449.326 472.097 452.015 470.487 454.14 468.26C458.193 463.927 460.409 458.192 460.32 452.26V56.2398C458.68 55.0298 457.03 53.8298 455.36 52.6598C455.03 52.4298 454.7 52.1998 454.37 51.9698V452.26C454.372 453.557 454.218 454.85 453.91 456.11C452.5 462.06 447.85 466.42 442.37 466.42H145.57C138.95 466.42 133.57 460.07 133.57 452.26V45.3198C132.91 45.7398 132.25 46.1598 131.59 46.5998Z" fill="#E6E6E6"/>
<path d="M457.345 84.1338H130.593V90.0928H457.345V84.1338Z" fill="#E6E6E6"/>
<path d="M357.27 8.12023C355.29 7.63023 353.31 7.17023 351.31 6.74023V168.55H357.27V8.12023Z" fill="#E6E6E6"/>
<path d="M236.63 4.72998C234.64 5.09998 232.65 5.47998 230.67 5.88998V168.55H236.63V4.72998Z" fill="#E6E6E6"/>
<path d="M66.53 463.02C66.5286 466.439 67.1838 469.827 68.4601 473C68.9502 474.23 69.5353 475.42 70.2101 476.56C71.0815 478.046 72.0928 479.446 73.23 480.74C75.7422 483.603 78.8366 485.896 82.3064 487.467C85.7761 489.039 89.5412 489.851 93.35 489.85H484.66C491.773 489.85 498.595 487.024 503.625 481.995C508.654 476.965 511.48 470.143 511.48 463.03C511.48 455.917 508.654 449.095 503.625 444.065C498.595 439.036 491.773 436.21 484.66 436.21H93.35C86.2408 436.217 79.4246 439.044 74.3967 444.07C69.3688 449.096 66.5397 455.911 66.53 463.02Z" fill="#E6E6E6"/>
<path d="M130.593 174.512L455.359 174.512V154.649L130.593 154.649V174.512Z" fill="#E6E6E6"/>
<path d="M306.88 159.615H279.071C279.071 156.717 280.222 153.939 282.271 151.89C284.32 149.841 287.099 148.69 289.996 148.69H295.955C298.852 148.69 301.631 149.841 303.68 151.89C305.729 153.939 306.88 156.717 306.88 159.615Z" fill="#E6E6E6"/>
<path d="M577.551 360.752H494.59C493.525 360.751 492.503 360.327 491.75 359.574C490.996 358.82 490.572 357.798 490.571 356.733V260.772C490.571 258.764 517.421 242.161 528.965 235.116C531.099 233.79 533.561 233.088 536.074 233.088C538.586 233.089 541.049 233.792 543.182 235.119C554.721 242.161 581.571 258.764 581.571 260.772V356.733C581.57 357.798 581.146 358.82 580.392 359.574C579.639 360.327 578.617 360.751 577.551 360.752Z" fill="#CCCCCC"/>
<path d="M586.501 244.512L571.241 213.402C571.005 212.923 570.656 212.508 570.224 212.194C569.792 211.881 569.289 211.677 568.761 211.602C568.761 211.602 568.761 211.592 568.751 211.602C568.388 211.552 568.02 211.562 567.661 211.632C567.377 211.692 567.102 211.786 566.841 211.912L516.591 236.552L516.521 236.592C516.007 236.856 515.571 237.252 515.259 237.738C514.946 238.224 514.768 238.785 514.741 239.362C514.713 239.912 514.826 240.459 515.071 240.952L523.361 257.852L526.251 263.752L528.711 268.752H544.521L554.721 263.752L584.981 248.912C585.766 248.53 586.367 247.852 586.652 247.027C586.937 246.202 586.883 245.297 586.501 244.512Z" fill="white"/>
<path d="M586.501 244.512L571.241 213.402C571.005 212.923 570.656 212.508 570.224 212.194C569.792 211.881 569.289 211.677 568.761 211.602C568.761 211.602 568.761 211.592 568.751 211.602C568.388 211.552 568.02 211.562 567.661 211.632C567.377 211.692 567.102 211.786 566.841 211.912L516.591 236.552L516.521 236.592C516.007 236.856 515.571 237.252 515.259 237.738C514.946 238.224 514.768 238.785 514.741 239.362C514.713 239.912 514.826 240.459 515.071 240.952L523.361 257.852L526.251 263.752L528.711 268.752H544.521L554.721 263.752L584.981 248.912C585.766 248.53 586.367 247.852 586.652 247.027C586.937 246.202 586.883 245.297 586.501 244.512ZM581.921 247.032C576.561 249.762 562.271 256.942 548.381 263.752C548.201 263.842 548.011 263.932 547.831 264.022C546.401 264.732 545.731 265.052 545.481 265.172C545.711 265.042 546.211 264.782 546.291 264.732C546.261 264.722 545.821 264.922 544.461 265.562C542.132 266.661 539.538 267.074 536.983 266.753C534.428 266.433 532.016 265.392 530.031 263.752C528.586 262.555 527.41 261.066 526.581 259.382L525.291 256.742L517.941 241.762L517.061 239.972C516.999 239.845 516.962 239.706 516.954 239.565C516.946 239.424 516.965 239.282 517.012 239.148C517.058 239.014 517.131 238.891 517.225 238.785C517.319 238.68 517.433 238.594 517.561 238.532L517.711 238.462L567.811 213.882C567.938 213.82 568.076 213.783 568.218 213.774C568.359 213.766 568.501 213.785 568.635 213.832C568.769 213.878 568.892 213.951 568.998 214.045C569.104 214.14 569.19 214.254 569.251 214.382L570.501 216.942L583.281 242.972C583.627 243.693 583.679 244.52 583.425 245.278C583.171 246.036 582.631 246.665 581.921 247.032Z" fill="#7C69DB"/>
<path d="M532.955 253.158L571.241 234.38C571.579 234.215 571.857 233.949 572.039 233.619C572.221 233.289 572.296 232.911 572.255 232.537L570.077 213.141C570.05 212.903 569.977 212.673 569.86 212.464C569.744 212.255 569.588 212.07 569.4 211.922C569.212 211.773 568.997 211.663 568.767 211.598C568.537 211.533 568.296 211.514 568.058 211.542C567.852 211.566 567.65 211.625 567.463 211.717L516.072 236.81L516.069 236.812C515.797 236.943 515.562 237.14 515.386 237.384C515.209 237.629 515.096 237.914 515.057 238.214C515.018 238.513 515.054 238.817 515.162 239.099C515.27 239.381 515.447 239.632 515.676 239.828L530.96 252.909C531.232 253.141 531.566 253.288 531.92 253.332C532.275 253.377 532.635 253.316 532.955 253.158Z" fill="#7C69DB"/>
<path d="M553.475 248.14C555.735 247.032 556.673 244.313 555.571 242.066C554.469 239.819 551.744 238.896 549.485 240.004C547.226 241.112 546.287 243.832 547.389 246.079C548.491 248.326 551.216 249.249 553.475 248.14Z" fill="#3F3D56"/>
<path d="M525.742 256.412C524.6 257.355 523.264 258.036 521.83 258.406C520.396 258.777 518.898 258.829 517.442 258.559C515.986 258.288 514.606 257.702 513.401 256.84C512.196 255.979 511.194 254.864 510.467 253.574L465.615 269.663L417.549 258.107L426.25 237.863L462.56 249.577L514.903 239.327C517.152 238.249 519.718 238.033 522.115 238.72C524.513 239.407 526.575 240.949 527.911 243.055C529.247 245.161 529.764 247.684 529.365 250.146C528.965 252.607 527.676 254.837 525.742 256.412Z" fill="#FFB6B6"/>
<path d="M386.272 248.632C395.011 251.095 442.526 268.079 455.131 268.166C455.522 269.889 456.475 271.433 457.841 272.554C459.206 273.676 460.905 274.311 462.671 274.361L465.777 248.346C461.885 243.864 458.688 246.206 457.179 247.984L442.044 239.426L386.3 213.24C383.884 212.105 381.209 211.635 378.551 211.879C375.892 212.123 373.347 213.071 371.177 214.626C369.327 215.956 367.804 217.69 366.722 219.695C365.641 221.701 365.03 223.926 364.936 226.203C364.841 228.479 365.266 230.748 366.177 232.836C367.088 234.924 368.463 236.778 370.196 238.257C375.619 242.916 381.652 247.33 386.272 248.632Z" fill="#7C69DB"/>
<path d="M246.939 418.496C247.736 424.368 251.728 429.668 256.862 433.129C258.086 433.956 259.376 434.678 260.721 435.288C262.2 435.955 263.725 436.515 265.284 436.961C272.126 438.961 279.519 439.047 286.712 439.087C293.986 439.133 301.257 439.18 308.525 439.226C314.258 439.26 320.176 439.26 325.47 437.061C325.549 437.032 325.626 436.999 325.702 436.961C330.903 434.716 335.333 429.781 335.207 424.135C335.156 422.146 334.594 420.204 333.573 418.496C332.898 417.349 332.086 416.287 331.155 415.334C328.273 412.345 324.274 410.001 320.528 408.114C314.351 405.012 307.37 400.987 305.563 394.611C305.372 393.94 305.243 393.253 305.178 392.558C304.753 388.174 306.885 384.143 309.601 380.536C309.867 380.177 310.146 379.818 310.432 379.46C311.043 378.696 311.674 377.945 312.298 377.228C312.564 376.923 312.83 376.61 313.102 376.298C315.613 373.389 318.143 370.28 319.465 366.806C320.034 365.352 320.351 363.811 320.402 362.25C320.548 356.611 314.244 350.932 309.475 353.595C307.137 353.369 304.799 353.137 302.461 352.898C299.592 352.612 296.735 352.326 293.873 352.034H293.866C293.222 351.981 292.591 351.915 291.96 351.848C286.002 351.257 280.048 350.661 274.099 350.061C271.455 349.802 268.347 349.703 266.626 351.735C264.753 353.954 265.723 357.461 267.576 359.699C269.429 361.931 272 363.512 273.74 365.823C274.799 367.328 275.535 369.035 275.902 370.838C276.269 372.64 276.259 374.499 275.872 376.298C275.686 377.374 275.406 378.432 275.035 379.46C274.385 381.295 273.484 383.032 272.358 384.621C268.453 390.094 262.667 393.867 257.533 398.204C252.392 402.548 247.583 408.061 246.879 414.743C246.859 414.936 246.839 415.135 246.832 415.334C246.758 416.389 246.793 417.449 246.939 418.496Z" fill="#E6E6E6"/>
<path d="M288.71 357.676C293.893 352.556 298.308 346.713 301.817 340.328C305.316 333.976 307.9 327.162 309.493 320.087C311.108 312.907 311.643 305.527 311.08 298.189C309.913 283.245 304.391 268.971 295.197 257.132C294.636 256.412 294.061 255.703 293.472 255.004C292.817 254.224 291.702 255.348 292.354 256.123C301.735 267.373 307.613 281.126 309.259 295.682C310.45 306.805 309.121 318.053 305.37 328.591C301.618 339.13 295.542 348.688 287.591 356.557C286.865 357.273 287.984 358.392 288.71 357.676Z" fill="#E6E6E6"/>
<path d="M295.835 258.476C295.194 258.236 294.567 257.962 293.956 257.656C293.925 257.703 293.895 257.752 293.864 257.799L295.835 258.476Z" fill="#E6E6E6"/>
<path d="M300.193 243.772C299.846 240.038 298.029 236.383 294.567 234.644C292.735 233.623 290.586 233.325 288.546 233.81C286.505 234.295 284.721 235.527 283.544 237.263C283.382 237.551 283.317 237.883 283.359 238.211C283.402 238.539 283.549 238.844 283.779 239.081C284.29 239.712 284.806 240.339 285.318 240.969C285.648 241.375 286.24 241.858 286.153 242.45C286.027 243.306 285.039 243.237 284.263 243.117C284.108 243.063 283.944 243.037 283.78 243.041C283.725 243.032 283.664 243.022 283.617 243.016C283.22 243.019 282.84 243.178 282.559 243.459C282.279 243.739 282.12 244.119 282.117 244.516C282.117 244.649 282.135 244.78 282.17 244.908L282.171 244.915C283.013 248.966 285.116 252.646 288.177 255.43C289.586 256.764 291.173 257.897 292.893 258.796C293.07 258.931 293.274 259.028 293.49 259.082C293.707 259.136 293.932 259.145 294.153 259.109C294.373 259.073 294.583 258.993 294.772 258.873C294.96 258.753 295.122 258.596 295.248 258.412C295.88 257.52 296.453 256.589 296.965 255.623C299.014 252.042 300.583 247.967 300.193 243.772Z" fill="#E6E6E6"/>
<path d="M325.071 251.745C323.774 251.544 322.478 251.343 321.181 251.141C322.44 249.895 323.852 248.814 325.383 247.924C325.611 247.794 325.801 247.605 325.931 247.378C326.062 247.15 326.129 246.891 326.126 246.629C325.812 243.762 324.56 241.197 321.863 239.873C320.651 239.262 319.302 238.975 317.946 239.04C316.591 239.106 315.275 239.521 314.127 240.245C312.767 241.32 311.578 242.594 310.6 244.026C309.309 245.612 308.008 247.194 306.813 248.855C304.41 251.999 302.836 255.696 302.235 259.607C301.683 263.934 302.493 268.326 304.553 272.171C304.723 274.379 304.891 276.588 305.059 278.797C305.066 279.058 305.139 279.314 305.273 279.538C305.407 279.763 305.596 279.95 305.823 280.08C306.05 280.21 306.307 280.28 306.568 280.282C306.83 280.284 307.087 280.219 307.316 280.092C312.474 277.563 316.907 273.77 320.204 269.067C323.501 264.363 325.554 258.902 326.173 253.191C326.174 252.862 326.066 252.543 325.867 252.281C325.668 252.02 325.389 251.831 325.071 251.745Z" fill="#E6E6E6"/>
<path d="M307.868 320.41C308.386 320.437 308.904 320.45 309.415 320.444C313.836 320.416 318.204 319.485 322.251 317.709C326.299 315.933 329.942 313.349 332.955 310.115C335.395 307.443 337.357 304.372 338.754 301.035C338.708 301.028 338.668 301.022 338.621 301.015C336.469 300.683 334.31 300.344 332.158 300.012C334.444 297.034 337.482 294.718 340.959 293.303C341.43 290.302 341.465 287.248 341.066 284.237C336.203 292.161 324.839 292.799 317.658 298.697C314.234 301.551 311.9 305.5 311.049 309.876C310.837 310.957 310.724 312.055 310.711 313.157C310.704 313.423 310.704 313.682 310.711 313.941L310.551 314.299L307.868 320.41Z" fill="#E6E6E6"/>
<path d="M302.127 319.175C300.512 315.331 299.262 310.72 294.802 309.409C292.888 308.857 290.836 309.046 289.056 309.94C287.276 310.835 285.899 312.367 285.199 314.233C285.13 314.489 285.129 314.758 285.196 315.014C285.264 315.271 285.398 315.504 285.585 315.692C286.083 316.304 286.581 316.916 287.078 317.529C286.463 317.556 285.845 317.563 285.224 317.542C284.897 317.544 284.579 317.653 284.318 317.852C284.057 318.05 283.868 318.328 283.778 318.643C283.232 320.89 282.915 323.186 282.831 325.497C282.678 326.343 282.83 327.216 283.26 327.96C283.937 328.896 284.666 329.792 285.446 330.644C286.213 331.586 286.98 332.529 287.745 333.473C287 333.505 286.253 333.502 285.503 333.463C285.273 333.466 285.047 333.521 284.841 333.624C284.635 333.727 284.456 333.876 284.316 334.059C284.177 334.242 284.081 334.455 284.036 334.681C283.991 334.906 283.998 335.14 284.057 335.362C285.864 341.679 289.43 347.353 294.34 351.72C294.528 351.899 294.759 352.027 295.011 352.092C295.263 352.157 295.527 352.156 295.778 352.09C296.03 352.024 296.26 351.894 296.447 351.713C296.634 351.532 296.772 351.307 296.847 351.058C296.929 350.823 297.04 350.583 297.099 350.342C297.109 350.305 297.121 350.268 297.135 350.232C297.095 350.297 297.038 350.384 296.967 350.489C297.063 350.346 297.145 350.194 297.212 350.035C297.349 349.722 297.447 349.385 297.563 349.065C298.038 347.749 298.513 346.434 298.988 345.119C299.041 344.971 299.09 344.819 299.149 344.673C299.195 344.67 299.24 344.658 299.281 344.636C299.701 344.443 300.166 343.63 300.459 343.254C300.87 342.73 301.262 342.192 301.622 341.632C302.957 339.53 303.904 337.207 304.419 334.771C305.586 329.334 304.239 324.202 302.127 319.175Z" fill="#E6E6E6"/>
<path d="M297.135 350.232C297.328 349.922 297.215 350.027 297.135 350.232Z" fill="#E6E6E6"/>
<path d="M23.8726 629.292L31.5826 616.902L33.1226 623.982C33.3926 625.222 33.6625 626.482 33.9125 627.732C36.1025 625.862 38.4325 624.132 40.7123 622.472C47.7123 617.392 54.7091 612.305 61.7026 607.212L59.5126 619.912C58.1625 627.732 56.7524 635.712 53.4125 642.862C53.0424 643.672 52.6425 644.472 52.2123 645.252H19.6724C19.4106 644.527 19.2295 643.776 19.1324 643.012C19.1242 642.962 19.121 642.912 19.1226 642.862C18.6123 638.012 21.2925 633.442 23.8726 629.292Z" fill="#F0F0F0"/>
<path d="M518.269 627.292L510.559 614.902L509.019 621.982C508.749 623.222 508.479 624.482 508.229 625.732C506.039 623.862 503.709 622.132 501.429 620.472C494.429 615.392 487.433 610.305 480.439 605.212L482.629 617.912C483.979 625.732 485.389 633.712 488.729 640.862C489.099 641.672 489.499 642.472 489.929 643.252H522.469C522.731 642.527 522.912 641.776 523.009 641.012C523.017 640.962 523.021 640.912 523.019 640.862C523.529 636.012 520.849 631.442 518.269 627.292Z" fill="#F0F0F0"/>
<path d="M563.269 627.292L555.559 614.902L554.019 621.982C553.749 623.222 553.479 624.482 553.229 625.732C551.039 623.862 548.709 622.132 546.429 620.472C539.429 615.392 532.433 610.305 525.439 605.212L527.629 617.912C528.979 625.732 530.389 633.712 533.729 640.862C534.099 641.672 534.499 642.472 534.929 643.252H567.469C567.731 642.527 567.912 641.776 568.009 641.012C568.017 640.962 568.021 640.912 568.019 640.862C568.529 636.012 565.849 631.442 563.269 627.292Z" fill="#F0F0F0"/>
<path d="M564.071 263.752H508.071C507.408 263.752 506.772 264.015 506.303 264.484C505.834 264.953 505.571 265.589 505.571 266.252C505.571 266.915 505.834 267.551 506.303 268.02C506.772 268.489 507.408 268.752 508.071 268.752H564.071C564.734 268.752 565.37 268.489 565.839 268.02C566.307 267.551 566.571 266.915 566.571 266.252C566.571 265.589 566.307 264.953 565.839 264.484C565.37 264.015 564.734 263.752 564.071 263.752Z" fill="white"/>
<path d="M498.071 319.252C500.28 319.252 502.071 317.461 502.071 315.252C502.071 313.043 500.28 311.252 498.071 311.252C495.862 311.252 494.071 313.043 494.071 315.252C494.071 317.461 495.862 319.252 498.071 319.252Z" fill="white"/>
<path d="M415.131 195.663L380.939 192.703L369.128 209.108L355.128 354.108L422.766 359.44L453.073 367.825L415.131 195.663Z" fill="#3F3D56"/>
<path d="M351.254 631.983L364.223 631.982L370.393 581.957L351.252 581.958L351.254 631.983Z" fill="#FFB6B6"/>
<path d="M347.946 627.748L351.596 627.748L365.848 621.952L373.487 627.747C377.804 627.748 381.945 629.463 384.998 632.515C388.05 635.567 389.765 639.707 389.765 644.024V644.553L347.946 644.555L347.946 627.748Z" fill="#2F2E41"/>
<path d="M401.513 623.81L414.164 626.666L431.202 579.229L412.53 575.014L401.513 623.81Z" fill="#FFB6B6"/>
<path d="M399.219 618.951L402.78 619.755L417.959 617.241L424.133 624.576C428.344 625.527 432.006 628.112 434.311 631.762C436.616 635.412 437.377 639.828 436.426 644.039L436.31 644.555L395.518 635.345L399.219 618.951Z" fill="#2F2E41"/>
<path d="M334.828 326.156C328.747 344.496 329.39 364.402 336.289 385.768L339.239 506.061C334.363 511.427 333.617 559.441 341.128 575.108C351.158 596.03 341.934 598.826 349.024 612.706H369.589L379.093 549.826L379.77 498.857C382.502 492.39 380.259 469.632 380.259 469.632L381.049 422.441L418.128 505.109C401.329 519.487 402.841 565.934 402.564 586.535L397.056 610.845L422.366 613.107L433.535 580.141L446.093 559.826C452.493 523.83 454.39 497.404 448.934 486.61L411.712 348.123L334.828 326.156Z" fill="#2F2E41"/>
<path d="M330.703 327.135C330.774 328.607 331.078 330.059 331.603 331.435C331.663 331.605 331.723 331.765 331.793 331.935C333.027 334.885 335.218 337.333 338.013 338.885C338.836 339.349 339.704 339.727 340.603 340.015L348.393 341.265L415.383 351.975L418.073 343.885L413.003 331.205L416.363 320.305L417.123 214.685V214.605L404.953 195.195L404.853 182.925L370.873 182.095L367.183 191.455L359.893 195.815C343.733 205.475 337.913 223.165 338.263 241.995C343.833 263.565 339.733 287.545 335.583 313.255L332.193 320.035C331.095 322.235 330.581 324.68 330.703 327.135Z" fill="#7C69DB"/>
<path opacity="0.2" d="M330.703 327.135C330.774 328.607 331.078 330.059 331.603 331.435L338.013 338.885C338.836 339.349 339.704 339.727 340.603 340.015L348.393 341.265L337.123 320.075L361.893 265.845L330.703 327.135Z" fill="black"/>
<path d="M401.375 194.415L367.183 191.455C357.417 195.919 348.981 202.85 342.707 211.565C336.433 220.279 332.536 230.477 331.4 241.156L320.128 347.108L392.766 359.44L423.073 367.825L401.375 194.415Z" fill="#3F3D56"/>
<path d="M359.826 147.745C360.965 156.056 365.357 163.574 372.036 168.647C378.715 173.721 387.136 175.936 395.447 174.805C403.758 173.673 411.28 169.289 416.361 162.615C421.441 155.94 423.664 147.522 422.541 139.21L422.48 138.761C421.168 130.56 416.686 123.204 410 118.278C403.313 113.352 394.958 111.253 386.738 112.431C378.517 113.61 371.089 117.973 366.056 124.58C361.024 131.186 358.789 139.505 359.836 147.744L359.826 147.745Z" fill="#FFB8B8"/>
<path d="M367.88 164.046C366.255 160.744 364.586 157.2 365.042 153.549C365.499 149.898 369.08 146.408 372.596 147.493C374.698 148.142 376.287 150.218 378.485 150.324C381.509 150.471 383.243 147.01 384.184 144.132L388.018 132.413C391.699 135.282 395.968 137.303 400.52 138.332C405.072 139.36 409.795 139.371 414.352 138.364C417.912 137.55 421.507 135.964 423.595 132.969C425.683 129.973 425.671 125.327 422.807 123.062C421.403 121.952 419.534 121.53 418.192 120.345C417.36 119.61 416.786 118.626 416.556 117.54C416.326 116.453 416.452 115.322 416.915 114.312C417.378 113.303 418.154 112.469 419.128 111.935C420.101 111.401 421.221 111.195 422.321 111.346L412.669 110.14L415.545 104.938C413.473 106.572 410.589 106.792 407.992 106.324C405.395 105.857 402.949 104.787 400.409 104.074C388.213 100.651 374.039 106.603 367.943 117.707C365.568 116.914 363.008 116.861 360.602 117.556C358.196 118.251 356.058 119.66 354.471 121.597C351.888 124.876 351.185 129.253 351.085 133.427C350.897 141.657 352.691 149.811 356.317 157.202C357.356 159.549 358.85 161.668 360.712 163.436C361.649 164.313 362.767 164.974 363.987 165.373C365.206 165.772 366.499 165.899 367.773 165.745" fill="#A0616A"/>
<path d="M394.066 357.049L329.18 344.973L350.038 232.898C350.831 228.638 352.455 224.575 354.818 220.942C357.181 217.31 360.237 214.178 363.81 211.726C367.383 209.274 371.404 207.55 375.644 206.652C379.884 205.754 384.258 205.7 388.519 206.493C392.779 207.286 396.842 208.91 400.475 211.273C404.107 213.636 407.239 216.692 409.691 220.265C412.143 223.838 413.867 227.859 414.765 232.099C415.663 236.338 415.717 240.713 414.924 244.974L394.066 357.049ZM333.844 341.773L390.865 352.385L410.991 244.242C411.69 240.497 411.645 236.651 410.857 232.924C410.069 229.197 408.554 225.661 406.4 222.52C404.245 219.378 401.493 216.691 398.3 214.614C395.106 212.536 391.535 211.108 387.79 210.411C384.045 209.714 380.199 209.762 376.472 210.551C372.745 211.341 369.211 212.857 366.07 215.014C362.929 217.17 360.244 219.924 358.168 223.118C356.092 226.312 354.666 229.884 353.971 233.63L333.844 341.773Z" fill="#CCCCCC"/>
<path d="M313.641 392.124L386.525 407.951C390.686 408.854 394.791 406.214 395.694 402.053L406.352 352.972C407.255 348.811 404.615 344.706 400.454 343.803L327.57 327.977C323.41 327.073 319.305 329.713 318.401 333.874L307.744 382.956C306.84 387.116 309.481 391.221 313.641 392.124Z" fill="#CCCCCC"/>
<path d="M355.861 345.242V360.362L356.631 360.532L357.571 360.742L383.511 366.492H383.531L391.471 368.252H391.811C392.086 368.253 392.358 368.197 392.611 368.089C392.864 367.981 393.092 367.822 393.281 367.622C393.623 367.252 393.813 366.766 393.811 366.262V345.242C393.813 344.934 393.742 344.63 393.603 344.355C393.463 344.08 393.261 343.842 393.011 343.662C392.972 343.62 392.929 343.583 392.881 343.552C392.732 343.466 392.574 343.396 392.411 343.342C392.396 343.334 392.378 343.33 392.361 343.332C392.357 343.328 392.352 343.325 392.347 343.324C392.342 343.322 392.336 343.321 392.331 343.322C392.161 343.278 391.986 343.254 391.811 343.252H357.821C357.41 343.251 357.009 343.384 356.681 343.632C356.426 343.816 356.219 344.058 356.076 344.338C355.934 344.618 355.86 344.928 355.861 345.242Z" fill="white"/>
<path d="M355.861 345.242V360.362L356.631 360.532L357.571 360.742C357.478 360.451 357.404 360.153 357.351 359.852C357.333 359.79 357.319 359.726 357.311 359.662C357.239 359.229 357.202 358.791 357.201 358.352V345.242C357.203 345.068 357.273 344.903 357.397 344.781C357.521 344.659 357.687 344.591 357.861 344.592H391.811C391.984 344.591 392.151 344.659 392.275 344.781C392.398 344.903 392.469 345.068 392.471 345.242V364.562C392.466 365.048 392.273 365.513 391.931 365.858C391.589 366.203 391.127 366.402 390.641 366.412C389.951 366.422 389.041 366.432 387.961 366.442C386.701 366.462 385.201 366.482 383.531 366.492L391.471 368.252H391.811C392.086 368.253 392.358 368.197 392.611 368.089C392.864 367.981 393.092 367.822 393.281 367.622C393.623 367.252 393.813 366.766 393.811 366.262V345.242C393.813 344.934 393.742 344.63 393.603 344.355C393.463 344.08 393.261 343.842 393.011 343.662C392.972 343.62 392.929 343.583 392.881 343.552C392.732 343.466 392.574 343.396 392.411 343.342C392.396 343.334 392.378 343.33 392.361 343.332C392.357 343.328 392.352 343.325 392.347 343.324C392.342 343.322 392.336 343.321 392.331 343.322C392.161 343.278 391.986 343.254 391.811 343.252H357.821C357.41 343.251 357.009 343.384 356.681 343.632C356.426 343.816 356.219 344.058 356.076 344.338C355.934 344.618 355.86 344.928 355.861 345.242ZM355.861 358.912V359.332L357.311 359.662C357.239 359.229 357.202 358.791 357.201 358.352V357.632C356.761 358.072 356.311 358.492 355.861 358.912Z" fill="#7C69DB"/>
<path d="M362.338 356.668H388.207C388.435 356.668 388.658 356.598 388.845 356.467C389.032 356.336 389.174 356.15 389.252 355.936L393.247 344.789C393.296 344.653 393.317 344.508 393.31 344.363C393.302 344.218 393.266 344.076 393.204 343.945C393.141 343.814 393.053 343.696 392.945 343.599C392.837 343.502 392.711 343.428 392.574 343.38C392.455 343.337 392.33 343.316 392.203 343.316L357.509 343.254H357.508C357.325 343.253 357.144 343.298 356.982 343.384C356.821 343.47 356.683 343.595 356.582 343.748C356.481 343.9 356.419 344.076 356.403 344.258C356.386 344.441 356.416 344.624 356.488 344.792L361.318 356C361.404 356.199 361.547 356.368 361.728 356.487C361.909 356.606 362.121 356.669 362.338 356.668Z" fill="#7C69DB"/>
<path d="M374.855 359.417C376.382 359.417 377.619 358.186 377.619 356.668C377.619 355.15 376.382 353.919 374.855 353.919C373.328 353.919 372.091 355.15 372.091 356.668C372.091 358.186 373.328 359.417 374.855 359.417Z" fill="#3F3D56"/>
<path d="M328.341 354.272L328.981 354.412L330.221 354.682L342.971 357.512L354.631 360.092L355.861 360.362L356.631 360.532L357.351 359.852L357.511 359.702L361.351 356.062L370.761 347.152C371.104 346.828 371.321 346.393 371.372 345.923C371.424 345.454 371.306 344.982 371.041 344.592C370.986 344.497 370.919 344.409 370.841 344.332L369.841 343.272L369.821 343.252L356.391 329.072C356.175 328.842 355.906 328.668 355.609 328.564C355.311 328.46 354.993 328.428 354.681 328.472C354.647 328.471 354.614 328.474 354.581 328.482C354.366 328.524 354.16 328.602 353.971 328.712C353.825 328.79 353.691 328.888 353.571 329.002L328.911 352.352L328.891 352.372C328.643 352.61 328.463 352.91 328.371 353.242C328.341 353.322 328.331 353.392 328.311 353.452C328.271 353.725 328.281 354.003 328.341 354.272Z" fill="white"/>
<path d="M328.341 354.272L328.981 354.412L330.221 354.682L329.801 354.242C329.715 354.15 329.658 354.034 329.636 353.91C329.615 353.785 329.63 353.658 329.681 353.542C329.714 353.458 329.765 353.383 329.831 353.322L354.491 329.972C354.553 329.912 354.626 329.865 354.706 329.835C354.786 329.804 354.871 329.789 354.957 329.792C355.043 329.795 355.127 329.815 355.205 329.851C355.283 329.887 355.353 329.938 355.411 330.002L356.611 331.262L367.961 343.252L367.981 343.272L368.701 344.032C368.855 344.194 368.977 344.384 369.061 344.592C369.2 344.934 369.234 345.309 369.159 345.671C369.084 346.032 368.904 346.363 368.641 346.622C367.131 348.092 364.171 350.962 360.611 354.362C359.521 355.422 358.384 356.512 357.201 357.632C356.761 358.072 356.311 358.492 355.861 358.912C355.741 359.032 355.621 359.152 355.501 359.252C355.211 359.542 354.921 359.812 354.631 360.092L355.861 360.362L356.631 360.532L357.351 359.852L357.511 359.702L361.351 356.062L370.761 347.152C371.104 346.828 371.321 346.393 371.372 345.923C371.424 345.454 371.306 344.982 371.041 344.592C370.986 344.497 370.919 344.409 370.841 344.332L369.841 343.272L369.821 343.252L356.391 329.072C356.175 328.842 355.906 328.668 355.609 328.564C355.311 328.46 354.993 328.428 354.681 328.472C354.647 328.471 354.614 328.474 354.581 328.482C354.366 328.524 354.16 328.602 353.971 328.712C353.825 328.79 353.691 328.888 353.571 329.002L328.911 352.352L328.891 352.372C328.643 352.61 328.463 352.91 328.371 353.242C328.341 353.322 328.331 353.392 328.311 353.452C328.271 353.725 328.281 354.003 328.341 354.272Z" fill="#7C69DB"/>
<path d="M328.311 353.402V353.452C328.322 353.714 328.429 353.963 328.611 354.152C328.716 354.262 328.842 354.35 328.981 354.412L330.221 354.682L342.971 357.512L343.861 356.672L348.471 352.302L352.491 348.502L355.861 345.302L356.471 344.732L358.031 343.252L360.171 341.222C360.338 341.066 360.453 340.862 360.5 340.638C360.546 340.414 360.522 340.182 360.431 339.972L356.611 331.262L355.671 329.132C355.587 328.939 355.448 328.774 355.273 328.656C355.097 328.539 354.892 328.475 354.681 328.472C354.647 328.471 354.614 328.474 354.581 328.482C354.452 328.483 354.326 328.514 354.211 328.572C354.124 328.606 354.044 328.654 353.971 328.712C353.941 328.732 353.921 328.762 353.891 328.782L328.911 352.352L328.891 352.372L328.661 352.592C328.497 352.773 328.383 352.993 328.331 353.232C328.314 353.287 328.307 353.344 328.311 353.402Z" fill="#7C69DB"/>
<path d="M352.37 352.4C353.478 351.35 353.531 349.605 352.487 348.503C351.443 347.401 349.698 347.358 348.59 348.408C347.481 349.458 347.429 351.202 348.473 352.304C349.516 353.407 351.261 353.449 352.37 352.4Z" fill="#3F3D56"/>
<path d="M325.551 353.652L328.341 354.272L328.981 354.412L330.221 354.682L342.971 357.512L354.631 360.092L355.861 360.362L356.631 360.532L357.571 360.742L383.511 366.492H383.531L391.471 368.252L395.221 369.082L404.081 351.052L403.181 350.612L394.671 367.932L393.281 367.622L387.961 366.442L357.511 359.702L357.311 359.662L355.861 359.332L355.501 359.252L343.861 356.672L329.681 353.542L328.371 353.242L328.331 353.232L326.591 352.852L327.571 333.272L326.571 333.232L325.551 353.652Z" fill="#CCCCCC"/>
<path d="M674.762 645.748C674.762 645.904 674.732 646.059 674.672 646.204C674.613 646.348 674.525 646.48 674.414 646.59C674.304 646.701 674.172 646.788 674.028 646.848C673.883 646.908 673.728 646.938 673.572 646.938H1.28192C0.966314 646.938 0.663628 646.812 0.44046 646.589C0.217292 646.366 0.0919189 646.063 0.0919189 645.748C0.0919189 645.432 0.217292 645.129 0.44046 644.906C0.663628 644.683 0.966314 644.558 1.28192 644.558H673.572C673.728 644.557 673.883 644.588 674.028 644.647C674.172 644.707 674.304 644.795 674.414 644.905C674.525 645.016 674.613 645.147 674.672 645.292C674.732 645.436 674.762 645.591 674.762 645.748Z" fill="#CCCCCC"/>
<path d="M398.338 379.606C397.079 378.826 396.007 377.779 395.197 376.539C394.386 375.299 393.857 373.896 393.648 372.43C393.438 370.963 393.552 369.469 393.983 368.052C394.413 366.634 395.149 365.328 396.139 364.226L366.541 326.882L362.107 277.646L384.071 279.41L384.594 317.56L411.055 363.87C412.797 365.655 413.823 368.017 413.939 370.508C414.055 373 413.254 375.447 411.686 377.387C410.119 379.326 407.894 380.624 405.434 381.033C402.974 381.442 400.449 380.934 398.338 379.606Z" fill="#FFB6B6"/>
<path d="M361.074 244.982C361.537 254.049 360.652 304.501 364.604 316.471C363.097 317.392 361.94 318.79 361.314 320.442C360.688 322.094 360.63 323.908 361.149 325.597L386.789 320.214C389.79 315.092 386.547 312.813 384.38 311.952L387.645 294.875L394.613 233.682C394.915 231.03 394.504 228.345 393.423 225.904C392.341 223.463 390.628 221.355 388.46 219.798C386.608 218.471 384.478 217.582 382.232 217.2C379.986 216.817 377.682 216.95 375.495 217.589C373.308 218.228 371.295 219.356 369.608 220.888C367.921 222.42 366.604 224.315 365.758 226.431C363.08 233.059 360.829 240.188 361.074 244.982Z" fill="#7C69DB"/>
</g>
<defs>
<clipPath id="clip0_121_218">
<rect width="674.762" height="646.938" fill="white"/>
</clipPath>
</defs>
</svg>
