<svg width="597" height="506" viewBox="0 0 597 506" fill="none" xmlns="http://www.w3.org/2000/svg">
<g clip-path="url(#clip0_86_873)">
<path d="M575.427 413.696H21.4851C9.63843 413.696 0 404.058 0 392.211V325.54H596.912V392.211C596.912 404.058 587.274 413.696 575.427 413.696Z" fill="#E6E6E6"/>
<path d="M370.149 402.544H228.887V503.445H370.149V402.544Z" fill="#E6E6E6"/>
<path d="M378.646 490.7H220.39V503.445H378.646V490.7Z" fill="#E6E6E6"/>
<path d="M596.381 353.686H0V14.7442C0 6.6144 6.6144 0 14.7442 0H581.637C589.767 0 596.381 6.6144 596.381 14.7442V353.686Z" fill="#3F3D56"/>
<path d="M582.042 15.4007H13.8076V335.099H582.042V15.4007Z" fill="white"/>
<path d="M123.853 205.949C128.202 202.356 133.581 201.687 135.868 204.455C138.154 207.223 136.482 212.379 132.131 215.974C130.412 217.433 128.369 218.46 126.173 218.969L107.553 233.962L100.703 225.075L119.786 211.237C120.7 209.175 122.094 207.362 123.853 205.949Z" fill="#FFB6B6"/>
<path d="M16.2322 239.779C16.2228 239.116 16.229 233.332 20.5111 229.676C25.43 225.477 32.3709 227.177 34.8053 227.773C40.4289 229.15 40.8902 231.562 46.1713 234.041C56.0518 238.679 43.6719 236.305 49.5511 234.818C51.5862 234.303 80.8633 232.273 88.1509 227.787C102.324 219.064 111.982 213.774 111.982 213.774L118.295 226.4C118.295 226.4 109.166 239.094 96.3179 248.497C83.1386 258.143 76.549 262.966 66.5345 264.83C65.6721 264.99 44.4622 268.612 27.3794 255.849C23.4828 252.938 16.3435 247.604 16.2322 239.779Z" fill="#2B876B"/>
<path d="M35.8164 207.667C47.9626 207.667 57.809 197.821 57.809 185.675C57.809 173.529 47.9626 163.682 35.8164 163.682C23.6702 163.682 13.8237 173.529 13.8237 185.675C13.8237 197.821 23.6702 207.667 35.8164 207.667Z" fill="#FFB6B6"/>
<path d="M208.055 333.43L185.405 310.246L173.713 322.442L190.588 344.671L207.326 346.586L208.055 333.43Z" fill="#FFB6B6"/>
<path d="M78.7257 289.954C80.0504 290.064 84.2603 290.908 88.2841 288.694C91.0303 287.183 92.4387 284.936 92.9144 284.222C98.8158 275.359 121.467 261.538 141.795 260.687C146.399 260.494 149.429 261.028 152.183 262.464C156.089 264.499 157.648 267.415 162.603 274.246C165.314 277.983 168.314 281.503 171.057 285.216C187.119 306.952 193.208 308.659 192.586 315.627C191.896 323.359 183.557 330.694 178.015 329.847C175.745 329.501 174.866 327.922 171.834 324.727C162.943 315.36 159.264 317.09 152.934 309.915C145.544 301.538 146.511 294.592 142.655 294.324C139.08 294.075 137.56 300.001 129.926 307.872C126.433 311.474 123.946 313.126 116.368 318.384C86.857 338.857 86.3861 340.295 80.4305 341.928C77.8248 342.642 59.3309 347.713 52.7429 339.644C42.4334 327.017 66.7888 288.962 78.7257 289.954Z" fill="#2F2E41"/>
<path d="M201.13 338.669C202.796 337.921 204.744 337.047 205.37 335.035C205.794 333.674 205.55 331.996 204.674 330.837C203.663 329.499 202.166 329.323 202.226 329.086C202.318 328.726 205.858 328.866 209.743 330.24C210.477 330.499 213.798 331.713 218.024 335.012C221.409 337.654 220.953 338.184 223.076 339.708C229.593 344.386 235.704 340.699 239.23 345.086C240.591 346.779 241.172 349.183 240.599 351.127C239.449 355.03 233.856 356.373 230.799 357.067C223.438 358.737 217.866 357.373 212.048 356.393C192.261 353.059 181.144 356.095 179.656 351.511C179.374 350.644 179.832 350.718 181.357 344.351C182.863 338.067 182.814 336.342 184.096 335.838C186.027 335.081 187.323 338.526 192.186 339.706C196.495 340.75 200.051 339.154 201.13 338.669Z" fill="#2F2E41"/>
<path d="M167.787 409.275L162.065 377.372L145.542 380.899L147.022 408.768L159.797 419.751L167.787 409.275Z" fill="#FFB6B6"/>
<path d="M85.1873 300.678C86.2216 301.513 89.2315 304.574 93.8042 305.002C96.9249 305.294 99.3518 304.226 100.147 303.902C110.007 299.882 136.51 301.165 153.809 311.876C157.726 314.302 159.934 316.445 161.407 319.179C163.495 323.057 163.148 326.345 163.413 334.781C163.557 339.395 164.063 343.992 164.248 348.605C165.333 375.61 169.413 380.441 164.985 385.858C160.072 391.867 149.053 393.255 144.943 389.442C143.26 387.88 143.418 386.081 142.703 381.735C140.607 368.991 136.591 368.357 135.382 358.865C133.971 347.784 138.672 342.579 135.632 340.192C132.813 337.978 128.228 342.028 117.492 344.255C112.579 345.274 109.593 345.244 100.37 345.339C64.4551 345.708 63.2575 346.634 57.4126 344.641C54.8554 343.769 36.7055 337.579 35.7851 327.203C34.3448 310.966 75.867 293.154 85.1873 300.678Z" fill="#2F2E41"/>
<path d="M159.116 409.722C160.914 410.038 163.017 410.408 164.665 409.096C165.78 408.208 166.52 406.682 166.446 405.231C166.36 403.556 165.221 402.569 165.404 402.407C165.683 402.161 168.532 404.265 170.976 407.583C171.437 408.21 173.504 411.079 175.148 416.181C176.465 420.269 175.791 420.452 176.691 422.905C179.457 430.435 186.584 430.816 187.038 436.426C187.214 438.591 186.344 440.906 184.779 442.193C181.635 444.777 176.253 442.748 173.335 441.605C166.306 438.853 162.461 434.596 158.197 430.518C143.697 416.648 132.792 412.918 134.135 408.289C134.389 407.413 134.727 407.731 139.564 403.32C144.339 398.966 145.267 397.51 146.61 397.814C148.633 398.271 147.771 401.85 151.133 405.556C154.112 408.841 157.95 409.516 159.116 409.722Z" fill="#2F2E41"/>
<path d="M38.8148 189.879C39.6709 186.817 38.5955 185.7 39.6916 184.326C39.6916 184.326 40.1327 183.772 44.076 182.28C42.9126 175.529 43.7837 174.388 43.7837 174.388C44.7877 173.072 46.7989 172.754 48.1681 172.926C51.0639 173.29 51.5765 175.908 53.4294 175.849C55.989 175.768 59.0589 170.644 58.1061 166.204C57.3288 162.581 53.9773 159.891 53.1371 160.358C52.3041 160.821 49.3054 158.78 48.1681 159.188C47.3915 159.468 43.7358 159.096 42.9069 159.481C42.0016 159.901 39.4092 162.516 39.1614 162.186C37.439 159.897 37.4757 159.097 36.4764 158.604C34.7057 157.73 32.7807 159.346 29.4614 160.942C22.6318 164.227 20.632 162.268 17.4774 165.034C15.8838 166.432 15.0293 169.103 13.3853 174.388C11.0861 181.779 9.93659 185.474 11.047 189.002C12.1793 192.601 13.8469 191.818 16.3082 196.894C19.0481 202.545 18.1037 205.83 20.6926 207.124C22.6935 208.125 25.909 207.488 27.1231 205.663C29.2017 202.538 23.8291 198.311 25.6616 193.387C26.7864 190.364 30.2564 188.072 32.3843 188.71C34.7904 189.432 34.9676 193.746 36.4764 193.679C37.7685 193.622 38.6656 190.413 38.8148 189.879Z" fill="#2F2E41"/>
<path d="M22.1539 210.924C26.6543 205.878 44.9858 211.101 46.7064 219.108C47.4141 222.402 44.8015 223.793 45.5373 227.585C46.6134 233.132 52.7064 232.754 57.229 238.4C63.6497 246.416 57.035 254.252 64.244 267.629C65.7844 270.488 67.0828 272.897 69.7975 275.229C76.0271 280.579 81.8247 278.744 84.9968 283.705C87.3689 287.415 86.3942 291.987 86.1659 293.059C85.2298 297.451 82.6925 298.521 80.9047 302.12C77.9301 308.107 81.298 312.503 81.4893 319.657C81.7285 328.608 76.9719 341.016 67.4592 345.087C56.7721 349.66 43.8826 342.085 37.6454 334.564C33.9235 330.076 32.8432 325.936 31.2149 320.826C23.938 297.989 19.8268 300.054 14.2619 281.951C7.90024 261.256 6.64961 237.011 14.2619 229.339C15.2709 228.322 18.0477 225.971 19.8155 221.739C22.1944 216.044 20.1393 213.183 22.1539 210.924Z" fill="#2B876B"/>
<path d="M88.6533 328.391C92.1426 332.824 92.6834 338.218 89.8617 340.438C87.0399 342.659 81.9248 340.864 78.4349 336.429C77.0165 334.676 76.0385 332.609 75.5826 330.401L61.0356 311.43L68.5523 305.697L83.4638 324.2C85.5035 325.163 87.283 326.6 88.6533 328.391Z" fill="#FFB6B6"/>
<path d="M35.3773 230.155C36.0245 230.011 41.6881 228.837 46.1407 232.283C51.2556 236.241 51.0078 243.383 50.9209 245.888C50.7202 251.674 48.4527 252.618 47.1037 258.294C44.5799 268.913 49.3862 278.781 52.0416 284.233C52.9608 286.12 55.9137 291.895 61.7917 298.114C73.2238 310.209 83.4241 316.574 83.4241 316.574L72.4661 326.314C72.4661 326.314 55.0112 320.994 43.1838 310.335C31.0516 299.401 12.3944 260.716 8.52675 251.293C8.19367 250.481 12.9117 263.675 21.9202 244.347C23.975 239.938 27.7399 231.861 35.3773 230.155Z" fill="#2B876B"/>
<path d="M315.838 221.081L302.754 214.884C308.12 222.373 312.744 234.069 315.22 243.376C319.411 234.706 326.168 224.098 332.856 217.762L319.028 221.319C327.549 179.559 359.598 149.58 396.298 149.58L396.818 148.072C358.483 148.072 324.538 177.635 315.838 221.081Z" fill="#3F3D56"/>
<path d="M376.057 284.71H293.389C289.883 284.71 287.03 281.857 287.03 278.351C287.03 274.845 289.883 271.992 293.389 271.992H376.057C379.563 271.992 382.416 274.845 382.416 278.351C382.416 281.857 379.563 284.71 376.057 284.71Z" fill="#2B876B"/>
<path d="M486.057 284.71H403.389C399.883 284.71 397.03 281.857 397.03 278.351C397.03 274.845 399.883 271.992 403.389 271.992H486.057C489.563 271.992 492.416 274.845 492.416 278.351C492.416 281.857 489.563 284.71 486.057 284.71Z" fill="#E6E6E6"/>
<path d="M437.118 111.717H356.761C354.735 111.717 353.087 110.069 353.087 108.043C353.087 106.017 354.735 104.37 356.761 104.37H437.118C439.144 104.37 440.792 106.017 440.792 108.043C440.792 110.069 439.144 111.717 437.118 111.717Z" fill="#3F3D56"/>
<path d="M480.239 150.915H313.641C311.615 150.915 309.966 149.267 309.966 147.241C309.966 145.215 311.615 143.568 313.641 143.568H480.239C482.264 143.568 483.912 145.215 483.912 147.241C483.912 149.267 482.264 150.915 480.239 150.915Z" fill="#3F3D56"/>
<path d="M36.1211 504.385C36.1211 505.045 36.6511 505.575 37.3112 505.575H559.601C560.261 505.575 560.791 505.045 560.791 504.385C560.791 503.725 560.261 503.195 559.601 503.195H37.3112C36.6511 503.195 36.1211 503.725 36.1211 504.385Z" fill="#3F3D56"/>
<path d="M164.369 222.296C164.227 222.296 164.086 222.291 163.944 222.282C155.575 221.745 126.939 217.693 109.844 188.134C108.435 185.701 108.712 182.607 110.534 180.436L142.194 142.714C143.489 141.172 145.489 140.283 147.514 140.307C148.914 140.341 152.229 140.694 152.873 143.25C156.676 158.346 172.736 176.097 192.05 178.449C194.008 178.687 195.579 180.434 196.254 183.121C196.78 185.213 196.294 187.369 194.919 189.037L169.557 219.835C168.268 221.399 166.378 222.296 164.369 222.296ZM147.393 141.825C145.845 141.825 144.341 142.518 143.357 143.69L111.697 181.412C110.284 183.095 110.068 185.491 111.158 187.374C127.876 216.281 155.863 220.242 164.042 220.767C165.712 220.879 167.316 220.167 168.385 218.87L193.747 188.072C194.812 186.78 195.189 185.111 194.782 183.491C194.383 181.905 193.408 180.144 191.866 179.956C171.914 177.526 155.326 159.203 151.4 143.62C151.082 142.359 149.168 141.866 147.483 141.826C147.453 141.825 147.423 141.825 147.393 141.825Z" fill="#3F3D56"/>
<path d="M129.03 189.376L151.855 166.103C153.415 164.512 150.971 162.064 149.409 163.656L126.583 186.93C125.023 188.52 127.467 190.969 129.03 189.376Z" fill="#E6E6E6"/>
<path d="M142.806 195.933C149.106 190.286 154.58 183.749 159.062 176.575C160.246 174.682 157.254 172.943 156.075 174.829C151.741 181.764 146.449 188.028 140.36 193.486C138.698 194.976 141.152 197.416 142.806 195.933Z" fill="#E6E6E6"/>
<path d="M155.222 203.784C160.958 197.431 165.84 190.34 169.684 182.691C170.681 180.707 167.698 178.953 166.697 180.945C162.983 188.335 158.319 195.198 152.776 201.338C151.287 202.987 153.727 205.441 155.222 203.784Z" fill="#E6E6E6"/>
<path d="M145.443 161.885C158.153 161.885 168.456 151.799 168.456 139.357C168.456 126.915 158.153 116.829 145.443 116.829C132.734 116.829 122.431 126.915 122.431 139.357C122.431 151.799 132.734 161.885 145.443 161.885Z" fill="#2B876B"/>
<path d="M157.417 150.043C153.878 141.342 150.339 132.64 146.8 123.938C146.311 122.736 144.78 122.694 144.303 123.938C140.806 133.061 138.52 142.581 137.422 152.287C137.235 153.94 139.826 153.927 140.011 152.287C140.441 148.489 141.08 144.719 141.899 140.989C144.815 141.142 147.756 140.815 150.57 140.036C152.02 143.601 153.47 147.166 154.92 150.732C155.54 152.255 158.046 151.589 157.417 150.043ZM142.486 138.429C143.358 134.859 144.404 131.331 145.617 127.86L149.586 137.618C147.262 138.228 144.884 138.499 142.486 138.429Z" fill="white"/>
</g>
<defs>
<clipPath id="clip0_86_873">
<rect width="596.912" height="505.575" fill="white"/>
</clipPath>
</defs>
</svg>
