<svg width="463" height="386" viewBox="0 0 463 386" fill="none" xmlns="http://www.w3.org/2000/svg">
<g clip-path="url(#clip0_15_578)">
<path d="M190.777 90.8318H188.675V33.2986C188.675 28.9258 187.813 24.5958 186.137 20.5558C184.462 16.5158 182.007 12.845 178.912 9.75289C175.817 6.66082 172.143 4.20806 168.099 2.53465C164.055 0.861243 159.72 -4.41981e-05 155.343 -3.05174e-05H33.3315C28.9544 -4.41981e-05 24.6201 0.861242 20.5761 2.53465C16.5321 4.20806 12.8577 6.66083 9.76256 9.7529C6.66744 12.845 4.21226 16.5158 2.53719 20.5558C0.86213 24.5958 -6.84708e-06 28.9258 0 33.2986V348.93C-4.10823e-06 353.303 0.862137 357.633 2.5372 361.673C4.21227 365.713 6.66745 369.384 9.76257 372.476C12.8577 375.568 16.5321 378.021 20.5761 379.694C24.6201 381.367 28.9544 382.229 33.3315 382.229H155.343C159.72 382.229 164.055 381.367 168.099 379.694C172.143 378.021 175.817 375.568 178.912 372.476C182.007 369.384 184.462 365.713 186.137 361.673C187.813 357.633 188.675 353.303 188.675 348.93V131.785H190.777V90.8318Z" fill="#E6E6E6"/>
<path d="M156.688 8.66315H140.762C141.494 10.457 141.774 12.4034 141.576 14.3306C141.378 16.2579 140.709 18.107 139.627 19.715C138.545 21.323 137.084 22.6405 135.373 23.5516C133.661 24.4626 131.752 24.9392 129.812 24.9394H59.9134C57.9742 24.9392 56.0647 24.4626 54.3532 23.5516C52.6417 22.6405 51.1807 21.323 50.099 19.715C49.0173 18.107 48.348 16.2579 48.1502 14.3306C47.9523 12.4034 48.2318 10.457 48.9643 8.66315H34.0888C30.82 8.66314 27.5832 9.30634 24.5632 10.556C21.5433 11.8057 18.7992 13.6374 16.4878 15.9465C14.1765 18.2556 12.343 20.9969 11.092 24.014C9.84112 27.031 9.19727 30.2646 9.19727 33.5302V348.698C9.19727 351.964 9.84111 355.198 11.092 358.215C12.3429 361.232 14.1764 363.973 16.4878 366.282C18.7992 368.591 21.5433 370.423 24.5632 371.673C27.5832 372.922 30.82 373.566 34.0888 373.566H156.688C159.957 373.566 163.194 372.922 166.214 371.673C169.234 370.423 171.978 368.591 174.289 366.282C176.601 363.973 178.434 361.232 179.685 358.215C180.936 355.198 181.58 351.964 181.58 348.698V33.5302C181.58 30.2646 180.936 27.031 179.685 24.014C178.434 20.9969 176.601 18.2556 174.289 15.9465C171.978 13.6374 169.234 11.8057 166.214 10.556C163.194 9.30634 159.957 8.66314 156.688 8.66315Z" fill="white"/>
<path d="M59.2683 72.7334H51.9483C51.6909 72.7334 51.444 72.8356 51.262 73.0174C51.08 73.1992 50.9778 73.4458 50.9778 73.703V76.9128C50.9778 77.1699 51.08 77.4165 51.262 77.5984C51.444 77.7802 51.6909 77.8823 51.9483 77.8823H53.1613V82.6917H58.0553V77.8823H59.2683C59.5257 77.8823 59.7725 77.7802 59.9545 77.5984C60.1365 77.4165 60.2388 77.1699 60.2388 76.9128V73.703C60.2388 73.4458 60.1365 73.1992 59.9545 73.0174C59.7725 72.8356 59.5257 72.7334 59.2683 72.7334Z" fill="#E6E6E6"/>
<path d="M66.6002 102.11C62.1172 95.5563 59.8254 87.7535 60.0532 79.8192C60.0572 79.6361 59.9978 79.4573 59.8848 79.3131C59.7719 79.1688 59.6125 79.0681 59.4336 79.0279V77.641H51.7027V79.0087H51.5962C51.3858 79.0089 51.1841 79.0927 51.0356 79.2415C50.887 79.3903 50.8037 79.592 50.804 79.8022C50.804 79.8214 50.8047 79.8407 50.8061 79.8599C51.4152 88.3416 49.3586 95.9478 44.6362 102.679C44.3645 103.065 44.2257 103.53 44.2406 104.002L45.0859 130.125C45.1062 130.708 45.351 131.26 45.7692 131.667C46.1874 132.073 46.7466 132.303 47.3302 132.308H64.8164C65.4066 132.303 65.9717 132.068 66.3911 131.653C66.8106 131.238 67.0513 130.676 67.062 130.087L67.3877 104.723C67.3974 103.792 67.1227 102.881 66.6002 102.11Z" fill="#E6E6E6"/>
<path d="M63.8321 110.787H48.6117C48.3864 110.787 48.1638 110.836 47.9591 110.93C47.7544 111.024 47.5724 111.161 47.4257 111.332C47.279 111.502 47.171 111.703 47.1092 111.919C47.0473 112.136 47.033 112.363 47.0672 112.585L49.3673 127.521H62.5743L65.368 112.636C65.4103 112.41 65.4023 112.178 65.3447 111.956C65.2871 111.734 65.1812 111.528 65.0346 111.351C64.8879 111.175 64.7042 111.032 64.4963 110.935C64.2885 110.837 64.0617 110.787 63.8321 110.787Z" fill="white"/>
<path d="M140.754 150.988H133.434C133.177 150.988 132.93 151.09 132.748 151.272C132.566 151.454 132.464 151.701 132.464 151.958V155.168C132.464 155.425 132.566 155.671 132.748 155.853C132.93 156.035 133.177 156.137 133.434 156.137H134.647V160.946H139.541V156.137H140.754C141.012 156.137 141.259 156.035 141.441 155.853C141.623 155.671 141.725 155.425 141.725 155.168V151.958C141.725 151.701 141.623 151.454 141.441 151.272C141.259 151.09 141.012 150.988 140.754 150.988Z" fill="#E6E6E6"/>
<path d="M148.086 180.364C143.603 173.811 141.312 166.008 141.539 158.074C141.543 157.891 141.484 157.712 141.371 157.568C141.258 157.424 141.099 157.323 140.92 157.283V155.896H133.189V157.263H133.082C132.978 157.264 132.875 157.284 132.779 157.324C132.683 157.364 132.595 157.423 132.522 157.496C132.448 157.57 132.39 157.657 132.35 157.754C132.31 157.85 132.29 157.953 132.29 158.057C132.29 158.076 132.291 158.095 132.292 158.115C132.901 166.596 130.845 174.203 126.122 180.933C125.851 181.32 125.712 181.785 125.727 182.257L126.572 208.38C126.592 208.963 126.837 209.515 127.255 209.922C127.673 210.328 128.233 210.558 128.816 210.562H146.302C146.893 210.558 147.458 210.323 147.877 209.908C148.297 209.493 148.537 208.931 148.548 208.341L148.874 182.978C148.883 182.047 148.609 181.135 148.086 180.364Z" fill="#E6E6E6"/>
<path d="M145.318 189.042H130.098C129.873 189.042 129.65 189.09 129.445 189.184C129.24 189.278 129.059 189.415 128.912 189.586C128.765 189.757 128.657 189.958 128.595 190.174C128.533 190.39 128.519 190.618 128.553 190.84L130.853 205.776H144.06L146.854 190.89C146.896 190.665 146.888 190.433 146.831 190.211C146.773 189.989 146.667 189.782 146.521 189.606C146.374 189.429 146.19 189.287 145.982 189.19C145.775 189.092 145.548 189.042 145.318 189.042Z" fill="white"/>
<path d="M48.9773 261.617H45.505C45.3829 261.617 45.2658 261.666 45.1795 261.752C45.0932 261.838 45.0447 261.955 45.0447 262.077V263.6C45.0447 263.722 45.0932 263.839 45.1795 263.925C45.2658 264.011 45.3829 264.06 45.505 264.06H46.0804V266.341H48.4019V264.06H48.9773C49.0993 264.06 49.2164 264.011 49.3028 263.925C49.3891 263.839 49.4376 263.722 49.4376 263.6V262.077C49.4376 261.955 49.3891 261.838 49.3028 261.752C49.2164 261.666 49.0993 261.617 48.9773 261.617Z" fill="#E6E6E6"/>
<path d="M52.4551 275.552C50.3286 272.443 49.2415 268.742 49.3495 264.978C49.3515 264.892 49.3232 264.807 49.2697 264.738C49.2161 264.67 49.1405 264.622 49.0556 264.603V263.945H45.3885V264.594H45.338C45.2886 264.594 45.2397 264.604 45.194 264.623C45.1484 264.642 45.1069 264.67 45.0721 264.704C45.0372 264.739 45.0095 264.781 44.9906 264.827C44.9718 264.872 44.9621 264.921 44.9622 264.97C44.9622 264.98 44.9625 264.989 44.9632 264.998C45.3017 268.838 44.2646 272.674 42.0366 275.822C41.9077 276.005 41.8418 276.225 41.8489 276.45L42.2499 288.841C42.2595 289.117 42.3756 289.379 42.574 289.572C42.7723 289.765 43.0376 289.874 43.3144 289.876H51.6089C51.8889 289.874 52.1569 289.763 52.3559 289.566C52.5549 289.369 52.669 289.102 52.6741 288.823L52.8286 276.792C52.8332 276.35 52.7029 275.918 52.4551 275.552Z" fill="#E6E6E6"/>
<path d="M51.2615 280.107H43.3472V284.06H51.2615V280.107Z" fill="white"/>
<path d="M65.1406 261.617H61.6684C61.5463 261.617 61.4292 261.666 61.3428 261.752C61.2565 261.838 61.208 261.955 61.208 262.077V263.6C61.208 263.722 61.2565 263.839 61.3428 263.925C61.4292 264.011 61.5463 264.06 61.6684 264.06H62.2438V266.341H64.5652V264.06H65.1406C65.2627 264.06 65.3798 264.011 65.4661 263.925C65.5524 263.839 65.6009 263.722 65.6009 263.6V262.077C65.6009 261.955 65.5524 261.838 65.4661 261.752C65.3798 261.666 65.2627 261.617 65.1406 261.617Z" fill="#E6E6E6"/>
<path d="M68.6184 275.552C66.4919 272.443 65.4048 268.742 65.5129 264.978C65.5148 264.892 65.4866 264.807 65.433 264.738C65.3794 264.67 65.3038 264.622 65.219 264.603V263.945H61.5519V264.594H61.5013C61.4519 264.594 61.403 264.604 61.3574 264.623C61.3117 264.642 61.2703 264.67 61.2354 264.704C61.2005 264.739 61.1728 264.781 61.154 264.827C61.1351 264.872 61.1255 264.921 61.1255 264.97C61.1255 264.98 61.1259 264.989 61.1266 264.998C61.465 268.838 60.4279 272.674 58.1999 275.822C58.071 276.005 58.0052 276.225 58.0122 276.45L58.4132 288.841C58.4228 289.117 58.5389 289.379 58.7373 289.572C58.9357 289.765 59.2009 289.874 59.4778 289.876H67.7723C68.0522 289.874 68.3203 289.763 68.5192 289.566C68.7182 289.369 68.8324 289.102 68.8375 288.823L68.992 276.792C68.9966 276.35 68.8663 275.918 68.6184 275.552Z" fill="#E6E6E6"/>
<path d="M67.4248 280.107H59.5105V284.06H67.4248V280.107Z" fill="white"/>
<path d="M81.3039 261.617H77.8317C77.7096 261.617 77.5925 261.666 77.5062 261.752C77.4198 261.838 77.3713 261.955 77.3713 262.077V263.6C77.3713 263.722 77.4198 263.839 77.5062 263.925C77.5925 264.011 77.7096 264.06 77.8317 264.06H78.4071V266.341H80.7285V264.06H81.3039C81.426 264.06 81.5431 264.011 81.6294 263.925C81.7158 263.839 81.7643 263.722 81.7643 263.6V262.077C81.7643 261.955 81.7158 261.838 81.6294 261.752C81.5431 261.666 81.426 261.617 81.3039 261.617Z" fill="#E6E6E6"/>
<path d="M84.7818 275.552C82.6553 272.443 81.5682 268.742 81.6762 264.978C81.6781 264.892 81.6499 264.807 81.5963 264.738C81.5428 264.67 81.4672 264.622 81.3823 264.603V263.945H77.7152V264.594H77.6646C77.6152 264.594 77.5663 264.604 77.5207 264.623C77.4751 264.642 77.4336 264.67 77.3987 264.704C77.3638 264.739 77.3362 264.781 77.3173 264.827C77.2985 264.872 77.2888 264.921 77.2889 264.97C77.2889 264.98 77.2892 264.989 77.2899 264.998C77.6284 268.838 76.5912 272.674 74.3632 275.822C74.2343 276.005 74.1685 276.225 74.1756 276.45L74.5765 288.841C74.5862 289.117 74.7023 289.379 74.9006 289.572C75.099 289.765 75.3643 289.874 75.6411 289.876H83.9356C84.2156 289.874 84.4836 289.763 84.6826 289.566C84.8815 289.369 84.9957 289.102 85.0008 288.823L85.1553 276.792C85.1599 276.35 85.0296 275.918 84.7818 275.552Z" fill="#E6E6E6"/>
<path d="M83.5881 280.107H75.6738V284.06H83.5881V280.107Z" fill="white"/>
<path d="M128.038 231.344H120.718C120.59 231.344 120.464 231.369 120.346 231.418C120.229 231.466 120.122 231.538 120.032 231.628C119.941 231.718 119.87 231.825 119.821 231.942C119.772 232.06 119.747 232.186 119.747 232.313V235.523C119.747 235.78 119.85 236.027 120.032 236.209C120.214 236.39 120.46 236.493 120.718 236.493H121.931V241.302H126.825V236.493H128.038C128.295 236.493 128.542 236.39 128.724 236.209C128.906 236.027 129.008 235.78 129.008 235.523V232.313C129.008 232.186 128.983 232.06 128.934 231.942C128.886 231.825 128.814 231.718 128.724 231.628C128.634 231.538 128.527 231.466 128.409 231.418C128.291 231.369 128.165 231.344 128.038 231.344Z" fill="#E6E6E6"/>
<path d="M135.37 260.72C130.887 254.167 128.595 246.364 128.823 238.429C128.827 238.246 128.767 238.068 128.654 237.923C128.541 237.779 128.382 237.678 128.203 237.638V236.251H120.472V237.619H120.366C120.262 237.619 120.158 237.64 120.062 237.68C119.966 237.72 119.879 237.778 119.805 237.852C119.732 237.925 119.673 238.013 119.633 238.109C119.594 238.205 119.573 238.308 119.573 238.412C119.574 238.432 119.574 238.451 119.576 238.47C120.185 246.952 118.128 254.558 113.406 261.289C113.134 261.676 112.995 262.14 113.01 262.612L113.855 288.735C113.876 289.318 114.121 289.87 114.539 290.277C114.957 290.684 115.516 290.913 116.1 290.918H133.586C134.176 290.913 134.741 290.678 135.161 290.263C135.58 289.849 135.821 289.286 135.832 288.697L136.157 263.334C136.167 262.403 135.892 261.491 135.37 260.72Z" fill="#E6E6E6"/>
<path d="M132.602 269.397H117.381C117.156 269.397 116.933 269.446 116.729 269.54C116.524 269.634 116.342 269.771 116.195 269.942C116.049 270.113 115.941 270.313 115.879 270.53C115.817 270.746 115.803 270.973 115.837 271.196L118.137 286.131H131.344L134.137 271.246C134.18 271.021 134.172 270.789 134.114 270.567C134.057 270.344 133.951 270.138 133.804 269.961C133.657 269.785 133.474 269.643 133.266 269.545C133.058 269.448 132.831 269.397 132.602 269.397Z" fill="white"/>
<path d="M132.034 135.671H88.3997C91.4503 119.193 90.7485 99.2964 88.3997 77.8987H132.034C129.748 99.2965 129.065 119.193 132.034 135.671Z" fill="#E6E6E6"/>
<path d="M110.48 115.713C116.287 115.713 120.994 111.01 120.994 105.209C120.994 99.4079 116.287 94.7051 110.48 94.7051C104.673 94.7051 99.9653 99.4079 99.9653 105.209C99.9653 111.01 104.673 115.713 110.48 115.713Z" fill="white"/>
<path d="M92.0795 212.35H48.4451C51.4957 195.872 50.7939 175.976 48.4451 154.578H92.0795C89.7932 175.976 89.11 195.873 92.0795 212.35Z" fill="#E6E6E6"/>
<path d="M70.5253 192.392C76.3322 192.392 81.0396 187.689 81.0396 181.888C81.0396 176.087 76.3322 171.384 70.5253 171.384C64.7184 171.384 60.011 176.087 60.011 181.888C60.011 187.689 64.7184 192.392 70.5253 192.392Z" fill="white"/>
<path d="M156.743 139.347H113.108C116.159 122.87 115.457 102.973 113.108 81.5751H156.743C154.457 102.973 153.773 122.87 156.743 139.347Z" fill="#E6E6E6"/>
<path d="M135.188 119.389C140.995 119.389 145.703 114.687 145.703 108.885C145.703 103.084 140.995 98.3815 135.188 98.3815C129.382 98.3815 124.674 103.084 124.674 108.885C124.674 114.687 129.382 119.389 135.188 119.389Z" fill="white"/>
<path d="M156.743 136.721H113.108C116.159 120.244 115.457 100.347 113.108 78.9491H156.743C154.457 100.347 153.773 120.244 156.743 136.721Z" fill="#E6E6E6"/>
<path d="M135.188 116.763C140.995 116.763 145.703 112.061 145.703 106.259C145.703 100.458 140.995 95.7555 135.188 95.7555C129.382 95.7555 124.674 100.458 124.674 106.259C124.674 112.061 129.382 116.763 135.188 116.763Z" fill="white"/>
<path d="M156.743 139.347H113.108C116.159 122.87 115.457 102.973 113.108 81.5751H156.743C154.457 102.973 153.773 122.87 156.743 139.347Z" fill="#E6E6E6"/>
<path d="M135.188 119.389C140.995 119.389 145.703 114.687 145.703 108.885C145.703 103.084 140.995 98.3815 135.188 98.3815C129.382 98.3815 124.674 103.084 124.674 108.885C124.674 114.687 129.382 119.389 135.188 119.389Z" fill="white"/>
<path d="M166.731 132.519H23.7366V148.275H166.731V132.519Z" fill="#E6E6E6"/>
<path d="M166.731 210.774H23.7366V226.53H166.731V210.774Z" fill="#E6E6E6"/>
<path d="M166.731 289.029H23.7366V304.785H166.731V289.029Z" fill="#E6E6E6"/>
<path d="M415.477 352.95L379.853 327.778C391.868 316.086 402.796 299.436 413.246 280.612L448.871 305.784C434.636 321.934 422.577 337.785 415.477 352.95Z" fill="#BDE0FE"/>
<path d="M415.487 326.15C421.294 326.15 426.001 321.447 426.001 315.646C426.001 309.845 421.294 305.142 415.487 305.142C409.68 305.142 404.973 309.845 404.973 315.646C404.973 321.447 409.68 326.15 415.487 326.15Z" fill="white"/>
<path d="M243.629 238.085H239.718C239.581 238.085 239.449 238.139 239.352 238.236C239.255 238.333 239.2 238.465 239.2 238.603V240.317C239.2 240.385 239.213 240.453 239.239 240.515C239.265 240.578 239.304 240.635 239.352 240.683C239.4 240.732 239.457 240.77 239.52 240.796C239.583 240.822 239.65 240.835 239.718 240.835H240.366V243.404H242.981V240.835H243.629C243.766 240.835 243.898 240.781 243.995 240.683C244.093 240.586 244.147 240.455 244.147 240.317V238.603C244.147 238.465 244.093 238.333 243.995 238.236C243.898 238.139 243.766 238.085 243.629 238.085Z" fill="#E6E6E6"/>
<path d="M247.546 253.778C245.151 250.277 243.927 246.109 244.048 241.87C244.05 241.772 244.019 241.677 243.958 241.599C243.898 241.522 243.813 241.469 243.717 241.447V240.706H239.587V241.437H239.53C239.475 241.437 239.42 241.448 239.368 241.469C239.317 241.491 239.27 241.522 239.231 241.561C239.192 241.601 239.16 241.647 239.139 241.699C239.118 241.75 239.107 241.805 239.107 241.861C239.107 241.871 239.108 241.881 239.108 241.892C239.49 246.217 238.321 250.537 235.812 254.082C235.667 254.288 235.593 254.536 235.601 254.789L236.052 268.744C236.063 269.055 236.194 269.35 236.418 269.568C236.641 269.785 236.94 269.907 237.251 269.91H246.593C246.908 269.907 247.21 269.782 247.434 269.56C247.658 269.339 247.787 269.038 247.792 268.723L247.966 255.174C247.972 254.677 247.825 254.19 247.546 253.778Z" fill="#BDE0FE"/>
<path opacity="0.2" d="M242.814 238.643C242.814 238.94 242.696 239.224 242.486 239.433C242.276 239.643 241.992 239.761 241.695 239.761C241.399 239.761 241.114 239.643 240.904 239.433C240.695 239.224 240.577 238.94 240.577 238.643" fill="black"/>
<path d="M245.726 256.467H237.841V261.719H245.726V256.467Z" fill="white"/>
<path d="M367.377 292.602H360.057C359.8 292.602 359.553 292.704 359.371 292.886C359.189 293.068 359.086 293.315 359.086 293.572V296.782C359.086 297.039 359.189 297.285 359.371 297.467C359.553 297.649 359.8 297.751 360.057 297.751H361.27V302.56H366.164V297.751H367.377C367.634 297.751 367.881 297.649 368.063 297.467C368.245 297.285 368.347 297.039 368.347 296.782V293.572C368.347 293.315 368.245 293.068 368.063 292.886C367.881 292.704 367.634 292.602 367.377 292.602Z" fill="#E6E6E6"/>
<path d="M374.709 321.978C370.226 315.425 367.934 307.622 368.162 299.688C368.166 299.505 368.106 299.326 367.993 299.182C367.881 299.038 367.721 298.937 367.542 298.897V297.51H359.811V298.877H359.705C359.601 298.878 359.498 298.898 359.401 298.938C359.305 298.978 359.218 299.037 359.144 299.11C359.071 299.184 359.012 299.271 358.973 299.368C358.933 299.464 358.912 299.567 358.913 299.671C358.913 299.69 358.913 299.709 358.915 299.729C359.524 308.21 357.467 315.817 352.745 322.547C352.473 322.934 352.334 323.398 352.349 323.871L353.195 349.994C353.215 350.576 353.46 351.129 353.878 351.535C354.296 351.942 354.855 352.172 355.439 352.176H372.925C373.515 352.172 374.08 351.937 374.5 351.522C374.919 351.107 375.16 350.545 375.171 349.955L375.496 324.592C375.506 323.661 375.231 322.749 374.709 321.978Z" fill="#BDE0FE"/>
<path opacity="0.2" d="M365.851 293.648C365.851 294.203 365.631 294.735 365.238 295.127C364.845 295.519 364.313 295.74 363.757 295.74C363.202 295.74 362.67 295.519 362.277 295.127C361.884 294.735 361.664 294.203 361.664 293.648" fill="black"/>
<path d="M371.941 330.656H356.72C356.495 330.656 356.272 330.704 356.068 330.798C355.863 330.892 355.681 331.029 355.534 331.2C355.388 331.371 355.28 331.572 355.218 331.788C355.156 332.004 355.142 332.232 355.176 332.454L357.476 347.39H370.683L373.477 332.504C373.519 332.279 373.511 332.047 373.453 331.825C373.396 331.603 373.29 331.396 373.143 331.22C372.997 331.043 372.813 330.901 372.605 330.804C372.397 330.706 372.17 330.656 371.941 330.656Z" fill="white"/>
<path d="M346.492 352.909H302.857C305.908 336.432 305.206 316.535 302.857 295.137H346.492C344.206 316.535 343.522 336.432 346.492 352.909Z" fill="#BDE0FE"/>
<path d="M324.938 332.951C330.745 332.951 335.452 328.249 335.452 322.447C335.452 316.646 330.745 311.943 324.938 311.943C319.131 311.943 314.423 316.646 314.423 322.447C314.423 328.249 319.131 332.951 324.938 332.951Z" fill="white"/>
<path d="M168.016 171.093L177.812 170.203L184.046 155.08L172.914 148.852L168.016 171.093Z" fill="#FFB8B8"/>
<path d="M257.914 212.611C258.24 211.8 258.368 210.922 258.288 210.052C258.207 209.181 257.921 208.342 257.453 207.604C256.984 206.865 256.347 206.249 255.593 205.804C254.839 205.36 253.99 205.102 253.116 205.05L237.907 204.144L235.668 211.583L251.325 215.879C252.633 216.238 254.028 216.103 255.243 215.5C256.459 214.898 257.409 213.869 257.914 212.611Z" fill="#FFB8B8"/>
<path d="M241.583 216.004L241.416 202.044L207.633 196.659L181.607 166.84C180.253 165.288 178.382 164.28 176.341 164.001C174.299 163.722 172.226 164.192 170.505 165.323C169.462 166.008 168.584 166.913 167.93 167.975C167.277 169.037 166.865 170.229 166.723 171.467C166.581 172.705 166.714 173.959 167.111 175.141C167.508 176.322 168.16 177.402 169.021 178.304L190.491 204.702L241.583 216.004Z" fill="#575A89"/>
<path d="M160.447 373.04H169.352L191.44 273.273L214.323 304.093L227.68 370.815H236.14L234.359 299.2L204.527 222.691H175.14C167.11 237.211 160.81 252.178 168.016 267.618L160.447 373.04Z" fill="#2F2E41"/>
<path d="M222.221 379.099C222.123 379.414 222.093 379.746 222.133 380.074C222.173 380.401 222.282 380.716 222.454 380.998C222.625 381.28 222.855 381.522 223.127 381.708C223.4 381.894 223.709 382.02 224.034 382.078L245.825 385.941C246.686 386.098 247.575 385.936 248.324 385.483C249.073 385.031 249.631 384.321 249.892 383.486C250.146 382.689 250.11 381.827 249.792 381.053C249.473 380.279 248.891 379.642 248.149 379.254C243.358 376.796 239.234 373.214 236.132 368.816C233.737 371.044 231.06 370.834 228.218 369.192L225.203 369.569L222.221 379.099Z" fill="#2F2E41"/>
<path d="M156.324 379.099C156.225 379.414 156.195 379.746 156.235 380.074C156.275 380.401 156.385 380.716 156.556 380.998C156.728 381.28 156.957 381.522 157.23 381.708C157.502 381.894 157.811 382.02 158.136 382.078L179.927 385.941C180.788 386.098 181.677 385.936 182.426 385.483C183.175 385.031 183.733 384.321 183.994 383.486C184.248 382.689 184.213 381.827 183.894 381.053C183.575 380.279 182.994 379.642 182.252 379.254C177.46 376.796 173.337 373.214 170.234 368.816C167.839 371.044 165.162 370.834 162.32 369.192L159.305 369.569L156.324 379.099Z" fill="#2F2E41"/>
<path d="M184.268 160.64C191.154 160.64 196.735 155.063 196.735 148.185C196.735 141.306 191.154 135.73 184.268 135.73C177.383 135.73 171.801 141.306 171.801 148.185C171.801 155.063 177.383 160.64 184.268 160.64Z" fill="#FFB8B8"/>
<path d="M173.137 226.028L205.64 225.138L196.095 195.125C202.027 185.624 196.057 176.133 187.607 166.645L180.929 162.196L170.243 161.307C165.616 166.253 163.084 172.795 163.178 179.564C163.39 194.058 165.959 209.837 173.137 226.028Z" fill="#575A89"/>
<path d="M247.815 246.23C248.434 245.612 248.897 244.856 249.166 244.024C249.435 243.192 249.503 242.308 249.363 241.445C249.223 240.582 248.879 239.764 248.361 239.06C247.843 238.355 247.164 237.784 246.382 237.393L232.756 230.582L227.768 236.542L240.471 246.644C241.532 247.488 242.867 247.913 244.222 247.836C245.577 247.76 246.856 247.188 247.815 246.23Z" fill="#FFB8B8"/>
<path d="M231.465 242.931L236.808 230.031L207.87 211.803L195.685 174.16C195.051 172.202 193.728 170.539 191.961 169.48C190.194 168.422 188.102 168.039 186.074 168.402C184.846 168.622 183.682 169.109 182.663 169.829C181.644 170.548 180.796 171.482 180.178 172.565C179.561 173.647 179.188 174.852 179.088 176.095C178.988 177.337 179.162 178.586 179.598 179.754L188.943 212.461L231.465 242.931Z" fill="#575A89"/>
<path d="M163.786 143.292C163.786 148.138 166.937 155.643 170.91 158.86C173.584 161.025 177.117 160.934 178.48 157.971C179.877 154.931 184.695 147.786 193.173 143.292C204.476 137.3 189.165 127.05 178.48 128.613C170.45 129.787 163.786 135.185 163.786 143.292Z" fill="#A0616A"/>
<path d="M171.356 136.619C176.274 136.619 180.261 132.636 180.261 127.723C180.261 122.81 176.274 118.827 171.356 118.827C166.438 118.827 162.451 122.81 162.451 127.723C162.451 132.636 166.438 136.619 171.356 136.619Z" fill="#A0616A"/>
<path d="M181.597 124.609C181.596 122.367 180.746 120.207 179.219 118.563C177.691 116.92 175.598 115.914 173.359 115.747C173.581 115.73 173.802 115.713 174.027 115.713C176.389 115.713 178.654 116.65 180.324 118.319C181.994 119.987 182.932 122.25 182.932 124.609C182.932 126.969 181.994 129.232 180.324 130.9C178.654 132.568 176.389 133.506 174.027 133.506C173.802 133.506 173.581 133.488 173.359 133.472C175.598 133.305 177.691 132.299 179.219 130.655C180.746 129.012 181.596 126.852 181.597 124.609Z" fill="#A0616A"/>
<path d="M184.491 152.633C185.597 152.633 186.494 151.438 186.494 149.964C186.494 148.49 185.597 147.295 184.491 147.295C183.384 147.295 182.487 148.49 182.487 149.964C182.487 151.438 183.384 152.633 184.491 152.633Z" fill="#FFB8B8"/>
<path d="M436.8 356.725H298.176L268.82 218.091H243.768V211.87H273.868L303.223 350.504H436.8V356.725Z" fill="#3F3D56"/>
<path d="M318.49 382.052C325.859 382.052 331.833 376.084 331.833 368.721C331.833 361.359 325.859 355.391 318.49 355.391C311.121 355.391 305.147 361.359 305.147 368.721C305.147 376.084 311.121 382.052 318.49 382.052Z" fill="#3F3D56"/>
<path d="M418.12 382.052C425.489 382.052 431.463 376.084 431.463 368.721C431.463 361.359 425.489 355.391 418.12 355.391C410.751 355.391 404.777 361.359 404.777 368.721C404.777 376.084 410.751 382.052 418.12 382.052Z" fill="#3F3D56"/>
<path d="M434.273 353.795H299.399L275.602 236.309H456.605C457.529 236.309 458.441 236.509 459.28 236.895C460.119 237.281 460.864 237.844 461.465 238.545C462.065 239.246 462.506 240.069 462.758 240.957C463.009 241.845 463.065 242.777 462.922 243.688L440.589 348.399C440.359 349.905 439.594 351.279 438.435 352.27C437.275 353.26 435.798 353.801 434.273 353.795ZM300.863 352.018H434.273C435.374 352.022 436.44 351.632 437.276 350.917C438.113 350.202 438.665 349.21 438.831 348.123L461.164 243.412C461.268 242.754 461.227 242.082 461.046 241.441C460.864 240.8 460.546 240.206 460.113 239.7C459.679 239.194 459.141 238.788 458.536 238.509C457.93 238.23 457.272 238.086 456.605 238.086H277.761L300.863 352.018Z" fill="#3F3D56"/>
<path d="M325.619 353.419L310.034 237.342L311.789 237.053L327.374 353.129L325.619 353.419Z" fill="#3F3D56"/>
<path d="M412.274 352.528L410.518 352.243L425.647 237.055L427.404 237.34L412.274 352.528Z" fill="#3F3D56"/>
<path d="M370.988 237.197H369.208V353.274H370.988V237.197Z" fill="#3F3D56"/>
<path d="M284.689 268.301L284.685 270.078L456.9 270.495L456.904 268.718L284.689 268.301Z" fill="#3F3D56"/>
<path d="M444.751 323.205L293.457 324.239L293.469 326.016L444.763 324.983L444.751 323.205Z" fill="#3F3D56"/>
<path d="M246.437 219.424C251.841 219.424 256.222 217.037 256.222 214.092C256.222 211.147 251.841 208.76 246.437 208.76C241.033 208.76 236.652 211.147 236.652 214.092C236.652 217.037 241.033 219.424 246.437 219.424Z" fill="#3F3D56"/>
</g>
<defs>
<clipPath id="clip0_15_578">
<rect width="463" height="386" fill="white"/>
</clipPath>
</defs>
</svg>
