<svg width="632" height="506" viewBox="0 0 632 506" fill="none" xmlns="http://www.w3.org/2000/svg">
<g clip-path="url(#clip0_90_1586)">
<path d="M106.065 505.87C106.065 505.87 96.9601 483.445 124.275 466.627L106.065 505.87Z" fill="#F0F0F0"/>
<path d="M94.8675 505.462C94.8675 505.462 92.0902 489.479 70.5928 489.616L94.8675 505.462Z" fill="#F0F0F0"/>
<path d="M410.927 505.87C410.927 505.87 401.821 483.445 429.136 466.627L410.927 505.87Z" fill="#F0F0F0"/>
<path d="M399.729 505.462C399.729 505.462 396.952 489.479 375.454 489.616L399.729 505.462Z" fill="#F0F0F0"/>
<path d="M403.427 360.674C447.137 360.674 482.572 325.219 482.572 281.484C482.572 237.748 447.137 202.294 403.427 202.294C359.717 202.294 324.282 237.748 324.282 281.484C324.282 325.219 359.717 360.674 403.427 360.674Z" fill="#F0F0F0"/>
<path d="M403.645 281.483H403.862L407.776 506H399.514L403.645 281.483Z" fill="#F0F0F0"/>
<path d="M573.35 400.003C605.231 400.003 631.076 374.144 631.076 342.244C631.076 310.345 605.231 284.485 573.35 284.485C541.469 284.485 515.624 310.345 515.624 342.244C515.624 374.144 541.469 400.003 573.35 400.003Z" fill="#F0F0F0"/>
<path d="M573.509 342.244H573.667L576.522 506H570.495L573.509 342.244Z" fill="#F0F0F0"/>
<path d="M253.691 342.831C254.797 342.704 255.862 342.336 256.81 341.753C257.758 341.169 258.567 340.385 259.179 339.455C259.792 338.526 260.193 337.473 260.355 336.371C260.517 335.269 260.436 334.145 260.117 333.078L282.06 317.242L268.917 312.248L250.094 328.052C248.338 328.707 246.883 329.984 246.006 331.64C245.128 333.297 244.888 335.218 245.332 337.04C245.775 338.862 246.871 340.457 248.412 341.525C249.953 342.592 251.831 343.057 253.691 342.831Z" fill="#FFB6B6"/>
<path d="M237.604 498.168L230.636 498.167L227.321 471.277H237.605L237.604 498.168Z" fill="#FFB6B6"/>
<path d="M239.381 504.926L216.914 504.925V504.641C216.914 502.32 217.836 500.095 219.476 498.454C221.115 496.813 223.34 495.891 225.659 495.891L239.381 495.892L239.381 504.926Z" fill="#2F2E41"/>
<path d="M184.383 498.168L177.416 498.167L174.102 471.277H184.385L184.383 498.168Z" fill="#FFB6B6"/>
<path d="M186.16 504.926L163.693 504.925V504.641C163.694 502.32 164.615 500.095 166.255 498.454C167.895 496.813 170.119 495.891 172.438 495.891L186.161 495.892L186.16 504.926Z" fill="#2F2E41"/>
<path d="M189.765 348.635L174.999 429.433L169.834 493.61L186.602 492.785L196.147 430.464L219.872 376.2L226.933 492.635L242.369 492.685L250.675 345.403L189.765 348.635Z" fill="#2F2E41"/>
<path d="M252.565 256.154L231.868 247.914L208.124 250.632L187.995 261.766C187.995 261.766 194.153 339.031 185.228 357.154C185.228 357.154 192.379 367.065 221.516 364.646C221.516 364.646 249.898 361.056 250.601 351.744C251.305 342.432 251.453 325.5 251.453 325.5L261.305 291.531L252.565 256.154Z" fill="#7c69db"/>
<path d="M196.086 263.253L187.995 261.766C187.995 261.766 179.387 265.543 179.475 276.797C179.564 288.051 164.267 325.782 182.568 327.363C200.869 328.945 196.086 300.607 196.086 300.607V263.253Z" fill="#7c69db"/>
<path d="M246 260.948L252.564 256.154C252.564 256.154 262.587 258.419 266.294 266.492C266.294 266.492 307.394 296.317 296.089 307.628C284.784 318.939 261.74 332.861 261.74 332.861L253.208 323.194L274.376 304.007L257.01 288.178L246 260.948Z" fill="#7c69db"/>
<path d="M235.504 226.492C235.501 230.999 233.71 235.321 230.524 238.507C227.337 241.693 223.017 243.483 218.512 243.483C214.008 243.483 209.687 241.693 206.501 238.507C203.315 235.321 201.523 230.999 201.521 226.492V225.839C201.695 221.393 203.605 217.191 206.84 214.138C210.075 211.084 214.379 209.421 218.826 209.507C223.272 209.592 227.509 211.419 230.625 214.595C233.74 217.77 235.488 222.042 235.491 226.492H235.504Z" fill="#FFB6B6"/>
<path d="M221.095 223.751C222.182 223.573 223.36 223.403 224.334 223.904C226.452 224.987 225.965 228.058 227.121 230.086C227.578 230.89 228.317 231.547 228.621 232.417C228.926 233.287 228.739 234.375 229.217 235.215C229.908 236.428 231.782 236.607 233.013 235.885C234.177 235.078 235.02 233.888 235.395 232.522C235.804 231.365 236.148 230.086 237.135 229.329C237.493 229.124 237.815 228.861 238.087 228.55C238.291 228.138 238.369 227.675 238.313 227.219C238.313 224.278 237.856 221.998 238.522 219.149C239.587 214.554 240.561 212.283 237.187 208.877C235.46 207.155 233.237 206.017 230.83 205.623C228.656 205.266 225.456 208.303 223.256 208.233C217.66 208.011 212.938 202.826 207.603 204.501C205.271 205.234 203.248 206.723 201.855 208.734C199.247 212.579 199.481 214.067 199.86 218.657C199.854 219.005 199.956 219.347 200.151 219.636C200.347 219.871 200.664 219.997 200.855 220.236C201.061 220.552 201.139 220.935 201.073 221.306C201.014 222.054 200.84 222.788 200.555 223.482C200.483 223.598 200.439 223.728 200.426 223.864C200.412 224 200.43 224.137 200.477 224.265C200.584 224.41 200.737 224.514 200.912 224.561C203.086 225.344 205.434 223.834 207.76 223.873C210.086 223.912 212.295 225.47 214.695 225.13C216.812 224.804 218.96 224.104 221.095 223.751Z" fill="#684E51"/>
<path d="M220.983 318.27C220.838 318.325 220.688 318.364 220.534 318.385L201.666 321.021C201.209 321.086 200.744 320.994 200.347 320.76C199.95 320.526 199.644 320.163 199.48 319.732L183.239 277.447C183.134 277.174 183.089 276.881 183.108 276.588C183.126 276.295 183.207 276.01 183.346 275.751C183.484 275.493 183.677 275.267 183.91 275.09C184.144 274.913 184.413 274.788 184.699 274.724L202.442 270.762C202.579 270.731 202.711 270.683 202.836 270.618L220.094 261.59C220.227 261.52 220.368 261.465 220.513 261.427L239.506 256.36C239.992 256.23 240.51 256.284 240.959 256.513C241.407 256.742 241.755 257.129 241.935 257.6L256.096 294.469C256.22 294.79 256.261 295.138 256.214 295.479C256.167 295.82 256.034 296.144 255.828 296.42L250.931 303C250.7 303.31 250.387 303.548 250.026 303.686L239.323 307.802C239.247 307.831 239.172 307.867 239.101 307.908L221.266 318.135C221.175 318.187 221.081 318.232 220.983 318.27Z" fill="white"/>
<path d="M229.761 261.997L227.349 262.641L220.958 264.346L220.946 264.349L212.196 268.927L208.949 270.626L208.947 270.627L204.07 273.178L203.937 273.208L198.87 274.338L196.422 274.886L186.435 277.116L202.113 317.936L212.405 316.499L214.928 316.146L220.306 315.394L220.369 315.386L237.652 305.474L248.167 301.431L252.968 294.98L239.32 259.448L229.761 261.997Z" fill="#E4E4E4"/>
<path d="M241.569 265.302L189.576 285.294L190.467 287.613L242.46 267.62L241.569 265.302Z" fill="white"/>
<path d="M244.537 273.029L192.544 293.022L193.434 295.34L245.427 275.347L244.537 273.029Z" fill="white"/>
<path d="M250.532 288.638L198.539 308.631L199.429 310.949L251.422 290.956L250.532 288.638Z" fill="white"/>
<path d="M229.761 261.997L245.327 302.523L243.01 303.414L227.35 262.641L229.761 261.997Z" fill="white"/>
<path d="M212.196 268.927L209 277.826L207.892 280.912L205.307 288.114L204.753 289.653L204.198 291.201L203.468 293.232L198.228 307.823L196.866 304.276L201.139 292.377L202.105 289.683L202.247 289.291L203.39 286.105L204.832 282.089L205.941 279.001L208.947 270.627L208.949 270.626L212.196 268.927Z" fill="white"/>
<path d="M198.871 274.338L214.928 316.146L212.405 316.499L196.422 274.886L198.871 274.338Z" fill="white"/>
<path d="M195.434 314.371C199.516 314.371 202.825 311.06 202.825 306.975C202.825 302.891 199.516 299.58 195.434 299.58C191.351 299.58 188.042 302.891 188.042 306.975C188.042 311.06 191.351 314.371 195.434 314.371Z" fill="#FFB6B6"/>
<path d="M500.649 262.853C573.192 262.853 632 204.012 632 131.427C632 58.8417 573.192 0 500.649 0C428.105 0 369.297 58.8417 369.297 131.427C369.297 204.012 428.105 262.853 500.649 262.853Z" fill="#E4E4E4"/>
<path opacity="0.1" d="M597.634 43.644C609.887 72.3203 611.549 104.422 602.324 134.211C593.099 164.001 573.588 189.538 547.277 206.259C520.967 222.98 489.571 229.795 458.701 225.487C427.831 221.179 399.497 206.028 378.764 182.742C386.248 200.262 397.45 215.945 411.593 228.703C425.737 241.461 442.483 250.99 460.672 256.63C478.862 262.27 498.059 263.885 516.934 261.364C535.809 258.843 553.911 252.247 569.986 242.031C586.06 231.815 599.722 218.225 610.026 202.202C620.33 186.179 627.029 168.106 629.659 149.235C632.289 130.364 630.787 111.146 625.257 92.9139C619.728 74.6815 610.302 57.8699 597.634 43.644Z" fill="black"/>
<path d="M500.288 131.426H499.926L493.431 504.043H507.144L500.288 131.426Z" fill="#E4E4E4"/>
<path d="M596.159 505.632H0.713962C0.524608 505.632 0.343008 505.557 0.209114 505.423C0.0752203 505.289 0 505.107 0 504.918C0 504.728 0.0752203 504.547 0.209114 504.413C0.343008 504.279 0.524608 504.203 0.713962 504.203H596.159C596.348 504.203 596.529 504.279 596.663 504.413C596.797 504.547 596.872 504.728 596.872 504.918C596.872 505.107 596.797 505.289 596.663 505.423C596.529 505.557 596.348 505.632 596.159 505.632Z" fill="#CACACA"/>
</g>
<defs>
<clipPath id="clip0_90_1586">
<rect width="632" height="506" fill="white"/>
</clipPath>
</defs>
</svg>
