<svg width="699" height="610" viewBox="0 0 699 610" fill="none" xmlns="http://www.w3.org/2000/svg">
<g clip-path="url(#clip0_99_3127)">
<path d="M327.289 598.776C327.538 598.787 327.785 598.722 327.996 598.588C328.206 598.455 328.371 598.26 328.467 598.03C328.563 597.8 328.587 597.545 328.534 597.302C328.48 597.058 328.354 596.837 328.171 596.667L328.087 596.336L328.12 596.256C328.371 595.663 328.792 595.158 329.329 594.803C329.867 594.449 330.497 594.261 331.141 594.263C331.784 594.266 332.413 594.458 332.948 594.817C333.483 595.175 333.899 595.684 334.146 596.279C335.132 598.652 336.386 601.03 336.695 603.54C336.831 604.649 336.774 605.773 336.526 606.863C338.84 601.814 340.042 596.326 340.05 590.772C340.05 589.378 339.973 587.985 339.818 586.6C339.69 585.464 339.512 584.337 339.285 583.217C338.044 577.144 335.38 571.451 331.512 566.606C329.64 565.585 328.126 564.014 327.174 562.106C326.83 561.42 326.586 560.687 326.451 559.932C326.861 558.849 327.077 557.703 327.088 556.546C327.382 556.099 327.909 555.877 328.23 555.441C329.829 553.274 332.031 553.652 333.181 556.598C335.637 557.837 335.661 559.893 334.154 561.87C333.195 563.128 333.063 564.83 332.222 566.177C332.309 566.288 332.399 566.395 332.485 566.506C334.067 568.54 335.446 570.725 336.602 573.029C336.321 570.448 336.657 567.838 337.581 565.412C338.518 563.151 340.275 561.248 341.822 559.293C342.231 558.768 342.786 558.377 343.418 558.167C344.05 557.958 344.729 557.941 345.371 558.117C346.013 558.294 346.587 558.658 347.023 559.161C347.458 559.664 347.734 560.286 347.816 560.946L347.826 561.033C347.596 561.162 347.371 561.3 347.151 561.445C346.875 561.63 346.66 561.894 346.537 562.202C346.413 562.511 346.385 562.849 346.457 563.174C346.529 563.499 346.697 563.794 346.94 564.021C347.182 564.248 347.488 564.397 347.816 564.448L347.85 564.453C347.768 565.281 347.623 566.102 347.417 566.908C349.401 574.581 345.118 577.376 339.001 577.501C338.866 577.571 338.734 577.64 338.599 577.706C339.761 580.997 340.489 584.426 340.766 587.905C340.923 589.958 340.914 592.02 340.739 594.071L340.749 593.998C341.192 591.717 342.409 589.659 344.194 588.172C346.845 585.994 350.59 585.192 353.45 583.442C353.754 583.246 354.107 583.142 354.469 583.141C354.83 583.141 355.184 583.243 355.488 583.437C355.793 583.63 356.037 583.907 356.189 584.234C356.342 584.562 356.398 584.926 356.35 585.284L356.339 585.36C355.912 585.534 355.497 585.734 355.096 585.959C354.866 586.089 354.641 586.226 354.421 586.372C354.145 586.557 353.931 586.82 353.807 587.129C353.683 587.437 353.655 587.776 353.727 588.101C353.799 588.425 353.967 588.721 354.21 588.948C354.452 589.175 354.758 589.324 355.086 589.375L355.12 589.38L355.189 589.39C354.461 591.129 353.439 592.73 352.167 594.123C350.926 600.821 345.598 601.457 339.898 599.506H339.894C339.269 602.224 338.362 604.869 337.19 607.4H327.531C327.496 607.292 327.465 607.182 327.434 607.074C328.328 607.13 329.226 607.077 330.107 606.915C329.39 606.036 328.674 605.149 327.957 604.27C327.941 604.254 327.926 604.236 327.912 604.218C327.548 603.768 327.181 603.321 326.818 602.871C326.799 601.492 326.957 600.115 327.289 598.776Z" fill="#F2F2F2"/>
<path d="M86.6244 598.776C86.3752 598.787 86.1286 598.722 85.9179 598.588C85.7071 598.455 85.5425 598.26 85.4463 598.03C85.3501 597.8 85.3269 597.545 85.38 597.302C85.433 597.058 85.5597 596.837 85.7428 596.667L85.8262 596.336L85.793 596.256C85.5421 595.663 85.1215 595.158 84.5841 594.803C84.0468 594.449 83.4166 594.261 82.7728 594.263C82.129 594.266 81.5003 594.458 80.9656 594.817C80.4309 595.175 80.0141 595.684 79.7675 596.279C78.782 598.652 77.5273 601.03 77.2183 603.54C77.0822 604.649 77.1397 605.773 77.388 606.863C75.0733 601.814 73.8713 596.326 73.8636 590.772C73.8631 589.378 73.9406 587.985 74.0956 586.6C74.2237 585.464 74.4014 584.337 74.6288 583.217C75.8694 577.144 78.5331 571.451 82.401 566.606C84.2731 565.585 85.7871 564.014 86.739 562.106C87.0838 561.42 87.3275 560.687 87.4625 559.932C87.0523 558.849 86.8367 557.703 86.8255 556.546C86.5312 556.099 86.0045 555.877 85.6831 555.441C84.0845 553.274 81.8821 553.652 80.7323 556.598C78.2762 557.837 78.2524 559.893 79.7595 561.87C80.7183 563.128 80.85 564.83 81.6913 566.177C81.6048 566.288 81.5147 566.395 81.4282 566.506C79.846 568.54 78.4671 570.725 77.3111 573.029C77.5922 570.448 77.2566 567.838 76.332 565.412C75.395 563.151 73.6386 561.248 72.0919 559.293C71.6829 558.768 71.1273 558.377 70.4955 558.167C69.8638 557.958 69.1841 557.941 68.5425 558.118C67.9009 558.294 67.3262 558.658 66.8909 559.161C66.4557 559.664 66.1794 560.286 66.0971 560.946L66.0878 561.033C66.3176 561.162 66.5425 561.3 66.7625 561.445C67.0389 561.63 67.2531 561.894 67.3769 562.202C67.5008 562.511 67.5286 562.849 67.4567 563.174C67.3848 563.499 67.2165 563.794 66.974 564.021C66.7314 564.248 66.4258 564.397 66.0973 564.448L66.0636 564.453C66.1455 565.281 66.2901 566.102 66.4964 566.908C64.5122 574.581 68.796 577.376 74.9126 577.501C75.0476 577.571 75.1792 577.64 75.3142 577.706C74.1528 580.997 73.4243 584.426 73.147 587.905C72.99 589.958 72.9992 592.02 73.1747 594.071L73.1643 593.998C72.7211 591.717 71.5044 589.659 69.7195 588.172C67.0686 585.994 63.3233 585.192 60.4635 583.442C60.1596 583.246 59.8062 583.142 59.445 583.141C59.0838 583.141 58.7299 583.243 58.425 583.437C58.1202 583.63 57.877 583.907 57.7243 584.234C57.5716 584.562 57.5156 584.926 57.563 585.284L57.5748 585.36C58.0011 585.534 58.4162 585.734 58.8176 585.959C59.0473 586.089 59.2722 586.226 59.4923 586.372C59.7687 586.557 59.9828 586.82 60.1067 587.129C60.2306 587.437 60.2584 587.776 60.1865 588.101C60.1146 588.425 59.9463 588.721 59.7037 588.948C59.4611 589.175 59.1556 589.324 58.827 589.375L58.7934 589.38L58.7241 589.39C59.4526 591.129 60.4749 592.73 61.7465 594.123C62.9872 600.821 68.3159 601.457 74.016 599.506H74.0195C74.6449 602.224 75.551 604.869 76.7233 607.4H86.3824C86.417 607.292 86.4482 607.182 86.4794 607.074C85.5853 607.13 84.6878 607.077 83.8067 606.915C84.5233 606.036 85.24 605.149 85.9566 604.27C85.9726 604.254 85.9876 604.236 86.0016 604.218C86.3651 603.768 86.7321 603.321 87.0956 602.871C87.115 601.492 86.9565 600.115 86.6244 598.776Z" fill="#F2F2F2"/>
<path d="M232.606 79.7673C234.561 75.8328 237.684 72.5662 239.595 68.6102C241.505 64.6544 241.877 59.3597 238.694 56.3318C235.991 53.7608 231.758 53.7248 228.526 51.8625C220.291 47.1182 220.301 32.0488 210.887 30.7467C206.31 30.1136 202.168 33.5464 199.401 37.2478C196.634 40.9491 194.43 45.2681 190.593 47.8433C186.249 50.7584 180.633 50.8851 175.81 52.9099C166.562 56.792 161.714 66.7744 157.66 75.9483C155.048 81.8582 152.377 88.2324 153.589 94.579C150.955 96.2178 152.129 100.626 154.758 102.272C157.387 103.919 160.688 103.882 163.707 104.595C170.052 106.094 175.248 111.145 177.711 117.181C179.63 121.886 180.023 127.052 180.393 132.12C181.036 140.914 181.679 149.708 182.321 158.502C182.607 162.414 182.982 166.572 185.364 169.689C187.745 172.806 192.902 174.113 195.579 171.245C198.137 168.505 196.985 164.166 196.933 160.418C196.882 156.669 200.27 152.001 203.465 153.962L204.592 151.406C211.89 148.793 218.281 144.132 222.999 137.981C227.717 131.83 230.562 124.45 231.195 116.724C232.011 104.28 227.059 90.9366 232.606 79.7673Z" fill="#E6E6E6"/>
<path d="M240.064 158.679C240.769 158.015 241.269 157.163 241.506 156.223C241.742 155.284 241.705 154.297 241.399 153.378C241.093 152.459 240.53 151.646 239.777 151.037C239.025 150.427 238.113 150.045 237.151 149.937L237.163 150.359C235.789 151.161 234.223 151.573 232.632 151.55C231.047 151.525 229.47 151.774 227.971 152.288C227.225 152.559 226.579 153.05 226.118 153.695C225.656 154.34 225.401 155.11 225.385 155.903C225.473 156.511 225.705 157.089 226.063 157.588C226.421 158.087 226.895 158.492 227.443 158.768C228.544 159.311 229.725 159.669 230.942 159.831C234.076 160.42 237.744 160.867 240.064 158.679Z" fill="#E6E6E6"/>
<path d="M301.181 79.9757C302.494 79.083 303.608 77.929 304.454 76.5859C304.865 75.9063 305.06 75.1186 305.014 74.3262C304.969 73.5337 304.685 72.7736 304.199 72.1455C303.211 71.2881 301.939 70.8287 300.631 70.8566C297.079 70.5914 293.509 71.0123 290.116 72.0965C293.6 75.1831 297.084 78.2697 300.568 81.3564L301.181 79.9757Z" fill="#E6E6E6"/>
<path d="M283.758 88.0034C285.166 89.5577 284.717 91.9686 284.319 94.0278C283.92 96.0869 283.869 98.6599 285.64 99.7833C287.175 100.757 289.33 99.9624 290.453 98.5328C291.456 97.0081 292.068 95.2589 292.233 93.4409C292.785 90.7987 293.034 88.1023 292.976 85.4037C292.909 82.6849 291.95 80.0635 290.247 77.9438C289.037 76.5652 287.427 75.5997 285.641 75.1825C283.856 74.7653 281.984 74.9174 280.289 75.6175L281.908 75.5377C280.731 77.0485 279.839 78.7607 279.275 80.5908C279.004 81.5101 278.985 82.4851 279.219 83.4143C279.453 84.3435 279.932 85.1932 280.605 85.875C281.565 86.7106 282.903 87.0601 283.758 88.0034Z" fill="#E6E6E6"/>
<path d="M363.178 61.9356L363.465 61.0493C362.262 61.7456 361.334 62.8342 360.837 64.1329C360.34 65.4316 360.305 66.8615 360.736 68.1833C361.662 67.4531 362.376 66.4893 362.805 65.3911C363.235 64.2929 363.363 63.1001 363.178 61.9356Z" fill="#E6E6E6"/>
<path d="M347.533 74.6213C349.065 73.7534 350.373 72.5386 351.352 71.0741C352.33 69.6097 352.952 67.9363 353.167 66.1883C353.333 65.1014 353.207 63.9899 352.802 62.9677C352.595 62.4601 352.264 62.0118 351.842 61.6626C351.419 61.3134 350.916 61.0742 350.378 60.9661L349.723 61.9978C348.783 61.1888 347.204 62.0208 346.808 63.1964C346.553 64.417 346.659 65.6855 347.113 66.8468C347.567 68.0152 347.546 69.3142 347.056 70.4677C346.528 71.146 345.933 71.7703 345.282 72.3314C344.964 72.6211 344.756 73.0124 344.694 73.4384C344.632 73.8644 344.72 74.2986 344.943 74.6668C345.56 75.3714 346.714 75.0757 347.533 74.6213Z" fill="#E6E6E6"/>
<path d="M340.862 68.8579C341.423 67.8482 341.688 66.7007 341.626 65.5472L340.192 65.0977C339.276 65.4691 338.463 66.0569 337.824 66.8108C337.63 67.0056 337.481 67.2409 337.388 67.4999C337.296 67.7589 337.261 68.0351 337.288 68.3089C337.315 68.5826 337.402 68.8471 337.542 69.0834C337.683 69.3197 337.874 69.5219 338.103 69.6756C338.331 69.8293 338.59 69.9306 338.862 69.9724C339.134 70.0141 339.411 69.9953 339.675 69.9171C339.939 69.839 340.182 69.7035 340.387 69.5204C340.593 69.3373 340.755 69.1111 340.862 68.8579Z" fill="#E6E6E6"/>
<path d="M410.928 61.6033C411.058 61.7118 411.187 61.8234 411.316 61.933C411.431 61.909 411.539 61.8659 411.656 61.8517L410.928 61.6033Z" fill="#E6E6E6"/>
<path d="M408.631 74.184C409.947 73.1194 411.263 72.0547 412.579 70.99C413.278 70.4953 413.874 69.8688 414.334 69.1458C414.648 68.4613 414.783 67.7085 414.727 66.9576C414.672 66.2066 414.427 65.4819 414.016 64.8511C413.287 63.733 412.375 62.7463 411.317 61.9331C410.154 62.2082 409.133 62.9 408.447 63.8775C407.76 64.855 407.456 66.0504 407.592 67.2371C407.829 68.7466 408.777 70.3609 408.004 71.6786C407.702 72.1918 407.184 72.5411 406.837 73.0242C406.489 73.5073 406.376 74.2768 406.854 74.6321C407.384 75.0265 408.117 74.5995 408.631 74.184Z" fill="#E6E6E6"/>
<path d="M411.509 80.7014C411.999 80.7276 412.488 80.6483 412.944 80.4688C413.4 80.2893 413.812 80.0138 414.152 79.661C415.912 78.2194 417.451 76.5284 418.721 74.6416C415.76 75.5796 412.798 76.5176 409.837 77.4556L410.76 78.5353C409.94 79.0705 410.547 80.5171 411.509 80.7014Z" fill="#E6E6E6"/>
<path d="M419.809 86.7968C419.99 87.2587 420.317 87.6486 420.74 87.9071C421.163 88.1655 421.66 88.2782 422.153 88.2279C422.644 88.1624 423.115 87.99 423.533 87.7228C423.95 87.4555 424.304 87.1 424.569 86.6812C425.02 86.0174 425.284 85.2454 425.336 84.445C425.388 83.6447 425.225 82.845 424.864 82.1288C424.503 81.4125 423.957 80.8057 423.283 80.371C422.609 79.9364 421.831 79.6897 421.03 79.6565L421.848 80.9056C422.056 83.0378 419.158 84.756 419.809 86.7968Z" fill="#E6E6E6"/>
<path d="M477.322 110.149C478.123 110.747 479.096 111.069 480.095 111.066C481.094 111.064 482.066 110.738 482.864 110.136C483.381 109.694 483.802 109.15 484.099 108.538C484.397 107.926 484.565 107.259 484.592 106.579C484.62 105.899 484.507 105.221 484.261 104.587C484.014 103.952 483.639 103.376 483.159 102.893L481.647 103.738C480.808 103.198 479.793 103.006 478.815 103.2C477.837 103.394 476.972 103.96 476.403 104.779C475.893 105.637 475.705 106.649 475.873 107.634C476.042 108.618 476.555 109.51 477.322 110.149Z" fill="#E6E6E6"/>
<path d="M494.909 112.14C495.646 111.926 496.315 111.527 496.853 110.981C497.391 110.434 497.78 109.758 497.982 109.018L495.042 108.632C494.224 108.014 493.272 107.598 492.263 107.418C491.757 107.342 491.24 107.443 490.8 107.702C490.359 107.962 490.021 108.365 489.842 108.845C489.779 109.252 489.822 109.669 489.967 110.056C490.111 110.442 490.352 110.785 490.666 111.052C491.221 111.582 491.903 111.96 492.646 112.15C493.389 112.341 494.168 112.337 494.909 112.14Z" fill="#E6E6E6"/>
<path d="M482.767 118.019C482.819 118.497 483.006 118.951 483.306 119.327C483.606 119.703 484.007 119.986 484.462 120.142C484.959 120.378 485.515 120.459 486.059 120.375C486.602 120.291 487.108 120.045 487.511 119.67C487.688 119.47 487.815 119.23 487.881 118.971C487.948 118.711 487.951 118.44 487.891 118.179C487.832 117.918 487.71 117.675 487.538 117.47C487.365 117.265 487.147 117.104 486.9 117.001L484.695 116.6C483.843 116.159 482.753 117.059 482.767 118.019Z" fill="#E6E6E6"/>
<path d="M354.824 133.523L353.118 131.965C353.572 132.598 354.153 133.128 354.824 133.523Z" fill="#E6E6E6"/>
<path d="M341.789 124.347C342.839 129.226 348.095 133.201 352.866 131.735L353.118 131.965C351.599 129.886 351.341 126.81 351.696 124.135C352.354 119.551 354.157 115.207 356.936 111.503C359.716 107.799 363.384 104.855 367.602 102.942C368.757 102.581 369.79 101.908 370.587 100.997C371.267 100.003 371.013 98.2979 369.841 98.0171C369.205 97.9443 368.563 98.093 368.023 98.4381L359.157 102.802C354.678 105.006 350.111 107.273 346.593 110.814C343.076 114.355 340.738 119.467 341.789 124.347Z" fill="#E6E6E6"/>
<path d="M198.668 292.129C190.407 286.215 181.359 281.487 171.787 278.082C165.904 275.99 159.582 274.395 153.452 275.582C150.091 276.277 146.94 277.756 144.258 279.898C141.575 282.039 139.435 284.783 138.012 287.907C136.641 291.054 135.997 294.469 136.126 297.898C136.255 301.328 137.155 304.685 138.759 307.719C141.586 313.016 146.481 317.235 148.117 323.012C149.221 326.906 148.698 331.053 148.167 335.066C147.082 343.266 145.997 351.466 144.911 359.667C143.923 367.133 142.96 374.902 145.324 382.053C147.688 389.204 154.434 395.507 161.926 394.747L163.411 394.636C158.455 391.265 157.065 384.288 158.541 378.478C160.017 372.669 163.763 367.743 167.42 362.994C178.273 348.901 189.125 334.809 199.978 320.717C204.369 315.015 209.013 307.968 206.672 301.163C205.341 297.295 201.993 294.511 198.668 292.129Z" fill="#E6E6E6"/>
<path d="M124.707 256.504C123.608 256.132 122.447 256.96 121.8 257.923C121.278 258.959 120.664 259.945 119.967 260.871C118.276 262.614 115.195 262.268 113.372 260.664C111.548 259.061 110.758 256.582 110.404 254.18C109.98 251.298 110.163 248.082 112.065 245.876C114.024 243.604 117.242 242.995 120.204 242.523C123.263 242.036 126.69 241.629 129.197 243.45C130.775 244.597 131.695 246.447 133.158 247.739C134.62 249.031 137.221 249.52 138.322 247.909C138.61 247.338 138.756 246.706 138.747 246.066C138.737 245.427 138.574 244.799 138.269 244.236C137.651 243.116 137.278 241.876 137.178 240.599C137.251 238.828 138.674 237.421 140.129 236.408C141.584 235.396 143.227 234.523 144.182 233.029C145.356 231.192 145.231 228.825 145.96 226.77C147.723 221.796 154.015 219.583 155.848 214.634C156.29 213.593 156.34 212.428 155.988 211.353C155.221 209.382 153.147 209.769 153.02 207.359C152.898 205.055 154.821 202.795 156.774 201.832C159.467 200.505 162.607 200.613 165.608 200.532C168.609 200.451 171.843 200.052 174.045 198.012C174.758 197.277 175.308 196.4 175.658 195.438C176.009 194.476 176.152 193.451 176.079 192.43C176.006 191.409 175.719 190.414 175.235 189.512C174.751 188.61 174.082 187.82 173.272 187.194C171.631 186.06 169.556 185.666 167.959 184.471C165.97 182.983 165.029 180.504 163.479 178.561C162.191 177.083 160.716 175.777 159.092 174.677C157.763 173.69 156.433 172.704 155.104 171.718C152.701 169.935 150.2 168.106 147.276 167.471C144.352 166.835 140.87 167.734 139.405 170.344C138.828 171.507 138.512 172.783 138.481 174.081C138.348 177.137 138.475 180.2 138.862 183.235C139.103 185.678 139.345 188.12 139.586 190.563C139.802 192.753 139.57 195.641 137.444 196.209C132.728 197.47 134.32 190.497 133.274 188.36C131.672 185.09 124.316 183.52 121.172 182.157C119.208 181.306 117.135 180.367 115.949 178.585C114.473 176.367 114.776 173.348 115.934 170.949C117.091 168.549 118.977 166.596 120.69 164.556C122.436 162.477 124.027 160.272 125.615 158.069C127.457 155.515 129.299 152.96 131.142 150.405C133.504 147.129 135.988 143.13 134.646 139.32C134.355 138.811 133.92 138.398 133.396 138.134C132.872 137.871 132.282 137.767 131.699 137.838C131.116 137.908 130.567 138.148 130.121 138.529C129.674 138.91 129.35 139.414 129.189 139.978C128.6 142.035 130.17 144.661 128.669 146.186C128.154 146.6 127.511 146.82 126.851 146.808C126.19 146.795 125.556 146.551 125.057 146.118C124.085 145.22 123.345 144.1 122.899 142.854C121.08 138.813 119.308 134.746 117.441 130.726C116.851 129.456 116.235 127.28 114.447 127.494C112.894 127.68 112.056 129.943 112.109 131.256C112.188 133.167 113.244 134.875 114.052 136.609C114.859 138.344 115.424 140.426 114.537 142.121C113.415 144.267 110.572 144.749 108.151 144.678C103.588 144.54 99.1166 143.36 95.0792 141.229C94.9738 143.472 94.8683 145.715 94.7628 147.958C91.5494 146.613 88.336 145.268 85.1226 143.923C84.4985 143.662 83.8744 143.4 83.2503 143.139C80.5397 142.004 77.8257 140.869 75.0352 139.948C73.451 139.425 71.8449 138.972 70.2392 138.519C69.2632 138.244 68.2871 137.969 67.3111 137.694C65.3851 137.012 63.3423 136.72 61.3023 136.837C59.159 137.106 57.2473 138.257 55.2652 139.118C50.8428 141.037 45.1228 139.106 40.3837 139.072C38.5039 136.328 35.966 134.098 33.0021 132.588C30.0382 131.078 26.743 130.335 23.4178 130.427C20.0926 130.519 16.8436 131.443 13.9679 133.115C11.0922 134.787 8.68162 137.154 6.95663 139.998C6.12342 141.439 5.3814 142.931 4.73495 144.465C4.09194 145.906 3.44892 147.347 2.80588 148.788C1.86258 150.902 0.898467 153.129 1.08388 155.437C1.26929 157.744 3.03815 160.101 5.35287 160.08C-0.105436 162.551 -1.24124 171.199 3.39377 174.995C4.67722 176.047 6.25107 176.734 7.40604 177.926C8.27897 178.826 8.86297 179.966 9.0831 181.201C9.30323 182.435 9.14943 183.708 8.64145 184.854C8.13347 186 7.29447 186.969 6.23215 187.635C5.16982 188.302 3.93264 188.635 2.67935 188.593C5.91305 189.843 9.47497 189.959 12.7833 188.923C16.0916 187.887 18.9507 185.759 20.8936 182.888C22.8752 179.786 23.7365 175.909 26.4322 173.402C30.0023 170.082 35.8992 170.34 40.0168 172.95C44.1344 175.561 46.7392 180.007 48.531 184.541C50.879 190.483 52.3817 197.273 57.384 201.248C59.8027 203.17 62.8658 204.251 65.0037 206.481C68.0482 209.657 68.575 214.45 68.5063 218.849C68.4376 223.248 67.9639 227.812 69.5663 231.909C71.1687 236.007 75.7626 239.376 79.882 237.832C78.7019 241.333 78.7381 245.13 79.9847 248.608C81.2313 252.087 83.6154 255.042 86.7509 256.997C86.0004 252.342 85.2499 247.687 84.4995 243.032C88.2401 244.085 90.6645 247.713 92.0646 251.338C93.4648 254.963 94.2046 258.883 96.2341 262.197C99.4301 267.415 105.217 269.664 111.105 269.644C117.465 269.623 119.879 266.59 124.07 262.125C124.913 261.363 125.552 260.403 125.93 259.332C126.101 258.793 126.072 258.209 125.847 257.69C125.622 257.17 125.217 256.749 124.707 256.504Z" fill="#E6E6E6"/>
<path d="M142.715 256.272C139.161 255.714 135.606 255.155 132.051 254.596C133.914 255.717 135.778 256.837 137.641 257.957C139.195 258.991 140.885 259.805 142.662 260.376C143.554 260.656 144.493 260.751 145.422 260.653C146.351 260.555 147.251 260.267 148.064 259.808L147.609 258.938C146.892 257.125 144.641 256.575 142.715 256.272Z" fill="#E6E6E6"/>
<path d="M140.3 276.032L140.325 275.971C140.11 275.614 139.793 275.33 139.415 275.155C139.037 274.98 138.616 274.922 138.205 274.988C137.386 275.135 136.549 275.148 135.726 275.028C135.203 274.824 134.736 274.497 134.366 274.076C133.995 273.654 133.73 273.15 133.594 272.606C133.241 271.542 133.136 270.405 132.734 269.36C132.443 268.533 131.93 267.802 131.251 267.248C130.571 266.694 129.752 266.338 128.884 266.219C128.012 266.149 127.148 266.425 126.479 266.987C125.809 267.549 125.387 268.352 125.305 269.223C125.374 270.119 125.658 270.985 126.135 271.747C126.518 272.485 126.902 273.222 127.285 273.96C127.608 274.621 127.98 275.257 128.397 275.863C129.076 276.798 129.964 277.562 130.989 278.094C132.015 278.626 133.151 278.912 134.306 278.928C135.462 278.945 136.605 278.692 137.645 278.189C138.686 277.686 139.595 276.948 140.3 276.032Z" fill="#E6E6E6"/>
<path d="M119.539 86.8575C122.246 88.4533 125.635 89.5531 126.921 92.4202L127.663 92.6598C126.854 93.6655 126.045 94.6712 125.235 95.6768C124.235 96.9196 123.183 98.3044 123.207 99.8995C123.239 102.096 125.352 103.754 127.487 104.271C129.766 104.74 132.137 104.346 134.141 103.165C136.145 101.983 137.639 100.1 138.332 97.8794C138.586 96.9533 138.691 95.9928 138.914 95.0588C139.563 92.8435 140.542 90.7389 141.819 88.816C149.007 76.7233 156.195 64.6307 163.383 52.538C164.278 51.032 165.201 49.2304 164.528 47.613C164.169 46.9288 163.613 46.3679 162.932 46.0026C162.251 45.6372 161.476 45.484 160.708 45.5629C159.173 45.7492 157.694 46.2469 156.359 47.0255C155.766 45.9837 154.929 45.1015 153.92 44.4545C152.91 43.8076 151.759 43.4152 150.565 43.3112C148.177 43.1269 145.775 43.3361 143.455 43.9304C138.214 44.7213 133.16 46.4576 128.539 49.0548C126.011 50.3328 123.229 51.9111 122.495 54.6472C121.593 58.0128 124.5 61.4429 127.848 62.4101C131.195 63.3774 134.768 62.5651 138.156 61.7509C138.539 63.3933 138.38 65.1156 137.702 66.6596C137.023 68.2037 135.863 69.4863 134.394 70.3153C132.926 71.1443 131.228 71.475 129.555 71.2579C127.883 71.0408 126.326 70.2875 125.118 69.1109C122.689 66.7462 121.5 62.6411 118.166 62.0308C114.842 61.4225 112.2 64.9675 111.466 68.2658C110.749 71.8184 111.138 75.5055 112.581 78.8299C114.025 82.1543 116.453 84.9562 119.539 86.8575Z" fill="#E6E6E6"/>
<path d="M161.227 145.046C159.626 140.534 157.523 136.217 154.956 132.177C153.01 128.982 150.609 126.088 147.827 123.586C145.286 121.391 142.364 119.68 139.206 118.536C136.141 117.428 132.729 116.88 129.63 117.891C126.531 118.901 123.895 121.783 123.958 125.041C124.027 128.644 127.18 131.462 130.466 132.943C133.751 134.423 137.406 135.068 140.506 136.906C142.614 138.184 144.375 139.96 145.635 142.079C146.896 144.197 147.616 146.593 147.734 149.055L148.515 150.346C146.746 150.932 145.096 151.83 143.644 152.998C142.925 153.591 142.376 154.364 142.051 155.238C141.726 156.112 141.638 157.056 141.795 157.975C142.336 160.157 144.564 161.409 146.579 162.407C150.301 164.251 154.023 166.094 157.746 167.938C155.85 162.286 162.056 157.027 162.399 151.076C162.412 149.008 162.014 146.958 161.227 145.046Z" fill="#E6E6E6"/>
<path d="M67.6296 129.787C69.8876 131.54 73.3594 130.72 75.428 128.746C77.4966 126.773 78.5041 123.965 79.4437 121.264C79.1006 123.937 79.1331 126.645 79.5403 129.308C79.7523 130.64 80.2386 131.914 80.9683 133.048C81.6981 134.182 82.6553 135.153 83.7795 135.898C84.8002 136.458 85.9006 136.858 87.0423 137.086C92.3501 138.294 97.8972 137.897 102.979 135.947L103.025 134.209C100.472 134.5 98.5398 131.7 98.3713 129.136C98.2027 126.572 99.1333 124.058 99.2151 121.489C99.2969 118.921 98.0591 115.92 95.5304 115.463C95.973 116.352 96.1344 117.355 95.9931 118.337C95.8518 119.32 95.4146 120.237 94.7396 120.965C94.0646 121.693 93.1839 122.199 92.2145 122.414C91.2452 122.629 90.2333 122.544 89.3134 122.17C86.3865 120.98 85.3232 117.415 83.0613 115.209C81.6637 113.965 79.9298 113.163 78.0775 112.903C76.2253 112.642 74.3373 112.935 72.651 113.744C70.9861 114.594 69.5255 115.795 68.3702 117.264C67.2148 118.733 66.3923 120.436 65.9593 122.254C65.2724 124.892 65.4762 128.114 67.6296 129.787Z" fill="#E6E6E6"/>
<path d="M137.319 111.486L137.424 111.316C136.793 109.496 134.839 108.429 132.932 108.158C131.009 108.031 129.079 108.095 127.169 108.348C125.241 108.598 123.287 108.167 121.642 107.131C120.33 106.149 119.582 104.605 118.532 103.346C117.483 102.087 115.784 101.052 114.259 101.654C112.609 102.306 112.169 104.619 112.969 106.203C113.913 107.723 115.337 108.884 117.015 109.504C123.369 112.421 130.52 113.119 137.319 111.486Z" fill="#E6E6E6"/>
<path d="M115.627 116.943C115.099 117.329 114.741 117.905 114.628 118.55C114.515 119.194 114.656 119.858 115.021 120.401C115.385 120.944 115.946 121.325 116.586 121.464C117.225 121.604 117.894 121.49 118.451 121.148L119.008 121.698C119.749 120.371 120.054 118.595 119.107 117.407C118.686 116.915 118.098 116.595 117.456 116.509C116.814 116.424 116.162 116.578 115.627 116.943Z" fill="#E6E6E6"/>
<path d="M109.111 121.7C109.119 121.227 108.983 120.761 108.722 120.366C108.461 119.971 108.086 119.664 107.647 119.485C107.348 119.434 107.042 119.444 106.746 119.514C106.451 119.584 106.174 119.714 105.93 119.894C105.686 120.074 105.481 120.302 105.328 120.564C105.175 120.826 105.076 121.116 105.037 121.416C104.992 122.029 105.072 122.645 105.274 123.225C105.476 123.806 105.795 124.339 106.212 124.79C106.454 125.154 106.771 125.463 107.141 125.696C107.512 125.928 107.927 126.08 108.36 126.14C109.233 126.169 110.123 125.256 109.769 124.458L108.436 124.432C108.847 123.578 109.076 122.648 109.111 121.7Z" fill="#E6E6E6"/>
<path d="M83.0517 108.054C83.541 108.45 84.0304 108.847 84.5199 109.244C85.3675 109.976 86.2832 110.627 87.2545 111.185C88.9534 112.126 90.9513 112.371 92.827 111.868C93.7531 111.603 94.5977 111.111 95.2832 110.434C95.9686 109.758 96.4727 108.92 96.749 107.997C97.3342 105.792 96.3797 103.503 95.4456 101.422C95.2324 100.826 94.8807 100.29 94.4194 99.8571C94.183 99.6478 93.8816 99.5266 93.5661 99.5142C93.2506 99.5018 92.9406 99.5989 92.6886 99.7891C92.5058 100.017 92.3842 100.287 92.3355 100.575C92.2867 100.863 92.3123 101.158 92.4099 101.434C92.6107 101.982 92.7025 102.564 92.6801 103.147C92.5871 103.723 91.983 104.267 91.4509 104.029L91.3662 105.988C88.8252 104.702 87.4813 101.28 84.6535 100.943C84.0188 100.867 83.3755 100.967 82.7938 101.232C82.2121 101.497 81.7142 101.916 81.3547 102.445C80.9951 102.973 80.7875 103.59 80.7546 104.229C80.7217 104.867 80.8648 105.502 81.1682 106.065C81.6591 106.845 82.2992 107.521 83.0517 108.054Z" fill="#E6E6E6"/>
<path d="M76.9995 99.5966C77.5872 99.1936 78.0523 98.6361 78.3434 97.9856C78.6345 97.335 78.7403 96.6168 78.6492 95.91C78.5788 95.5676 78.4339 95.245 78.2247 94.965C78.0155 94.685 77.7472 94.4545 77.4389 94.2899C77.1305 94.1254 76.7897 94.0308 76.4407 94.0129C76.0916 93.995 75.7429 94.0542 75.4194 94.1863C74.6934 94.7291 74.1834 95.5118 73.98 96.3951C73.3104 98.2842 72.6407 100.173 71.9709 102.062L73.0965 101.243C74.4891 100.943 75.8129 100.385 76.9995 99.5966Z" fill="#E6E6E6"/>
<path d="M90.0426 88.0037C90.2437 87.7501 90.3868 87.4555 90.4617 87.1407C90.5367 86.8258 90.5418 86.4984 90.4765 86.1814C90.4113 85.8644 90.2774 85.5656 90.0842 85.3059C89.8911 85.0462 89.6433 84.8321 89.3585 84.6785L87.9511 84.5469C87.6311 84.6279 87.3346 84.7828 87.0852 84.9991C86.8359 85.2155 86.6408 85.4872 86.5155 85.7926C86.3902 86.098 86.3382 86.4285 86.3637 86.7576C86.3893 87.0867 86.4916 87.4052 86.6624 87.6877C86.8333 87.9701 87.068 88.2085 87.3477 88.3839C87.6274 88.5592 87.9443 88.6665 88.2729 88.6972C88.6016 88.728 88.9328 88.6812 89.2402 88.5608C89.5475 88.4403 89.8223 88.2495 90.0426 88.0037Z" fill="#E6E6E6"/>
<path d="M102.99 90.1761C104.304 90.8045 105.966 91.4032 107.109 90.5009C107.447 90.1946 107.699 89.8046 107.838 89.37C107.978 88.9355 108.001 88.4718 107.904 88.0257C107.699 87.1357 107.303 86.3011 106.743 85.5797C104.995 83.0712 102.776 80.9277 100.208 79.2693L99.5725 80.0943C98.6856 82.3973 97.8293 85.0858 99.0664 87.2213C99.9005 88.6608 101.489 89.458 102.99 90.1761Z" fill="#E6E6E6"/>
<path d="M112.774 92.2255L115.23 93.3363C114.989 92.9167 114.622 92.5835 114.182 92.3841C113.741 92.1847 113.248 92.1292 112.774 92.2255Z" fill="#E6E6E6"/>
<path d="M106.156 99.9525L104.996 100.335C104.009 101.956 104.437 104.03 104.896 105.872C105.186 107.036 105.812 108.469 107.011 108.416C108.177 108.364 108.694 106.95 108.917 105.804C109.267 104.559 109.305 103.247 109.028 101.984C108.87 101.359 108.494 100.811 107.967 100.438C107.441 100.066 106.798 99.8935 106.156 99.9525Z" fill="#E6E6E6"/>
<path d="M87.6504 94.4949L88.509 94.8407C88.7103 94.8119 88.8965 94.7176 89.0388 94.5723C89.1811 94.427 89.2714 94.2388 89.2959 94.037C89.3203 93.8351 89.2775 93.6308 89.1741 93.4557C89.0706 93.2806 88.9123 93.1446 88.7236 93.0686C88.535 92.9926 88.3266 92.981 88.1307 93.0355C87.9348 93.0901 87.7623 93.2077 87.6401 93.3702C87.5178 93.5327 87.4525 93.731 87.4544 93.9343C87.4562 94.1377 87.5251 94.3347 87.6504 94.4949Z" fill="#E6E6E6"/>
<path d="M130.939 160.152C130.523 160.161 130.115 160.27 129.75 160.468C129.384 160.667 129.072 160.951 128.838 161.295C128.604 161.639 128.456 162.034 128.406 162.447C128.356 162.86 128.406 163.279 128.551 163.669C129.394 165.485 132.298 165.493 133.588 163.962C133.919 163.527 134.156 163.029 134.284 162.498C134.412 161.967 134.429 161.415 134.333 160.878C134.237 160.34 134.031 159.828 133.727 159.374C133.424 158.92 133.029 158.534 132.569 158.24L130.939 160.152Z" fill="#E6E6E6"/>
<path d="M172.764 203.163C172.427 203.253 172.11 203.41 171.835 203.624C171.559 203.838 171.329 204.105 171.158 204.41C170.987 204.715 170.879 205.051 170.84 205.398C170.802 205.745 170.833 206.096 170.932 206.431L173.343 206.599C174.159 206.189 174.976 205.779 175.792 205.369C175.743 205.023 175.625 204.691 175.445 204.392C175.265 204.092 175.027 203.832 174.744 203.626C174.462 203.421 174.141 203.274 173.801 203.194C173.461 203.114 173.108 203.104 172.764 203.163Z" fill="#E6E6E6"/>
<path d="M162.965 206.145C162.275 206.635 161.721 207.292 161.356 208.055C160.991 208.818 160.825 209.662 160.876 210.506C160.955 211.348 161.299 212.144 161.86 212.778C162.421 213.411 163.168 213.85 163.995 214.03C164.829 214.161 165.682 213.97 166.381 213.496C167.08 213.022 167.573 212.3 167.76 211.477C168.168 208.983 165.488 207.157 164.525 204.821L162.965 206.145Z" fill="#E6E6E6"/>
<path d="M256.601 189.676C256.855 191.548 255.168 193.188 255.106 195.076C255.031 197.316 257.47 199.059 259.701 198.84C260.808 198.648 261.856 198.202 262.761 197.536C263.667 196.871 264.406 196.005 264.92 195.006L264.968 194.796C263.882 193.567 262.795 192.339 261.709 191.111C260.374 189.603 258.96 187.886 259.012 185.873C259.038 184.881 259.429 183.919 259.407 182.927C259.355 182.213 259.196 181.511 258.935 180.844C258.64 179.966 258.24 178.977 257.362 178.681C256.264 178.31 255.156 179.283 254.632 180.317C254.16 181.27 253.931 182.325 253.965 183.388C253.998 184.451 254.293 185.49 254.823 186.412C255.458 187.49 256.432 188.437 256.601 189.676Z" fill="#E6E6E6"/>
<path d="M246.354 196.262C246.592 196.391 246.854 196.466 247.124 196.483C247.393 196.501 247.663 196.459 247.915 196.362C248.883 196.197 249.814 195.859 250.662 195.364C251.083 195.111 251.43 194.75 251.666 194.319C251.902 193.888 252.019 193.402 252.006 192.911C251.859 192.293 251.532 191.733 251.067 191.301C250.602 190.869 250.019 190.584 249.392 190.484C248.957 190.331 248.491 190.287 248.035 190.357C247.578 190.426 247.147 190.607 246.777 190.883C245.967 191.643 246.064 192.932 246.223 194.03L246.052 194.317C245.9 194.995 245.802 195.839 246.354 196.262Z" fill="#E6E6E6"/>
<path d="M417.38 276.265C417.145 275.681 416.91 275.096 416.674 274.512C416.352 275.306 416.472 276.118 417.38 276.265Z" fill="#E6E6E6"/>
<path d="M558.457 153.338C555.441 150.066 553.594 148.18 551.69 144.124C550.653 141.887 549.079 139.941 547.108 138.461C545.136 136.981 542.829 136.011 540.392 135.64C534.136 134.609 527.742 136.241 521.409 135.914C511.266 135.39 502.119 129.95 492.406 126.982C486.967 125.459 481.428 124.316 475.83 123.564C472.605 123.054 469.379 122.544 466.154 122.034C455.58 120.361 444.94 118.684 434.237 118.906C431.151 118.971 426.852 118.043 427.099 114.966C427.406 111.145 434.282 111.646 435.604 108.048C436.422 105.822 434.464 103.485 432.317 102.478C430.169 101.472 427.691 101.169 425.742 99.8175C423.793 98.4662 422.725 95.3335 424.516 93.7791C419.551 96.3242 414.587 98.8693 409.622 101.414C405.494 103.53 400.882 106.284 400.153 110.864C397.666 111.522 395.489 113.034 394.006 115.135C391.213 115.15 389.018 117.831 388.558 120.585C388.097 123.34 388.934 126.128 389.762 128.795C388.749 126.855 387.673 124.84 385.888 123.574C384.102 122.308 381.384 122.067 379.862 123.64C378.3 125.254 378.665 127.962 379.77 129.917C380.875 131.872 382.573 133.451 383.615 135.44C386.872 141.654 380.971 150.401 373.99 149.709C374.459 143.293 374.927 136.877 375.395 130.461C375.692 128.488 375.526 126.472 374.91 124.574C374.149 122.737 372.199 121.229 370.258 121.662C366.77 122.442 367.068 127.553 368.519 130.82C369.97 134.087 371.417 138.631 368.454 140.632C366.541 141.924 363.947 141.126 361.882 140.094C359.816 139.063 357.607 137.792 355.349 138.274C353.091 138.756 351.671 142.207 353.666 143.369C350.358 142.794 347.049 142.219 343.741 141.644C343.577 142.618 343.211 143.547 342.666 144.37C342.121 145.194 341.409 145.894 340.576 146.425C339.744 146.956 338.809 147.307 337.833 147.454C336.856 147.601 335.86 147.542 334.908 147.28C334.583 145.934 334.258 144.588 333.933 143.243C333.449 143.108 332.965 142.973 332.481 142.838C334.001 143.261 331.623 149.67 329.492 154.565C326.626 154.229 322.439 154.165 321.961 153.344C319.673 149.412 319.945 140.046 315.969 137.834C313.976 136.725 311.931 135.714 309.836 134.801C308.736 134.278 307.573 133.896 306.376 133.665C303.935 133.281 301.474 134.038 299.118 134.786C296.335 135.67 293.486 136.587 291.181 138.381C289.213 140.088 287.526 142.094 286.182 144.326C281.632 151.061 277.081 157.796 272.53 164.53C271.175 166.329 270.108 168.328 269.369 170.455C269.02 171.513 268.904 172.634 269.029 173.741C269.153 174.848 269.515 175.915 270.089 176.869C270.694 177.804 271.597 178.509 272.651 178.869C273.705 179.229 274.85 179.224 275.902 178.855C277.22 178.284 278.541 176.99 279.848 177.588C280.838 178.04 281.086 179.341 280.982 180.425C280.73 181.486 280.71 182.588 280.924 183.657C281.519 185.344 283.808 185.931 285.441 185.201C287.028 184.335 288.218 182.886 288.759 181.161C290.332 177.126 290.172 172.662 290.563 168.349C290.955 164.036 292.134 159.423 295.534 156.741C296.552 155.938 298.048 155.36 299.095 156.123C299.488 156.48 299.759 156.95 299.871 157.468C299.983 157.986 299.931 158.526 299.721 159.013C299.283 159.977 298.712 160.874 298.025 161.679C296.863 163.313 296.05 165.169 295.636 167.132C295.223 169.094 295.217 171.12 295.621 173.084L296.316 173.515C298.967 172.827 302.515 174.058 306.035 175.239C303.48 175.999 301.23 177.546 299.607 179.661C295.538 185.369 292.593 190.772 284.544 190.704C282.635 190.688 280.742 190.31 278.832 190.306C276.905 190.187 275.006 190.819 273.535 192.07C272.088 193.488 271.64 195.646 270.402 197.249C268.773 199.357 266.051 200.215 263.566 201.172C261.749 201.872 259.834 202.816 258.999 204.575C258.474 206.017 258.353 207.575 258.649 209.081C258.929 211.745 259.424 214.774 261.684 216.212C262.529 216.652 263.453 216.921 264.403 217.001C265.352 217.081 266.309 216.972 267.216 216.68C269.566 216.108 271.864 215.031 274.278 215.192C278.067 215.444 281.188 219.082 281.226 222.88C281.246 224.802 280.685 227.007 281.959 228.447C283.156 229.8 285.531 229.558 286.772 228.245C287.348 227.547 287.745 226.717 287.927 225.83C288.11 224.943 288.072 224.024 287.817 223.155C287.29 221.423 286.48 219.791 285.419 218.324C286.68 217.998 288.016 218.118 289.199 218.664C290.381 219.211 291.338 220.151 291.906 221.323C292.748 223.193 292.476 225.351 292.744 227.384C293.013 229.417 294.251 231.677 296.298 231.794C296.968 231.813 297.623 231.597 298.149 231.183C298.676 230.77 299.042 230.185 299.183 229.53C299.204 228.498 299.148 227.466 299.014 226.443C299.084 225.436 299.537 224.493 300.28 223.809C301.022 223.125 301.998 222.75 303.008 222.763C302.385 223.914 302.183 225.246 302.435 226.53C302.687 227.814 303.378 228.97 304.389 229.801C305.948 231.006 308.007 231.276 309.948 231.613C311.889 231.95 313.96 232.482 315.212 234.003C317.299 236.536 314.746 237.677 314.348 239.821C313.861 242.455 316.06 246.343 316.905 248.862C320.787 254.294 324.67 259.725 328.552 265.156C329.418 266.477 330.441 267.688 331.596 268.765C335.429 272.057 341.747 271.732 345.422 268.266C347.204 266.463 348.361 264.137 348.723 261.628C349.085 259.119 348.634 256.56 347.435 254.327C345.164 250.192 340.663 247.632 338.441 243.471C342.14 246.533 346.681 248.401 351.464 248.827C359.926 250.546 367.966 253.918 375.124 258.749C375.46 266.227 378.329 273.368 383.26 279C384.147 272.619 387.122 266.71 391.721 262.198C394.712 259.281 398.799 256.929 402.903 257.713C407.006 258.498 410.119 263.731 407.637 267.091C409.717 267.246 411.797 267.401 413.876 267.555C414.809 269.874 415.742 272.193 416.675 274.512C416.841 274.025 417.158 273.603 417.581 273.31C418.004 273.016 418.51 272.866 419.025 272.881C420.972 273.175 422.337 274.986 424.189 275.655C427.68 276.916 431.412 273.423 431.863 269.739C432.315 266.055 430.562 262.498 428.859 259.2C432.621 259.897 436.503 259.482 440.032 258.005C443.561 256.529 446.583 254.056 448.728 250.889C450.873 247.721 452.048 243.997 452.109 240.173C452.17 236.348 451.115 232.588 449.072 229.354C453.119 225.103 457.882 221.597 463.143 218.995C468.012 216.589 473.338 214.938 477.593 211.564C481.848 208.19 484.832 202.331 482.786 197.301C481.34 193.747 477.713 191.336 476.628 187.656C475.057 182.33 479.829 176.82 485.221 175.489C490.613 174.159 496.243 175.794 501.554 177.417C500.738 171.952 507.073 166.829 512.246 168.77C514.413 167.892 516.58 167.015 518.747 166.137C516.235 171.675 510.792 175.198 506.79 179.777C502.788 184.354 500.405 191.81 504.585 196.225C510.578 190.794 516.57 185.363 522.562 179.932C528.83 174.251 535.098 168.57 541.366 162.889C541.067 162.009 540.767 161.13 540.468 160.251C546.398 157.999 552.785 156.136 558.457 153.338Z" fill="#E6E6E6"/>
<path d="M247.214 226.435C246.972 226.783 246.843 227.198 246.845 227.622C246.847 228.047 246.98 228.46 247.226 228.806C247.548 229.08 247.955 229.232 248.377 229.238C248.799 229.244 249.21 229.102 249.539 228.837C250.183 228.288 250.685 227.592 251.005 226.809C251.316 227.411 251.805 227.903 252.406 228.217C253.006 228.532 253.689 228.654 254.361 228.567C255.704 228.364 256.976 227.834 258.064 227.022C258.928 226.516 259.69 225.855 260.313 225.071C260.621 224.677 260.833 224.215 260.931 223.725C261.029 223.234 261.011 222.727 260.878 222.244C260.555 221.504 260.053 220.855 259.417 220.357C257.831 218.893 256.246 217.428 254.66 215.963L254.123 215.802C253.843 215.505 253.506 215.267 253.133 215.103C252.759 214.939 252.355 214.852 251.947 214.848C251.539 214.843 251.134 214.921 250.756 215.078C250.379 215.234 250.037 215.464 249.751 215.756C248.767 216.858 248.762 218.505 248.913 219.975C249.063 221.445 249.297 223.012 248.643 224.337C248.268 225.096 247.632 225.698 247.214 226.435Z" fill="#E6E6E6"/>
<path d="M339.209 276.465C333.047 275.093 327.407 271.986 322.955 267.511C318.503 263.036 315.424 257.38 314.084 251.211C313.5 248.3 313.235 245.119 311.298 242.869C309.424 240.69 306.361 239.904 303.486 239.904C300.612 239.904 297.778 240.566 294.909 240.744C289.894 241.057 284.579 239.732 280.992 236.212C279.293 234.545 278.008 232.428 276.024 231.113C273.358 229.346 269.823 229.348 266.785 230.349C263.401 231.464 260.693 234.516 256.993 234.096C253.146 233.659 248.686 232.299 247.177 237.365C246.743 238.824 246.891 240.424 246.341 241.844C245.493 244.031 243.243 245.264 241.463 246.792C237.877 249.87 235.971 254.545 235.329 259.227C234.687 263.908 235.184 268.662 235.681 273.361C235.949 275.896 236.302 278.624 238.043 280.485C240.47 283.08 244.542 282.98 248.083 282.687C252.197 282.348 256.31 282.008 260.424 281.668C262.642 281.485 265.168 281.408 266.747 282.975C267.693 283.915 268.093 285.274 268.925 286.316C269.672 287.203 270.697 287.81 271.833 288.039C272.97 288.268 274.15 288.106 275.182 287.578C274.348 289.068 273.894 290.741 273.86 292.448C273.826 294.156 274.214 295.845 274.989 297.367C275.764 298.889 276.902 300.197 278.303 301.174C279.703 302.151 281.323 302.768 283.019 302.969L283.336 303.169C280.703 307.679 277.97 312.743 279.062 317.85C279.999 322.229 283.625 325.74 284.218 330.178C284.762 334.251 282.638 338.415 283.578 342.415C284.529 346.465 288.62 349.289 292.769 349.59C296.919 349.892 300.996 348.051 304.21 345.409C307.424 342.767 309.91 339.365 312.359 336.001C313.871 333.925 315.422 331.763 315.941 329.247C316.493 326.57 315.853 323.603 317.155 321.199C318.656 318.427 322.22 317.388 324.019 314.799C326.348 311.447 324.976 306.881 325.491 302.831C326.765 292.81 339.499 286.563 339.209 276.465Z" fill="#E6E6E6"/>
<path d="M337.37 310.679C337.022 312.244 335.557 313.275 334.16 314.062C332.764 314.85 331.229 315.645 330.517 317.081C329.789 318.553 330.122 320.306 330.503 321.903C331.296 325.225 332.23 328.51 333.305 331.756C335.388 327.82 337.207 323.748 338.75 319.57C339.403 318.014 339.807 316.365 339.945 314.683C340.009 313.842 339.896 312.996 339.613 312.201C339.33 311.405 338.883 310.678 338.302 310.066L337.37 310.679Z" fill="#E6E6E6"/>
<path d="M423.06 293.249C421.31 291.229 419.56 289.209 417.811 287.19C416.614 285.808 415.25 284.333 413.437 284.103L412.69 284.579C414.207 288.192 415.724 291.804 417.242 295.416C417.779 297.066 418.724 298.553 419.99 299.739C421.348 300.806 423.55 301.011 424.682 299.707C425.047 299.218 425.278 298.642 425.35 298.036C425.422 297.43 425.334 296.816 425.094 296.255C424.6 295.14 423.911 294.122 423.06 293.249Z" fill="#E6E6E6"/>
<path d="M440.014 297.117C440.675 296.887 441.281 296.522 441.793 296.045C442.305 295.567 442.712 294.988 442.988 294.345C443.53 293.056 443.888 291.696 444.052 290.307C444.351 288.499 444.65 286.69 444.949 284.881L444.558 284.781C444.178 284.598 443.744 284.56 443.338 284.673C442.932 284.785 442.581 285.042 442.349 285.394C441.908 286.112 441.575 286.891 441.359 287.705C441.248 288.112 441.047 288.489 440.77 288.807C440.493 289.126 440.148 289.377 439.76 289.543C438.356 289.967 437.026 288.479 435.56 288.537C434.967 288.612 434.418 288.886 434.001 289.314C433.585 289.741 433.325 290.298 433.265 290.892C433.181 292.091 433.52 293.282 434.225 294.256C435.475 296.196 437.795 297.756 440.014 297.117Z" fill="#E6E6E6"/>
<path d="M449.688 300.546L453.72 289.926C452.087 291.111 450.835 292.747 450.118 294.634C449.402 296.521 449.252 298.576 449.688 300.546Z" fill="#E6E6E6"/>
<path d="M470.266 291.985L469.451 292.02C469.087 292.741 468.893 293.536 468.885 294.343C468.878 295.151 469.056 295.949 469.407 296.677C470.122 298.128 471.163 299.393 472.449 300.375C474.441 302.019 476.714 303.289 479.159 304.122C482.745 305.168 486.452 305.739 490.187 305.821C492.321 305.96 494.456 306.1 496.591 306.24C497.607 306.306 498.923 306.177 499.205 305.198C499.439 304.39 498.75 303.63 498.107 303.087C492.459 298.334 485.613 295.227 478.317 294.105C475.549 293.684 472.613 293.511 470.266 291.985Z" fill="#E6E6E6"/>
<path d="M493.052 320.17C491.517 318.681 489.981 317.192 488.446 315.704C486.953 314.256 484.716 312.722 483.005 313.904C482.022 314.583 481.719 315.908 480.885 316.765C480.377 317.22 479.764 317.541 479.101 317.699C478.438 317.857 477.746 317.847 477.088 317.669C475.777 317.301 474.537 316.713 473.422 315.932L469.612 313.568C468.298 312.752 466.983 311.937 465.669 311.121L462.702 314.004C462.831 312.585 460.94 311.663 459.63 312.224C459.008 312.573 458.472 313.058 458.063 313.643C457.654 314.228 457.382 314.897 457.267 315.602C457.049 317.01 456.669 318.388 456.133 319.708C454.627 322.592 450.97 323.446 447.753 323.929C444.536 324.412 440.891 325.092 439.169 327.852C437.735 330.151 438.164 333.103 438.644 335.77L440.457 345.86C440.542 347.083 441.033 348.242 441.85 349.155C443.443 350.561 445.911 349.706 447.855 348.849C451.919 346.894 456.28 345.63 460.759 345.109C465.277 344.603 469.825 345.767 473.544 348.383C475.85 350.139 477.608 352.569 480.051 354.128C481.733 355.141 483.625 355.755 485.581 355.926C487.538 356.097 489.507 355.819 491.34 355.114C495.013 353.651 498.053 350.94 499.926 347.457C501.588 344.386 502.422 340.935 502.346 337.444C502.27 333.953 501.287 330.542 499.492 327.546C497.66 324.83 495.496 322.352 493.052 320.17Z" fill="#E6E6E6"/>
<path d="M488.525 361.278C488.157 361.725 487.941 362.279 487.91 362.857C487.879 363.436 488.034 364.009 488.353 364.493C489.022 365.452 490.042 366.109 491.191 366.32C492.33 366.524 493.49 366.577 494.642 366.479L494.678 365.617C494.37 364.107 493.674 362.703 492.656 361.544C491.544 360.487 489.579 360.163 488.525 361.278Z" fill="#E6E6E6"/>
<path d="M528.057 362.199L527.507 361.997C526.197 363.972 524.887 365.946 523.577 367.92C522.873 368.983 522.137 370.259 522.567 371.459C523.076 372.879 524.957 373.295 526.419 372.92C527.534 372.617 528.54 372.003 529.318 371.148C530.097 370.294 530.615 369.235 530.813 368.097C530.974 366.952 530.8 365.786 530.311 364.739C529.821 363.692 529.038 362.809 528.057 362.199Z" fill="#E6E6E6"/>
<path d="M538.044 355.933L534.427 353.058C534.379 354.391 534.331 355.725 534.282 357.059L534.146 357.061C534.98 357.793 535.768 358.576 536.504 359.405C537.35 360.125 538.771 360.454 539.494 359.611C539.711 359.309 539.833 358.95 539.847 358.579C539.861 358.208 539.765 357.841 539.572 357.524C539.174 356.896 538.654 356.355 538.044 355.933Z" fill="#E6E6E6"/>
<path d="M472.709 230.853C471.192 230.806 469.513 230.714 468.337 231.674C467.95 232.02 467.61 232.415 467.327 232.85L466.913 233.431C466.292 234.243 465.751 235.113 465.297 236.029C465.06 236.458 464.918 236.933 464.88 237.422C464.842 237.911 464.909 238.402 465.077 238.863C465.175 239.083 465.319 239.279 465.5 239.437C465.682 239.595 465.896 239.712 466.127 239.778C466.358 239.845 466.602 239.859 466.839 239.821C467.077 239.784 467.303 239.694 467.503 239.559C468.151 238.958 468 237.868 468.49 237.133C468.706 236.856 468.983 236.633 469.3 236.481C469.617 236.329 469.965 236.254 470.316 236.26C471.016 236.277 471.714 236.356 472.401 236.495C474.303 236.756 476.24 236.467 477.984 235.662C479.727 234.857 481.203 233.57 482.239 231.952C483.274 230.335 483.825 228.456 483.826 226.536C483.827 224.615 483.279 222.735 482.246 221.117L482.124 220.744C481.073 220.704 480.042 221.033 479.209 221.675C478.376 222.317 477.795 223.231 477.566 224.257C477.227 226.025 477.946 228.079 476.875 229.526C475.971 230.745 474.227 230.901 472.709 230.853Z" fill="#E6E6E6"/>
<path d="M486.293 212.109L486.062 212.089C484.705 212.337 483.402 212.822 482.214 213.523C481.824 213.704 481.512 214.019 481.337 214.412C481.285 214.62 481.286 214.838 481.34 215.046C481.393 215.254 481.497 215.445 481.643 215.602C481.938 215.914 482.283 216.173 482.664 216.37C483.231 216.749 483.858 217.029 484.518 217.2C484.849 217.282 485.196 217.28 485.526 217.194C485.857 217.109 486.161 216.943 486.411 216.711C486.646 216.388 486.807 216.018 486.884 215.626C486.961 215.235 486.951 214.831 486.855 214.444C486.747 213.648 486.559 212.866 486.293 212.109Z" fill="#E6E6E6"/>
<path d="M462.904 231.304C463.267 230.723 463.525 230.082 463.666 229.412C463.807 228.891 463.949 228.371 464.09 227.85L462.577 226.931C461.855 227.307 461.189 227.782 460.598 228.343C460.303 228.625 460.071 228.965 459.914 229.342C459.758 229.718 459.681 230.123 459.689 230.531C459.71 230.938 459.868 231.326 460.138 231.632C460.407 231.938 460.772 232.144 461.174 232.216C461.517 232.226 461.856 232.148 462.159 231.988C462.463 231.828 462.719 231.592 462.904 231.304Z" fill="#E6E6E6"/>
<path d="M298.119 90.6397C297.52 91.0126 297.689 91.9139 297.932 92.5757C298.211 93.3355 298.489 94.0952 298.768 94.855L299.158 93.3801C299.5 92.8081 299.651 92.1418 299.589 91.4781C299.454 90.8298 298.681 90.2895 298.119 90.6397Z" fill="#E6E6E6"/>
<path d="M675.783 227.5H422.783C416.686 227.493 410.839 225.068 406.528 220.756C402.216 216.444 399.79 210.598 399.783 204.5V23.5C399.79 17.4022 402.216 11.556 406.528 7.2442C410.839 2.93237 416.686 0.506937 422.783 0.5H675.783C681.881 0.506934 687.727 2.93237 692.039 7.2442C696.351 11.556 698.777 17.4021 698.783 23.5V204.5C698.777 210.598 696.351 216.444 692.039 220.756C687.727 225.068 681.881 227.493 675.783 227.5Z" fill="white"/>
<path d="M675.783 227.5H422.783C416.686 227.493 410.839 225.068 406.528 220.756C402.216 216.444 399.79 210.598 399.783 204.5V23.5C399.79 17.4022 402.216 11.556 406.528 7.2442C410.839 2.93237 416.686 0.506937 422.783 0.5H675.783C681.881 0.506934 687.727 2.93237 692.039 7.2442C696.351 11.556 698.777 17.4021 698.783 23.5V204.5C698.777 210.598 696.351 216.444 692.039 220.756C687.727 225.068 681.881 227.493 675.783 227.5ZM422.783 2.5C417.216 2.50624 411.878 4.72074 407.941 8.65765C404.004 12.5946 401.79 17.9324 401.783 23.5V204.5C401.79 210.068 404.004 215.405 407.941 219.342C411.878 223.279 417.216 225.494 422.783 225.5H675.783C681.351 225.494 686.689 223.279 690.626 219.342C694.563 215.405 696.777 210.068 696.783 204.5V23.5C696.777 17.9324 694.563 12.5946 690.626 8.65765C686.689 4.72074 681.351 2.50624 675.783 2.5H422.783Z" fill="#3F3D56"/>
<path d="M491.618 28.0591H451.618C450.557 28.0591 449.54 27.6377 448.79 26.8875C448.04 26.1374 447.618 25.1199 447.618 24.0591C447.618 22.9982 448.04 21.9808 448.79 21.2307C449.54 20.4805 450.557 20.0591 451.618 20.0591H491.618C492.679 20.0591 493.696 20.4805 494.447 21.2307C495.197 21.9808 495.618 22.9982 495.618 24.0591C495.618 25.1199 495.197 26.1374 494.447 26.8875C493.696 27.6377 492.679 28.0591 491.618 28.0591Z" fill="#CCCCCC"/>
<path d="M578.618 118.059H451.618C450.557 118.059 449.54 117.638 448.79 116.888C448.04 116.137 447.618 115.12 447.618 114.059C447.618 112.998 448.04 111.981 448.79 111.231C449.54 110.481 450.557 110.059 451.618 110.059H578.618C579.679 110.059 580.696 110.481 581.447 111.231C582.197 111.981 582.618 112.998 582.618 114.059C582.618 115.12 582.197 116.137 581.447 116.888C580.696 117.638 579.679 118.059 578.618 118.059Z" fill="#CCCCCC"/>
<path d="M474.114 92.807C488.926 92.807 500.933 80.7998 500.933 65.9881C500.933 51.1764 488.926 39.1692 474.114 39.1692C459.303 39.1692 447.295 51.1764 447.295 65.9881C447.295 80.7998 459.303 92.807 474.114 92.807Z" fill="#FBC531"/>
<path d="M453.618 194.447H447.618V196.447H453.618V194.447Z" fill="#3F3D56"/>
<path d="M629.787 196.447H617.203V194.447H629.787V196.447ZM604.62 196.447H592.036V194.447H604.62V196.447ZM579.453 196.447H566.869V194.447H579.453V196.447ZM554.286 196.447H541.703V194.447H554.286L554.286 196.447ZM529.119 196.447H516.536V194.447H529.119V196.447ZM503.952 196.447H491.369V194.447H503.952L503.952 196.447ZM478.785 196.447H466.202V194.447H478.785V196.447Z" fill="#3F3D56"/>
<path d="M648.37 194.447H642.37V196.447H648.37V194.447Z" fill="#3F3D56"/>
<path d="M549.457 159.059H544.457V193.059H549.457V159.059Z" fill="#FBC531"/>
<path d="M600.457 159.059H595.457V193.059H600.457V159.059Z" fill="#FBC531"/>
<path d="M625.457 178.059H620.457V193.059H625.457V178.059Z" fill="#FBC531"/>
<path d="M574.457 144.059H569.457V193.059H574.457V144.059Z" fill="#FBC531"/>
<path d="M90.4568 227.059C93.7705 227.059 96.4568 224.373 96.4568 221.059C96.4568 217.745 93.7705 215.059 90.4568 215.059C87.1431 215.059 84.4568 217.745 84.4568 221.059C84.4568 224.373 87.1431 227.059 90.4568 227.059Z" fill="#FBC531"/>
<path d="M106.457 198.059C109.77 198.059 112.457 195.373 112.457 192.059C112.457 188.745 109.77 186.059 106.457 186.059C103.143 186.059 100.457 188.745 100.457 192.059C100.457 195.373 103.143 198.059 106.457 198.059Z" fill="#FBC531"/>
<path d="M282.457 175.059C285.77 175.059 288.457 172.373 288.457 169.059C288.457 165.745 285.77 163.059 282.457 163.059C279.143 163.059 276.457 165.745 276.457 169.059C276.457 172.373 279.143 175.059 282.457 175.059Z" fill="#FBC531"/>
<path d="M144.731 597.967L153.781 597.966L158.086 563.059L144.729 563.06L144.731 597.967Z" fill="#FFB6B6"/>
<path d="M144.412 607.407L172.242 607.406V607.055C172.242 604.182 171.1 601.427 169.069 599.395C167.038 597.364 164.283 596.223 161.41 596.223L156.326 592.366L146.841 596.223L144.412 596.223L144.412 607.407Z" fill="#2F2E41"/>
<path d="M212.731 597.967L221.781 597.966L226.086 563.059L212.729 563.06L212.731 597.967Z" fill="#FFB6B6"/>
<path d="M212.412 607.407L240.242 607.406V607.055C240.242 604.182 239.1 601.427 237.069 599.395C235.038 597.364 232.283 596.223 229.41 596.223L224.326 592.366L214.841 596.223L212.412 596.223L212.412 607.407Z" fill="#2F2E41"/>
<path d="M144.379 314.006L160.44 311.706C165.872 320.788 167.802 344.964 167.802 344.964L183.52 382.322C184.561 383.029 185.397 383.998 185.945 385.131C186.492 386.264 186.732 387.521 186.639 388.776C186.546 390.031 186.124 391.239 185.416 392.28C184.708 393.32 183.738 394.155 182.604 394.701C181.471 395.247 180.213 395.485 178.958 395.391C177.703 395.296 176.496 394.873 175.456 394.164C174.417 393.454 173.583 392.483 173.038 391.349C172.493 390.215 172.257 388.957 172.353 387.702L146.546 344.219L144.379 314.006Z" fill="#FFB6B6"/>
<path d="M153.084 269.418C150.598 269.803 148.228 270.731 146.141 272.136C144.055 273.542 142.304 275.389 141.013 277.548C139.721 279.707 138.922 282.124 138.671 284.627C138.42 287.13 138.724 289.657 139.561 292.03L142.969 301.69C142.969 301.69 138.676 330.777 145.751 338.988L167.462 337.022C167.462 337.022 163.493 322.347 166.54 315.247C168.407 310.899 168.303 295.88 166.464 283.663C165.06 274.334 162.407 267.974 153.084 269.418Z" fill="#3F3D56"/>
<path d="M227.957 357.059C227.957 357.059 244.692 373.38 241.118 377.149C237.544 380.919 229.37 386.199 236.957 387.059C244.544 387.919 247.692 389.783 241.118 391.351C234.544 392.919 235.56 396.945 235.56 396.945C235.56 396.945 245.457 444.059 237.957 475.059C237.957 475.059 233.783 559.731 231.163 566.325C228.544 572.919 227.544 568.919 228.544 572.919C229.544 576.919 231.544 569.919 229.544 576.919C228.453 580.576 227.589 584.296 226.957 588.059L207.395 585.059C207.395 585.059 204.245 575.132 207.395 572.525C210.544 569.919 213.369 571.525 209.957 565.722C206.544 559.919 205.544 567.919 206.544 559.919C207.544 551.919 203.369 508.651 209.957 485.785L197.784 421.622L178.457 488.059C178.457 488.059 168.206 569.199 164.875 572.059C161.544 574.919 156.544 569.919 161.544 574.919C166.544 579.919 166.457 579.059 166.544 579.919C167.475 589.091 138.846 579.059 138.846 579.059C139.005 576.729 139.005 574.39 138.846 572.059C138.544 569.919 142.147 569.234 138.846 567.077C135.544 564.919 140.457 567.059 140.457 567.059C140.457 567.059 147.84 507.199 153.457 489.059L159.957 400.723C159.957 400.723 160.369 402.485 159.957 398.202C159.544 393.919 156.544 396.919 159.544 393.919C162.544 390.919 164.544 389.39 162.544 387.155C160.544 384.919 155.027 380.396 158.286 377.658C161.544 374.919 167.957 357.059 167.957 357.059L230.457 357.559" fill="#2F2E41"/>
<path d="M204.458 257.885L193.188 245.196L175.381 247.175L163.981 263.13C157.912 264.525 152.609 268.192 149.163 273.378C145.716 278.564 144.389 284.874 145.453 291.009C149.877 316.484 164.912 341.192 159.947 353.761C152.411 372.841 151.951 380.623 169.99 377.948C188.029 375.273 248.464 369.106 236.747 357.389C225.03 345.672 222.457 326.093 222.457 326.093L221.987 281.299C222.485 278.597 222.419 275.821 221.792 273.147C221.165 270.472 219.992 267.956 218.345 265.756C216.699 263.557 214.615 261.723 212.225 260.368C209.835 259.013 207.19 258.168 204.458 257.885Z" fill="#3F3D56"/>
<path d="M201.379 307.006L217.44 304.706C222.872 313.788 224.802 337.964 224.802 337.964L240.52 375.322C241.561 376.029 242.397 376.998 242.945 378.131C243.492 379.264 243.732 380.521 243.639 381.776C243.546 383.031 243.124 384.239 242.416 385.28C241.708 386.32 240.738 387.155 239.604 387.701C238.471 388.247 237.213 388.485 235.958 388.391C234.703 388.296 233.496 387.873 232.456 387.164C231.417 386.454 230.583 385.483 230.038 384.349C229.493 383.215 229.257 381.957 229.353 380.702L203.546 337.219L201.379 307.006Z" fill="#FFB6B6"/>
<path d="M210.084 262.418C207.598 262.803 205.228 263.731 203.141 265.136C201.055 266.542 199.304 268.389 198.013 270.548C196.721 272.707 195.922 275.124 195.671 277.627C195.42 280.13 195.724 282.657 196.561 285.03L199.969 294.69C199.969 294.69 195.676 323.777 202.751 331.988L224.462 330.022C224.462 330.022 220.493 315.347 223.54 308.247C225.407 303.899 225.303 288.88 223.464 276.663C222.06 267.334 219.407 260.974 210.084 262.418Z" fill="#3F3D56"/>
<path d="M179.388 244.104C191.275 244.104 200.911 234.467 200.911 222.58C200.911 210.693 191.275 201.057 179.388 201.057C167.501 201.057 157.865 210.693 157.865 222.58C157.865 234.467 167.501 244.104 179.388 244.104Z" fill="#FFB6B6"/>
<path d="M175.43 243.649C181.424 242.148 181.628 240.435 187.623 238.933C189.531 238.455 191.743 237.701 192.309 235.817C192.443 235.127 192.415 234.416 192.228 233.74C192.041 233.063 191.7 232.438 191.231 231.916C190.286 230.881 189.401 229.794 188.581 228.659C188.037 227.747 187.724 226.717 187.667 225.657C187.611 224.597 187.814 223.539 188.258 222.575C188.702 221.611 189.375 220.769 190.217 220.123C191.06 219.478 192.046 219.046 193.093 218.867C194.947 218.55 196.859 219.041 198.725 218.804C201.285 218.478 205.049 208.982 203.409 206.99C201.811 205.052 199.19 203.896 198.309 201.544C197.733 200.006 198.048 198.285 197.791 196.663C197.411 194.257 192.543 200.918 193.191 198.57C194.78 192.811 167.887 191.904 165.087 199.293C164.041 202.054 161.208 202.493 159.029 204.486C157.601 205.793 154.186 209.973 153.69 212.226C153.28 214.504 153.359 216.844 153.922 219.089C156.156 229.615 159.847 238.944 169.673 243.329" fill="#2F2E41"/>
<path d="M5.70171 608.771L395.427 609.079C395.584 609.079 395.739 609.049 395.884 608.989C396.029 608.93 396.161 608.842 396.272 608.731C396.382 608.621 396.47 608.489 396.531 608.345C396.591 608.2 396.622 608.045 396.622 607.888C396.622 607.731 396.591 607.576 396.531 607.432C396.47 607.287 396.382 607.156 396.272 607.045C396.161 606.934 396.029 606.847 395.884 606.787C395.739 606.727 395.584 606.697 395.427 606.697L5.70171 606.39C5.54505 606.39 5.38985 606.42 5.245 606.48C5.10014 606.539 4.96846 606.627 4.85753 606.738C4.7466 606.848 4.65859 606.98 4.59854 607.124C4.53849 607.269 4.50757 607.424 4.50757 607.581C4.50757 607.737 4.53849 607.893 4.59854 608.037C4.65859 608.182 4.7466 608.313 4.85753 608.424C4.96846 608.535 5.10014 608.622 5.245 608.682C5.38985 608.742 5.54505 608.772 5.70171 608.771Z" fill="#CACACA"/>
</g>
<defs>
<clipPath id="clip0_99_3127">
<rect width="698.284" height="608.579" fill="white" transform="translate(0.5 0.5)"/>
</clipPath>
</defs>
</svg>
