<svg width="861" height="552" viewBox="0 0 861 552" fill="none" xmlns="http://www.w3.org/2000/svg">
<g clip-path="url(#clip0_98_1880)">
<path d="M804 487.5H586.652C578.744 487.491 571.163 484.346 565.572 478.755C559.98 473.163 556.835 465.582 556.826 457.675V114.832C556.835 106.924 559.98 99.3429 565.572 93.7514C571.163 88.1599 578.744 85.0147 586.652 85.0058H804C811.908 85.0147 819.489 88.1599 825.081 93.7514C830.672 99.3429 833.817 106.924 833.826 114.832V457.675C833.817 465.582 830.672 473.163 825.081 478.755C819.489 484.346 811.908 487.491 804 487.5Z" fill="#E6E6E6"/>
<path d="M807.605 102.803H586.242C583.767 102.806 581.394 103.791 579.643 105.541C577.893 107.291 576.908 109.665 576.905 112.14V459.453C576.909 461.928 577.894 464.301 579.644 466.051C581.394 467.801 583.767 468.786 586.242 468.79H807.605C810.08 468.787 812.453 467.802 814.203 466.052C815.954 464.302 816.938 461.928 816.941 459.453V112.14C816.938 109.665 815.954 107.291 814.203 105.541C812.453 103.791 810.08 102.806 807.605 102.803Z" fill="white"/>
<path d="M591.965 85.0058C591.965 84.4008 592.206 83.8209 592.634 83.3932C593.061 82.9654 593.641 82.7248 594.246 82.7241H609.762C610.367 82.7241 610.947 82.9645 611.375 83.3924C611.803 83.8203 612.044 84.4006 612.044 85.0058C612.044 85.6109 611.803 86.1913 611.375 86.6192C610.947 87.0471 610.367 87.2875 609.762 87.2875H594.246C593.641 87.2868 593.061 87.0461 592.634 86.6184C592.206 86.1906 591.965 85.6107 591.965 85.0058Z" fill="#E6E6E6"/>
<path d="M617.52 85.0058C617.52 84.4008 617.761 83.8209 618.189 83.3932C618.617 82.9654 619.197 82.7248 619.801 82.7241H635.317C635.922 82.7241 636.503 82.9645 636.931 83.3924C637.358 83.8203 637.599 84.4006 637.599 85.0058C637.599 85.6109 637.358 86.1913 636.931 86.6192C636.503 87.0471 635.922 87.2875 635.317 87.2875H619.801C619.197 87.2868 618.617 87.0462 618.189 86.6184C617.761 86.1907 617.52 85.6107 617.52 85.0058Z" fill="#E6E6E6"/>
<path d="M770.851 85.0058C770.852 84.4008 771.092 83.8209 771.52 83.3932C771.948 82.9654 772.528 82.7248 773.133 82.7241H788.648C789.254 82.7241 789.834 82.9645 790.262 83.3924C790.69 83.8203 790.93 84.4006 790.93 85.0058C790.93 85.6109 790.69 86.1913 790.262 86.6192C789.834 87.0471 789.254 87.2875 788.648 87.2875H773.133C772.528 87.2868 771.948 87.0462 771.52 86.6184C771.092 86.1907 770.852 85.6107 770.851 85.0058Z" fill="#E6E6E6"/>
<path d="M727.599 461.634C727.599 464.035 727.553 466.426 727.444 468.79H586.242C583.767 468.786 581.394 467.801 579.644 466.051C577.894 464.301 576.909 461.928 576.905 459.453V284.637C618.954 291.431 657.211 312.973 684.823 345.405C712.436 377.837 727.599 419.04 727.599 461.634Z" fill="#F2F2F2"/>
<path d="M722.804 192.056H670.143C667.747 192.056 665.804 193.999 665.804 196.395V201.809C665.804 204.206 667.747 206.148 670.143 206.148H722.804C725.2 206.148 727.143 204.206 727.143 201.809V196.395C727.143 193.999 725.2 192.056 722.804 192.056Z" fill="#FBC531"/>
<path d="M756.273 220.241H636.673C634.277 220.241 632.334 222.183 632.334 224.58V229.994C632.334 232.39 634.277 234.333 636.673 234.333H756.273C758.669 234.333 760.612 232.39 760.612 229.994V224.58C760.612 222.183 758.669 220.241 756.273 220.241Z" fill="#E6E6E6"/>
<path d="M756.273 248.426H636.673C634.277 248.426 632.334 250.368 632.334 252.765V258.179C632.334 260.575 634.277 262.518 636.673 262.518H756.273C758.669 262.518 760.612 260.575 760.612 258.179V252.765C760.612 250.368 758.669 248.426 756.273 248.426Z" fill="#E6E6E6"/>
<path d="M735.793 445.054C735.108 445.085 734.429 444.905 733.849 444.538C733.269 444.171 732.816 443.634 732.551 443.001C732.286 442.368 732.222 441.668 732.368 440.997C732.514 440.327 732.863 439.717 733.367 439.251L733.596 438.339C733.566 438.266 733.536 438.193 733.505 438.12C732.814 436.488 731.657 435.097 730.178 434.121C728.699 433.145 726.965 432.628 725.193 432.635C723.421 432.641 721.69 433.171 720.219 434.158C718.747 435.145 717.6 436.545 716.921 438.182C714.209 444.714 710.755 451.258 709.905 458.166C709.531 461.219 709.688 464.314 710.372 467.313C704.001 453.416 700.693 438.312 700.672 423.024C700.67 419.188 700.884 415.355 701.31 411.542C701.663 408.417 702.152 405.314 702.778 402.233C706.192 385.516 713.523 369.848 724.169 356.515C729.322 353.703 733.489 349.38 736.109 344.127C737.058 342.239 737.728 340.224 738.1 338.143C737.519 338.22 736.928 338.267 736.347 338.305C736.166 338.315 735.975 338.324 735.794 338.334L735.726 338.337C735.087 338.366 734.454 338.209 733.902 337.886C733.35 337.563 732.903 337.088 732.615 336.517C732.327 335.946 732.211 335.304 732.279 334.668C732.348 334.032 732.599 333.43 733.002 332.933C733.253 332.624 733.504 332.316 733.755 332.007C734.136 331.531 734.527 331.064 734.908 330.587C734.952 330.542 734.993 330.494 735.032 330.444C735.47 329.901 735.909 329.368 736.347 328.824C735.547 327.583 734.471 326.542 733.202 325.785C728.81 323.212 722.75 324.994 719.577 328.967C716.394 332.941 715.794 338.515 716.899 343.479C717.986 347.704 719.784 351.712 722.216 355.333C721.978 355.638 721.73 355.933 721.492 356.238C717.137 361.838 713.342 367.85 710.16 374.19C710.934 367.088 710.01 359.903 707.466 353.227C704.887 347.006 700.053 341.766 695.796 336.387C690.682 329.926 680.197 332.746 679.296 340.936C679.287 341.015 679.279 341.094 679.271 341.173C679.903 341.53 680.522 341.909 681.128 342.309C681.888 342.818 682.478 343.544 682.819 344.393C683.16 345.242 683.236 346.174 683.038 347.068C682.84 347.961 682.377 348.774 681.71 349.399C681.042 350.025 680.201 350.434 679.297 350.573L679.204 350.588C679.429 352.867 679.827 355.125 680.395 357.344C682.04 363.537 684.946 369.324 688.932 374.341C692.918 379.358 697.898 383.498 703.559 386.501C703.931 386.692 704.293 386.882 704.664 387.063C701.468 396.122 699.463 405.558 698.699 415.134C698.267 420.784 698.293 426.459 698.776 432.105L698.747 431.905C697.527 425.627 694.178 419.963 689.266 415.868C681.97 409.875 671.662 407.668 663.791 402.85C662.954 402.313 661.981 402.026 660.987 402.024C659.993 402.021 659.019 402.303 658.18 402.836C657.341 403.369 656.672 404.131 656.251 405.032C655.831 405.933 655.677 406.935 655.808 407.921C655.818 407.991 655.829 408.061 655.84 408.131C657.013 408.609 658.156 409.159 659.261 409.779C659.893 410.136 660.512 410.515 661.117 410.915C661.878 411.424 662.468 412.15 662.809 412.999C663.15 413.848 663.226 414.78 663.028 415.673C662.83 416.567 662.367 417.379 661.7 418.005C661.032 418.631 660.191 419.04 659.286 419.179L659.194 419.194C659.127 419.203 659.07 419.213 659.003 419.222C661.008 424.009 663.822 428.415 667.322 432.248C671.645 436.887 676.87 440.594 682.677 443.142C688.484 445.69 694.75 447.025 701.091 447.065H701.101C702.822 454.545 705.316 461.826 708.542 468.79H735.127C735.222 468.495 735.308 468.19 735.394 467.894C732.933 468.049 730.463 467.902 728.038 467.456C730.01 465.036 731.983 462.596 733.955 460.176C733.999 460.131 734.04 460.083 734.079 460.033C735.079 458.794 736.09 457.565 737.09 456.327L737.091 456.325C737.144 452.528 736.707 448.739 735.793 445.054ZM705.35 385.167L705.364 385.148L705.35 385.186V385.167ZM699.462 438.251L699.233 437.736C699.243 437.365 699.243 436.993 699.233 436.612C699.233 436.507 699.214 436.402 699.214 436.297C699.3 436.955 699.376 437.612 699.471 438.27L699.462 438.251Z" fill="#CCCCCC"/>
<path d="M796.54 133.466H597.307C596.876 133.457 596.466 133.279 596.164 132.971C595.863 132.662 595.694 132.248 595.694 131.817C595.694 131.386 595.863 130.972 596.164 130.664C596.466 130.356 596.876 130.178 597.307 130.168H796.54C796.971 130.178 797.381 130.356 797.682 130.664C797.984 130.972 798.153 131.386 798.153 131.817C798.153 132.248 797.984 132.662 797.682 132.971C797.381 133.279 796.971 133.457 796.54 133.466Z" fill="#CACACA"/>
<path d="M607.937 125.4C610.613 125.4 612.783 123.182 612.783 120.446C612.783 117.71 610.613 115.492 607.937 115.492C605.26 115.492 603.091 117.71 603.091 120.446C603.091 123.182 605.26 125.4 607.937 125.4Z" fill="#3F3D56"/>
<path d="M624.678 125.4C627.355 125.4 629.524 123.182 629.524 120.446C629.524 117.71 627.355 115.492 624.678 115.492C622.002 115.492 619.832 117.71 619.832 120.446C619.832 123.182 622.002 125.4 624.678 125.4Z" fill="#3F3D56"/>
<path d="M641.42 125.4C644.096 125.4 646.266 123.182 646.266 120.446C646.266 117.71 644.096 115.492 641.42 115.492C638.743 115.492 636.573 117.71 636.573 120.446C636.573 123.182 638.743 125.4 641.42 125.4Z" fill="#3F3D56"/>
<path d="M788.752 117.406H777.907C777.692 117.41 777.487 117.499 777.337 117.652C777.186 117.806 777.102 118.012 777.102 118.227C777.102 118.442 777.186 118.649 777.337 118.802C777.487 118.956 777.692 119.044 777.907 119.048H788.752C788.967 119.044 789.172 118.956 789.323 118.802C789.473 118.649 789.557 118.442 789.557 118.227C789.557 118.012 789.473 117.806 789.323 117.652C789.172 117.499 788.967 117.41 788.752 117.406Z" fill="#3F3D56"/>
<path d="M788.752 120.489H777.907C777.692 120.493 777.487 120.581 777.337 120.735C777.186 120.888 777.102 121.095 777.102 121.31C777.102 121.525 777.186 121.731 777.337 121.885C777.487 122.038 777.692 122.127 777.907 122.131H788.752C788.967 122.127 789.172 122.038 789.323 121.885C789.473 121.731 789.557 121.525 789.557 121.31C789.557 121.095 789.473 120.888 789.323 120.735C789.172 120.581 788.967 120.493 788.752 120.489Z" fill="#3F3D56"/>
<path d="M788.752 123.567H777.907C777.692 123.571 777.487 123.66 777.337 123.813C777.186 123.967 777.102 124.173 777.102 124.388C777.102 124.603 777.186 124.81 777.337 124.963C777.487 125.117 777.692 125.205 777.907 125.209H788.752C788.967 125.205 789.172 125.117 789.323 124.963C789.473 124.81 789.557 124.603 789.557 124.388C789.557 124.173 789.473 123.967 789.323 123.813C789.172 123.66 788.967 123.571 788.752 123.567Z" fill="#3F3D56"/>
<path d="M465.498 284.768H349.988C348.354 284.77 346.788 285.422 345.634 286.579C344.48 287.736 343.833 289.303 343.835 290.937V473.409H471.668V290.937C471.669 290.127 471.509 289.325 471.199 288.576C470.889 287.827 470.435 287.147 469.862 286.574C469.289 286.001 468.609 285.546 467.86 285.237C467.111 284.927 466.309 284.767 465.498 284.768ZM408.132 388.446C404.52 388.429 401.06 386.987 398.506 384.432C395.952 381.878 394.509 378.419 394.492 374.806V353.76C394.495 350.144 395.934 346.678 398.491 344.123C401.049 341.567 404.517 340.132 408.132 340.132C411.747 340.132 415.215 341.567 417.773 344.123C420.33 346.678 421.769 350.144 421.772 353.76V374.806C421.755 378.419 420.313 381.878 417.758 384.433C415.204 386.987 411.744 388.429 408.132 388.446Z" fill="#E6E6E6"/>
<path d="M343.438 467.573V485.178C343.44 486.09 343.803 486.964 344.448 487.609C345.093 488.254 345.968 488.617 346.88 488.619H468.623C469.534 488.615 470.407 488.251 471.051 487.606C471.696 486.962 472.06 486.089 472.065 485.178V467.573L343.438 467.573Z" fill="#CCCCCC"/>
<path d="M656.773 0H163.012C158.77 0.00674883 154.704 1.69493 151.704 4.6946C148.704 7.69426 147.016 11.7607 147.009 16.0029V349.194C147.013 353.437 148.701 357.505 151.701 360.506C154.701 363.506 158.769 365.193 163.012 365.197H656.773C661.016 365.193 665.084 363.506 668.084 360.506C671.084 357.505 672.772 353.437 672.776 349.194V16.0029C672.769 11.7607 671.081 7.69426 668.081 4.6946C665.081 1.69493 661.015 0.00674619 656.773 0Z" fill="#E6E6E6"/>
<path d="M652.651 11.5587H167.138C164.866 11.5636 162.69 12.4693 161.085 14.0771C159.481 15.6849 158.58 17.8634 158.579 20.1348V345.068C158.583 347.336 159.486 349.511 161.09 351.115C162.694 352.719 164.869 353.622 167.138 353.626H652.651C654.92 353.622 657.094 352.719 658.699 351.115C660.303 349.511 661.206 347.336 661.21 345.068V20.1348C661.209 17.8634 660.308 15.6849 658.704 14.0771C657.099 12.4693 654.923 11.5636 652.651 11.5587Z" fill="white"/>
<path d="M661.209 20.1348V345.068C661.206 347.336 660.303 349.511 658.698 351.115C657.094 352.719 654.92 353.622 652.651 353.626H481.448C462.509 336.062 446.971 315.156 435.614 291.956C434.867 290.462 434.155 288.949 433.479 287.419C423.131 264.964 416.865 240.846 414.974 216.194C414.85 214.682 414.743 213.169 414.672 211.639C414.44 207.725 414.334 203.757 414.334 199.771C414.3 173.264 419.305 146.992 429.084 122.355C429.671 120.825 430.294 119.312 430.934 117.8C450.614 71.5611 486.175 33.8805 531.197 11.5587H652.651C654.922 11.5636 657.099 12.4693 658.704 14.0771C660.308 15.6849 661.209 17.8634 661.209 20.1348Z" fill="#FBC531"/>
<path d="M628.245 56.3272H173.952C173.48 56.3171 173.03 56.1223 172.699 55.7846C172.369 55.4469 172.184 54.9932 172.184 54.5206C172.184 54.048 172.369 53.5942 172.699 53.2565C173.03 52.9188 173.48 52.7241 173.952 52.714H628.245C628.718 52.7241 629.167 52.9188 629.498 53.2565C629.829 53.5942 630.014 54.048 630.014 54.5206C630.014 54.9932 629.829 55.4469 629.498 55.7846C629.167 56.1223 628.718 56.3171 628.245 56.3272Z" fill="#CACACA"/>
<path d="M204.876 43.4899C210.724 43.4899 215.464 38.6441 215.464 32.6664C215.464 26.6888 210.724 21.843 204.876 21.843C199.029 21.843 194.289 26.6888 194.289 32.6664C194.289 38.6441 199.029 43.4899 204.876 43.4899Z" fill="#3F3D56"/>
<path d="M241.452 43.4899C247.299 43.4899 252.039 38.6441 252.039 32.6664C252.039 26.6888 247.299 21.843 241.452 21.843C235.604 21.843 230.864 26.6888 230.864 32.6664C230.864 38.6441 235.604 43.4899 241.452 43.4899Z" fill="#3F3D56"/>
<path d="M278.026 43.4899C283.874 43.4899 288.614 38.6441 288.614 32.6664C288.614 26.6888 283.874 21.843 278.026 21.843C272.179 21.843 267.439 26.6888 267.439 32.6664C267.439 38.6441 272.179 43.4899 278.026 43.4899Z" fill="#3F3D56"/>
<path d="M606.224 24.5257H580.243C579.728 24.5359 579.237 24.7476 578.877 25.1154C578.516 25.4832 578.314 25.9778 578.314 26.4929C578.314 27.008 578.516 27.5026 578.877 27.8704C579.237 28.2382 579.728 28.45 580.243 28.4601H606.224C606.739 28.45 607.229 28.2382 607.59 27.8704C607.951 27.5026 608.153 27.008 608.153 26.4929C608.153 25.9778 607.951 25.4832 607.59 25.1154C607.229 24.7476 606.739 24.5359 606.224 24.5257Z" fill="#3F3D56"/>
<path d="M606.224 31.9101H580.243C579.728 31.9203 579.237 32.132 578.877 32.4998C578.516 32.8676 578.314 33.3622 578.314 33.8773C578.314 34.3924 578.516 34.887 578.877 35.2548C579.237 35.6226 579.728 35.8343 580.243 35.8445H606.224C606.739 35.8343 607.229 35.6226 607.59 35.2548C607.951 34.887 608.153 34.3924 608.153 33.8773C608.153 33.3622 607.951 32.8676 607.59 32.4998C607.229 32.132 606.739 31.9203 606.224 31.9101Z" fill="#3F3D56"/>
<path d="M606.224 39.2847H580.243C579.728 39.2949 579.237 39.5067 578.877 39.8745C578.516 40.2423 578.314 40.7369 578.314 41.252C578.314 41.7671 578.516 42.2616 578.877 42.6294C579.237 42.9973 579.728 43.209 580.243 43.2192H606.224C606.739 43.209 607.229 42.9973 607.59 42.6294C607.951 42.2616 608.153 41.7671 608.153 41.252C608.153 40.7369 607.951 40.2423 607.59 39.8745C607.229 39.5067 606.739 39.2949 606.224 39.2847Z" fill="#3F3D56"/>
<path d="M313.051 161.871H249.522C247.126 161.871 245.183 163.813 245.183 166.21V172.972C245.183 175.368 247.126 177.311 249.522 177.311H313.051C315.447 177.311 317.39 175.368 317.39 172.972V166.21C317.39 163.813 315.447 161.871 313.051 161.871Z" fill="#FBC531"/>
<path d="M349.722 192.752H212.851C210.454 192.752 208.512 194.694 208.512 197.091V203.853C208.512 206.25 210.454 208.192 212.851 208.192H349.722C352.119 208.192 354.061 206.25 354.061 203.853V197.091C354.061 194.694 352.119 192.752 349.722 192.752Z" fill="#E6E6E6"/>
<path d="M349.722 223.633H212.851C210.454 223.633 208.512 225.575 208.512 227.972V234.734C208.512 237.131 210.454 239.073 212.851 239.073H349.722C352.119 239.073 354.061 237.131 354.061 234.734V227.972C354.061 225.575 352.119 223.633 349.722 223.633Z" fill="#E6E6E6"/>
<path d="M220.392 334.997C220.402 341.357 219.269 347.667 217.047 353.626H167.138C164.869 353.622 162.694 352.719 161.09 351.115C159.486 349.511 158.583 347.336 158.579 345.068V282.295C161.368 281.844 164.188 281.618 167.013 281.619C174.023 281.618 180.964 282.999 187.441 285.681C193.917 288.363 199.802 292.295 204.758 297.252C209.715 302.209 213.647 308.093 216.329 314.57C219.012 321.046 220.392 327.987 220.392 334.997Z" fill="#FBC531"/>
<path opacity="0.2" d="M661.654 122.355V117.8H585.305V65.0085H580.768V117.8H493.263V65.0085H488.726V117.8H430.934C430.294 119.312 429.671 120.825 429.084 122.355H488.726V211.639H414.672C414.743 213.169 414.85 214.682 414.974 216.194H488.726V287.419H433.479C434.155 288.949 434.867 290.462 435.614 291.956H488.726V351.829H493.263V291.956H580.768V351.829H585.305V291.956H661.654V287.419H585.305C585.305 278.066 587.147 268.804 590.727 260.162C594.306 251.521 599.553 243.669 606.167 237.055C612.78 230.442 620.632 225.195 629.273 221.616C637.915 218.037 647.177 216.194 656.53 216.194H661.654V211.639H585.305V122.355H661.654ZM580.768 287.419H493.263V216.194H580.768V287.419ZM580.768 211.639H493.263V209.86C493.263 186.652 502.482 164.395 518.892 147.984C535.303 131.574 557.56 122.355 580.768 122.355L580.768 211.639Z" fill="black"/>
<path d="M600.182 319.916C599.208 319.96 598.244 319.705 597.42 319.183C596.596 318.662 595.953 317.9 595.577 317C595.201 316.101 595.11 315.107 595.317 314.155C595.525 313.202 596.02 312.336 596.736 311.674C596.856 311.198 596.942 310.856 597.062 310.379C597.019 310.276 596.976 310.172 596.932 310.068C592.555 299.63 577.719 299.702 573.379 310.156C569.527 319.434 564.622 328.728 563.415 338.537C562.883 342.874 563.107 347.269 564.078 351.529C555.03 331.792 550.332 310.341 550.301 288.629C550.3 283.181 550.602 277.736 551.208 272.322C551.709 267.883 552.404 263.476 553.292 259.101C558.142 235.359 568.554 213.107 583.673 194.171C590.991 190.178 596.909 184.038 600.629 176.578C601.977 173.897 602.93 171.034 603.458 168.08C602.632 168.188 601.793 168.256 600.968 168.31C600.711 168.323 600.44 168.337 600.183 168.35L600.086 168.355C599.179 168.396 598.279 168.173 597.495 167.714C596.711 167.256 596.077 166.58 595.668 165.769C595.259 164.958 595.094 164.046 595.191 163.144C595.288 162.241 595.645 161.385 596.217 160.68C596.573 160.241 596.93 159.803 597.287 159.365C597.828 158.688 598.383 158.025 598.924 157.348C598.987 157.284 599.045 157.216 599.1 157.145C599.723 156.374 600.345 155.616 600.968 154.845C599.831 153.081 598.303 151.604 596.502 150.528C590.263 146.874 581.657 149.405 577.15 155.048C572.63 160.691 571.778 168.608 573.347 175.658C574.687 181.694 577.61 187.229 580.899 192.493C580.56 192.926 580.209 193.345 579.87 193.778C573.686 201.731 568.296 210.27 563.777 219.274C564.876 209.187 563.564 198.983 559.95 189.502C556.287 180.666 549.422 173.224 543.376 165.585C536.114 156.41 521.223 160.414 519.943 172.045C519.931 172.158 519.919 172.271 519.907 172.383C520.805 172.89 521.684 173.427 522.544 173.996C523.625 174.718 524.462 175.75 524.946 176.955C525.43 178.161 525.539 179.485 525.258 180.754C524.977 182.023 524.319 183.177 523.371 184.065C522.423 184.954 521.228 185.535 519.944 185.733L519.812 185.753C520.132 188.99 520.698 192.197 521.504 195.348C523.84 204.144 527.968 212.362 533.629 219.488C539.29 226.614 546.362 232.494 554.402 236.758C554.93 237.029 555.444 237.299 555.972 237.557C551.432 250.422 548.584 263.824 547.5 277.424C546.887 285.447 546.923 293.508 547.608 301.525L547.568 301.241C545.836 292.326 541.079 284.281 534.103 278.466C523.741 269.954 509.101 266.819 497.922 259.977C492.541 256.684 485.645 260.94 486.585 267.179C486.6 267.278 486.615 267.378 486.63 267.477C488.297 268.156 489.919 268.938 491.488 269.818C492.386 270.325 493.265 270.863 494.126 271.432C495.206 272.153 496.043 273.185 496.528 274.391C497.012 275.597 497.121 276.921 496.839 278.189C496.558 279.458 495.901 280.612 494.952 281.501C494.004 282.389 492.81 282.97 491.525 283.168L491.394 283.189C491.299 283.202 491.218 283.216 491.123 283.229C493.97 290.028 497.967 296.286 502.937 301.728C509.077 308.317 516.498 313.582 524.745 317.2C532.992 320.819 541.891 322.715 550.897 322.772H550.91C553.355 333.395 556.897 343.735 561.48 353.626H599.235C599.371 353.207 599.493 352.774 599.615 352.354C596.12 352.574 592.611 352.365 589.167 351.732C591.969 348.294 594.77 344.83 597.571 341.393C597.633 341.328 597.692 341.261 597.747 341.19C599.168 339.43 600.602 337.685 602.023 335.926L602.024 335.923C602.1 330.531 601.481 325.151 600.183 319.916L600.182 319.916ZM556.946 234.864L556.966 234.837L556.946 234.891V234.864ZM548.583 310.254L548.258 309.523C548.272 308.996 548.272 308.468 548.258 307.927C548.258 307.778 548.231 307.629 548.231 307.48C548.353 308.414 548.461 309.347 548.596 310.281L548.583 310.254Z" fill="#2F2E41"/>
<path d="M263.977 231.612V180.868C263.977 173.079 260.882 165.609 255.375 160.102C249.867 154.594 242.397 151.5 234.608 151.5H127.101C119.312 151.5 111.842 154.594 106.334 160.102C100.826 165.609 97.7322 173.079 97.7322 180.868V459.251C97.7322 467.04 100.826 474.51 106.334 480.017C111.842 485.525 119.312 488.619 127.101 488.619H234.608C238.465 488.619 242.284 487.86 245.847 486.384C249.41 484.908 252.648 482.745 255.375 480.017C258.102 477.29 260.265 474.053 261.741 470.489C263.217 466.926 263.977 463.107 263.977 459.251V267.732C264.468 267.732 264.939 267.537 265.286 267.189C265.634 266.842 265.829 266.371 265.829 265.88V233.464C265.829 232.973 265.634 232.502 265.286 232.154C264.939 231.807 264.468 231.612 263.977 231.612Z" fill="#E6E6E6"/>
<path d="M257.726 181.07V459.05C257.727 464.824 255.449 470.365 251.388 474.469C247.327 478.574 241.81 480.91 236.036 480.97C235.956 480.978 235.876 480.982 235.796 480.98H127.766C121.95 480.979 116.372 478.669 112.26 474.556C108.147 470.444 105.837 464.866 105.836 459.05V181.07C105.837 175.254 108.147 169.676 112.26 165.564C116.372 161.451 121.95 159.141 127.766 159.14H140.876C140.232 160.723 139.986 162.44 140.161 164.139C140.336 165.839 140.926 167.47 141.879 168.889C142.832 170.307 144.119 171.469 145.627 172.273C147.135 173.078 148.817 173.499 150.526 173.5H212.116C213.824 173.495 215.504 173.072 217.009 172.266C218.515 171.461 219.8 170.299 220.751 168.881C221.703 167.464 222.292 165.834 222.467 164.136C222.643 162.437 222.398 160.722 221.756 159.14H235.796C241.612 159.141 247.19 161.451 251.302 165.564C255.415 169.676 257.726 175.254 257.726 181.07Z" fill="white"/>
<path d="M236.306 472.4C236.306 475.28 236.216 478.137 236.036 480.97C235.956 480.978 235.876 480.982 235.796 480.98H127.766C121.95 480.979 116.372 478.669 112.26 474.556C108.147 470.444 105.837 464.866 105.836 459.05V335.17C141.034 336.945 174.204 352.178 198.488 377.719C222.771 403.261 236.31 437.157 236.306 472.4Z" fill="#F2F2F2"/>
<path d="M98.3263 260C97.6635 259.999 97.0281 259.735 96.5594 259.267C96.0907 258.798 95.8271 258.162 95.8263 257.5V240.5C95.8263 239.837 96.0897 239.201 96.5585 238.732C97.0274 238.263 97.6633 238 98.3263 238C98.9893 238 99.6252 238.263 100.094 238.732C100.563 239.201 100.826 239.837 100.826 240.5V257.5C100.826 258.162 100.562 258.798 100.093 259.267C99.6245 259.735 98.9891 259.999 98.3263 260Z" fill="#E6E6E6"/>
<path d="M195.046 246.426H168.517C166.12 246.426 164.178 248.368 164.178 250.765V257.527C164.178 259.924 166.12 261.866 168.517 261.866H195.046C197.442 261.866 199.385 259.924 199.385 257.527V250.765C199.385 248.368 197.442 246.426 195.046 246.426Z" fill="#FBC531"/>
<path d="M231.717 277.307H131.845C129.449 277.307 127.506 279.25 127.506 281.646V288.408C127.506 290.805 129.449 292.747 131.845 292.747H231.717C234.113 292.747 236.056 290.805 236.056 288.408V281.646C236.056 279.25 234.113 277.307 231.717 277.307Z" fill="#E6E6E6"/>
<path d="M231.717 308.188H131.845C129.449 308.188 127.506 310.131 127.506 312.527V319.29C127.506 321.686 129.449 323.629 131.845 323.629H231.717C234.113 323.629 236.056 321.686 236.056 319.29V312.527C236.056 310.131 234.113 308.188 231.717 308.188Z" fill="#E6E6E6"/>
<path d="M207.687 465.161C207.23 465.182 206.777 465.062 206.391 464.817C206.004 464.572 205.702 464.215 205.526 463.793C205.349 463.371 205.307 462.904 205.404 462.457C205.501 462.01 205.734 461.604 206.069 461.293L206.222 460.686C206.202 460.637 206.182 460.588 206.162 460.54C205.701 459.452 204.93 458.525 203.944 457.875C202.958 457.224 201.803 456.88 200.622 456.884C199.441 456.888 198.287 457.242 197.307 457.899C196.326 458.557 195.561 459.49 195.109 460.581C193.301 464.935 191 469.296 190.433 473.899C190.183 475.934 190.289 477.997 190.744 479.996C186.498 470.734 184.294 460.667 184.279 450.479C184.279 447.922 184.421 445.367 184.705 442.827C184.94 440.744 185.266 438.676 185.683 436.622C187.959 425.481 192.845 415.039 199.94 406.153C203.374 404.279 206.151 401.398 207.897 397.897C208.529 396.639 208.976 395.296 209.224 393.909C208.837 393.96 208.443 393.992 208.055 394.017C207.935 394.024 207.808 394.03 207.687 394.036L207.642 394.038C207.216 394.057 206.794 393.953 206.426 393.738C206.058 393.522 205.76 393.205 205.568 392.825C205.377 392.444 205.299 392.016 205.345 391.593C205.39 391.169 205.557 390.768 205.826 390.437C205.993 390.231 206.161 390.025 206.328 389.82C206.582 389.502 206.842 389.191 207.096 388.873C207.126 388.843 207.153 388.811 207.179 388.778C207.471 388.416 207.763 388.06 208.055 387.698C207.522 386.871 206.805 386.178 205.96 385.673C203.032 383.958 198.993 385.146 196.879 387.794C194.758 390.442 194.358 394.157 195.094 397.465C195.819 400.281 197.017 402.952 198.638 405.365C198.479 405.569 198.314 405.765 198.155 405.969C195.253 409.7 192.723 413.708 190.603 417.933C191.119 413.199 190.503 408.411 188.807 403.962C187.088 399.815 183.867 396.323 181.03 392.739C180.279 391.776 179.26 391.057 178.101 390.673C176.942 390.289 175.696 390.257 174.519 390.582C173.342 390.906 172.288 391.572 171.489 392.496C170.691 393.419 170.184 394.559 170.033 395.77C170.028 395.823 170.022 395.876 170.016 395.929C170.438 396.166 170.85 396.419 171.254 396.686C171.761 397.024 172.154 397.508 172.381 398.074C172.608 398.64 172.659 399.261 172.527 399.857C172.395 400.452 172.087 400.994 171.642 401.411C171.197 401.828 170.636 402.1 170.034 402.193L169.972 402.203C170.122 403.722 170.387 405.227 170.766 406.705C171.862 410.833 173.799 414.69 176.456 418.033C179.112 421.377 182.431 424.136 186.204 426.138C186.451 426.265 186.693 426.392 186.94 426.512C184.81 432.55 183.474 438.839 182.965 445.221C182.677 448.986 182.694 452.768 183.016 456.531L182.997 456.397C182.184 452.214 179.952 448.438 176.678 445.71C171.815 441.715 164.945 440.244 159.7 437.034C159.142 436.676 158.494 436.485 157.831 436.483C157.169 436.481 156.52 436.669 155.96 437.024C155.401 437.38 154.955 437.887 154.675 438.488C154.395 439.088 154.292 439.756 154.379 440.413L154.401 440.553C155.183 440.872 155.944 441.239 156.68 441.652C157.102 441.89 157.514 442.142 157.918 442.409C158.425 442.748 158.818 443.231 159.045 443.797C159.272 444.363 159.323 444.985 159.191 445.58C159.06 446.175 158.751 446.717 158.306 447.134C157.861 447.551 157.3 447.824 156.698 447.916L156.636 447.926C156.592 447.932 156.553 447.939 156.509 447.945C157.845 451.135 159.72 454.072 162.053 456.626C164.934 459.718 168.417 462.188 172.287 463.886C176.157 465.585 180.333 466.474 184.559 466.501H184.565C185.712 471.486 187.374 476.338 189.525 480.98H207.243C207.306 480.783 207.363 480.58 207.42 480.383C205.78 480.486 204.134 480.388 202.518 480.091C203.832 478.478 205.147 476.852 206.461 475.239C206.491 475.209 206.518 475.177 206.544 475.144C207.211 474.318 207.884 473.499 208.551 472.674L208.551 472.673C208.587 470.142 208.296 467.617 207.687 465.161ZM187.397 425.249L187.407 425.236L187.397 425.261V425.249ZM183.473 460.627L183.32 460.284C183.327 460.036 183.327 459.789 183.32 459.535C183.32 459.465 183.308 459.395 183.308 459.325C183.365 459.763 183.416 460.201 183.479 460.64L183.473 460.627Z" fill="#CCCCCC"/>
<path d="M97.8263 227C97.1635 226.999 96.5281 226.735 96.0594 226.267C95.5907 225.798 95.3271 225.162 95.3263 224.5V207.5C95.3263 206.837 95.5897 206.201 96.0585 205.732C96.5274 205.263 97.1633 205 97.8263 205C98.4893 205 99.1252 205.263 99.5941 205.732C100.063 206.201 100.326 206.837 100.326 207.5V224.5C100.326 225.162 100.062 225.798 99.5932 226.267C99.1245 226.735 98.4891 226.999 97.8263 227Z" fill="#E6E6E6"/>
<path d="M164.326 162C164.327 161.337 164.591 160.701 165.059 160.233C165.528 159.764 166.163 159.5 166.826 159.5H183.826C184.489 159.5 185.125 159.763 185.594 160.232C186.063 160.701 186.326 161.337 186.326 162C186.326 162.663 186.063 163.299 185.594 163.767C185.125 164.236 184.489 164.5 183.826 164.5H166.826C166.163 164.499 165.528 164.235 165.059 163.767C164.591 163.298 164.327 162.662 164.326 162Z" fill="white"/>
<path d="M98.3263 289C97.6635 288.999 97.0281 288.735 96.5594 288.267C96.0907 287.798 95.8271 287.162 95.8263 286.5V269.5C95.8263 268.837 96.0897 268.201 96.5585 267.732C97.0274 267.263 97.6633 267 98.3263 267C98.9893 267 99.6252 267.263 100.094 267.732C100.563 268.201 100.826 268.837 100.826 269.5V286.5C100.826 287.162 100.562 287.798 100.093 288.267C99.6245 288.735 98.9891 288.999 98.3263 289Z" fill="#E6E6E6"/>
<path d="M193.326 164.5C194.707 164.5 195.826 163.38 195.826 162C195.826 160.619 194.707 159.5 193.326 159.5C191.946 159.5 190.826 160.619 190.826 162C190.826 163.38 191.946 164.5 193.326 164.5Z" fill="white"/>
<path d="M858.941 488.613L1.19066 488.92C0.875467 488.919 0.573504 488.793 0.350952 488.57C0.1284 488.347 0.00341797 488.045 0.00341797 487.729C0.00341797 487.414 0.1284 487.112 0.350952 486.889C0.573504 486.665 0.875467 486.54 1.19066 486.539L858.941 486.231C859.256 486.231 859.559 486.357 859.783 486.58C860.006 486.803 860.131 487.106 860.131 487.422C860.131 487.738 860.006 488.041 859.783 488.264C859.559 488.487 859.256 488.613 858.941 488.613Z" fill="#CACACA"/>
<path d="M366.773 226.106L362.262 227.073C362.232 225.186 361.997 223.307 361.56 221.471C361.15 223.72 360.286 225.861 359.02 227.765L333.144 233.291L308.3 207.073C308.262 193.965 315.542 184.003 328.594 184.003C329.381 184.003 330.196 184.041 331.02 184.116C338.072 182.936 345.307 184.538 351.201 188.585C357.095 192.632 361.19 198.808 362.622 205.813C371.873 214.922 368.517 220.277 366.773 226.106Z" fill="#A0616A"/>
<path d="M379.495 532.711H388.881L393.347 496.506L379.493 496.507L379.495 532.711Z" fill="#FFB6B6"/>
<path d="M377.167 528.081L392.005 527.195V533.552L406.112 543.295C406.808 543.776 407.333 544.467 407.609 545.267C407.885 546.068 407.898 546.936 407.646 547.744C407.394 548.552 406.891 549.259 406.208 549.761C405.526 550.263 404.702 550.533 403.855 550.533H386.19L383.146 544.245L381.957 550.533H375.296L377.167 528.081Z" fill="#2F2E41"/>
<path d="M269.531 522.494L277.695 527.126L299.445 497.841L287.396 491.005L269.531 522.494Z" fill="#FFB6B6"/>
<path d="M269.791 517.318L283.133 523.87L279.996 529.399L287.458 544.834C287.826 545.597 287.942 546.457 287.787 547.289C287.632 548.122 287.215 548.883 286.597 549.462C285.979 550.04 285.192 550.406 284.351 550.506C283.51 550.606 282.659 550.434 281.923 550.017L266.559 541.299L267.014 534.327L262.877 539.21L257.084 535.923L269.791 517.318Z" fill="#2F2E41"/>
<path d="M414.19 232.449C412.987 232.623 411.837 233.059 410.821 233.725C409.805 234.392 408.947 235.273 408.308 236.307C407.669 237.34 407.265 238.502 407.124 239.709C406.982 240.916 407.107 242.139 407.49 243.293L393.127 255.724L398.553 266.295L418.59 248.454C420.485 247.683 422.031 246.244 422.936 244.409C423.841 242.574 424.041 240.47 423.499 238.498C422.957 236.525 421.709 234.819 419.994 233.705C418.278 232.59 416.213 232.143 414.19 232.449Z" fill="#FFB6B6"/>
<path d="M399.726 275.199C394.935 282.456 384.197 289.464 368.261 295.676C367.382 296.029 366.439 296.195 365.493 296.164C364.546 296.133 363.616 295.906 362.762 295.497C356.748 292.76 352.894 282.585 352.532 281.598L340.884 265.885C340.677 265.656 335.231 259.475 335.854 253.397C335.994 252.124 336.408 250.896 337.068 249.798C337.728 248.699 338.618 247.757 339.676 247.035C348.494 240.499 368.255 263.2 370.819 266.219L383.716 258.361L393.113 254.168L400.699 244.937L411.381 255.858L401.774 271.141C401.262 272.573 400.574 273.936 399.726 275.199Z" fill="#2F2E41"/>
<path d="M366.228 303.039C366.228 303.039 393.826 347 388.826 352C383.826 357 376.046 358.313 376.046 358.313L358.826 336L366.228 303.039Z" fill="#2F2E41"/>
<path d="M341.826 243L354.833 251.799C360.879 255.889 365.426 261.839 367.785 268.746C370.144 275.654 370.187 283.142 367.905 290.075L364.244 301.206L341.826 243Z" fill="#2F2E41"/>
<path d="M318.826 363L317.087 369.057L311.153 442.098L281.507 497.348L295.656 507.454L336.083 454.899L352.073 402.716L377.184 518.235L396.05 516.887L382.947 356.722L358.084 311.639L318.826 363Z" fill="#2F2E41"/>
<path d="M339.614 245.213L357.718 260.008C361.691 263.255 364.552 267.661 365.902 272.611C366.515 274.859 366.806 277.182 366.767 279.512L366.228 311.639L382.826 356C382.826 356 337.826 373 331.826 358C325.826 343 339.614 245.213 339.614 245.213Z" fill="#FBC531"/>
<path d="M345.029 365.786C322.549 365.786 317.07 365.956 316.715 365.884L316.359 365.812V352.291L321.826 328C321.187 320.459 319.691 310.515 319.826 302C320.316 271.225 318.803 241.163 318.803 241.163L330.701 230.18L336.107 233.698L346.133 243.724C357.787 272.405 367.035 299.407 367.094 301.142L367.826 331L364.826 343C351.255 352.58 363.655 365.786 345.029 365.786Z" fill="#2F2E41"/>
<path opacity="0.2" d="M323.846 267.973L321.113 285.031L339.614 292.662L323.846 267.973Z" fill="black"/>
<path d="M342.484 226.98C352.488 226.98 360.597 218.87 360.597 208.867C360.597 198.863 352.488 190.753 342.484 190.753C332.48 190.753 324.37 198.863 324.37 208.867C324.37 218.87 332.48 226.98 342.484 226.98Z" fill="#FFB6B6"/>
<path opacity="0.2" d="M312.133 300.773C316.953 306.355 323.493 310.177 330.722 311.639C337.952 313.1 345.462 312.118 352.072 308.846L356.014 306.895L312.133 300.773Z" fill="black"/>
<path d="M375.164 296.603C374.356 295.696 373.359 294.976 372.242 294.495C371.126 294.015 369.918 293.785 368.704 293.821C367.489 293.858 366.297 294.161 365.212 294.708C364.127 295.255 363.175 296.033 362.423 296.988L344.134 291.854L338.303 302.207L364.233 309.095C365.92 310.252 367.974 310.749 370.004 310.492C372.034 310.236 373.899 309.244 375.246 307.704C376.594 306.165 377.33 304.184 377.314 302.138C377.299 300.092 376.534 298.123 375.164 296.603Z" fill="#FFB6B6"/>
<path d="M331.52 308.093C322.825 308.094 311.059 302.995 297.093 293.121C296.314 292.582 295.657 291.887 295.161 291.08C294.665 290.273 294.342 289.372 294.213 288.434C293.183 281.907 299.549 273.084 300.173 272.238L306.866 253.859C306.943 253.561 309.099 245.609 314.514 242.78C315.654 242.195 316.907 241.864 318.187 241.81C319.467 241.755 320.744 241.978 321.929 242.464C332.243 246.219 324.189 275.22 323.084 279.023L336.748 285.454L345.425 290.985L357.309 292.228L354.082 307.16L336.035 307.566C334.558 307.927 333.041 308.104 331.52 308.093Z" fill="#2F2E41"/>
<path d="M364.205 196.95C362.754 198.837 357.759 200.505 351.826 201.851C351.835 201.727 351.835 201.604 351.835 201.481C351.806 199.594 351.57 197.715 351.134 195.879C350.723 198.128 349.859 200.269 348.593 202.173C348.499 202.315 348.404 202.457 348.3 202.599C343.21 203.604 337.826 204.381 333.608 204.903C336.508 215.348 347.627 223.917 346.423 230.267L313.845 236.921C314.046 234.282 313.835 231.628 313.22 229.054C312.597 232.451 310.949 235.577 308.499 238.011L305.732 238.58L304.907 234.514C297.76 217.348 307.722 199.775 324.044 190.685C326.954 186.323 331.473 183.29 336.613 182.249L340.679 181.415C343.244 180.89 345.887 180.876 348.457 181.373C351.027 181.869 353.475 182.867 355.659 184.31C357.844 185.753 359.723 187.611 361.189 189.78C362.655 191.949 363.68 194.385 364.205 196.95Z" fill="#A0616A"/>
<path d="M442.027 525.336L442.509 514.505C447.531 511.82 453.132 510.402 458.826 510.374C450.989 516.781 451.969 529.133 446.655 537.749C444.978 540.423 442.719 542.686 440.048 544.37C437.377 546.053 434.361 547.114 431.225 547.473L424.666 551.488C423.766 546.472 423.965 541.319 425.248 536.386C426.531 531.454 428.868 526.858 432.098 522.915C433.932 520.721 436.036 518.767 438.358 517.099C439.929 521.241 442.027 525.336 442.027 525.336Z" fill="#F2F2F2"/>
<path d="M457.927 551.741H229.545C229.229 551.74 228.928 551.614 228.705 551.391C228.482 551.168 228.357 550.866 228.357 550.551C228.357 550.235 228.482 549.933 228.705 549.71C228.928 549.487 229.229 549.361 229.545 549.36H457.927C458.083 549.359 458.239 549.39 458.383 549.449C458.528 549.509 458.66 549.597 458.771 549.707C458.882 549.818 458.97 549.949 459.03 550.094C459.09 550.239 459.121 550.394 459.121 550.551C459.121 550.707 459.09 550.862 459.03 551.007C458.97 551.152 458.882 551.283 458.771 551.394C458.66 551.504 458.528 551.592 458.383 551.652C458.239 551.711 458.083 551.742 457.927 551.741Z" fill="#CACACA"/>
</g>
<defs>
<clipPath id="clip0_98_1880">
<rect width="860.131" height="551.741" fill="white"/>
</clipPath>
</defs>
</svg>
