<svg width="683" height="539" viewBox="0 0 683 539" fill="none" xmlns="http://www.w3.org/2000/svg">
<g clip-path="url(#clip0_99_3213)">
<path d="M189.362 526.885L201.544 525.501L202.009 477.858L184.03 479.899L189.362 526.885Z" fill="#FFB8B8"/>
<path d="M226.32 534.147L188.035 538.492L186.357 523.7L209.85 521.034C213.773 520.589 217.712 521.72 220.801 524.179C223.89 526.639 225.875 530.224 226.32 534.147Z" fill="#2F2E41"/>
<path d="M64.0821 526.123H76.3421L82.1741 478.834L64.0801 478.836L64.0821 526.123Z" fill="#FFB8B8"/>
<path d="M99.9862 537.506L61.4555 537.508L61.4548 522.621L85.0987 522.62C89.0469 522.619 92.8335 524.188 95.6255 526.979C98.4174 529.771 99.986 533.558 99.9862 537.506Z" fill="#2F2E41"/>
<path d="M152.043 314.656L159.043 337.425L197.043 419.656L207.043 497.656L184.043 498.656L170.043 426.656L122.043 374.656L80.0435 510.656L61.0435 508.656C61.0435 508.656 77.0435 332.656 99.0435 314.656C99.0435 314.656 135.043 297.656 152.043 314.656Z" fill="#2F2E41"/>
<path d="M120.992 216.409C134.557 216.409 145.553 205.413 145.553 191.848C145.553 178.284 134.557 167.287 120.992 167.287C107.428 167.287 96.4314 178.284 96.4314 191.848C96.4314 205.413 107.428 216.409 120.992 216.409Z" fill="#FFB8B8"/>
<path d="M154.543 319.156C154.543 319.156 157.543 217.156 115.543 224.156C73.5434 231.156 91.0434 329.656 91.0434 329.656C91.0434 329.656 100.043 347.656 122.043 327.656C144.043 307.656 154.543 319.156 154.543 319.156Z" fill="#CCCCCC"/>
<path opacity="0.2" d="M96.5439 267.156L106.427 305.039L121.484 320.097L100.544 313.156L96.5439 267.156Z" fill="black"/>
<path d="M154.854 362.294C153.472 361.793 152.216 360.995 151.176 359.956C150.136 358.917 149.336 357.663 148.833 356.282C148.33 354.9 148.136 353.425 148.264 351.961C148.393 350.497 148.841 349.078 149.577 347.805L126.218 320.762L144.632 318.365L163.991 344.414C166.047 345.792 167.526 347.876 168.148 350.272C168.769 352.668 168.491 355.208 167.364 357.412C166.238 359.616 164.342 361.33 162.037 362.23C159.731 363.13 157.175 363.152 154.854 362.294Z" fill="#FFB8B8"/>
<path d="M126.414 244.931L129.044 296.655L160.044 336.655L147.044 346.655L105.044 304.655C105.044 304.655 90.0436 253.655 101.044 238.655C105.169 233.03 109.716 231.484 113.788 231.747C117.138 232.026 120.271 233.521 122.597 235.949C124.922 238.377 126.28 241.572 126.414 244.931Z" fill="#CCCCCC"/>
<path d="M118.071 217.656C118.188 217.551 118.28 217.419 118.337 217.273C118.395 217.126 118.418 216.968 118.404 216.811C118.39 216.655 118.34 216.503 118.257 216.369C118.175 216.235 118.062 216.122 117.928 216.039C115.747 214.688 113.97 212.775 112.784 210.5C111.597 208.226 111.046 205.674 111.186 203.112C111.327 200.55 112.155 198.074 113.584 195.943C115.012 193.812 116.988 192.105 119.304 191.002C126.525 187.559 136.31 190.237 141.648 183.621C142.734 182.206 143.501 180.573 143.899 178.834C144.296 177.095 144.314 175.29 143.951 173.544C142.799 167.295 138.101 162.655 132.841 159.474C126.378 155.568 118.95 153.549 111.399 153.647C103.848 153.745 96.4758 155.957 90.117 160.03C83.7583 164.104 78.6675 169.877 75.4216 176.695C72.1756 183.514 70.9042 191.105 71.7515 198.609C72.4306 204.623 74.2863 211.367 70.7102 216.249C67.5629 220.547 61.6221 221.353 56.4035 222.421C45.2104 224.711 34.4118 229.994 26.816 238.529C19.2201 247.063 15.1679 259.037 17.4581 270.23C19.7483 281.423 28.9361 291.26 40.2287 292.995C49.4203 294.407 58.9114 290.504 65.6612 284.107C72.4111 277.71 76.6776 269.072 79.3687 260.17C82.5629 249.604 83.8228 238.22 89.5895 228.808C95.2327 219.598 107.393 212.996 116.924 217.793C117.107 217.888 117.314 217.926 117.519 217.902C117.724 217.877 117.916 217.792 118.071 217.656Z" fill="#2F2E41"/>
<path d="M308.5 538.751H1.5C1.23478 538.751 0.980414 538.646 0.792877 538.458C0.605341 538.271 0.5 538.016 0.5 537.751C0.5 537.486 0.605341 537.232 0.792877 537.044C0.980414 536.857 1.23478 536.751 1.5 536.751H308.5C308.765 536.751 309.02 536.857 309.207 537.044C309.395 537.232 309.5 537.486 309.5 537.751C309.5 538.016 309.395 538.271 309.207 538.458C309.02 538.646 308.765 538.751 308.5 538.751Z" fill="#3F3D56"/>
<path d="M618.629 198.28C618.574 226.606 607.924 253.887 588.774 274.759C569.624 295.631 543.358 308.585 515.142 311.074C486.925 313.562 458.798 305.405 436.29 288.207C413.782 271.009 398.522 246.013 393.51 218.134C388.497 190.255 394.095 161.509 409.202 137.547C424.309 113.586 447.834 96.1428 475.15 88.6468C502.467 81.1507 531.599 84.1441 556.82 97.0385C582.042 109.933 601.527 131.796 611.446 158.328C611.693 158.995 611.935 159.661 612.169 160.334V160.34C613.217 163.297 614.139 166.309 614.936 169.376C617.396 178.813 618.637 188.527 618.629 198.28Z" fill="#3F3D56"/>
<path d="M491.913 121.217C486.78 118.441 481.081 116.875 475.25 116.636C469.42 116.397 463.612 117.494 458.269 119.841C453.565 121.888 448.612 125.56 447.043 132.192C453.389 128.447 461.605 134.365 463.238 143.858L462.857 143.963C461.994 150.539 463.92 157.698 467.648 161.776C467.925 159.936 468.609 158.181 469.649 156.638C470.689 155.096 472.06 153.804 473.661 152.857C476.401 151.057 479.431 149.749 481.521 146.654C484 142.985 484.629 137.622 485.614 132.73C486.598 127.838 488.466 122.58 491.913 121.217Z" fill="#FBC531"/>
<path d="M456.387 177.175C454.629 179.814 452.281 181.471 450.174 183.533C447.742 185.745 446.147 188.728 445.656 191.979C445.39 194.276 445.802 196.611 445.745 198.934C445.688 201.256 444.914 203.87 443.334 204.448C440.84 205.349 438.936 200.717 436.373 200.393C434.336 200.139 432.502 203.344 433.092 206.123C433.682 208.902 436.455 210.133 438.048 208.319C439.488 210.736 438.473 215.121 436.309 215.863C436.081 217.386 435.852 218.903 435.63 220.426C430.16 216.6 424.634 212.71 419.982 207.107C414.809 200.928 411.601 193.344 410.768 185.329C410.166 178.888 411.06 171.521 408.104 166.565C405.737 162.599 401.675 161.723 398.02 161.971C397.354 162.015 396.682 162.091 396.015 162.174C398.171 155.7 400.908 149.434 404.194 143.454C404.938 143.135 405.629 142.705 406.244 142.179C409.645 139.292 411.156 133.447 413.916 129.405C414.094 129.145 414.278 128.891 414.468 128.644C417.292 124.957 421.074 123.06 424.729 121.296C432.819 117.368 441.144 113.389 449.686 113.935L447.255 114.17C444.419 122.114 441.58 130.059 438.74 138.004C438.308 139.222 437.872 140.442 437.432 141.665C435.821 146.183 434.158 150.993 434.406 156.05C434.552 159.045 435.592 162.244 437.572 163.272C439.419 164.223 441.436 163.056 443.219 161.901C443.975 161.419 444.723 160.936 445.478 160.448C448.188 158.703 451.189 156.913 454.051 158.081C456.672 159.147 458.607 162.707 458.975 166.546C459.313 170.278 458.402 174.016 456.387 177.175Z" fill="#FBC531"/>
<path d="M472.502 231.414C464.588 226.542 456.674 221.67 448.761 216.797L448.895 216.451C443.975 218.325 441.932 227.071 442.745 234.224C443.559 241.376 446.316 247.77 447.709 254.739C449.587 264.276 448.878 274.142 445.656 283.312C456.061 271.636 465.27 258.947 473.145 245.433C474.245 243.73 475.083 241.872 475.631 239.92C476.212 237.84 476.005 235.618 475.05 233.681C474.402 232.726 473.526 231.947 472.502 231.414Z" fill="#FBC531"/>
<path d="M441.27 142.77C440.341 144.765 440.197 147.038 440.869 149.134C441.65 150.823 443.066 152.134 444.81 152.784L449.182 154.951C450.637 155.672 452.205 156.4 453.688 155.807C455.476 155.092 456.716 152.288 456.396 149.684C456.054 146.914 454.308 145.009 452.693 143.386C450.433 141.115 448.173 138.845 445.913 136.574L444.64 138.134C443.262 139.478 442.123 141.045 441.27 142.77Z" fill="#FBC531"/>
<path d="M595.189 172.384C597.156 172.847 599.123 173.31 601.09 173.773C600.748 180.417 597.454 186.566 593.038 188.793C591.198 189.72 589.148 190.062 587.625 191.795C586.248 193.368 585.55 195.818 584.909 198.159C583.786 202.246 582.663 206.332 581.54 210.419C580.334 214.823 578.786 219.715 575.651 221.302C572.96 222.666 569.883 220.997 567.814 218.199C565.746 215.4 564.483 211.637 563.258 207.97C563.334 211.967 561.475 215.889 558.842 217.278C556.202 218.668 552.991 217.412 551.227 214.309C549.958 212.081 549.431 209.143 548.187 206.884C546.944 204.625 544.336 203.331 542.978 205.45C542.083 206.859 542.197 209.017 541.753 210.806C541.529 211.994 540.941 213.083 540.07 213.921C539.199 214.759 538.088 215.305 536.892 215.483C535.793 215.458 534.71 215.209 533.71 214.752C532.709 214.295 531.812 213.639 531.074 212.824C527.188 208.849 524.658 203.747 523.846 198.248C523.295 195.612 523.365 192.883 524.049 190.278C524.83 187.81 526.714 185.906 528.586 186.376C529.817 183.774 527.387 180.322 525.198 180.627C523.002 180.931 521.282 183.285 519.48 185.094C517.684 186.902 515.172 188.216 513.363 186.42C513.404 187.077 513.181 187.723 512.746 188.216C512.31 188.709 511.696 189.009 511.039 189.049C510.974 189.053 510.909 189.055 510.844 189.054C509.641 188.708 508.524 188.116 507.563 187.315C503.42 184.732 498.159 186.446 495.215 191.332C497.055 183.501 499.752 174.516 505.406 172.676C507.716 171.92 510.235 172.542 512.418 171.235C516.282 168.919 517.063 160.168 513.725 156.558C514.15 159.972 514.068 163.957 512.265 166.292C510.463 168.627 506.681 167.104 506.91 163.652C506.858 164.138 506.655 164.595 506.328 164.957C506.001 165.32 505.568 165.57 505.09 165.671C504.613 165.773 504.115 165.72 503.669 165.522C503.223 165.323 502.852 164.989 502.607 164.566C501.408 162.739 501.51 159.75 502.36 157.567C503.237 155.59 504.494 153.805 506.059 152.313C509.074 149.083 512.132 145.815 515.622 143.784C519.119 141.754 523.154 141.069 526.657 143.086C528.504 144.152 530.128 145.929 532.013 146.868C532.456 147.143 532.948 147.328 533.463 147.412C533.977 147.497 534.503 147.479 535.01 147.36C535.518 147.241 535.997 147.024 536.42 146.72C536.844 146.416 537.203 146.031 537.478 145.589C537.499 145.554 537.52 145.52 537.54 145.485C538.942 143.023 538.282 139.368 538.803 136.29C539.735 130.852 545.173 128.308 548.188 131.899C545.935 131.322 543.606 133.987 543.327 137.217C543.041 140.447 544.672 143.708 546.855 144.685C550.523 146.31 554.114 142.223 556.887 138.441C559.781 134.482 562.679 130.524 565.581 126.569C566.044 125.896 566.564 125.263 567.135 124.678C568.044 123.792 569.256 123.285 570.525 123.259C571.794 123.233 573.025 123.69 573.969 124.538C576.901 126.931 578.278 131.836 580.683 135.212C584.173 140.117 589.396 141.31 594.256 142.262C597.879 142.966 601.505 143.674 605.133 144.387C607.551 148.886 609.66 153.544 611.446 158.328C604.794 161.362 599.152 166.24 595.189 172.384Z" fill="#FBC531"/>
<path d="M606.903 248.733C604.184 254.254 601.022 259.544 597.448 264.553C595.164 263.576 592.708 265.32 590.569 266.958C588.336 268.671 585.652 270.34 583.361 268.779C581.019 267.18 580.264 262.706 581.007 259.159C581.86 255.887 583.352 252.816 585.398 250.123C587.301 247.28 589.338 244.329 591.984 243.225C594.637 242.121 598.044 243.682 598.819 247.452L600.697 247.388C599.643 245.941 600.196 242.946 601.611 242.419C603.241 241.804 604.657 244.044 605.621 246.024C606.053 246.918 606.49 247.82 606.903 248.733Z" fill="#FBC531"/>
<path d="M534.966 221.93C530.929 222.184 527.731 217.214 525.606 212.325C523.481 207.435 521.542 201.844 517.899 199.355C515.818 197.933 513.445 197.738 511.187 197.049C509.906 196.725 508.721 196.101 507.73 195.229C506.739 194.356 505.97 193.259 505.487 192.03L502.926 190.996C499.343 192.786 496.063 195.126 493.202 197.929C489.934 201.401 487.898 205.852 487.408 210.595C486.919 215.721 488.726 221.437 492.101 223.363C494.768 224.884 497.874 223.925 500.575 225.318C503.951 227.059 505.955 232.114 506.713 237.106C507.472 242.098 507.28 247.285 507.823 252.334C508.365 257.382 509.861 262.635 512.957 265.222C516.83 268.459 522.515 265.769 524.252 259.876C525.105 256.985 525.076 253.723 525.713 250.723C526.836 245.438 529.866 241.518 532.269 237.183C534.672 232.848 536.564 226.961 534.966 221.93Z" fill="#FBC531"/>
<path d="M495.072 170.004C495.449 170.35 495.8 170.723 496.124 171.12C496.458 171.697 496.629 172.355 496.618 173.022C496.607 173.689 496.413 174.341 496.059 174.906C496.545 174.879 497.021 174.75 497.455 174.53C497.889 174.309 498.273 174.001 498.582 173.624C499.319 172.785 499.967 171.872 500.516 170.899C500.774 170.566 500.959 170.182 501.057 169.772C501.155 169.363 501.165 168.937 501.086 168.523C500.896 167.978 500.445 167.746 500.129 167.337C499.69 166.536 499.391 165.668 499.244 164.767C499.068 163.923 498.661 163.145 498.068 162.519C497.474 161.894 496.718 161.446 495.885 161.227L496.087 161.266C495.743 161.47 495.471 161.777 495.31 162.144C495.148 162.51 495.106 162.918 495.188 163.31C495.311 164.102 495.82 164.759 495.769 165.567C495.696 166.728 494.536 167.273 494.464 168.435C494.453 169.017 494.671 169.581 495.072 170.004Z" fill="#FBC531"/>
<path d="M488.155 150.269L488.173 150.265C488.297 150.152 488.412 150.03 488.518 149.898L488.155 150.269Z" fill="#FBC531"/>
<path d="M489.366 155.72C489.851 155.295 490.209 154.744 490.403 154.128C490.596 153.513 490.616 152.856 490.462 152.23C490.169 150.909 489.131 150.022 488.173 150.265C487.895 150.547 487.551 150.753 487.171 150.865C486.792 150.977 486.39 150.99 486.004 150.904C485.412 150.752 484.762 150.359 484.249 150.805C483.955 151.138 483.75 151.54 483.651 151.973C483.461 152.556 483.271 153.139 483.081 153.722C482.991 153.931 482.967 154.163 483.013 154.386C483.05 154.475 483.109 154.553 483.184 154.613C483.259 154.673 483.349 154.713 483.444 154.728L486.865 155.736C487.257 155.917 487.685 156.01 488.117 156.007C488.549 156.004 488.976 155.906 489.366 155.72Z" fill="#FBC531"/>
<path d="M575.438 230.978C574.911 230.115 574.384 229.252 573.857 228.389C573.339 227.39 572.631 226.501 571.773 225.773C571.398 225.459 570.913 225.306 570.425 225.349C569.938 225.392 569.487 225.627 569.173 226.003L569.145 226.036L569.209 226.529C570.62 228.042 571.582 229.918 571.986 231.947C572.106 232.829 572.065 233.742 572.17 234.628C572.181 235.038 572.273 235.443 572.44 235.818C572.608 236.193 572.848 236.531 573.146 236.814C573.976 237.368 574.951 236.551 575.541 235.553C576.069 234.734 576.306 233.761 576.214 232.79C576.082 232.139 575.818 231.522 575.438 230.978Z" fill="#FBC531"/>
<path d="M583.705 232.101C583.806 231.293 583.74 230.473 583.512 229.691C583.475 228.634 583.755 227.59 584.317 226.693C584.875 225.848 585.299 224.92 585.571 223.944C585.686 223.5 585.665 223.031 585.511 222.598C585.337 222.206 584.914 222.027 584.672 222.338L585.19 222.672C584.49 222.547 583.77 222.582 583.085 222.774C582.695 222.923 582.346 223.165 582.068 223.478C581.79 223.791 581.592 224.166 581.49 224.572C581.404 225.205 581.264 225.829 581.072 226.438C580.762 227.074 580.163 227.285 579.787 227.843C579.53 228.338 579.401 228.889 579.41 229.447C579.419 230.004 579.567 230.55 579.84 231.036C580.313 231.831 581.064 232.422 581.948 232.694C582.581 232.921 583.415 232.933 583.705 232.101Z" fill="#FBC531"/>
<path d="M598.429 236.543C598.657 237.138 598.964 237.701 599.341 238.217C600.046 238.927 601.004 238.491 601.859 238.318C602.635 238.196 603.429 238.285 604.158 238.578C604.888 238.87 605.524 239.354 606 239.979C605.668 238.325 604.945 236.775 603.89 235.459C602.835 234.143 601.479 233.099 599.937 232.415C597.934 231.722 595.822 231.392 593.702 231.44L593.34 231.533C594.263 234.219 597.16 234.159 598.429 236.543Z" fill="#FBC531"/>
<path d="M536.071 242.036L536.076 242.048L536.181 241.845L536.071 242.036Z" fill="#FBC531"/>
<path d="M533.837 246.359C533.35 247.244 532.931 248.164 532.584 249.112C532.124 250.648 531.82 252.226 531.676 253.822C531.562 254.73 531.527 255.889 532.096 256.331C532.259 256.44 532.457 256.485 532.651 256.459C532.845 256.432 533.023 256.336 533.151 256.188C533.467 255.854 533.726 255.47 533.916 255.051C535.034 253.126 535.902 251.066 536.499 248.922C537.122 246.647 536.973 244.229 536.076 242.048C535.33 243.485 534.583 244.922 533.837 246.359Z" fill="#FBC531"/>
<path d="M512.29 131.178C512.644 131.525 513.093 131.76 513.58 131.855C514.067 131.95 514.571 131.901 515.03 131.713C515.981 131.297 516.853 130.721 517.609 130.01C518.234 129.547 518.765 128.968 519.172 128.304C519.396 127.908 519.54 127.471 519.595 127.019C519.649 126.567 519.614 126.108 519.492 125.67C519.317 125.25 519.038 124.881 518.681 124.599C518.324 124.316 517.901 124.13 517.452 124.056C516.187 123.681 514.921 123.306 513.656 122.931L514.571 122.105C513.629 121.6 512.587 122.538 511.998 123.7C511.621 124.458 511.358 125.268 511.217 126.104C511.017 126.977 511.009 127.883 511.195 128.759C511.38 129.635 511.753 130.461 512.29 131.178Z" fill="#FBC531"/>
<path d="M534.632 123.677C534.989 124.071 535.482 124.313 536.011 124.356C536.54 124.399 537.066 124.24 537.481 123.909C537.839 123.641 538.136 123.3 538.353 122.909C538.57 122.517 538.703 122.085 538.742 121.639C538.831 120.644 538.339 119.538 537.636 119.452L537.797 118.519C536.443 118.275 534.776 118.226 534.051 119.87C533.806 120.5 533.731 121.183 533.833 121.852C533.935 122.52 534.21 123.149 534.632 123.677Z" fill="#FBC531"/>
<path d="M442.572 190.722C447.237 190.722 451.019 185.65 451.019 179.394C451.019 173.138 447.237 168.067 442.572 168.067C437.907 168.067 434.125 173.138 434.125 179.394C434.125 185.65 437.907 190.722 442.572 190.722Z" fill="#E6E6E6"/>
<path d="M596.941 330.986C600.974 329.912 603.637 326.767 602.89 323.962C602.143 321.156 598.268 319.753 594.235 320.827C590.202 321.901 587.539 325.046 588.286 327.851C589.033 330.657 592.908 332.06 596.941 330.986Z" fill="#E6E6E6"/>
<path d="M547.547 331.9C551.58 330.826 554.243 327.681 553.496 324.875C552.749 322.07 548.874 320.666 544.841 321.74C540.808 322.814 538.145 325.959 538.892 328.765C539.639 331.57 543.514 332.974 547.547 331.9Z" fill="#E6E6E6"/>
<path d="M605.716 289.889C609.749 288.815 612.413 285.67 611.666 282.865C610.918 280.059 607.044 278.656 603.011 279.73C598.978 280.804 596.314 283.949 597.061 286.754C597.808 289.56 601.683 290.963 605.716 289.889Z" fill="#E6E6E6"/>
<path d="M620.285 272.419C622.106 272.194 623.319 269.889 622.995 267.271C622.67 264.654 620.931 262.715 619.11 262.94C617.289 263.166 616.076 265.471 616.401 268.089C616.725 270.706 618.464 272.645 620.285 272.419Z" fill="#E6E6E6"/>
<path d="M623.973 241.414C625.794 241.188 627.007 238.883 626.683 236.266C626.358 233.648 624.619 231.709 622.798 231.935C620.977 232.161 619.764 234.466 620.089 237.083C620.413 239.701 622.153 241.64 623.973 241.414Z" fill="#E6E6E6"/>
<path d="M574.181 301.018C576.002 300.792 577.215 298.487 576.891 295.869C576.566 293.252 574.827 291.313 573.006 291.539C571.185 291.764 569.972 294.069 570.297 296.687C570.621 299.305 572.36 301.244 574.181 301.018Z" fill="#E6E6E6"/>
<path d="M599.154 310.057C600.975 309.831 602.188 307.526 601.864 304.909C601.539 302.291 599.8 300.352 597.979 300.578C596.158 300.804 594.945 303.109 595.27 305.726C595.594 308.344 597.334 310.283 599.154 310.057Z" fill="#E6E6E6"/>
<path d="M568.832 335.66C570.653 335.434 571.866 333.129 571.542 330.511C571.217 327.894 569.478 325.955 567.657 326.181C565.836 326.406 564.623 328.711 564.947 331.329C565.272 333.946 567.011 335.885 568.832 335.66Z" fill="#E6E6E6"/>
<path d="M351.412 289.505C355.444 288.431 358.108 285.286 357.361 282.48C356.614 279.675 352.739 278.271 348.706 279.345C344.673 280.419 342.009 283.564 342.757 286.37C343.504 289.175 347.379 290.579 351.412 289.505Z" fill="#E6E6E6"/>
<path d="M302.015 290.42C306.048 289.346 308.711 286.201 307.964 283.395C307.217 280.59 303.342 279.186 299.309 280.26C295.276 281.334 292.613 284.479 293.36 287.285C294.107 290.09 297.982 291.494 302.015 290.42Z" fill="#E6E6E6"/>
<path d="M360.188 248.406C364.221 247.332 366.885 244.187 366.138 241.382C365.391 238.576 361.516 237.173 357.483 238.247C353.45 239.321 350.786 242.466 351.534 245.271C352.281 248.077 356.156 249.48 360.188 248.406Z" fill="#E6E6E6"/>
<path d="M374.756 230.938C376.577 230.712 377.79 228.407 377.465 225.79C377.141 223.172 375.401 221.233 373.58 221.459C371.76 221.685 370.547 223.99 370.871 226.607C371.196 229.225 372.935 231.164 374.756 230.938Z" fill="#E6E6E6"/>
<path d="M378.444 199.933C380.265 199.707 381.478 197.402 381.153 194.784C380.829 192.167 379.09 190.228 377.269 190.454C375.448 190.679 374.235 192.984 374.559 195.602C374.884 198.219 376.623 200.158 378.444 199.933Z" fill="#E6E6E6"/>
<path d="M328.652 259.536C330.473 259.311 331.686 257.006 331.361 254.388C331.037 251.77 329.297 249.832 327.477 250.057C325.656 250.283 324.443 252.588 324.767 255.206C325.092 257.823 326.831 259.762 328.652 259.536Z" fill="#E6E6E6"/>
<path d="M353.625 268.575C355.446 268.35 356.659 266.045 356.335 263.427C356.01 260.809 354.271 258.871 352.45 259.096C350.629 259.322 349.416 261.627 349.74 264.245C350.065 266.862 351.804 268.801 353.625 268.575Z" fill="#E6E6E6"/>
<path d="M323.303 294.178C325.124 293.952 326.337 291.647 326.012 289.03C325.688 286.412 323.949 284.473 322.128 284.699C320.307 284.925 319.094 287.23 319.418 289.847C319.743 292.465 321.482 294.404 323.303 294.178Z" fill="#E6E6E6"/>
<path d="M651.517 99.5691C655.55 98.4951 658.214 95.3501 657.466 92.5446C656.719 89.7392 652.844 88.3355 648.811 89.4096C644.779 90.4836 642.115 93.6285 642.862 96.434C643.609 99.2395 647.484 100.643 651.517 99.5691Z" fill="#E6E6E6"/>
<path d="M602.121 100.484C606.153 99.41 608.817 96.2651 608.07 93.4596C607.323 90.6542 603.448 89.2506 599.415 90.3246C595.382 91.3986 592.718 94.5435 593.466 97.349C594.213 100.154 598.088 101.558 602.121 100.484Z" fill="#E6E6E6"/>
<path d="M660.294 58.4694C664.327 57.3954 666.99 54.2504 666.243 51.445C665.496 48.6395 661.621 47.2359 657.588 48.3099C653.555 49.384 650.892 52.5289 651.639 55.3344C652.386 58.1399 656.261 59.5435 660.294 58.4694Z" fill="#E6E6E6"/>
<path d="M674.861 41.0021C676.682 40.7764 677.895 38.4714 677.571 35.8538C677.246 33.2363 675.507 31.2973 673.686 31.5231C671.865 31.7489 670.652 34.0538 670.977 36.6714C671.301 39.289 673.041 41.2279 674.861 41.0021Z" fill="#E6E6E6"/>
<path d="M678.55 9.99701C680.371 9.77125 681.584 7.46627 681.259 4.84871C680.935 2.23114 679.196 0.292208 677.375 0.517972C675.554 0.743736 674.341 3.04871 674.665 5.66627C674.99 8.28384 676.729 10.2228 678.55 9.99701Z" fill="#E6E6E6"/>
<path d="M628.757 69.6008C630.578 69.375 631.791 67.07 631.467 64.4525C631.142 61.8349 629.403 59.896 627.582 60.1217C625.761 60.3475 624.548 62.6525 624.873 65.27C625.197 67.8876 626.937 69.8265 628.757 69.6008Z" fill="#E6E6E6"/>
<path d="M653.731 78.6398C655.552 78.4141 656.765 76.1091 656.441 73.4915C656.116 70.874 654.377 68.935 652.556 69.1608C650.735 69.3866 649.522 71.6915 649.846 74.3091C650.171 76.9267 651.91 78.8656 653.731 78.6398Z" fill="#E6E6E6"/>
<path d="M623.408 104.242C625.229 104.017 626.442 101.712 626.118 99.0941C625.793 96.4765 624.054 94.5376 622.233 94.7633C620.412 94.9891 619.199 97.2941 619.524 99.9116C619.848 102.529 621.587 104.468 623.408 104.242Z" fill="#E6E6E6"/>
<path d="M336.57 296.532C328.488 296.532 323.234 294.524 320.909 290.532C316.323 282.659 324.003 268.846 343.736 249.476L345.393 251.165C327.064 269.158 319.094 282.716 322.953 289.341C325.395 293.531 332.661 295.033 343.972 293.682C355.2 292.342 370.08 288.346 388.199 281.807C425.5 268.345 472.298 245.638 519.972 217.868C567.644 190.098 610.482 160.591 640.593 134.784C646.377 129.826 651.626 125.057 656.194 120.609C662.191 114.913 667.724 108.747 672.739 102.17C679.493 92.9995 681.773 85.937 679.331 81.7459C675.254 74.7461 658.124 75.4043 631.094 83.6019L630.408 81.3373C659.407 72.5436 676.556 72.2798 681.376 80.5551C684.371 85.6967 682.106 93.4413 674.645 103.574C669.553 110.255 663.935 116.519 657.845 122.305C653.241 126.787 647.955 131.59 642.133 136.581C611.916 162.479 568.955 192.073 521.163 219.912C473.369 247.752 426.433 270.525 389.002 284.034C370.715 290.633 355.659 294.67 344.252 296.031C341.704 296.349 339.138 296.516 336.57 296.532Z" fill="#3F3D56"/>
</g>
<defs>
<clipPath id="clip0_99_3213">
<rect width="682.157" height="538.251" fill="white" transform="translate(0.5 0.5)"/>
</clipPath>
</defs>
</svg>
