<svg width="560" height="437" viewBox="0 0 560 437" fill="none" xmlns="http://www.w3.org/2000/svg">
<path d="M9.01549 296.892C11.1614 290.688 10.8898 283.902 8.25505 277.889C7.99351 277.293 8.93154 276.919 9.19276 277.514C11.9229 283.776 12.1911 290.838 9.94386 297.29C9.72924 297.905 8.80203 297.504 9.01549 296.892Z" fill="white"/>
<path d="M558.329 15H414.539V24.25C414.537 24.7237 414.7 25.1833 415 25.55C414.71 32.7801 414.539 42.01 414.539 52.04V299.34C414.539 322.52 415.469 341.38 416.61 341.38H556.26C557.4 341.38 558.329 322.52 558.329 299.34V52.04C558.329 42.01 558.159 32.7801 557.869 25.55C558.169 25.1832 558.332 24.7236 558.329 24.25L558.329 15Z" fill="white"/>
<path d="M556.259 342.38H416.609C415.521 342.38 414.802 342.38 414.148 329.102C413.755 321.133 413.539 310.563 413.539 299.34V52.04C413.539 42.3462 413.703 32.9243 414 25.5098C414.186 21.0581 414.399 17.4922 414.634 14.9097C415.093 9.854 415.53 9 416.609 9H556.259C557.339 9 557.775 9.854 558.235 14.9097C558.47 17.5019 558.683 21.0679 558.868 25.5078L558.868 25.5098C559.166 32.9165 559.329 42.3384 559.329 52.04V299.34C559.329 310.564 559.113 321.134 558.72 329.102C558.067 342.38 557.348 342.38 556.259 342.38ZM417.177 340.38H555.691C556.415 337.647 557.329 322.81 557.329 299.34V52.04C557.329 42.3647 557.166 32.9722 556.87 25.5918C556.686 21.1836 556.475 17.6504 556.243 15.0903C556.154 13.7152 555.966 12.3483 555.682 11H417.187C416.902 12.3483 416.715 13.7152 416.625 15.0903C416.394 17.6406 416.183 21.1738 415.999 25.5918C415.702 32.9785 415.539 42.3721 415.539 52.04V299.34C415.539 322.809 416.454 337.647 417.177 340.38Z" fill="#E4E4E4"/>
<path d="M556.259 10H416.609C416.061 10.0011 415.535 10.2195 415.147 10.6074C414.759 10.9954 414.54 11.5213 414.539 12.07V24.25C414.537 24.7237 414.7 25.1833 415 25.55C415.194 25.7898 415.439 25.9833 415.718 26.1165C415.996 26.2497 416.301 26.3192 416.609 26.32H556.259C556.568 26.3191 556.873 26.2496 557.151 26.1164C557.429 25.9832 557.675 25.7898 557.869 25.55C558.169 25.1832 558.331 24.7236 558.329 24.25V12.07C558.328 11.5214 558.11 10.9955 557.722 10.6075C557.334 10.2195 556.808 10.0011 556.259 10Z" fill="#CACACA"/>
<path d="M426.559 20.505C428.182 20.505 429.499 19.1889 429.499 17.5654C429.499 15.9418 428.182 14.6257 426.559 14.6257C424.935 14.6257 423.619 15.9418 423.619 17.5654C423.619 19.1889 424.935 20.505 426.559 20.505Z" fill="white"/>
<path d="M437.717 20.505C439.34 20.505 440.657 19.1889 440.657 17.5654C440.657 15.9418 439.34 14.6257 437.717 14.6257C436.093 14.6257 434.777 15.9418 434.777 17.5654C434.777 19.1889 436.093 20.505 437.717 20.505Z" fill="white"/>
<path d="M448.875 20.505C450.499 20.505 451.815 19.1889 451.815 17.5654C451.815 15.9418 450.499 14.6257 448.875 14.6257C447.252 14.6257 445.936 15.9418 445.936 17.5654C445.936 19.1889 447.252 20.505 448.875 20.505Z" fill="white"/>
<path d="M545.329 13.6399H532.479C532.228 13.6416 531.987 13.7422 531.809 13.92C531.632 14.0978 531.531 14.3385 531.529 14.5899C531.525 14.733 531.56 14.8746 531.629 14.9999C531.706 15.1609 531.826 15.2971 531.976 15.3927C532.127 15.4882 532.301 15.5393 532.479 15.5399H545.329C545.509 15.5408 545.685 15.4905 545.838 15.3949C545.99 15.2992 546.112 15.1622 546.19 14.9999C546.251 14.872 546.282 14.7317 546.279 14.5899C546.279 14.4651 546.255 14.3415 546.207 14.2262C546.159 14.1109 546.089 14.0062 546.001 13.9179C545.913 13.8297 545.808 13.7597 545.693 13.712C545.577 13.6643 545.454 13.6398 545.329 13.6399Z" fill="white"/>
<path d="M545.329 17.21H532.479C532.227 17.21 531.985 17.31 531.807 17.4882C531.629 17.6664 531.529 17.908 531.529 18.16C531.529 18.4119 531.629 18.6536 531.807 18.8317C531.985 19.0099 532.227 19.11 532.479 19.11H545.329C545.581 19.11 545.823 19.0099 546.001 18.8317C546.179 18.6536 546.279 18.4119 546.279 18.16C546.279 17.908 546.179 17.6664 546.001 17.4882C545.823 17.31 545.581 17.21 545.329 17.21Z" fill="white"/>
<path d="M545.329 20.7798H532.479C532.227 20.7798 531.985 20.8799 531.807 21.058C531.629 21.2362 531.529 21.4778 531.529 21.7298C531.529 21.9817 531.629 22.2234 531.807 22.4015C531.985 22.5797 532.227 22.6798 532.479 22.6798H545.329C545.581 22.6798 545.823 22.5797 546.001 22.4015C546.179 22.2234 546.279 21.9817 546.279 21.7298C546.279 21.4778 546.179 21.2362 546.001 21.058C545.823 20.8799 545.581 20.7798 545.329 20.7798Z" fill="white"/>
<path d="M500.329 53.02H473.889C472.563 53.0205 471.292 53.5475 470.354 54.4851C469.417 55.4226 468.89 56.6941 468.889 58.02V80.92C468.891 82.2454 469.419 83.5159 470.356 84.4531C471.293 85.3903 472.564 85.9178 473.889 85.92H500.329C501.654 85.9162 502.924 85.3881 503.86 84.4513C504.797 83.5145 505.325 82.2449 505.329 80.92V58.02C505.327 56.6946 504.799 55.4241 503.862 54.4869C502.925 53.5497 501.655 53.0222 500.329 53.02Z" fill="#FBC531"/>
<path d="M533.179 100.88H441.029C440.427 100.88 439.85 101.119 439.424 101.545C438.998 101.97 438.759 102.548 438.759 103.15C438.759 103.752 438.998 104.329 439.424 104.755C439.85 105.181 440.427 105.42 441.029 105.42H533.179C533.781 105.42 534.359 105.181 534.784 104.755C535.21 104.329 535.449 103.752 535.449 103.15C535.449 102.548 535.21 101.97 534.784 101.545C534.359 101.119 533.781 100.88 533.179 100.88Z" fill="#E4E4E4"/>
<path d="M476.029 111.52H441.029C440.427 111.52 439.85 111.759 439.424 112.185C438.998 112.611 438.759 113.188 438.759 113.79C438.759 114.392 438.998 114.969 439.424 115.395C439.85 115.821 440.427 116.06 441.029 116.06H476.029C476.631 116.06 477.209 115.821 477.634 115.395C478.06 114.969 478.299 114.392 478.299 113.79C478.299 113.188 478.06 112.611 477.634 112.185C477.209 111.759 476.631 111.52 476.029 111.52Z" fill="#E4E4E4"/>
<path d="M500.329 152.02H473.889C472.563 152.021 471.292 152.548 470.354 153.485C469.417 154.423 468.89 155.694 468.889 157.02V179.92C468.891 181.245 469.419 182.516 470.356 183.453C471.293 184.39 472.564 184.918 473.889 184.92H500.329C501.654 184.916 502.924 184.388 503.86 183.451C504.797 182.514 505.325 181.245 505.329 179.92V157.02C505.327 155.695 504.799 154.424 503.862 153.487C502.925 152.55 501.655 152.022 500.329 152.02Z" fill="#FBC531"/>
<path d="M533.179 199.88H441.029C440.427 199.88 439.85 200.119 439.424 200.545C438.998 200.97 438.759 201.548 438.759 202.15C438.759 202.752 438.998 203.329 439.424 203.755C439.85 204.181 440.427 204.42 441.029 204.42H533.179C533.781 204.42 534.359 204.181 534.784 203.755C535.21 203.329 535.449 202.752 535.449 202.15C535.449 201.548 535.21 200.97 534.784 200.545C534.359 200.119 533.781 199.88 533.179 199.88Z" fill="#E4E4E4"/>
<path d="M476.029 210.52H441.029C440.427 210.52 439.85 210.759 439.424 211.185C438.998 211.611 438.759 212.188 438.759 212.79C438.759 213.392 438.998 213.969 439.424 214.395C439.85 214.821 440.427 215.06 441.029 215.06H476.029C476.631 215.06 477.209 214.821 477.634 214.395C478.06 213.969 478.299 213.392 478.299 212.79C478.299 212.188 478.06 211.611 477.634 211.185C477.209 210.759 476.631 210.52 476.029 210.52Z" fill="#E4E4E4"/>
<path d="M500.329 251.02H473.889C472.563 251.021 471.292 251.548 470.354 252.485C469.417 253.423 468.89 254.694 468.889 256.02V278.92C468.891 280.245 469.419 281.516 470.356 282.453C471.293 283.39 472.564 283.918 473.889 283.92H500.329C501.654 283.916 502.924 283.388 503.86 282.451C504.797 281.514 505.325 280.245 505.329 278.92V256.02C505.327 254.695 504.799 253.424 503.862 252.487C502.925 251.55 501.655 251.022 500.329 251.02Z" fill="#FBC531"/>
<path d="M533.179 298.88H441.029C440.427 298.88 439.85 299.119 439.424 299.545C438.998 299.97 438.759 300.548 438.759 301.15C438.759 301.752 438.998 302.329 439.424 302.755C439.85 303.181 440.427 303.42 441.029 303.42H533.179C533.781 303.42 534.359 303.181 534.784 302.755C535.21 302.329 535.449 301.752 535.449 301.15C535.449 300.548 535.21 299.97 534.784 299.545C534.359 299.119 533.781 298.88 533.179 298.88Z" fill="#E4E4E4"/>
<path d="M476.029 309.52H441.029C440.427 309.52 439.85 309.759 439.424 310.185C438.998 310.611 438.759 311.188 438.759 311.79C438.759 312.392 438.998 312.969 439.424 313.395C439.85 313.821 440.427 314.06 441.029 314.06H476.029C476.631 314.06 477.209 313.821 477.634 313.395C478.06 312.969 478.299 312.392 478.299 311.79C478.299 311.188 478.06 310.611 477.634 310.185C477.209 309.759 476.631 309.52 476.029 309.52Z" fill="#E4E4E4"/>
<path d="M375.329 3.07001C375.328 2.52136 375.11 1.99547 374.722 1.6075C374.334 1.21953 373.808 1.00108 373.259 1H3.60939C3.06069 1.00106 2.53476 1.21948 2.14674 1.60744C1.75872 1.9954 1.54022 2.52131 1.53907 3.07001V15.25C1.53732 15.7571 1.72665 16.2462 2.06935 16.62C1.73927 24.89 1.53907 35.79 1.53907 47.73V322.64C1.53907 348.42 2.46925 369.38 3.60939 369.38H373.259C374.399 369.38 375.329 348.42 375.329 322.64V47.73C375.329 35.79 375.129 24.89 374.799 16.62C375.142 16.2462 375.331 15.757 375.329 15.25V3.07001Z" fill="white"/>
<path d="M373.259 370.38H3.60938C2.47938 370.38 1.79723 370.38 1.14758 355.722C0.755123 346.867 0.539062 335.118 0.539062 322.64V47.73C0.539062 36.2227 0.72766 25.1602 1.07019 16.5801C1.72754 1.33514e-05 2.47618 0 3.60938 0H373.259C374.392 0 375.141 0.00294304 375.799 16.5801C376.141 25.1524 376.329 36.2149 376.329 47.73V322.64C376.329 335.119 376.113 346.867 375.721 355.722C375.071 370.38 374.389 370.38 373.259 370.38ZM4.19312 368.38H372.676C373.494 365.245 374.329 347.64 374.329 322.64V47.73C374.329 36.2407 374.141 25.2061 373.8 16.6602C373.384 6.15674 372.897 2.95996 372.665 2H4.20398C3.97144 2.96 3.48511 6.15626 3.06848 16.6597C2.72705 25.2144 2.53906 36.2485 2.53906 47.73V322.64C2.53906 347.64 3.37469 365.244 4.19312 368.38Z" fill="#E4E4E4"/>
<path d="M373.259 1H3.60939C3.06069 1.00106 2.53476 1.21948 2.14674 1.60744C1.75872 1.9954 1.54022 2.52131 1.53907 3.07001V15.25C1.53732 15.7571 1.72665 16.2462 2.06935 16.62C2.26151 16.8395 2.49828 17.0154 2.76384 17.1362C3.0294 17.2569 3.31765 17.3195 3.60936 17.32H373.259C373.551 17.3195 373.839 17.2569 374.105 17.1362C374.37 17.0154 374.607 16.8395 374.799 16.62C375.142 16.2462 375.331 15.757 375.329 15.25V3.07001C375.328 2.52137 375.11 1.9955 374.722 1.60753C374.334 1.21956 373.808 1.0011 373.259 1Z" fill="#CACACA"/>
<path d="M13.559 11.505C15.1825 11.505 16.4986 10.1889 16.4986 8.56535C16.4986 6.94184 15.1825 5.62573 13.559 5.62573C11.9355 5.62573 10.6194 6.94184 10.6194 8.56535C10.6194 10.1889 11.9355 11.505 13.559 11.505Z" fill="white"/>
<path d="M24.717 11.505C26.3405 11.505 27.6566 10.1889 27.6566 8.56535C27.6566 6.94184 26.3405 5.62573 24.717 5.62573C23.0935 5.62573 21.7773 6.94184 21.7773 8.56535C21.7773 10.1889 23.0935 11.505 24.717 11.505Z" fill="white"/>
<path d="M35.8752 11.505C37.4987 11.505 38.8148 10.1889 38.8148 8.56535C38.8148 6.94184 37.4987 5.62573 35.8752 5.62573C34.2517 5.62573 32.9355 6.94184 32.9355 8.56535C32.9355 10.1889 34.2517 11.505 35.8752 11.505Z" fill="white"/>
<path d="M362.329 4.63989H349.479C349.227 4.63989 348.985 4.73998 348.807 4.91814C348.629 5.0963 348.529 5.33793 348.529 5.58989C348.529 5.84185 348.629 6.08348 348.807 6.26164C348.985 6.4398 349.227 6.5399 349.479 6.5399H362.329C362.581 6.5399 362.823 6.4398 363.001 6.26164C363.179 6.08348 363.279 5.84185 363.279 5.58989C363.279 5.33793 363.179 5.0963 363.001 4.91814C362.823 4.73998 362.581 4.63989 362.329 4.63989Z" fill="white"/>
<path d="M362.329 8.20996H349.479C349.227 8.20996 348.985 8.31005 348.807 8.4882C348.629 8.66636 348.529 8.908 348.529 9.15996C348.529 9.41191 348.629 9.65355 348.807 9.83171C348.985 10.0099 349.227 10.11 349.479 10.11H362.329C362.581 10.11 362.823 10.0099 363.001 9.83171C363.179 9.65355 363.279 9.41191 363.279 9.15996C363.279 8.908 363.179 8.66636 363.001 8.4882C362.823 8.31005 362.581 8.20996 362.329 8.20996Z" fill="white"/>
<path d="M362.329 11.7798H349.479C349.227 11.7798 348.985 11.8799 348.807 12.058C348.629 12.2362 348.529 12.4778 348.529 12.7298C348.529 12.9817 348.629 13.2234 348.807 13.4015C348.985 13.5797 349.227 13.6798 349.479 13.6798H362.329C362.581 13.6798 362.823 13.5797 363.001 13.4015C363.179 13.2234 363.279 12.9817 363.279 12.7298C363.279 12.4778 363.179 12.2362 363.001 12.058C362.823 11.8799 362.581 11.7798 362.329 11.7798Z" fill="white"/>
<path d="M123.089 62.02H79.8291C77.6605 62.0227 75.5814 62.8854 74.048 64.4189C72.5146 65.9523 71.652 68.0314 71.6494 70.2V107.67C71.652 109.839 72.5146 111.918 74.048 113.451C75.5814 114.985 77.6605 115.847 79.8291 115.85H123.089C125.258 115.847 127.337 114.985 128.87 113.451C130.404 111.918 131.266 109.839 131.269 107.67V70.2C131.266 68.0314 130.404 65.9523 128.87 64.4189C127.337 62.8854 125.258 62.0227 123.089 62.02Z" fill="#FBC531"/>
<path d="M301.519 76.51H150.739C149.754 76.51 148.809 76.9014 148.113 77.5981C147.416 78.2948 147.024 79.2397 147.024 80.225C147.024 81.2103 147.416 82.1552 148.113 82.8519C148.809 83.5486 149.754 83.94 150.739 83.94H301.519C302.504 83.94 303.449 83.5486 304.146 82.8519C304.843 82.1552 305.234 81.2103 305.234 80.225C305.234 79.2397 304.843 78.2948 304.146 77.5981C303.449 76.9014 302.504 76.51 301.519 76.51Z" fill="#E4E4E4"/>
<path d="M208.009 93.9199H150.739C149.754 93.9199 148.809 94.3113 148.112 95.008C147.416 95.7047 147.024 96.6496 147.024 97.6349C147.024 98.6202 147.416 99.5651 148.112 100.262C148.809 100.959 149.754 101.35 150.739 101.35H208.009C208.995 101.35 209.94 100.959 210.636 100.262C211.333 99.5651 211.724 98.6202 211.724 97.6349C211.724 96.6496 211.333 95.7047 210.636 95.008C209.94 94.3113 208.995 93.9199 208.009 93.9199Z" fill="#E4E4E4"/>
<path d="M123.089 162.02H79.8291C77.6605 162.023 75.5814 162.885 74.048 164.419C72.5146 165.952 71.652 168.031 71.6494 170.2V207.67C71.652 209.839 72.5146 211.918 74.048 213.451C75.5814 214.985 77.6605 215.847 79.8291 215.85H123.089C125.258 215.847 127.337 214.985 128.87 213.451C130.404 211.918 131.266 209.839 131.269 207.67V170.2C131.266 168.031 130.404 165.952 128.87 164.419C127.337 162.885 125.258 162.023 123.089 162.02Z" fill="#FBC531"/>
<path d="M301.519 176.51H150.739C149.754 176.51 148.809 176.901 148.113 177.598C147.416 178.295 147.024 179.24 147.024 180.225C147.024 181.21 147.416 182.155 148.113 182.852C148.809 183.549 149.754 183.94 150.739 183.94H301.519C302.504 183.94 303.449 183.549 304.146 182.852C304.843 182.155 305.234 181.21 305.234 180.225C305.234 179.24 304.843 178.295 304.146 177.598C303.449 176.901 302.504 176.51 301.519 176.51Z" fill="#E4E4E4"/>
<path d="M208.009 193.92H150.739C149.754 193.92 148.809 194.311 148.112 195.008C147.416 195.705 147.024 196.65 147.024 197.635C147.024 198.62 147.416 199.565 148.112 200.262C148.809 200.959 149.754 201.35 150.739 201.35H208.009C208.995 201.35 209.94 200.959 210.636 200.262C211.333 199.565 211.724 198.62 211.724 197.635C211.724 196.65 211.333 195.705 210.636 195.008C209.94 194.311 208.995 193.92 208.009 193.92Z" fill="#E4E4E4"/>
<path d="M123.089 262.02H79.8291C77.6605 262.023 75.5814 262.885 74.048 264.419C72.5146 265.952 71.652 268.031 71.6494 270.2V307.67C71.652 309.839 72.5146 311.918 74.048 313.451C75.5814 314.985 77.6605 315.847 79.8291 315.85H123.089C125.258 315.847 127.337 314.985 128.87 313.451C130.404 311.918 131.266 309.839 131.269 307.67V270.2C131.266 268.031 130.404 265.952 128.87 264.419C127.337 262.885 125.258 262.023 123.089 262.02Z" fill="#FBC531"/>
<path d="M301.519 276.51H150.739C149.754 276.51 148.809 276.901 148.113 277.598C147.416 278.295 147.024 279.24 147.024 280.225C147.024 281.21 147.416 282.155 148.113 282.852C148.809 283.549 149.754 283.94 150.739 283.94H301.519C302.504 283.94 303.449 283.549 304.146 282.852C304.843 282.155 305.234 281.21 305.234 280.225C305.234 279.24 304.843 278.295 304.146 277.598C303.449 276.901 302.504 276.51 301.519 276.51Z" fill="#E4E4E4"/>
<path d="M208.009 293.92H150.739C149.754 293.92 148.809 294.311 148.112 295.008C147.416 295.705 147.024 296.65 147.024 297.635C147.024 298.62 147.416 299.565 148.112 300.262C148.809 300.959 149.754 301.35 150.739 301.35H208.009C208.995 301.35 209.94 300.959 210.636 300.262C211.333 299.565 211.724 298.62 211.724 297.635C211.724 296.65 211.333 295.705 210.636 295.008C209.94 294.311 208.995 293.92 208.009 293.92Z" fill="#E4E4E4"/>
<path d="M439.262 435.38H191.613C190.472 435.38 189.543 417.83 189.543 396.257V166.123C189.543 144.549 190.472 126.999 191.613 126.999H439.262C440.404 126.999 441.333 144.549 441.333 166.123V396.257C441.333 417.83 440.404 435.38 439.262 435.38Z" fill="white"/>
<path d="M439.262 436.38H191.613C190.566 436.38 189.809 436.38 189.151 423.961C188.759 416.546 188.543 406.708 188.543 396.256V166.123C188.543 155.672 188.759 145.833 189.151 138.418C189.809 125.999 190.566 125.999 191.613 125.999H439.262C440.31 125.999 441.067 125.999 441.724 138.418C442.117 145.833 442.333 155.672 442.333 166.123V396.256C442.333 406.708 442.117 416.546 441.724 423.961C441.067 436.38 440.31 436.38 439.262 436.38ZM192.167 434.38H438.709C439.427 431.789 440.333 417.986 440.333 396.256V166.123C440.333 144.393 439.426 130.59 438.709 127.999H192.167C191.449 130.59 190.543 144.393 190.543 166.123V396.256C190.543 417.986 191.449 431.789 192.167 434.38Z" fill="#E4E4E4"/>
<path d="M439.262 143.32H191.613C191.065 143.319 190.538 143.101 190.15 142.713C189.762 142.324 189.544 141.798 189.543 141.249V129.07C189.544 128.521 189.762 127.995 190.15 127.606C190.538 127.218 191.065 127 191.613 126.999H439.262C439.811 127 440.338 127.218 440.726 127.606C441.114 127.995 441.332 128.521 441.333 129.07V141.249C441.332 141.798 441.114 142.324 440.726 142.713C440.338 143.101 439.811 143.319 439.262 143.32Z" fill="#CACACA"/>
<path d="M201.559 137.505C203.182 137.505 204.499 136.189 204.499 134.565C204.499 132.942 203.182 131.626 201.559 131.626C199.935 131.626 198.619 132.942 198.619 134.565C198.619 136.189 199.935 137.505 201.559 137.505Z" fill="white"/>
<path d="M212.717 137.505C214.34 137.505 215.657 136.189 215.657 134.565C215.657 132.942 214.34 131.626 212.717 131.626C211.093 131.626 209.777 132.942 209.777 134.565C209.777 136.189 211.093 137.505 212.717 137.505Z" fill="white"/>
<path d="M223.875 137.505C225.499 137.505 226.815 136.189 226.815 134.565C226.815 132.942 225.499 131.626 223.875 131.626C222.252 131.626 220.936 132.942 220.936 134.565C220.936 136.189 222.252 137.505 223.875 137.505Z" fill="white"/>
<path d="M428.33 132.542H415.481C415.229 132.542 414.987 132.442 414.808 132.263C414.63 132.085 414.53 131.843 414.53 131.59C414.53 131.338 414.63 131.096 414.808 130.917C414.987 130.739 415.229 130.639 415.481 130.639H428.33C428.582 130.639 428.823 130.74 429.001 130.919C429.179 131.097 429.279 131.339 429.279 131.59C429.279 131.842 429.179 132.084 429.001 132.262C428.823 132.441 428.582 132.541 428.33 132.542Z" fill="white"/>
<path d="M428.33 136.111H415.481C415.229 136.111 414.987 136.011 414.808 135.832C414.63 135.654 414.53 135.412 414.53 135.159C414.53 134.907 414.63 134.665 414.808 134.486C414.987 134.308 415.229 134.208 415.481 134.208H428.33C428.582 134.208 428.824 134.308 429.003 134.486C429.181 134.665 429.282 134.907 429.282 135.159C429.282 135.412 429.181 135.654 429.003 135.832C428.824 136.011 428.582 136.111 428.33 136.111Z" fill="white"/>
<path d="M428.33 139.68H415.481C415.229 139.68 414.987 139.58 414.808 139.402C414.63 139.223 414.53 138.981 414.53 138.729C414.53 138.476 414.63 138.234 414.808 138.056C414.987 137.877 415.229 137.777 415.481 137.777H428.33C428.582 137.778 428.823 137.878 429.001 138.057C429.179 138.235 429.279 138.477 429.279 138.729C429.279 138.98 429.179 139.222 429.001 139.401C428.823 139.579 428.582 139.68 428.33 139.68Z" fill="white"/>
<path d="M267.713 218.917H236.12C234.536 218.915 233.017 218.285 231.897 217.165C230.777 216.045 230.147 214.526 230.146 212.942V185.579C230.147 183.995 230.777 182.476 231.897 181.356C233.017 180.236 234.536 179.606 236.12 179.604H267.713C269.297 179.606 270.816 180.236 271.936 181.356C273.056 182.476 273.686 183.995 273.688 185.579V212.942C273.686 214.526 273.056 216.045 271.936 217.165C270.816 218.285 269.297 218.915 267.713 218.917Z" fill="#FBC531"/>
<path d="M398.018 195.616H287.907C287.188 195.616 286.498 195.33 285.989 194.821C285.481 194.313 285.195 193.623 285.195 192.903C285.195 192.184 285.481 191.494 285.989 190.985C286.498 190.477 287.188 190.191 287.907 190.191H398.018C398.737 190.191 399.427 190.477 399.936 190.985C400.444 191.494 400.73 192.184 400.73 192.903C400.73 193.623 400.444 194.313 399.936 194.821C399.427 195.33 398.737 195.616 398.018 195.616Z" fill="#E4E4E4"/>
<path d="M329.729 208.33H287.907C287.188 208.33 286.498 208.044 285.989 207.535C285.481 207.027 285.195 206.337 285.195 205.617C285.195 204.898 285.481 204.208 285.989 203.699C286.498 203.191 287.188 202.905 287.907 202.905H329.729C330.086 202.904 330.439 202.974 330.769 203.11C331.098 203.246 331.398 203.445 331.65 203.697C331.903 203.949 332.103 204.249 332.24 204.578C332.376 204.907 332.447 205.261 332.447 205.617C332.447 205.974 332.376 206.327 332.24 206.656C332.103 206.986 331.903 207.285 331.65 207.537C331.398 207.789 331.098 207.989 330.769 208.125C330.439 208.261 330.086 208.33 329.729 208.33Z" fill="#E4E4E4"/>
<path d="M267.713 299.917H236.12C234.536 299.915 233.017 299.285 231.897 298.165C230.777 297.045 230.147 295.526 230.146 293.942V266.579C230.147 264.995 230.777 263.476 231.897 262.356C233.017 261.236 234.536 260.606 236.12 260.604H267.713C269.297 260.606 270.816 261.236 271.936 262.356C273.056 263.476 273.686 264.995 273.688 266.579V293.942C273.686 295.526 273.056 297.045 271.936 298.165C270.816 299.285 269.297 299.915 267.713 299.917Z" fill="#FBC531"/>
<path d="M398.018 276.616H287.907C287.188 276.616 286.498 276.33 285.989 275.821C285.481 275.313 285.195 274.623 285.195 273.903C285.195 273.184 285.481 272.494 285.989 271.985C286.498 271.477 287.188 271.191 287.907 271.191H398.018C398.737 271.191 399.427 271.477 399.936 271.985C400.444 272.494 400.73 273.184 400.73 273.903C400.73 274.623 400.444 275.313 399.936 275.821C399.427 276.33 398.737 276.616 398.018 276.616Z" fill="#E4E4E4"/>
<path d="M329.729 289.33H287.907C287.188 289.33 286.498 289.044 285.989 288.535C285.481 288.027 285.195 287.337 285.195 286.617C285.195 285.898 285.481 285.208 285.989 284.699C286.498 284.191 287.188 283.905 287.907 283.905H329.729C330.086 283.904 330.439 283.974 330.769 284.11C331.098 284.246 331.398 284.445 331.65 284.697C331.903 284.949 332.103 285.249 332.24 285.578C332.376 285.907 332.447 286.261 332.447 286.617C332.447 286.974 332.376 287.327 332.24 287.656C332.103 287.986 331.903 288.285 331.65 288.537C331.398 288.789 331.098 288.989 330.769 289.125C330.439 289.261 330.086 289.33 329.729 289.33Z" fill="#E4E4E4"/>
<path d="M267.713 380.917H236.12C234.536 380.915 233.017 380.285 231.897 379.165C230.777 378.045 230.147 376.526 230.146 374.942V347.579C230.147 345.995 230.777 344.476 231.897 343.356C233.017 342.236 234.536 341.606 236.12 341.604H267.713C269.297 341.606 270.816 342.236 271.936 343.356C273.056 344.476 273.686 345.995 273.688 347.579V374.942C273.686 376.526 273.056 378.045 271.936 379.165C270.816 380.285 269.297 380.915 267.713 380.917Z" fill="#FBC531"/>
<path d="M398.018 357.616H287.907C287.188 357.616 286.498 357.33 285.989 356.821C285.481 356.313 285.195 355.623 285.195 354.903C285.195 354.184 285.481 353.494 285.989 352.985C286.498 352.477 287.188 352.191 287.907 352.191H398.018C398.737 352.191 399.427 352.477 399.936 352.985C400.444 353.494 400.73 354.184 400.73 354.903C400.73 355.623 400.444 356.313 399.936 356.821C399.427 357.33 398.737 357.616 398.018 357.616Z" fill="#E4E4E4"/>
<path d="M329.729 370.33H287.907C287.188 370.33 286.498 370.044 285.989 369.535C285.481 369.027 285.195 368.337 285.195 367.617C285.195 366.898 285.481 366.208 285.989 365.699C286.498 365.191 287.188 364.905 287.907 364.905H329.729C330.086 364.904 330.439 364.974 330.769 365.11C331.098 365.246 331.398 365.445 331.65 365.697C331.903 365.949 332.103 366.249 332.24 366.578C332.376 366.907 332.447 367.261 332.447 367.617C332.447 367.974 332.376 368.327 332.24 368.656C332.103 368.986 331.903 369.285 331.65 369.537C331.398 369.789 331.098 369.989 330.769 370.125C330.439 370.261 330.086 370.33 329.729 370.33Z" fill="#E4E4E4"/>
</svg>
