<svg width="929" height="636" viewBox="0 0 929 636" fill="none" xmlns="http://www.w3.org/2000/svg">
<g clip-path="url(#clip0_110_3495)">
<path d="M546.409 466C675.091 466 779.409 361.682 779.409 233C779.409 104.318 675.091 0 546.409 0C417.726 0 313.409 104.318 313.409 233C313.409 361.682 417.726 466 546.409 466Z" fill="#F2F2F2"/>
<path d="M131.411 563.345C137.74 565.57 144.535 566.127 151.142 564.964C157.749 563.8 163.945 560.954 169.132 556.701C182.344 545.612 186.487 527.342 189.857 510.426L199.827 460.39L178.955 474.762C163.945 485.097 148.597 495.763 138.205 510.733C127.812 525.703 123.276 546.138 131.626 562.336" fill="#E6E6E6"/>
<path d="M133.195 623.924C131.083 608.537 128.911 592.952 130.393 577.399C131.709 563.587 135.922 550.096 144.501 539.035C149.055 533.175 154.596 528.154 160.875 524.197C162.513 523.164 164.02 525.759 162.389 526.788C151.525 533.654 143.121 543.794 138.39 555.744C133.166 569.034 132.327 583.52 133.227 597.638C133.771 606.175 134.925 614.656 136.088 623.127C136.18 623.51 136.123 623.913 135.928 624.256C135.734 624.598 135.417 624.854 135.041 624.972C134.657 625.075 134.248 625.023 133.903 624.827C133.557 624.631 133.303 624.306 133.195 623.924Z" fill="#F2F2F2"/>
<path d="M272.996 602.731C275.467 605.649 278.647 607.882 282.231 609.214C285.815 610.546 289.681 610.933 293.458 610.337C303.151 608.693 310.454 600.905 316.987 593.559L336.312 571.831L321.907 572.881C311.548 573.636 300.927 574.456 291.502 578.821C282.077 583.185 273.957 591.925 273.393 602.296" fill="#E6E6E6"/>
<path d="M256.411 633.03C259.808 624.855 263.233 616.566 268.444 609.347C273.073 602.935 279.033 597.517 286.44 594.551C290.368 592.982 294.54 592.111 298.768 591.976C299.871 591.939 299.864 593.65 298.765 593.686C291.444 593.93 284.39 596.493 278.619 601.005C272.219 606.033 267.631 612.914 264.004 620.115C261.811 624.469 259.934 628.972 258.064 633.472C257.998 633.686 257.854 633.868 257.66 633.981C257.465 634.093 257.235 634.127 257.017 634.077C256.798 634.017 256.612 633.874 256.499 633.678C256.386 633.482 256.354 633.249 256.411 633.03Z" fill="#F2F2F2"/>
<path d="M153.542 596.696C156.257 600.821 159.988 604.178 164.376 606.443C168.764 608.708 173.662 609.804 178.597 609.627C191.28 609.025 201.854 600.173 211.372 591.769L239.526 566.912L220.893 566.02C207.493 565.379 193.748 564.781 180.985 568.913C168.223 573.045 156.452 582.99 154.119 596.2" fill="#E6E6E6"/>
<path d="M127.225 632.77C137.393 614.778 149.187 594.783 170.26 588.393C176.119 586.622 182.263 585.987 188.361 586.524C190.283 586.689 189.803 589.652 187.885 589.486C177.664 588.638 167.462 591.336 158.998 597.129C150.853 602.673 144.512 610.38 139.144 618.554C135.856 623.56 132.911 628.779 129.966 633.991C129.024 635.657 126.273 634.455 127.225 632.77Z" fill="#F2F2F2"/>
<path d="M566.333 325.681C586.55 314.57 611.712 316.8 633.494 324.397C655.277 331.994 675.016 344.44 696.17 353.646C760.81 381.777 838.718 377.241 899.657 341.798C905.42 355.204 899.237 370.538 892.445 383.454C885.654 396.369 877.913 410.368 880.709 424.69C884.287 443.017 903.502 454.005 911.288 470.978C918.679 487.09 914.712 506.01 909.042 522.805C903.372 539.6 896.014 556.52 896.977 574.22C897.941 591.92 910.8 610.636 928.526 610.65C902.257 614.732 875.47 618.816 849.217 614.633C822.964 610.45 796.848 596.566 784.659 572.94C778.566 561.132 776.217 547.554 769.22 536.258C757.302 517.018 734.429 507.97 712.848 501.15C691.267 494.331 668.172 487.762 652.977 470.988C638.499 455.006 633.913 432.742 626.243 412.587C613.324 378.849 590.886 349.587 561.654 328.358" fill="#FBC531"/>
<path d="M589.758 241.944C582.661 238.643 573.947 237.561 566.726 240.628C559.504 243.696 554.581 251.56 556.916 258.519C557.975 261.675 560.386 264.778 559.447 267.964C558.724 270.417 556.201 272.037 553.724 273.188C551.247 274.339 548.537 275.308 546.746 277.25C544.954 279.192 544.581 282.535 546.819 284.041C547.556 284.537 548.478 284.772 549.193 285.295C549.802 285.79 550.242 286.463 550.45 287.22C550.659 287.977 550.626 288.78 550.357 289.518C549.761 291.001 548.776 292.297 547.506 293.268C544.965 295.459 541.608 297.967 542.397 301.077C542.689 301.908 543.178 302.657 543.822 303.258C544.466 303.86 545.245 304.298 546.094 304.535C547.857 305.043 549.686 305.285 551.521 305.251L626.487 307.613C628.962 307.799 631.45 307.66 633.889 307.199C635.074 306.983 636.202 306.525 637.202 305.853C638.202 305.181 639.053 304.31 639.701 303.294C641.137 300.637 640.195 297.364 638.422 294.882C636.649 292.401 634.14 290.444 632.066 288.165C629.993 285.887 628.297 283.043 628.662 280.098C628.955 277.74 630.51 275.703 631.626 273.561C632.742 271.419 633.39 268.743 631.945 266.772C629.908 263.996 625.018 264.247 622.702 261.659C620.954 259.707 621.291 256.896 621.118 254.378C620.7 248.321 616.506 242.602 610.537 239.945C607.502 238.643 604.2 238.08 600.905 238.304C597.61 238.529 594.415 239.534 591.584 241.236L589.758 241.944Z" fill="#2F2E41"/>
<path d="M542.385 622.099L530.644 618.571L538.663 571.604L555.992 576.811L542.385 622.099Z" fill="#A0616A"/>
<path d="M541.96 634.38L504.102 623.005L504.246 622.526C504.827 620.591 505.784 618.79 507.061 617.224C508.339 615.659 509.912 614.36 511.692 613.403C513.471 612.446 515.422 611.848 517.432 611.645C519.442 611.442 521.473 611.636 523.408 612.218L546.532 619.165L541.96 634.38Z" fill="#2F2E41"/>
<path d="M653.182 622.496L640.922 622.495L635.09 575.207L653.184 575.208L653.182 622.496Z" fill="#A0616A"/>
<path d="M656.308 634.38L616.778 634.378V633.878C616.778 631.858 617.176 629.857 617.949 627.99C618.722 626.124 619.856 624.427 621.284 622.999C622.713 621.57 624.409 620.436 626.276 619.663C628.143 618.89 630.144 618.492 632.164 618.492L656.309 618.493L656.308 634.38Z" fill="#2F2E41"/>
<path d="M636.163 586.73C635.094 586.729 634.059 586.348 633.245 585.653C632.431 584.959 631.891 583.998 631.722 582.942L613.519 469.387C613.398 468.635 613.035 467.943 612.486 467.415C611.936 466.888 611.229 466.554 610.473 466.465C609.716 466.376 608.951 466.536 608.294 466.921C607.636 467.306 607.123 467.894 606.83 468.598L559.669 582.134C559.23 583.182 558.411 584.026 557.377 584.498C556.343 584.969 555.17 585.034 554.09 584.678L537.056 578.999C535.995 578.649 535.103 577.916 534.555 576.943C534.006 575.97 533.84 574.827 534.09 573.738L572.739 402.717C572.928 401.893 573.344 401.139 573.94 400.539C574.536 399.94 575.288 399.519 576.111 399.325L627.943 387.293C628.58 387.149 629.241 387.142 629.88 387.275C630.52 387.408 631.124 387.676 631.651 388.063C665.781 412.862 662.898 493.884 656.537 581.861C656.457 582.962 655.976 583.996 655.184 584.765C654.393 585.535 653.346 585.986 652.242 586.034L636.361 586.726C636.295 586.728 636.229 586.73 636.163 586.73Z" fill="#2F2E41"/>
<path d="M592.531 307.032C606.096 307.032 617.093 296.035 617.093 282.471C617.093 268.906 606.096 257.91 592.531 257.91C578.967 257.91 567.97 268.906 567.97 282.471C567.97 296.035 578.967 307.032 592.531 307.032Z" fill="#A0616A"/>
<path d="M593.592 409.768C587.696 409.73 581.882 408.386 576.568 405.833L576.386 405.748L576.313 405.56L554.283 348.484L553.865 338.566C553.724 335.25 554.28 331.941 555.496 328.853C556.712 325.764 558.561 322.964 560.925 320.634C563.288 318.303 566.114 316.493 569.219 315.321C572.324 314.148 575.641 313.639 578.955 313.826L602.343 315.144C608.384 315.487 614.067 318.12 618.236 322.506C622.404 326.893 624.744 332.703 624.779 338.754C625.387 339.921 629.701 349.046 621.246 357.619C620.93 359.571 617.973 379.866 629.133 391.027L629.447 391.34L629.173 391.689C628.995 391.915 614.662 409.765 593.592 409.768Z" fill="#3F3D56"/>
<path d="M626.434 414.073C627.816 413.572 629.071 412.774 630.111 411.736C631.152 410.697 631.952 409.443 632.455 408.061C632.958 406.68 633.152 405.205 633.023 403.741C632.895 402.276 632.447 400.858 631.711 399.585L655.07 372.542L636.655 370.145L617.296 396.193C615.241 397.572 613.762 399.656 613.14 402.052C612.518 404.447 612.797 406.988 613.923 409.192C615.05 411.396 616.945 413.11 619.251 414.01C621.557 414.91 624.112 414.932 626.434 414.073Z" fill="#A0616A"/>
<path d="M641.038 393.2C640.161 393.2 639.302 392.943 638.57 392.46L627.017 384.883C626.045 384.249 625.357 383.263 625.096 382.132C624.836 381.002 625.022 379.814 625.618 378.819L633.981 364.767C634.434 364.007 634.72 363.159 634.822 362.28C634.924 361.402 634.839 360.511 634.572 359.668C634.305 358.824 633.863 358.047 633.275 357.386C632.686 356.726 631.965 356.197 631.157 355.835L607.13 345.063C604.175 343.721 601.763 341.416 600.289 338.525C598.815 335.633 598.367 332.327 599.018 329.148C599.467 327.004 600.405 324.992 601.758 323.27C603.111 321.547 604.844 320.16 606.821 319.216C608.798 318.272 610.966 317.798 613.156 317.828C615.347 317.859 617.5 318.395 619.45 319.394L655.902 338.073C658.361 339.333 660.519 341.109 662.228 343.281C663.936 345.452 665.155 347.968 665.802 350.654C666.448 353.341 666.506 356.135 665.972 358.846C665.438 361.557 664.324 364.121 662.707 366.362L644.687 391.331C644.271 391.91 643.723 392.382 643.088 392.707C642.454 393.032 641.751 393.201 641.038 393.2Z" fill="#3F3D56"/>
<path d="M567.405 278.979C575.161 278.356 581.601 270.607 580.795 262.868C580.704 266.058 581.789 269.17 583.843 271.612C585.897 274.055 588.777 275.657 591.936 276.114C595.494 276.506 599.394 275.429 602.491 277.224C605.921 279.212 607.019 284.04 610.592 285.757C614.045 287.416 618.43 285.153 620.135 281.724C621.841 278.294 621.423 274.173 620.292 270.514C618.68 265.294 615.745 260.581 611.771 256.832C607.798 253.083 602.922 250.427 597.618 249.121C592.314 247.814 586.762 247.903 581.502 249.378C576.242 250.853 571.454 253.665 567.603 257.538C564.341 260.819 561.752 265 561.332 269.607C560.912 274.213 563.049 279.212 567.186 281.282L567.405 278.979Z" fill="#2F2E41"/>
<path d="M510.264 210.944C511.558 211.642 512.684 212.614 513.561 213.794C514.439 214.974 515.047 216.331 515.343 217.771C515.639 219.211 515.615 220.698 515.274 222.128C514.933 223.558 514.283 224.896 513.369 226.048L532.528 256.212L513.961 255.894L498.614 227.298C496.781 225.634 495.622 223.356 495.357 220.896C495.092 218.435 495.739 215.962 497.175 213.946C498.611 211.93 500.737 210.511 503.149 209.958C505.562 209.405 508.093 209.756 510.264 210.944Z" fill="#A0616A"/>
<path d="M525.707 232.424L550.38 290.726L576.249 334.59C577.341 336.442 577.998 338.517 578.17 340.66C578.342 342.803 578.026 344.957 577.243 346.959C576.461 348.962 575.235 350.76 573.656 352.219C572.077 353.678 570.187 354.759 568.129 355.38C564.865 356.349 561.362 356.118 558.254 354.73C555.145 353.342 552.635 350.888 551.178 347.811L501.321 241.279C501.05 240.7 500.905 240.07 500.897 239.431C500.889 238.792 501.016 238.159 501.272 237.573C501.527 236.987 501.904 236.463 502.378 236.034C502.852 235.605 503.412 235.283 504.02 235.087L520.186 229.894C520.493 229.795 520.808 229.729 521.129 229.697C522.083 229.6 523.044 229.813 523.868 230.304C524.692 230.796 525.337 231.539 525.707 232.424Z" fill="#3F3D56"/>
<path d="M757 635.213H1C0.734784 635.213 0.480429 635.107 0.292892 634.92C0.105356 634.732 0 634.478 0 634.213C0 633.947 0.105356 633.693 0.292892 633.505C0.480429 633.318 0.734784 633.213 1 633.213H757C757.265 633.213 757.52 633.318 757.707 633.505C757.895 633.693 758 633.947 758 634.213C758 634.478 757.895 634.732 757.707 634.92C757.52 635.107 757.265 635.213 757 635.213Z" fill="#CCCCCC"/>
<path d="M597.858 108.213V190.213C597.858 190.478 597.753 190.732 597.565 190.92C597.378 191.107 597.123 191.213 596.858 191.213C596.593 191.213 596.339 191.107 596.151 190.92C595.964 190.732 595.858 190.478 595.858 190.213V108.213C595.858 107.947 595.964 107.693 596.151 107.506C596.339 107.318 596.593 107.213 596.858 107.213C597.123 107.213 597.378 107.318 597.565 107.506C597.753 107.693 597.858 107.947 597.858 108.213Z" fill="#CCCCCC"/>
<path d="M684.684 177.778L656.4 206.062C656.212 206.249 655.958 206.353 655.693 206.353C655.428 206.353 655.174 206.247 654.987 206.06C654.8 205.873 654.694 205.619 654.694 205.354C654.694 205.089 654.799 204.835 654.985 204.648L683.27 176.363C683.362 176.27 683.473 176.196 683.594 176.146C683.716 176.095 683.846 176.069 683.977 176.069C684.109 176.069 684.239 176.094 684.361 176.145C684.482 176.195 684.592 176.269 684.685 176.362C684.778 176.455 684.852 176.565 684.902 176.687C684.953 176.808 684.979 176.938 684.978 177.07C684.978 177.201 684.952 177.332 684.902 177.453C684.851 177.574 684.777 177.685 684.684 177.778Z" fill="#CCCCCC"/>
<path d="M509.033 177.778L537.317 206.062C537.504 206.249 537.759 206.355 538.024 206.355C538.289 206.355 538.544 206.249 538.731 206.062C538.919 205.874 539.024 205.62 539.024 205.355C539.024 205.089 538.919 204.835 538.731 204.648L510.447 176.363C510.354 176.27 510.244 176.196 510.122 176.146C510.001 176.095 509.871 176.069 509.739 176.069C509.608 176.069 509.478 176.094 509.356 176.145C509.234 176.195 509.124 176.269 509.031 176.362C508.938 176.455 508.864 176.565 508.814 176.687C508.764 176.808 508.738 176.938 508.738 177.07C508.738 177.201 508.764 177.332 508.815 177.453C508.865 177.574 508.939 177.685 509.033 177.778Z" fill="#CCCCCC"/>
</g>
<defs>
<clipPath id="clip0_110_3495">
<rect width="928.526" height="635.213" fill="white"/>
</clipPath>
</defs>
</svg>
