<svg width="406" height="612" viewBox="0 0 406 612" fill="none" xmlns="http://www.w3.org/2000/svg">
<g clip-path="url(#clip0_99_3270)">
<path d="M320.859 492.28C320.549 492.63 320.239 492.99 319.939 493.35C315.749 498.212 311.963 503.41 308.619 508.89C308.349 509.31 308.089 509.74 307.849 510.16C299.935 523.399 294.547 537.993 291.959 553.2C291.379 556.64 290.943 560.1 290.649 563.58C290.439 566.26 290.313 568.943 290.269 571.63C290.109 582.91 291.109 595.46 283.839 604.08C281.896 606.348 279.524 608.21 276.859 609.56C274.852 610.599 272.731 611.401 270.539 611.95H247.869C246.729 611.78 245.589 611.6 244.449 611.42C244.419 611.42 244.389 611.41 244.359 611.41L244.129 611.49L242.759 611.95L242.699 611.97V611.95C242.701 611.909 242.698 611.869 242.689 611.83C242.691 611.756 242.688 611.683 242.679 611.61V611.6C242.669 611.4 242.659 611.21 242.659 611.01L242.629 610.48C242.629 610.48 242.619 610.47 242.629 610.47C242.619 610.17 242.599 609.87 242.589 609.56C241.539 583.46 244.099 556.49 256.419 533.51C260.644 525.636 266.084 518.478 272.539 512.3C272.577 512.26 272.617 512.224 272.659 512.19C285.469 499.97 302.029 491.98 319.509 492.25C319.959 492.25 320.409 492.26 320.859 492.28Z" fill="#F0F0F0"/>
<path d="M320.91 492.845C301.113 503.004 285.02 519.144 274.917 538.97C272.667 543.2 271.097 547.758 270.266 552.476C269.604 557.099 270.193 561.814 271.97 566.132C273.547 570.191 275.629 574.161 276.191 578.533C276.446 580.776 276.223 583.046 275.539 585.197C274.854 587.347 273.723 589.328 272.219 591.01C268.58 595.3 263.618 598.026 258.672 600.523C253.18 603.296 247.433 606.089 243.62 611.102C243.158 611.709 242.243 610.957 242.704 610.35C249.337 601.629 261.02 599.726 268.976 592.635C272.688 589.326 275.426 584.878 275.117 579.755C274.847 575.275 272.703 571.18 271.071 567.083C269.276 562.896 268.533 558.333 268.907 553.793C269.495 549.047 270.887 544.436 273.022 540.158C277.676 530.449 283.828 521.531 291.251 513.733C299.674 504.786 309.566 497.345 320.498 491.734C321.175 491.387 321.582 492.5 320.91 492.845Z" fill="white"/>
<path d="M277.795 532.395C274.698 530.248 272.466 527.071 271.496 523.43C270.526 519.789 270.882 515.923 272.499 512.52C272.829 511.833 273.913 512.313 273.583 513.001C272.07 516.167 271.739 519.769 272.649 523.157C273.559 526.545 275.651 529.497 278.546 531.478C279.175 531.91 278.42 532.824 277.795 532.395Z" fill="white"/>
<path d="M270.9 564.179C278.49 562.874 285.31 558.756 289.999 552.646C290.463 552.04 291.379 552.792 290.915 553.397C286.024 559.746 278.918 564.017 271.016 565.358C270.263 565.485 270.151 564.305 270.9 564.179Z" fill="white"/>
<path d="M300.296 506.228C301.321 507.309 302.598 508.117 304.013 508.582C305.428 509.046 306.936 509.152 308.402 508.89C309.153 508.753 309.265 509.933 308.518 510.069C306.897 510.351 305.232 510.232 303.668 509.723C302.104 509.213 300.688 508.328 299.545 507.144C299.428 507.042 299.354 506.899 299.339 506.744C299.323 506.589 299.368 506.434 299.462 506.311C299.563 506.19 299.706 506.114 299.862 506.098C300.019 506.083 300.174 506.129 300.296 506.228Z" fill="white"/>
<path d="M376.069 564.64C375.609 564.74 375.149 564.84 374.679 564.95H374.669C368.402 566.312 362.256 568.178 356.289 570.53C355.829 570.71 355.369 570.89 354.909 571.08H354.899C340.676 576.871 327.645 585.238 316.459 595.76C316.419 595.8 316.379 595.83 316.339 595.87C316.315 595.899 316.289 595.926 316.259 595.95L316.209 596C311.771 600.205 307.656 604.737 303.899 609.56C303.899 609.57 303.889 609.58 303.879 609.59C303.279 610.37 302.669 611.15 302.069 611.95H242.759L242.699 611.97V611.95H242.449C242.449 611.94 242.459 611.93 242.469 611.92C242.469 611.91 242.479 611.91 242.479 611.9C242.549 611.8 242.619 611.7 242.679 611.61V611.6C242.694 611.57 242.715 611.543 242.739 611.52C242.799 611.42 242.869 611.34 242.919 611.25C243.319 610.69 243.709 610.12 244.109 609.56C244.759 608.63 245.419 607.7 246.089 606.78L246.09 606.776L246.092 606.773L246.095 606.771L246.099 606.77V606.76C246.109 606.75 246.109 606.74 246.119 606.73L246.139 606.71C254.389 595.29 263.669 584.45 274.299 575.37C274.619 575.09 274.939 574.81 275.279 574.55C280.093 570.478 285.234 566.809 290.649 563.58C293.609 561.83 296.659 560.224 299.799 558.76C307.899 555.028 316.534 552.592 325.389 551.54H325.409C325.429 551.54 325.449 551.53 325.479 551.53C325.509 551.53 325.529 551.52 325.549 551.52C343.159 549.48 361.209 553.07 375.019 563.81C375.379 564.09 375.719 564.36 376.069 564.64Z" fill="#F0F0F0"/>
<path d="M242.449 611.95H242.699V611.97L242.759 611.95H258.629C253.899 611.14 249.179 610.51 244.449 611.42C244.339 611.44 244.239 611.46 244.129 611.49C243.649 611.58 243.169 611.7 242.689 611.83C242.659 611.84 242.619 611.85 242.589 611.86C242.546 611.872 242.505 611.892 242.469 611.92C242.444 611.924 242.42 611.934 242.399 611.95H242.449Z" fill="white"/>
<path d="M375.779 565.13C375.409 565.07 375.049 565 374.679 564.95H374.669C366.954 563.692 359.122 563.296 351.319 563.77C350.929 563.79 350.529 563.82 350.129 563.84C339.298 564.595 328.649 567.02 318.559 571.03C318.549 571.03 318.549 571.03 318.549 571.04C318.439 571.08 318.329 571.12 318.229 571.16C315.879 572.11 313.559 573.15 311.289 574.27C306.945 576.292 302.947 578.985 299.439 582.25C296.632 585.021 294.506 588.407 293.229 592.14C293.099 592.52 292.969 592.89 292.849 593.27C292.759 593.57 292.669 593.88 292.579 594.18C291.399 598.37 290.669 602.79 288.489 606.62C287.882 607.688 287.143 608.676 286.289 609.56C285.407 610.478 284.413 611.281 283.329 611.95H280.809C282.189 611.354 283.467 610.548 284.599 609.56C285.48 608.8 286.251 607.922 286.889 606.95C289.369 603.21 290.129 598.65 291.289 594.4C291.479 593.71 291.679 593.04 291.899 592.37C293.054 588.703 294.988 585.329 297.569 582.48C300.895 579.046 304.78 576.202 309.059 574.07C311.759 572.65 314.533 571.363 317.379 570.21C317.749 570.05 318.119 569.91 318.489 569.77C336.463 562.775 355.982 560.717 375.019 563.81C375.389 563.86 375.749 563.93 376.119 563.99C376.869 564.12 376.529 565.26 375.779 565.13Z" fill="white"/>
<path d="M317.545 570.747C316.365 567.169 316.495 563.288 317.913 559.797C319.33 556.306 321.942 553.433 325.283 551.69C325.96 551.34 326.536 552.376 325.858 552.727C322.745 554.344 320.312 557.02 318.998 560.274C317.685 563.527 317.578 567.143 318.696 570.468C318.939 571.191 317.786 571.466 317.545 570.747Z" fill="white"/>
<path d="M292.903 591.974C299.75 595.502 307.674 596.32 315.097 594.265C315.832 594.061 316.11 595.213 315.376 595.417C307.648 597.541 299.403 596.673 292.287 592.986C291.609 592.634 292.229 591.625 292.903 591.974Z" fill="white"/>
<path d="M351.265 563.403C351.433 564.883 351.966 566.297 352.816 567.52C353.666 568.743 354.806 569.735 356.134 570.408C356.816 570.751 356.195 571.761 355.517 571.42C354.053 570.669 352.795 569.572 351.853 568.223C350.911 566.874 350.314 565.315 350.113 563.682C350.082 563.53 350.109 563.371 350.19 563.238C350.271 563.105 350.4 563.008 350.55 562.967C350.702 562.931 350.863 562.956 350.997 563.038C351.131 563.119 351.227 563.251 351.265 563.403Z" fill="white"/>
<path d="M317.069 166.29C317.339 133.18 318.686 99.75 321.109 66C321.149 65.33 321.199 64.67 321.249 64C322.529 46.43 324.096 28.7967 325.949 11.1V11C325.948 8.08315 324.788 5.28628 322.726 3.22375C320.663 1.16123 317.866 0.00174059 314.949 0H19.9494C17.0424 0.00571161 14.2554 1.15962 12.1952 3.21048C10.1349 5.26134 8.96836 8.04307 8.94941 10.95C6.38941 35.32 4.38272 59.57 2.92939 83.7C2.86939 84.49 2.8294 85.27 2.7894 86.06C2.0694 97.99 1.49607 109.89 1.0694 121.76C1.0394 122.46 1.0094 123.16 0.999396 123.86C-1.73079 196.69 0.926467 269.622 8.94941 342.06C8.97044 344.965 10.138 347.745 12.1981 349.794C14.2581 351.842 17.044 352.995 19.9494 353H314.949C317.866 352.998 320.663 351.839 322.726 349.776C324.788 347.714 325.948 344.917 325.949 342V341.89C324.499 329.02 323.226 316.067 322.129 303.03C321.969 301.12 321.813 299.21 321.659 297.3C320.899 287.91 320.236 278.483 319.669 269.02C319.549 267.11 319.439 265.2 319.339 263.29C318.269 244.35 317.569 225.263 317.239 206.03C317.199 204.12 317.169 202.22 317.139 200.3C317.019 190.91 316.983 181.483 317.029 172.02C317.029 170.11 317.039 168.2 317.069 166.29Z" fill="#F0F0F0"/>
<path d="M405.949 75C405.948 72.0832 404.788 69.2863 402.726 67.2238C400.663 65.1612 397.866 64.0017 394.949 64H99.9494C97.0424 64.0057 94.2554 65.1596 92.1952 67.2105C90.1349 69.2613 88.9684 72.0431 88.9494 74.95C78.9894 169.92 77.3394 263.21 84.0094 353C84.8194 364.11 85.7661 375.163 86.8494 386.16C87.4294 392.05 88.0461 397.923 88.6994 403.78C88.7794 404.54 88.8594 405.3 88.9494 406.06C88.9704 408.965 90.138 411.745 92.1981 413.794C94.2581 415.842 97.044 416.995 99.9494 417H394.949C397.866 416.998 400.663 415.839 402.726 413.776C404.788 411.714 405.948 408.917 405.949 406V405.89C394.019 300.12 394.019 188.83 405.949 75.1V75Z" fill="white"/>
<path d="M405.949 75C405.948 72.0832 404.788 69.2863 402.726 67.2238C400.663 65.1612 397.866 64.0017 394.949 64H99.9494C97.0424 64.0057 94.2554 65.1596 92.1952 67.2105C90.1349 69.2613 88.9684 72.0431 88.9494 74.95C78.9894 169.92 77.3394 263.21 84.0094 353C84.8194 364.11 85.7661 375.163 86.8494 386.16C87.4294 392.05 88.0461 397.923 88.6994 403.78C88.7794 404.54 88.8594 405.3 88.9494 406.06C88.9704 408.965 90.138 411.745 92.1981 413.794C94.2581 415.842 97.044 416.995 99.9494 417H394.949C397.866 416.998 400.663 415.839 402.726 413.776C404.788 411.714 405.948 408.917 405.949 406V405.89C394.019 300.12 394.019 188.83 405.949 75.1V75ZM403.949 406.06C403.932 408.436 402.976 410.709 401.29 412.383C399.604 414.057 397.325 414.998 394.949 415H99.9494C97.5636 414.996 95.2765 414.047 93.5894 412.36C91.9023 410.673 90.953 408.386 90.9494 406V405.89C90.8794 405.25 90.8094 404.6 90.7394 403.96C90.0494 397.84 89.4061 391.703 88.8094 385.55C87.7594 374.76 86.8294 363.91 86.0194 353C79.3494 263.26 80.9894 170.03 90.9494 75.1V75C90.953 72.6142 91.9023 70.327 93.5894 68.64C95.2764 66.9529 97.5636 66.0036 99.9494 66H394.949C397.327 66.0008 399.609 66.9424 401.295 68.6192C402.981 70.2961 403.935 72.572 403.949 74.95C392.019 188.77 392.019 300.18 403.949 406.06Z" fill="#E4E4E4"/>
<path d="M120.284 166.29C119.525 166.292 118.798 166.595 118.262 167.132C117.726 167.67 117.425 168.398 117.425 169.157C117.425 169.916 117.726 170.643 118.262 171.181C118.798 171.718 119.525 172.021 120.284 172.023H360.015C360.774 172.021 361.501 171.718 362.037 171.181C362.572 170.643 362.873 169.916 362.873 169.157C362.873 168.398 362.572 167.67 362.037 167.132C361.501 166.595 360.774 166.292 360.015 166.29H120.284Z" fill="#E6E6E6"/>
<path d="M120.284 183.49C119.524 183.491 118.797 183.794 118.26 184.331C117.724 184.869 117.422 185.597 117.422 186.356C117.422 187.116 117.724 187.844 118.26 188.381C118.797 188.919 119.524 189.221 120.284 189.223H283.028C283.787 189.221 284.515 188.919 285.052 188.381C285.588 187.844 285.889 187.116 285.889 186.356C285.889 185.597 285.588 184.869 285.052 184.331C284.515 183.794 283.787 183.491 283.028 183.49H120.284Z" fill="#E6E6E6"/>
<path d="M120.284 200.301C119.524 200.302 118.797 200.605 118.26 201.142C117.724 201.679 117.422 202.408 117.422 203.167C117.422 203.926 117.724 204.654 118.26 205.192C118.797 205.729 119.524 206.032 120.284 206.033H360.015C360.774 206.032 361.502 205.729 362.038 205.192C362.574 204.654 362.876 203.926 362.876 203.167C362.876 202.408 362.574 201.679 362.038 201.142C361.502 200.605 360.774 200.302 360.015 200.301H120.284Z" fill="#E6E6E6"/>
<path d="M120.284 217.5C119.525 217.502 118.798 217.805 118.262 218.342C117.726 218.88 117.425 219.608 117.425 220.367C117.425 221.125 117.726 221.853 118.262 222.391C118.798 222.928 119.525 223.231 120.284 223.233H283.028C283.787 223.231 284.514 222.928 285.05 222.391C285.586 221.853 285.887 221.125 285.887 220.367C285.887 219.608 285.586 218.88 285.05 218.342C284.514 217.805 283.787 217.502 283.028 217.5H120.284Z" fill="#E6E6E6"/>
<path d="M120.284 263.29C119.525 263.292 118.798 263.595 118.262 264.132C117.726 264.67 117.425 265.398 117.425 266.157C117.425 266.916 117.726 267.643 118.262 268.181C118.798 268.718 119.525 269.021 120.284 269.023H360.015C360.774 269.021 361.501 268.718 362.037 268.181C362.572 267.643 362.873 266.916 362.873 266.157C362.873 265.398 362.572 264.67 362.037 264.132C361.501 263.595 360.774 263.292 360.015 263.29H120.284Z" fill="#E6E6E6"/>
<path d="M120.284 280.49C119.524 280.491 118.797 280.794 118.26 281.331C117.724 281.869 117.422 282.597 117.422 283.356C117.422 284.116 117.724 284.844 118.26 285.381C118.797 285.919 119.524 286.221 120.284 286.223H283.028C283.787 286.221 284.515 285.919 285.052 285.381C285.588 284.844 285.889 284.116 285.889 283.356C285.889 282.597 285.588 281.869 285.052 281.331C284.515 280.794 283.787 280.491 283.028 280.49H120.284Z" fill="#E6E6E6"/>
<path d="M120.284 297.301C119.524 297.302 118.797 297.605 118.26 298.142C117.724 298.679 117.422 299.408 117.422 300.167C117.422 300.926 117.724 301.654 118.26 302.192C118.797 302.729 119.524 303.032 120.284 303.033H360.015C360.774 303.032 361.502 302.729 362.038 302.192C362.574 301.654 362.876 300.926 362.876 300.167C362.876 299.408 362.574 298.679 362.038 298.142C361.502 297.605 360.774 297.302 360.015 297.301H120.284Z" fill="#E6E6E6"/>
<path d="M120.284 314.5C119.525 314.502 118.798 314.805 118.262 315.342C117.726 315.88 117.425 316.608 117.425 317.367C117.425 318.125 117.726 318.853 118.262 319.391C118.798 319.928 119.525 320.231 120.284 320.233H283.028C283.787 320.231 284.514 319.928 285.05 319.391C285.586 318.853 285.887 318.125 285.887 317.367C285.887 316.608 285.586 315.88 285.05 315.342C284.514 314.805 283.787 314.502 283.028 314.5H120.284Z" fill="#E6E6E6"/>
<path d="M167.717 130.7H121.929C121.336 130.699 120.768 130.463 120.348 130.044C119.929 129.625 119.693 129.056 119.692 128.463V121.127C119.693 120.534 119.929 119.965 120.348 119.546C120.768 119.127 121.336 118.891 121.929 118.89H167.717C168.31 118.891 168.879 119.127 169.298 119.546C169.718 119.965 169.953 120.534 169.954 121.127V128.463C169.953 129.056 169.718 129.625 169.298 130.044C168.879 130.463 168.31 130.699 167.717 130.7Z" fill="#FBC531"/>
<path d="M326.785 366.677L312.76 371.312C310.423 372.084 308.085 372.856 305.747 373.629C303.582 374.342 301.24 375.19 298.922 374.883C297.321 374.671 295.495 373.749 294.996 372.101C294.524 370.542 295.525 368.911 296.737 367.989C300.084 365.442 304.316 368.034 306.687 370.671C309.588 373.896 311.23 378.059 313.95 381.435C316.372 384.462 319.442 386.908 322.935 388.591C329.876 391.868 338.342 391.52 344.534 386.744C351.926 381.041 352.68 371.157 352.72 362.534C352.706 362.145 352.542 361.777 352.263 361.506C351.983 361.236 351.609 361.085 351.22 361.085C350.831 361.085 350.457 361.236 350.177 361.506C349.897 361.777 349.733 362.145 349.72 362.534C349.684 370.349 349.24 379.929 342.114 384.82C335.288 389.504 326.317 388.262 320.032 383.27C316.53 380.489 314.376 376.862 312.077 373.107C309.832 369.441 307.045 365.887 302.821 364.461C301.01 363.803 299.027 363.79 297.207 364.425C295.388 365.061 293.843 366.305 292.835 367.948C292.375 368.723 292.085 369.587 291.984 370.483C291.884 371.379 291.976 372.286 292.253 373.144C292.531 374.002 292.988 374.79 293.594 375.458C294.201 376.125 294.942 376.655 295.77 377.013C300.667 379.347 306.27 376.613 310.986 375.054L327.583 369.569C329.407 368.966 328.626 366.068 326.785 366.677Z" fill="#FBC531"/>
<path d="M285.224 587.176L275.389 590.416L258.211 554.026L272.726 549.244L285.224 587.176Z" fill="#9F616A"/>
<path d="M292.239 595.44L291.569 593.41L289.809 588.06L288.609 584.42L285.329 585.5L284.649 585.45L275.639 584.84L274.439 584.76L272.659 584.64L270.819 584.51L265.679 591.98H265.669C263.748 592.606 261.97 593.607 260.439 594.925C258.908 596.243 257.654 597.853 256.749 599.66C256.639 599.88 256.539 600.1 256.439 600.32C256.191 600.858 255.981 601.413 255.809 601.98C255.031 604.43 254.887 607.038 255.389 609.56C255.519 610.185 255.682 610.803 255.879 611.41L255.909 611.51L256.029 611.88L256.749 611.64L263.069 609.56L285.209 602.27L289.599 600.82L290.949 600.37H290.959L293.579 599.51L292.239 595.44Z" fill="#2F2E41"/>
<path d="M192.004 595.731L181.65 595.73L176.724 555.792L192.006 555.793L192.004 595.731Z" fill="#9F616A"/>
<path d="M175.434 420.653L170.844 428.593C170.844 428.593 165.8 429.97 167.448 446.411C168.612 458.021 168.99 510.001 171.92 543.77C173.14 557.825 174.802 568.725 177.147 572.247L178.59 573.54L193.657 574.98L194.037 574.847L199.57 535.771C200.563 528.756 200.414 521.627 199.129 514.66L198.129 503.66L212.002 447.963C212.002 447.963 226.129 483.66 235.129 517.66C237.296 525.845 245.525 531.05 248.645 538.073C249.69 540.426 250.718 542.706 251.72 544.894C258.319 559.3 261.626 569.789 264.129 570.66H266.129L278.129 566.66L280.49 560.725L262.129 506.66L248.38 419.366C222.183 405.28 197.609 403.712 175.434 420.653Z" fill="#2F2E41"/>
<path d="M250.479 303.03C249.575 301.038 248.511 299.122 247.299 297.3C244.529 292.982 240.678 289.463 236.129 287.09L232.189 286.22L225.129 284.66L221.409 280.49L215.309 273.66H194.309L191.499 280.49L189.139 286.22L188.129 288.66L170.149 297.65C170.139 297.65 170.139 297.65 170.129 297.66C170.369 299.46 170.606 301.25 170.839 303.03C171.349 306.9 171.829 310.723 172.279 314.5C172.509 316.42 172.729 318.33 172.939 320.23C173.609 326.19 174.186 332.047 174.669 337.8C175.099 342.94 175.443 348.007 175.699 353C176.325 364.34 176.371 375.705 175.839 387.05C175.699 389.72 178.349 392.76 178.139 395.37C177.789 399.63 174.499 403.41 173.919 407.48C173.559 409.98 173.719 412.64 173.089 415C172.914 415.691 172.652 416.356 172.309 416.98C172.309 416.99 172.299 416.99 172.299 417C165.099 429.86 170.749 423.72 170.079 426.61L170.399 426.69C170.549 426.73 171.009 426.85 171.749 427.02C175.979 428.03 193.419 411.66 205.129 411.66C212.159 411.66 230.769 423.22 236.999 424.06C241.929 424.72 246.329 425.32 248.949 423.01C249.71 422.336 250.29 421.484 250.639 420.53L250.669 420.44L250.659 420.35L250.409 417L250.259 415L248.119 386.3C246.924 384.818 246.169 383.031 245.939 381.141C245.709 379.252 246.014 377.335 246.819 375.61L247.259 374.68L245.639 353L245.339 348.95L245.229 347.58V347.57L244.449 337.1L246.329 331.38V331.37L249.989 320.23L251.869 314.5L253.049 310.9L253.129 310.66C252.5 308.036 251.612 305.48 250.479 303.03Z" fill="#FBC531"/>
<path d="M268.723 406.44L248.563 354.338L239.2 335.313L257.205 325.366L271.706 350.915L281.426 404.296C282.956 405.341 284.139 406.819 284.823 408.541C285.506 410.263 285.66 412.15 285.263 413.96C284.866 415.769 283.937 417.419 282.595 418.697C281.254 419.974 279.561 420.822 277.734 421.13C275.907 421.438 274.03 421.193 272.343 420.426C270.657 419.659 269.238 418.406 268.269 416.826C267.3 415.247 266.826 413.414 266.907 411.564C266.988 409.713 267.62 407.928 268.723 406.44Z" fill="#9F616A"/>
<path d="M269.129 334.66L263.969 331.32L258.039 320.23L254.979 314.5L253.049 310.9L252.229 309.36L242.959 303.03L236.699 298.75L231.599 303.03L229.169 305.07L231.549 314.5L232.989 320.23L236.129 332.66L245.339 348.95L247.629 353L248.939 355.33L248.949 355.35L249.129 355.66L272.399 354.69L273.129 354.66L273.169 353L273.189 352.4C273.199 352.1 273.199 351.8 273.199 351.5C273.196 345.643 271.801 339.872 269.129 334.66Z" fill="#FBC531"/>
<path d="M93.0042 385.719L134.245 348.034L148.578 332.407L164.378 345.578L145.829 368.359L99.6091 396.78C99.1907 398.585 98.2423 400.223 96.8856 401.485C95.5289 402.747 93.826 403.574 91.9956 403.86C90.1652 404.147 88.291 403.879 86.6137 403.093C84.9364 402.306 83.5327 401.036 82.5828 399.445C81.633 397.854 81.1804 396.016 81.2832 394.166C81.3861 392.316 82.0396 390.54 83.16 389.064C84.2803 387.589 85.8162 386.482 87.5704 385.886C89.3245 385.29 91.2169 385.232 93.0042 385.719Z" fill="#9F616A"/>
<path d="M178.139 320.23L178.059 314.5L177.909 303.03L177.849 298.58L177.679 298.46C176.748 297.849 175.693 297.453 174.589 297.3C173.619 297.139 172.629 297.139 171.659 297.3C171.148 297.379 170.643 297.496 170.149 297.65C170.139 297.65 170.139 297.65 170.129 297.66C167.165 298.724 164.548 300.578 162.559 303.02L162.549 303.03C159.551 306.597 156.892 310.437 154.609 314.5C153.479 316.42 152.399 318.36 151.389 320.23C147.569 327.34 144.819 333.5 144.769 333.61L133.349 348.44L133.509 348.71L136.019 353L145.219 368.73L146.679 371.23L150.409 369.24C154.757 366.92 158.186 363.189 160.129 358.66L161.459 353.58L161.949 353L174.669 337.8L178.309 333.44L178.139 320.23Z" fill="#FBC531"/>
<path d="M221.724 254.09C223.427 243.596 216.3 233.707 205.806 232.004C195.311 230.301 185.423 237.428 183.72 247.923C182.017 258.417 189.144 268.306 199.639 270.009C210.133 271.712 220.021 264.585 221.724 254.09Z" fill="#9F616A"/>
<path d="M184.113 238.386C183.257 235.392 181.546 232.825 182.402 232.825C183.257 232.825 183.685 230.686 183.685 230.686C183.685 230.686 184.541 230.258 184.969 230.686C185.397 231.114 185.824 227.692 185.824 227.692C185.824 227.692 186.252 226.408 186.68 227.264C187.108 228.119 187.108 227.692 187.535 226.408C187.963 225.125 190.102 224.269 190.102 224.269C190.102 224.269 198.23 224.697 199.514 222.986C200.797 221.275 215.342 222.558 218.337 224.697C221.331 226.836 233.129 230.66 226.129 242.66C230.129 249.66 224.158 262.145 222.615 263.626C220.175 265.969 218.486 266.813 206.94 269.111C204.681 269.56 199.129 250.66 199.129 250.66C199.129 250.66 184.969 241.381 184.113 238.386Z" fill="#2F2E41"/>
<path d="M192.629 594.17L192.009 593.92L180.869 589.38L179.159 588.69L171.939 594.17H171.929C167.85 594.175 163.939 595.798 161.056 598.683C158.172 601.569 156.551 605.481 156.549 609.56V610.06H196.079V594.17H192.629Z" fill="#2F2E41"/>
<path d="M308.819 610.75C308.82 610.907 308.79 611.062 308.73 611.208C308.671 611.353 308.583 611.485 308.473 611.596C308.362 611.708 308.231 611.797 308.086 611.857C307.942 611.918 307.786 611.949 307.629 611.95H104.329C104.012 611.95 103.709 611.824 103.484 611.6C103.26 611.376 103.134 611.072 103.134 610.755C103.134 610.438 103.26 610.134 103.484 609.91C103.709 609.686 104.012 609.56 104.329 609.56H307.629C307.945 609.561 308.247 609.686 308.47 609.909C308.693 610.132 308.819 610.435 308.819 610.75Z" fill="#CCCCCC"/>
<path d="M98.9294 0C97.356 27.967 87.0757 54.7418 69.5279 76.5753C51.98 98.4088 28.0433 114.208 1.0694 121.76C1.0394 122.46 1.00939 123.16 0.99939 123.86C28.5321 116.286 52.9903 100.255 70.9207 78.0307C88.8512 55.8065 99.3481 28.5117 100.929 0H98.9294Z" fill="white"/>
<path d="M68.2994 0C63.6522 17.6567 55.4601 34.1829 44.2218 48.5724C32.9835 62.962 18.9343 74.9137 2.92935 83.7C2.86935 84.49 2.82937 85.27 2.78937 86.06C19.3764 77.1467 33.9418 64.9009 45.5714 50.0912C57.201 35.2814 65.6436 18.2275 70.3694 0H68.2994Z" fill="white"/>
</g>
<defs>
<clipPath id="clip0_99_3270">
<rect width="405.949" height="611.97" fill="white"/>
</clipPath>
</defs>
</svg>
