<svg width="301" height="247" viewBox="0 0 301 247" fill="none" xmlns="http://www.w3.org/2000/svg">
<g clip-path="url(#clip0_26_336)">
<path d="M228.208 241.26L223.122 241.259L220.703 221.628L228.209 221.628L228.208 241.26Z" fill="#FFB6B6"/>
<path d="M229.505 246.193L213.106 246.193V245.985C213.106 244.291 213.779 242.667 214.976 241.469C216.173 240.271 217.796 239.598 219.489 239.598H219.49L229.506 239.598L229.505 246.193Z" fill="#2F2E41"/>
<path d="M266.676 236.863L261.835 238.424L253.516 220.481L260.66 218.177L266.676 236.863Z" fill="#FFB6B6"/>
<path d="M269.423 241.16L253.814 246.193L253.75 245.996C253.231 244.383 253.373 242.631 254.145 241.123C254.918 239.615 256.257 238.477 257.868 237.957L257.868 237.957L267.402 234.883L269.423 241.16Z" fill="#2F2E41"/>
<path d="M265.155 166.815L263.281 140.794L263.638 132.109L256.333 133.735L259.023 167.831C258.719 168.46 258.593 169.16 258.659 169.856C258.725 170.551 258.981 171.215 259.399 171.775C259.817 172.335 260.38 172.769 261.028 173.029C261.675 173.29 262.382 173.368 263.071 173.253C263.76 173.139 264.404 172.838 264.933 172.382C265.462 171.926 265.856 171.333 266.071 170.669C266.286 170.004 266.314 169.293 266.153 168.613C265.991 167.934 265.646 167.311 265.155 166.815Z" fill="#FFB7B7"/>
<path d="M232.1 143.878L231.635 135.16L226.947 131.348L226.3 139.727L209.041 159.695C208.323 159.81 207.653 160.129 207.11 160.613C206.567 161.098 206.174 161.728 205.978 162.428C205.782 163.129 205.79 163.872 206.002 164.568C206.214 165.264 206.621 165.885 207.174 166.357C207.728 166.829 208.405 167.133 209.126 167.232C209.846 167.331 210.58 167.221 211.24 166.916C211.901 166.61 212.46 166.122 212.851 165.509C213.243 164.896 213.451 164.183 213.451 163.455C213.451 163.404 213.445 163.354 213.443 163.303L232.1 143.878Z" fill="#FFB7B7"/>
<path d="M232.94 141.087L218.211 159.784L213.221 154.458L223.533 139.478L229.994 111.076C230.166 110.712 230.409 110.385 230.71 110.117C231.011 109.849 231.362 109.644 231.744 109.515C232.119 109.387 232.516 109.335 232.911 109.363C233.307 109.392 233.693 109.5 234.046 109.681L234.129 109.723L232.94 141.087Z" fill="#A0616A"/>
<path d="M258.257 158.786L253.578 126.238L253.585 126.208L258.391 107.305L258.841 107.252C260.139 107.109 261.444 107.455 262.501 108.224C263.557 108.993 264.289 110.128 264.553 111.408L264.909 159.784L258.257 158.786Z" fill="#A0616A"/>
<path d="M259.733 102.2H235.414V91.2048C235.413 89.6063 235.727 88.0232 236.337 86.5462C236.948 85.0691 237.844 83.7269 238.973 82.5962C240.102 81.4656 241.443 80.5687 242.919 79.9568C244.394 79.3449 245.976 79.0299 247.573 79.0299C249.171 79.0299 250.752 79.3449 252.228 79.9568C253.704 80.5687 255.044 81.4656 256.174 82.5962C257.303 83.7269 258.198 85.0691 258.809 86.5462C259.42 88.0232 259.734 89.6063 259.733 91.2048V102.2Z" fill="#2F2E41"/>
<path d="M256.014 97.3553C258.647 92.5353 256.877 86.492 252.06 83.8572C247.244 81.2223 241.205 82.9937 238.572 87.8137C235.939 92.6337 237.709 98.677 242.526 101.312C247.342 103.947 253.381 102.175 256.014 97.3553Z" fill="#FFB7B7"/>
<path d="M252.091 84.1461C255.745 84.1461 258.707 81.1818 258.707 77.5252C258.707 73.8686 255.745 70.9043 252.091 70.9043C248.437 70.9043 245.475 73.8686 245.475 77.5252C245.475 81.1818 248.437 84.1461 252.091 84.1461Z" fill="#2F2E41"/>
<path d="M262.452 93.1107H236.586V92.9641C236.586 86.2543 242.387 80.7955 249.519 80.7955C256.65 80.7955 262.452 86.2543 262.452 92.9641V93.1107Z" fill="#2F2E41"/>
<path d="M229.437 231.448L219.827 230.761L219.814 230.62C215.602 184.611 217.992 154.223 226.541 145.048L228.954 140.532L227.633 132.932C224.106 123.634 230.03 116.833 230.478 116.339L232.387 110.606C232.519 110.211 232.762 109.863 233.087 109.603C233.411 109.342 233.804 109.181 234.218 109.138L260.169 106.482C260.456 106.453 260.747 106.481 261.023 106.566C261.299 106.65 261.555 106.79 261.777 106.975C261.998 107.16 262.18 107.388 262.312 107.645C262.444 107.902 262.523 108.183 262.545 108.471L262.547 108.502L262.539 108.531L253.079 140.411L253.908 151.199L265.073 228.405L255.457 230.467L255.413 230.32L237.67 172.122L229.437 231.448Z" fill="#2F2E41"/>
<path d="M205.238 185.583H2.32847C1.75524 185.582 1.20567 185.354 0.800327 184.948C0.394987 184.543 0.166977 183.993 0.166321 183.419V2.33019C0.166977 1.75653 0.394987 1.20655 0.800327 0.800914C1.20567 0.395275 1.75524 0.167099 2.32847 0.166443H205.238C205.811 0.167106 206.361 0.395284 206.766 0.800922C207.172 1.20656 207.4 1.75653 207.4 2.33019V183.419C207.4 183.993 207.172 184.543 206.766 184.948C206.361 185.354 205.811 185.582 205.238 185.583Z" fill="white"/>
<path d="M69.4191 8.13263V54.9311H69.3239C63.1226 54.9311 57.1753 52.4658 52.7903 48.0776C48.4053 43.6894 45.9419 37.7377 45.9419 31.5318C45.9419 25.326 48.4053 19.3743 52.7903 14.9861C57.1753 10.5979 63.1226 8.13263 69.3239 8.13263H69.4191Z" fill="#FBC531"/>
<path d="M64.1279 18.68V44.3837H64.0755C60.6695 44.3837 57.403 43.0296 54.9946 40.6195C52.5862 38.2093 51.2332 34.9404 51.2332 31.5318C51.2332 28.1233 52.5862 24.8544 54.9946 22.4442C57.403 20.034 60.6695 18.68 64.0755 18.68H64.1279Z" fill="white"/>
<path d="M103.964 93.5405H33.3124V31.1989H45.9421V31.8647H33.9777V92.8747H103.964V93.5405Z" fill="#3F3D56"/>
<path d="M113.49 109.24C116.997 109.24 119.84 106.395 119.84 102.885C119.84 99.375 116.997 96.5297 113.49 96.5297C109.982 96.5297 107.139 99.375 107.139 102.885C107.139 106.395 109.982 109.24 113.49 109.24Z" fill="#FBC531"/>
<path d="M172.666 170.772C176.174 170.772 179.017 167.926 179.017 164.416C179.017 160.906 176.174 158.061 172.666 158.061C169.159 158.061 166.316 160.906 166.316 164.416C166.316 167.926 169.159 170.772 172.666 170.772Z" fill="#3F3D56"/>
<path d="M33.5292 99.1296C37.0366 99.1296 39.8799 96.2843 39.8799 92.7743C39.8799 89.2643 37.0366 86.4189 33.5292 86.4189C30.0219 86.4189 27.1786 89.2643 27.1786 92.7743C27.1786 96.2843 30.0219 99.1296 33.5292 99.1296Z" fill="#FBC531"/>
<path d="M103.964 93.352H119.84V77.4637H88.087V109.24H103.964V93.352Z" fill="#3F3D56"/>
<path d="M207.595 13.3325H138.026V21.9988H207.595V13.3325Z" fill="#E4E4E4"/>
<path d="M207.595 32.1096H138.026V40.776H207.595V32.1096Z" fill="#E4E4E4"/>
<path d="M186.811 61.8641C186.811 61.9941 186.808 62.1212 186.805 62.2483H158.527C158.525 62.1212 158.522 61.9941 158.522 61.8641C158.522 58.11 160.012 54.5096 162.665 51.855C165.317 49.2004 168.915 47.709 172.666 47.709C176.418 47.709 180.016 49.2004 182.668 51.855C185.321 54.5096 186.811 58.11 186.811 61.8641Z" fill="#E4E4E4"/>
<path d="M186.811 162.588C186.811 162.718 186.808 162.845 186.805 162.972H158.527C158.525 162.845 158.522 162.718 158.522 162.588C158.522 158.834 160.012 155.233 162.665 152.579C165.317 149.924 168.915 148.433 172.666 148.433C176.418 148.433 180.016 149.924 182.668 152.579C185.321 155.233 186.811 158.834 186.811 162.588Z" fill="#E4E4E4"/>
<path d="M172.999 76.0192H172.334V148.396H172.999V76.0192Z" fill="#3F3D56"/>
<path d="M90.9738 155.75C90.9737 161.48 88.7057 166.976 84.6662 171.036C80.6267 175.097 75.1445 177.39 69.4191 177.416V134.084C75.1445 134.109 80.6267 136.403 84.6662 140.464C88.7057 144.524 90.9737 150.02 90.9738 155.75Z" fill="#FBC531"/>
<path d="M205.863 186.415H2.06462C1.51723 186.414 0.992452 186.197 0.6054 185.809C0.218347 185.422 0.000625921 184.897 0 184.349V2.06621C0.000625921 1.51842 0.218347 0.993249 0.6054 0.605897C0.992452 0.218545 1.51723 0.000645799 2.06462 0H205.863C206.41 0.000645797 206.935 0.218545 207.322 0.605897C207.709 0.993249 207.927 1.51842 207.928 2.06621V184.349C207.927 184.897 207.709 185.422 207.322 185.809C206.935 186.197 206.41 186.414 205.863 186.415ZM2.06462 0.665768C1.69361 0.666192 1.33792 0.813876 1.07558 1.07642C0.813242 1.33896 0.665681 1.69493 0.665277 2.06621V184.349C0.665681 184.72 0.813242 185.076 1.07558 185.339C1.33792 185.601 1.69361 185.749 2.06462 185.749H205.863C206.234 185.749 206.59 185.601 206.852 185.339C207.114 185.076 207.262 184.72 207.262 184.349V2.06621C207.262 1.69493 207.114 1.33897 206.852 1.07643C206.59 0.813885 206.234 0.666198 205.863 0.665768H2.06462Z" fill="#3F3D56"/>
<path d="M69.0865 55.2653V7.7984L69.4205 7.7997C75.6936 7.8248 81.7012 10.3362 86.1281 14.7841C90.555 19.2321 93.0405 25.2541 93.0405 31.5318C93.0405 37.8096 90.555 43.8316 86.1281 48.2795C81.7012 52.7275 75.6936 55.2389 69.4205 55.264L69.0865 55.2653ZM69.7518 8.46921V54.5945C75.7898 54.4822 81.5425 52.003 85.7728 47.6902C90.0032 43.3773 92.3732 37.5753 92.3732 31.5318C92.3732 25.4884 90.0032 19.6864 85.7728 15.3735C81.5425 11.0606 75.7898 8.58148 69.7518 8.46921Z" fill="#3F3D56"/>
<path d="M69.7518 177.749H69.3239C63.4937 177.749 57.9024 175.431 53.7798 171.305C49.6573 167.18 47.3413 161.584 47.3413 155.75C47.3413 149.915 49.6573 144.32 53.7798 140.194C57.9024 136.069 63.4937 133.751 69.3239 133.751H69.7518L69.7518 177.749ZM69.0865 134.418C63.4743 134.481 58.1131 136.756 54.1665 140.749C50.22 144.743 48.0065 150.133 48.0065 155.75C48.0065 161.367 50.22 166.757 54.1665 170.75C58.1131 174.744 63.4743 177.019 69.0865 177.082V134.418Z" fill="#3F3D56"/>
<path d="M172.666 76.352C168.889 76.3723 165.255 74.906 162.547 72.2693C159.84 69.6326 158.277 66.0368 158.195 62.2573L158.186 61.9155H187.147L187.138 62.2573C187.056 66.0368 185.492 69.6326 182.785 72.2693C180.078 74.906 176.444 76.3723 172.666 76.352ZM158.873 62.5812C159.057 66.1182 160.59 69.4496 163.157 71.8882C165.723 74.3267 169.127 75.6863 172.666 75.6863C176.205 75.6863 179.61 74.3267 182.176 71.8882C184.743 69.4496 186.276 66.1182 186.459 62.5812H158.873Z" fill="#3F3D56"/>
<path d="M207.595 123.833H0.332642V124.499H207.595V123.833Z" fill="#3F3D56"/>
<path d="M207.595 61.9155H0.332642V62.5812H207.595V61.9155Z" fill="#3F3D56"/>
<path d="M138.84 0.332886H138.175V186.082H138.84V0.332886Z" fill="#3F3D56"/>
<path d="M69.7518 0.332886H69.0865V186.082H69.7518V0.332886Z" fill="#3F3D56"/>
<path d="M48.5399 161.527C52.0472 161.527 54.8905 158.682 54.8905 155.172C54.8905 151.662 52.0472 148.817 48.5399 148.817C45.0325 148.817 42.1892 151.662 42.1892 155.172C42.1892 158.682 45.0325 161.527 48.5399 161.527Z" fill="#FBC531"/>
</g>
<defs>
<clipPath id="clip0_26_336">
<rect width="301" height="247" fill="white"/>
</clipPath>
</defs>
</svg>
