<svg width="690" height="605" viewBox="0 0 690 605" fill="none" xmlns="http://www.w3.org/2000/svg">
<g clip-path="url(#clip0_110_3497)">
<path d="M440.153 581.295L427.955 580.072L426.867 532.439L444.871 534.244L440.153 581.295Z" fill="#9E616A"/>
<path d="M442.079 593.432L402.746 589.489L402.796 588.991C403.203 584.931 405.206 581.199 408.365 578.615C411.524 576.032 415.579 574.809 419.64 575.216L419.641 575.216L443.664 577.624L442.079 593.432Z" fill="#2F2E41"/>
<path d="M264.443 395.185H22.1599C16.4173 395.178 10.9118 392.894 6.85118 388.834C2.79057 384.773 0.506482 379.267 0.5 373.525V22.1599C0.506482 16.4173 2.79057 10.9118 6.85118 6.8512C10.9118 2.79058 16.4173 0.506482 22.1599 0.5H264.443C270.186 0.506482 275.691 2.79058 279.752 6.8512C283.812 10.9118 286.096 16.4173 286.103 22.1599V373.525C286.096 379.267 283.812 384.773 279.752 388.834C275.691 392.894 270.186 395.178 264.443 395.185Z" fill="#E4E4E4"/>
<path d="M264.87 381.365H21.7336C19.9633 381.363 18.2662 380.659 17.0145 379.408C15.7628 378.156 15.0587 376.459 15.0566 374.688V20.9965C15.0587 19.2263 15.7628 17.5291 17.0145 16.2774C18.2662 15.0257 19.9633 14.3216 21.7336 14.3196H264.87C266.64 14.3216 268.337 15.0257 269.589 16.2774C270.84 17.5291 271.544 19.2263 271.546 20.9965V374.688C271.544 376.459 270.84 378.156 269.589 379.408C268.337 380.659 266.64 381.363 264.87 381.365Z" fill="white"/>
<path d="M142.38 8.97597C143.398 8.97597 144.223 8.15101 144.223 7.13337C144.223 6.11573 143.398 5.29077 142.38 5.29077C141.363 5.29077 140.538 6.11573 140.538 7.13337C140.538 8.15101 141.363 8.97597 142.38 8.97597Z" fill="white"/>
<path d="M249.068 201.417H88.4636V207.385H249.068V201.417Z" fill="#E4E4E4"/>
<path d="M249.068 220.315H88.4636V226.283H249.068V220.315Z" fill="#E4E4E4"/>
<path d="M249.068 239.213H88.4636V245.181H249.068V239.213Z" fill="#E4E4E4"/>
<path d="M73.9217 205.106H37.5344V241.493H73.9217V205.106Z" fill="#E4E4E4"/>
<path d="M249.068 280.62H88.4636V286.588H249.068V280.62Z" fill="#E4E4E4"/>
<path d="M249.068 299.518H88.4636V305.486H249.068V299.518Z" fill="#E4E4E4"/>
<path d="M249.068 318.416H88.4636V324.384H249.068V318.416Z" fill="#E4E4E4"/>
<path d="M73.9217 284.308H37.5344V320.696H73.9217V284.308Z" fill="#E4E4E4"/>
<path d="M170.972 64.7469L108.058 89.0789L131.548 149.814L194.461 125.482L170.972 64.7469Z" fill="#FBC531"/>
<path d="M116.296 147.598L90.8486 81.8018L158.939 55.4673L184.386 121.264L116.296 147.598ZM93.4353 82.9453L117.44 145.011L181.799 120.12L157.795 58.0542L93.4353 82.9453Z" fill="#3F3D56"/>
<path d="M495.814 593.021C472.77 593.021 454.023 556.267 454.023 511.091C453.963 498.359 455.538 485.672 458.708 473.341C459.142 471.69 459.612 470.055 460.106 468.475C467.746 443.86 481.095 429.163 495.814 429.163C518.857 429.163 537.605 465.916 537.605 511.091C537.605 556.267 518.857 593.021 495.814 593.021ZM495.814 431.163C482.224 431.163 469.273 445.688 462.015 469.071C461.529 470.623 461.068 472.228 460.643 473.844C457.516 486.01 455.964 498.526 456.023 511.086C456.023 555.165 473.873 591.021 495.814 591.021C517.755 591.021 535.605 555.165 535.605 511.091C535.605 467.018 517.755 431.163 495.814 431.163Z" fill="#3F3D56"/>
<path d="M442.887 594.508L396.775 589.797L396.959 588.504L443.071 593.215L442.887 594.508Z" fill="#3F3D56"/>
<path d="M505.93 559.638C497.174 559.638 490.571 538.767 490.571 511.091C490.571 483.416 497.174 462.545 505.93 462.545C514.685 462.545 521.288 483.416 521.288 511.091C521.288 538.767 514.685 559.638 505.93 559.638ZM505.93 464.545C499.505 464.545 492.571 482.341 492.571 511.091C492.571 539.842 499.505 557.638 505.93 557.638C512.354 557.638 519.288 539.842 519.288 511.091C519.288 482.341 512.354 464.545 505.93 464.545Z" fill="#3F3D56"/>
<path d="M507.561 522.012C510.625 522.012 513.109 517.123 513.109 511.092C513.109 505.06 510.625 500.171 507.561 500.171C504.498 500.171 502.014 505.06 502.014 511.092C502.014 517.123 504.498 522.012 507.561 522.012Z" fill="#CACACA"/>
<path d="M591.754 594.032C567.991 594.032 548.658 556.693 548.658 510.797C548.601 498.119 550.155 485.485 553.283 473.199C553.755 471.401 554.253 469.66 554.766 468.018C562.62 442.687 576.447 427.563 591.754 427.563C615.517 427.563 634.85 464.902 634.85 510.797C634.85 556.693 615.517 594.032 591.754 594.032ZM591.754 429.563C577.585 429.563 564.144 444.526 556.676 468.612C556.171 470.227 555.682 471.938 555.22 473.7C552.134 485.821 550.601 498.285 550.658 510.792C550.658 555.59 569.093 592.032 591.754 592.032C614.414 592.032 632.85 555.59 632.85 510.797C632.85 466.004 614.414 429.563 591.754 429.563Z" fill="#3F3D56"/>
<path d="M601.87 559.343C593.114 559.343 586.511 538.473 586.511 510.797C586.511 483.122 593.114 462.251 601.87 462.251C610.626 462.251 617.228 483.122 617.228 510.797C617.228 538.473 610.626 559.343 601.87 559.343ZM601.87 464.251C595.446 464.251 588.511 482.047 588.511 510.797C588.511 539.547 595.446 557.343 601.87 557.343C608.294 557.343 615.228 539.547 615.228 510.797C615.228 482.047 608.294 464.251 601.87 464.251Z" fill="#3F3D56"/>
<path d="M603.502 521.718C606.565 521.718 609.049 516.829 609.049 510.797C609.049 504.766 606.565 499.877 603.502 499.877C600.438 499.877 597.954 504.766 597.954 510.797C597.954 516.829 600.438 521.718 603.502 521.718Z" fill="#CACACA"/>
<path d="M688.329 594.441H307.329C307.064 594.441 306.81 594.336 306.622 594.148C306.434 593.961 306.329 593.706 306.329 593.441C306.329 593.176 306.434 592.921 306.622 592.734C306.81 592.546 307.064 592.441 307.329 592.441H688.329C688.594 592.441 688.849 592.546 689.036 592.734C689.224 592.921 689.329 593.176 689.329 593.441C689.329 593.706 689.224 593.961 689.036 594.148C688.849 594.336 688.594 594.441 688.329 594.441Z" fill="#CACACA"/>
<path d="M445.966 209.885C445.437 211.257 445.216 212.728 445.318 214.195C445.42 215.662 445.842 217.088 446.555 218.374C447.268 219.659 448.254 220.773 449.444 221.637C450.634 222.5 451.998 223.092 453.442 223.371L458.536 258.741L472.423 246.412L465.456 214.715C465.764 212.259 465.16 209.775 463.759 207.735C462.359 205.694 460.258 204.238 457.856 203.643C455.453 203.048 452.916 203.355 450.725 204.505C448.533 205.656 446.84 207.57 445.966 209.885Z" fill="#9E616A"/>
<path d="M495.487 348.939L584.901 348.613V383.838L495.487 387.446V348.939Z" fill="#3F3D56"/>
<path d="M475.109 590.676L462.975 588.925L463.954 541.288L481.863 543.873L475.109 590.676Z" fill="#9E616A"/>
<path d="M476.506 602.885L437.381 597.239L437.452 596.744C438.035 592.705 440.199 589.063 443.466 586.619C446.734 584.175 450.839 583.13 454.878 583.712L478.776 587.161L476.506 602.885Z" fill="#2F2E41"/>
<path d="M419.125 468.411L417.823 468.339L421.772 396.583H502.667V397.888H423.008L419.125 468.411Z" fill="#3F3D56"/>
<path d="M427.666 594.223L427.449 595.51L482.337 604.768L482.554 603.48L427.666 594.223Z" fill="#3F3D56"/>
<path d="M557 468.479C556.511 470.052 556.049 471.658 555.616 473.296L554.252 473.446L511.804 478.165L414.558 468.375L515.72 463.154L555.721 468.316L557 468.479Z" fill="#3F3D56"/>
<path d="M534.763 226.553C534.763 226.553 520.628 222.046 511.541 240.074C502.454 258.102 488.319 277.932 488.319 277.932L496.396 279.735C496.396 279.735 498.415 267.115 503.464 265.313L501.444 281.538C501.444 281.538 562.025 300.467 589.286 279.735L588.276 273.425C588.276 273.425 592.315 274.326 592.315 279.735L595.344 277.031C595.344 277.031 592.315 271.622 583.228 264.411C577.263 259.678 575.214 250.674 574.509 245.044C573.936 240.246 571.814 235.765 568.465 232.281C562.426 226.033 551.423 219.392 534.763 226.553Z" fill="#2F2E41"/>
<path d="M483.283 423.202L481.311 430.227C481.311 430.227 441.575 420.589 436.398 445.51C431.222 470.432 424.122 547.563 424.122 547.563L444.188 551.68L463.242 467.597L540.423 450.761L535.37 407.204L483.283 423.202Z" fill="#2F2E41"/>
<path d="M516.699 434.763C516.699 434.763 463.181 423.668 459.265 450.427C455.349 477.186 461.223 528.093 461.876 529.398C462.528 530.703 459.265 554.851 459.265 554.851L482.761 558.115C482.761 558.115 497.772 486.975 491.245 468.701L535.404 465.97C550.647 465.027 563.099 452.985 563.976 437.738C564.312 431.902 562.851 426.605 557.816 423.668C542.152 414.531 513.435 414.531 513.435 414.531L516.699 434.763Z" fill="#2F2E41"/>
<path d="M542.152 291.663C555.129 291.663 565.648 281.144 565.648 268.168C565.648 255.192 555.129 244.672 542.152 244.672C529.176 244.672 518.657 255.192 518.657 268.168C518.657 281.144 529.176 291.663 542.152 291.663Z" fill="#A0616A"/>
<path d="M519.962 305.453L504.951 303.579L493.914 329.634C493.914 329.634 478.518 425.299 482.434 426.605C484.631 427.38 486.961 427.713 489.287 427.584L563.38 431.441C563.38 431.441 566.685 416.536 565.38 405.441C564.075 394.346 579.353 333.602 579.353 333.602L576.416 305.864L563.914 305.634L554.914 298.634L529.868 298.556L519.962 305.453Z" fill="#E4E4E4"/>
<path d="M505.603 306.843L504.951 302.927L486.676 280.737L467.915 218.634L449.915 237.634L469.055 298.358L495.161 331.644L505.603 306.843Z" fill="#E4E4E4"/>
<path d="M511.285 270.978C511.285 270.978 519.363 259.871 526.43 257.852C533.498 255.833 534.508 245.736 534.508 245.736C534.508 245.736 552.682 265.929 563.788 266.939C574.895 267.949 564.798 242.707 564.798 242.707L544.604 237.659L525.421 239.678L510.276 249.775L511.285 270.978Z" fill="#2F2E41"/>
<path d="M586.86 429.891L586.228 403.109H525.492L523.551 474.919L522.246 474.884L524.221 401.804H587.49L587.511 402.435L588.164 429.846L586.86 429.891Z" fill="#3F3D56"/>
<path d="M585.554 393.32H584.248V343.502L605.316 349.618L604.951 350.871L585.554 345.24V393.32Z" fill="#3F3D56"/>
<path d="M594.691 342.413L608.397 347.634L605.786 354.813L594.691 350.244V342.413Z" fill="#3F3D56"/>
<path d="M540.521 398.541V408.983H579.406V399.235L540.521 398.541Z" fill="#3F3D56"/>
<path d="M440.664 393.32V403.762H479.55V394.013L440.664 393.32Z" fill="#3F3D56"/>
<path d="M511.804 367.982H511.486V359.291C511.486 357.957 510.956 356.678 510.013 355.734C509.07 354.791 507.79 354.261 506.456 354.261H488.044C486.71 354.261 485.43 354.791 484.487 355.734C483.544 356.678 483.014 357.957 483.014 359.291V406.969C483.014 408.303 483.544 409.583 484.487 410.526C485.43 411.469 486.71 411.999 488.044 411.999H506.456C507.791 411.999 509.07 411.469 510.013 410.526C510.957 409.583 511.487 408.303 511.487 406.969V374.168H511.804L511.804 367.982Z" fill="#3F3D56"/>
<path d="M497.409 372.153C499.111 372.153 500.49 370.773 500.49 369.072C500.49 367.37 499.111 365.991 497.409 365.991C495.707 365.991 494.328 367.37 494.328 369.072C494.328 370.773 495.707 372.153 497.409 372.153Z" fill="#D0CDE1"/>
<path opacity="0.15" d="M571.195 338.497L569.237 375.698L540.521 381.572L566.627 371.129L571.195 338.497Z" fill="black"/>
<path d="M453.735 206.312V127.605H683.735V185.81H474.237L453.735 206.312Z" fill="white"/>
<path d="M453.735 206.312V127.605H683.735V185.81H474.237L453.735 206.312ZM455.735 129.605V201.484L473.408 183.81H681.735V129.605L455.735 129.605Z" fill="#3F3D56"/>
<path d="M633.868 142.251H505.601V152.651H633.868V142.251Z" fill="#FBC531"/>
<path d="M633.868 157.852H505.601V168.252H633.868V157.852Z" fill="#FBC531"/>
<path d="M503.238 404.131C504.531 404.83 505.961 405.237 507.429 405.324C508.896 405.41 510.365 405.174 511.732 404.632C513.098 404.089 514.329 403.254 515.337 402.184C516.346 401.114 517.107 399.837 517.569 398.441L553.299 397.911L542.848 382.562L510.519 385.418C508.123 384.799 505.583 385.08 503.38 386.208C501.177 387.336 499.464 389.234 498.567 391.54C497.669 393.847 497.649 396.403 498.51 398.723C499.371 401.044 501.053 402.968 503.238 404.131Z" fill="#9E616A"/>
<path d="M569.237 310.432L575.111 305.864C575.111 305.864 584.901 300.643 586.859 318.917C588.817 337.191 603.175 397.888 588.817 398.541C574.459 399.193 520.915 400.634 520.915 400.634L518.915 382.634L571.848 377.656L569.237 310.432Z" fill="#E4E4E4"/>
</g>
<defs>
<clipPath id="clip0_110_3497">
<rect width="688.829" height="604.268" fill="white" transform="translate(0.5 0.5)"/>
</clipPath>
</defs>
</svg>
