<svg width="804" height="508" viewBox="0 0 804 508" fill="none" xmlns="http://www.w3.org/2000/svg">
<g clip-path="url(#clip0_99_2975)">
<path d="M707.256 464.369L708.038 446.793C716.186 442.438 725.275 440.137 734.515 440.091C721.798 450.488 723.387 470.529 714.766 484.51C709.251 493.302 700.038 499.108 689.727 500.289L679.086 506.804C676.131 490.33 680.537 473.387 691.145 460.441C694.121 456.881 697.534 453.71 701.302 451.003C703.851 457.724 707.256 464.369 707.256 464.369Z" fill="#F2F2F2"/>
<path d="M169.305 445.109L143.625 437.334C140.257 423.651 140.28 409.352 143.692 395.68C154.267 418.389 184.484 423.589 201.899 441.596C212.814 453.057 217.924 468.86 215.787 484.542L221.408 502.723C195.948 500.885 172.569 487.992 157.431 467.438C153.291 461.699 149.891 455.462 147.309 448.873C158.201 447.638 169.305 445.109 169.305 445.109Z" fill="#F2F2F2"/>
<path d="M618.273 503.93C618.269 504.462 618.057 504.972 617.683 505.35C617.308 505.723 616.801 505.932 616.273 505.93H608.233C607.132 505.934 606.236 505.045 606.233 503.944V260.79C606.233 255.43 604.433 251.08 602.223 251.07H101.733C99.5127 251.08 97.7227 255.43 97.7127 260.79V502.44C97.7093 503.47 96.9272 504.329 95.9027 504.43C94.2827 504.59 92.6627 504.73 91.0527 504.86C91.0127 504.86 90.9727 504.87 90.9327 504.87C90.0527 504.95 89.1727 505.01 88.2927 505.08H88.2827C87.8227 504.25 87.3827 503.4 86.9326 502.55C86.7884 502.261 86.7131 501.943 86.7126 501.62V248.18C86.7126 246.7 86.7727 245.21 86.8727 243.74C87.0153 241.722 87.2657 239.712 87.6227 237.72C89.3127 228.43 93.1327 222.14 97.4727 222.12H606.473C607.106 222.124 607.732 222.257 608.313 222.51C609.166 222.888 609.937 223.428 610.583 224.1C611.46 225.012 612.21 226.038 612.813 227.15C614.953 230.92 616.483 236.54 617.023 243.08C617.023 243.14 617.033 243.2 617.033 243.26C617.173 244.88 617.243 246.53 617.233 248.18L617.373 269.61L617.463 282.39L617.733 322.49L617.833 336.73L618.273 503.93Z" fill="#E6E6E6"/>
<path d="M432.524 147.987H381.518C380.015 147.989 378.799 149.208 378.801 150.711V231.285H435.248V150.711C435.249 149.207 434.03 147.987 432.526 147.987H432.524ZM407.192 193.768C403.872 193.752 401.185 191.065 401.169 187.745V178.451C401.169 175.125 403.866 172.428 407.192 172.428C410.519 172.428 413.215 175.125 413.215 178.451V187.745C413.2 191.065 410.512 193.752 407.192 193.768Z" fill="#CCCCCC"/>
<path d="M378.626 228.707V236.481C378.627 237.32 379.307 237.999 380.145 238.001H433.903C434.741 237.997 435.419 237.319 435.423 236.481V228.707H378.626Z" fill="#3F3D56"/>
<path d="M516.984 22.2419H298.955C295.055 22.2482 291.895 25.4082 291.889 29.3083V176.435C291.893 180.336 295.054 183.498 298.955 183.502H516.984C520.885 183.498 524.047 180.336 524.051 176.435V29.3083C524.044 25.4082 520.884 22.2482 516.984 22.2419Z" fill="#E6E6E6"/>
<path d="M515.164 27.3459H300.777C298.689 27.3505 296.998 29.0446 296.998 31.1329V174.613C297.001 176.699 298.691 178.389 300.777 178.392H515.164C517.25 178.389 518.94 176.699 518.944 174.613V31.1329C518.943 29.0446 517.253 27.3505 515.164 27.3459Z" fill="white"/>
<path d="M473.405 240.706H345.856C344.561 240.706 343.51 239.655 343.51 238.359C343.51 238.197 343.527 238.035 343.56 237.876L345.54 228.476C345.772 227.393 346.727 226.618 347.835 226.614H471.427C472.535 226.618 473.49 227.393 473.722 228.476L475.701 237.876C475.968 239.144 475.157 240.389 473.889 240.655C473.73 240.689 473.568 240.706 473.405 240.706Z" fill="#CCCCCC"/>
<path d="M352.181 228.306H349.229C348.96 228.306 348.741 228.525 348.741 228.794V230.175C348.741 230.445 348.96 230.663 349.229 230.663H352.181C352.451 230.663 352.669 230.445 352.669 230.175V228.794C352.669 228.525 352.451 228.306 352.181 228.306Z" fill="#E6E6E6"/>
<path d="M360.038 228.306H357.086C356.816 228.306 356.598 228.525 356.598 228.794V230.175C356.598 230.445 356.816 230.663 357.086 230.663H360.038C360.307 230.663 360.526 230.445 360.526 230.175V228.794C360.526 228.525 360.307 228.306 360.038 228.306Z" fill="#E6E6E6"/>
<path d="M367.895 228.306H364.943C364.673 228.306 364.454 228.525 364.454 228.794V230.175C364.454 230.445 364.673 230.663 364.943 230.663H367.895C368.164 230.663 368.383 230.445 368.383 230.175V228.794C368.383 228.525 368.164 228.306 367.895 228.306Z" fill="#E6E6E6"/>
<path d="M375.751 228.306H372.799C372.53 228.306 372.311 228.525 372.311 228.794V230.175C372.311 230.445 372.53 230.663 372.799 230.663H375.751C376.021 230.663 376.24 230.445 376.24 230.175V228.794C376.24 228.525 376.021 228.306 375.751 228.306Z" fill="#E6E6E6"/>
<path d="M383.608 228.306H380.656C380.387 228.306 380.168 228.525 380.168 228.794V230.175C380.168 230.445 380.387 230.663 380.656 230.663H383.608C383.878 230.663 384.096 230.445 384.096 230.175V228.794C384.096 228.525 383.878 228.306 383.608 228.306Z" fill="#E6E6E6"/>
<path d="M391.465 228.306H388.513C388.243 228.306 388.025 228.525 388.025 228.794V230.175C388.025 230.445 388.243 230.663 388.513 230.663H391.465C391.735 230.663 391.953 230.445 391.953 230.175V228.794C391.953 228.525 391.735 228.306 391.465 228.306Z" fill="#E6E6E6"/>
<path d="M399.322 228.306H396.37C396.1 228.306 395.882 228.525 395.882 228.794V230.175C395.882 230.445 396.1 230.663 396.37 230.663H399.322C399.591 230.663 399.81 230.445 399.81 230.175V228.794C399.81 228.525 399.591 228.306 399.322 228.306Z" fill="#E6E6E6"/>
<path d="M407.178 228.306H404.226C403.957 228.306 403.738 228.525 403.738 228.794V230.175C403.738 230.445 403.957 230.663 404.226 230.663H407.178C407.448 230.663 407.667 230.445 407.667 230.175V228.794C407.667 228.525 407.448 228.306 407.178 228.306Z" fill="#E6E6E6"/>
<path d="M415.035 228.306H412.083C411.814 228.306 411.595 228.525 411.595 228.794V230.175C411.595 230.445 411.814 230.663 412.083 230.663H415.035C415.305 230.663 415.523 230.445 415.523 230.175V228.794C415.523 228.525 415.305 228.306 415.035 228.306Z" fill="#E6E6E6"/>
<path d="M422.892 228.306H419.94C419.67 228.306 419.452 228.525 419.452 228.794V230.175C419.452 230.445 419.67 230.663 419.94 230.663H422.892C423.162 230.663 423.38 230.445 423.38 230.175V228.794C423.38 228.525 423.162 228.306 422.892 228.306Z" fill="#E6E6E6"/>
<path d="M430.749 228.306H427.797C427.527 228.306 427.309 228.525 427.309 228.794V230.175C427.309 230.445 427.527 230.663 427.797 230.663H430.749C431.018 230.663 431.237 230.445 431.237 230.175V228.794C431.237 228.525 431.018 228.306 430.749 228.306Z" fill="#E6E6E6"/>
<path d="M438.605 228.306H435.653C435.384 228.306 435.165 228.525 435.165 228.794V230.175C435.165 230.445 435.384 230.663 435.653 230.663H438.605C438.875 230.663 439.094 230.445 439.094 230.175V228.794C439.094 228.525 438.875 228.306 438.605 228.306Z" fill="#E6E6E6"/>
<path d="M446.462 228.306H443.51C443.241 228.306 443.022 228.525 443.022 228.794V230.175C443.022 230.445 443.241 230.663 443.51 230.663H446.462C446.732 230.663 446.95 230.445 446.95 230.175V228.794C446.95 228.525 446.732 228.306 446.462 228.306Z" fill="#E6E6E6"/>
<path d="M454.319 228.306H451.367C451.097 228.306 450.879 228.525 450.879 228.794V230.175C450.879 230.445 451.097 230.663 451.367 230.663H454.319C454.589 230.663 454.807 230.445 454.807 230.175V228.794C454.807 228.525 454.589 228.306 454.319 228.306Z" fill="#E6E6E6"/>
<path d="M462.176 228.306H459.224C458.954 228.306 458.736 228.525 458.736 228.794V230.175C458.736 230.445 458.954 230.663 459.224 230.663H462.176C462.445 230.663 462.664 230.445 462.664 230.175V228.794C462.664 228.525 462.445 228.306 462.176 228.306Z" fill="#E6E6E6"/>
<path d="M470.033 228.306H467.081C466.811 228.306 466.592 228.525 466.592 228.794V230.175C466.592 230.445 466.811 230.663 467.081 230.663H470.033C470.302 230.663 470.521 230.445 470.521 230.175V228.794C470.521 228.525 470.302 228.306 470.033 228.306Z" fill="#E6E6E6"/>
<path d="M352.088 232.235H349.136C348.867 232.235 348.648 232.453 348.648 232.723V234.103C348.648 234.373 348.867 234.592 349.136 234.592H352.088C352.358 234.592 352.576 234.373 352.576 234.103V232.723C352.576 232.453 352.358 232.235 352.088 232.235Z" fill="#E6E6E6"/>
<path d="M359.945 232.235H356.993C356.723 232.235 356.505 232.453 356.505 232.723V234.103C356.505 234.373 356.723 234.592 356.993 234.592H359.945C360.215 234.592 360.433 234.373 360.433 234.103V232.723C360.433 232.453 360.215 232.235 359.945 232.235Z" fill="#E6E6E6"/>
<path d="M367.802 232.235H364.85C364.58 232.235 364.362 232.453 364.362 232.723V234.103C364.362 234.373 364.58 234.592 364.85 234.592H367.802C368.071 234.592 368.29 234.373 368.29 234.103V232.723C368.29 232.453 368.071 232.235 367.802 232.235Z" fill="#E6E6E6"/>
<path d="M375.659 232.235H372.707C372.437 232.235 372.218 232.453 372.218 232.723V234.103C372.218 234.373 372.437 234.592 372.707 234.592H375.659C375.928 234.592 376.147 234.373 376.147 234.103V232.723C376.147 232.453 375.928 232.235 375.659 232.235Z" fill="#E6E6E6"/>
<path d="M383.515 232.235H380.563C380.294 232.235 380.075 232.453 380.075 232.723V234.103C380.075 234.373 380.294 234.592 380.563 234.592H383.515C383.785 234.592 384.004 234.373 384.004 234.103V232.723C384.004 232.453 383.785 232.235 383.515 232.235Z" fill="#E6E6E6"/>
<path d="M391.372 232.235H388.42C388.15 232.235 387.932 232.453 387.932 232.723V234.103C387.932 234.373 388.15 234.592 388.42 234.592H391.372C391.642 234.592 391.86 234.373 391.86 234.103V232.723C391.86 232.453 391.642 232.235 391.372 232.235Z" fill="#E6E6E6"/>
<path d="M399.229 232.235H396.277C396.007 232.235 395.789 232.453 395.789 232.723V234.103C395.789 234.373 396.007 234.592 396.277 234.592H399.229C399.499 234.592 399.717 234.373 399.717 234.103V232.723C399.717 232.453 399.499 232.235 399.229 232.235Z" fill="#E6E6E6"/>
<path d="M407.086 232.235H404.134C403.864 232.235 403.645 232.453 403.645 232.723V234.103C403.645 234.373 403.864 234.592 404.134 234.592H407.086C407.355 234.592 407.574 234.373 407.574 234.103V232.723C407.574 232.453 407.355 232.235 407.086 232.235Z" fill="#E6E6E6"/>
<path d="M414.942 232.235H411.99C411.721 232.235 411.502 232.453 411.502 232.723V234.103C411.502 234.373 411.721 234.592 411.99 234.592H414.942C415.212 234.592 415.431 234.373 415.431 234.103V232.723C415.431 232.453 415.212 232.235 414.942 232.235Z" fill="#E6E6E6"/>
<path d="M422.799 232.235H419.847C419.577 232.235 419.359 232.453 419.359 232.723V234.103C419.359 234.373 419.577 234.592 419.847 234.592H422.799C423.069 234.592 423.287 234.373 423.287 234.103V232.723C423.287 232.453 423.069 232.235 422.799 232.235Z" fill="#E6E6E6"/>
<path d="M430.656 232.235H427.704C427.434 232.235 427.216 232.453 427.216 232.723V234.103C427.216 234.373 427.434 234.592 427.704 234.592H430.656C430.926 234.592 431.144 234.373 431.144 234.103V232.723C431.144 232.453 430.926 232.235 430.656 232.235Z" fill="#E6E6E6"/>
<path d="M438.513 232.235H435.561C435.291 232.235 435.073 232.453 435.073 232.723V234.103C435.073 234.373 435.291 234.592 435.561 234.592H438.513C438.782 234.592 439.001 234.373 439.001 234.103V232.723C439.001 232.453 438.782 232.235 438.513 232.235Z" fill="#E6E6E6"/>
<path d="M446.369 232.235H443.417C443.148 232.235 442.929 232.453 442.929 232.723V234.103C442.929 234.373 443.148 234.592 443.417 234.592H446.369C446.639 234.592 446.858 234.373 446.858 234.103V232.723C446.858 232.453 446.639 232.235 446.369 232.235Z" fill="#E6E6E6"/>
<path d="M454.226 232.235H451.274C451.005 232.235 450.786 232.453 450.786 232.723V234.103C450.786 234.373 451.005 234.592 451.274 234.592H454.226C454.496 234.592 454.714 234.373 454.714 234.103V232.723C454.714 232.453 454.496 232.235 454.226 232.235Z" fill="#E6E6E6"/>
<path d="M462.083 232.235H459.131C458.861 232.235 458.643 232.453 458.643 232.723V234.103C458.643 234.373 458.861 234.592 459.131 234.592H462.083C462.353 234.592 462.571 234.373 462.571 234.103V232.723C462.571 232.453 462.353 232.235 462.083 232.235Z" fill="#E6E6E6"/>
<path d="M469.94 232.235H466.988C466.718 232.235 466.5 232.453 466.5 232.723V234.103C466.5 234.373 466.718 234.592 466.988 234.592H469.94C470.209 234.592 470.428 234.373 470.428 234.103V232.723C470.428 232.453 470.209 232.235 469.94 232.235Z" fill="#E6E6E6"/>
<path d="M417.299 236.949H386.849C386.579 236.949 386.361 237.167 386.361 237.437V238.818C386.361 239.087 386.579 239.306 386.849 239.306H417.299C417.569 239.306 417.788 239.087 417.788 238.818V237.437C417.788 237.167 417.569 236.949 417.299 236.949Z" fill="#E6E6E6"/>
<path d="M504.388 47.1143H303.786C303.345 47.1046 302.996 46.7396 303.006 46.299C303.015 45.8721 303.359 45.5282 303.786 45.5188H504.388C504.828 45.5285 505.177 45.8935 505.168 46.3341C505.158 46.761 504.814 47.1049 504.388 47.1143Z" fill="#CACACA"/>
<path d="M317.441 41.4458C320.023 41.4458 322.116 39.306 322.116 36.6665C322.116 34.027 320.023 31.8872 317.441 31.8872C314.859 31.8872 312.766 34.027 312.766 36.6665C312.766 39.306 314.859 41.4458 317.441 41.4458Z" fill="#CCCCCC"/>
<path d="M333.591 41.4458C336.173 41.4458 338.267 39.306 338.267 36.6665C338.267 34.027 336.173 31.8872 333.591 31.8872C331.009 31.8872 328.916 34.027 328.916 36.6665C328.916 39.306 331.009 41.4458 333.591 41.4458Z" fill="#CCCCCC"/>
<path d="M349.742 41.4458C352.324 41.4458 354.417 39.306 354.417 36.6665C354.417 34.027 352.324 31.8872 349.742 31.8872C347.16 31.8872 345.067 34.027 345.067 36.6665C345.067 39.306 347.16 41.4458 349.742 41.4458Z" fill="#CCCCCC"/>
<path d="M403.881 59.2099L403.233 57.3169L486.091 14.2649L486.738 16.1579L403.881 59.2099Z" fill="#3F3D56"/>
<path d="M653.881 138.952L653.233 137.059L703.091 94.2251L703.738 96.1171L653.881 138.952Z" fill="#3F3D56"/>
<path d="M558.091 148.923L475.233 105.871L475.881 103.978L558.738 147.03L558.091 148.923Z" fill="#3F3D56"/>
<path d="M600.506 118.965L551.931 39.219L553.466 37.936L602.04 117.682L600.506 118.965Z" fill="#3F3D56"/>
<path d="M638.414 15.0539L591.107 14.8359V12.8359L638.414 13.0539V15.0539Z" fill="#3F3D56"/>
<path d="M724.111 27.4595H671.111C663.932 27.4595 658.111 21.6392 658.111 14.4595C658.111 7.27977 663.932 1.45947 671.111 1.45947H724.111C731.291 1.45947 737.111 7.27977 737.111 14.4595C737.111 21.6392 731.291 27.4595 724.111 27.4595Z" fill="#FBC531"/>
<path d="M790.111 103.459H737.111C729.932 103.459 724.111 97.6392 724.111 90.4595C724.111 83.2798 729.932 77.4595 737.111 77.4595H790.111C797.291 77.4595 803.111 83.2798 803.111 90.4595C803.111 97.6392 797.291 103.459 790.111 103.459Z" fill="#FBC531"/>
<path d="M704.414 157.053L657.107 156.836V154.836L704.414 155.053V157.053Z" fill="#3F3D56"/>
<path d="M790.111 169.459H737.111C729.932 169.459 724.111 163.639 724.111 156.459C724.111 149.28 729.932 143.459 737.111 143.459H790.111C797.291 143.459 803.111 149.28 803.111 156.459C803.111 163.639 797.291 169.459 790.111 169.459Z" fill="#FBC531"/>
<path d="M635.111 160.5H582.111C574.932 160.5 569.111 154.68 569.111 147.5C569.111 140.32 574.932 134.5 582.111 134.5H635.111C642.291 134.5 648.111 140.32 648.111 147.5C648.111 154.68 642.291 160.5 635.111 160.5Z" fill="#FBC531"/>
<path d="M563.111 26.5H510.111C502.932 26.5 497.111 20.6797 497.111 13.5C497.111 6.3203 502.932 0.5 510.111 0.5H563.111C570.291 0.5 576.111 6.3203 576.111 13.5C576.111 20.6797 570.291 26.5 563.111 26.5Z" fill="#FBC531"/>
<path d="M309.783 249.68H249.783C245.364 249.68 241.783 253.262 241.783 257.68C241.783 262.098 245.364 265.68 249.783 265.68H271.783V327.68H287.783V265.68H309.783C314.201 265.68 317.783 262.098 317.783 257.68C317.783 253.262 314.201 249.68 309.783 249.68Z" fill="#3F3D56"/>
<path d="M349.384 362.017H188.901C156.742 361.9 129.534 338.217 124.984 306.381L119.304 285.486C107.546 242.185 89.6362 200.796 66.1223 162.583C55.375 145.129 49.8434 128.234 62.4075 111.967C62.5145 111.829 62.6197 111.692 62.7231 111.558C72.8003 98.4414 122.957 95.602 139.309 95.0498C139.955 95.0278 140.603 95.0169 141.254 95.0171H241.073C241.724 95.0171 242.372 95.028 243.018 95.0498C260.976 95.5733 277.197 105.913 285.254 121.971C293.851 138.365 292.754 158.156 282.398 173.5C247.334 226.171 236.599 259.198 247.59 280.585C258.221 301.273 290.81 311.85 350.148 313.871C366.095 314.414 373.413 326.831 373.464 338.137C373.514 349.152 366.478 361.313 350.912 361.985C350.406 362.006 349.896 362.017 349.384 362.017Z" fill="#3F3D56"/>
<path d="M216.163 504.517H276.163C280.582 504.517 284.163 500.935 284.163 496.517C284.163 492.099 280.582 488.517 276.163 488.517H254.163V353.517H238.163V488.517H216.163C211.745 488.517 208.163 492.099 208.163 496.517C208.163 500.935 211.745 504.517 216.163 504.517Z" fill="#3F3D56"/>
<path d="M270.469 450.092L280.805 455.706L308.167 417.875L292.911 409.588L270.469 450.092Z" fill="#A0616A"/>
<path d="M275.445 436.611L294.209 442.487L291.222 450.348L304.089 469.022C305.735 471.411 305.133 474.682 302.745 476.328C301.323 477.308 299.511 477.527 297.898 476.913L276.054 468.614L275.243 459.408L270.819 466.625L262.583 463.496L275.445 436.611Z" fill="#2F2E41"/>
<path d="M296.585 68.5756C297.51 74.9229 293.115 80.8189 286.768 81.7448C286.091 81.8435 285.407 81.8822 284.724 81.8605L244.872 166.656L232.373 149.226L273.397 69.045C274.028 62.6267 279.742 57.9345 286.16 58.5648C291.531 59.0922 295.84 63.2309 296.585 68.5756Z" fill="#A0616A"/>
<path d="M164.335 183.801C164.335 183.801 163.267 198.614 180.02 201.52C196.773 204.425 241.559 176.105 248.914 171.756C256.269 167.408 269.976 112.696 269.976 112.696L258.056 92.5337C243.338 111.151 231.781 128.318 231.079 140.504L164.335 183.801Z" fill="#FBC531"/>
<path d="M183.675 234.827L187.294 250.373C187.294 250.373 187.329 264.708 189.868 267.351C192.389 269.982 247.823 264.7 247.823 264.7C247.823 264.7 241.946 241.6 242.024 224.122L183.675 234.827Z" fill="#A0616A"/>
<path d="M300.783 433.68L280.783 422.68C280.402 396.656 296.056 361.437 314.622 324.548C273.099 331.689 233.926 333.977 200.043 325.338C188.469 322.282 181.493 310.498 184.38 298.88C184.512 298.332 184.665 297.79 184.838 297.253C188.893 284.881 179.8 277.125 188.163 263.517C210.16 256.005 231.055 253.883 250.163 260.517L262.136 286.988L321.478 279.309C333.478 277.875 344.368 286.439 345.803 298.439C345.809 298.494 345.816 298.548 345.822 298.603C345.902 299.247 345.954 299.894 345.978 300.543C333.979 356.796 320.524 407.412 300.783 433.68Z" fill="#2F2E41"/>
<path d="M175.62 136.404L198.481 135.055C200.457 134.938 202.29 136.088 203.045 137.918L209.505 153.579L236.356 175.771C236.356 175.771 246.986 189.299 247.011 206.771C247.036 224.242 250.783 264.68 250.783 264.68C250.783 264.68 235.268 242.842 225.691 248.65C224.062 249.638 223.489 251.659 221.783 252.68C220.931 253.19 218.965 252.695 218.105 253.205C204.909 261.038 191.147 268.691 189.862 267.349C187.337 264.715 184.274 251.252 184.274 251.252L163.348 174.365C161.051 166.174 162.536 157.384 167.397 150.403C168.859 148.345 170.391 146.813 171.815 146.56C175.011 145.879 173.311 138.716 175.62 136.404Z" fill="#FBC531"/>
<path d="M370.089 482.66L379.739 475.951L357.878 434.707L343.636 444.609L370.089 482.66Z" fill="#A0616A"/>
<path d="M371.548 454.986L356.424 468.505C332.376 441.709 314.197 404.129 298.791 361.452C258.425 349.63 227.984 330.564 201.409 307.925C192.394 300.297 185.635 290.497 193.324 281.204C193.684 280.77 194.059 280.35 194.45 279.944C203.529 270.614 226.551 272.392 240.035 263.844L270.156 296.041L268.262 304.672L324.839 323.837C336.228 327.829 342.225 340.298 338.234 351.687C338.214 351.743 338.194 351.799 338.174 351.854C337.962 352.468 337.725 353.072 337.461 353.665L371.548 454.986Z" fill="#2F2E41"/>
<path d="M364.463 479.94L379.91 467.775L384.71 474.68L407.388 474.611C410.289 474.602 412.648 476.946 412.658 479.847C412.663 481.573 411.82 483.192 410.403 484.177L391.216 497.515L383.161 492.984L386.617 500.711L379.383 505.74L364.463 479.94Z" fill="#2F2E41"/>
<path d="M209.378 330.173C203.474 327.667 200.719 320.849 203.225 314.944C203.492 314.314 203.814 313.71 204.188 313.137L152.434 235.035L173.82 233.409L221.022 310.116C226.179 313.989 227.22 321.309 223.348 326.466C220.107 330.781 214.332 332.314 209.378 330.173Z" fill="#A0616A"/>
<path d="M179.621 157.311C179.621 157.311 167.518 148.703 156.333 161.509C145.147 174.315 146.081 227.296 145.976 235.839C145.943 238.515 149.806 244.288 155.129 250.956C157.519 253.95 160.202 257.124 162.96 260.279C164.555 262.105 163.18 265.906 164.783 267.68C166.376 269.445 170.947 269.185 172.463 270.823C179.657 278.598 185.501 284.517 185.501 284.517L208.921 284.805C209.186 267.395 197.263 251.854 181.946 236.835L179.621 157.311Z" fill="#FBC531"/>
<path d="M156.014 81.5079C153.797 83.1083 151.464 84.7571 148.759 85.1536C146.053 85.5502 142.885 84.2422 142.137 81.6122C141.221 78.3965 144.125 75.4685 146.735 73.3786L155.011 66.7516C156.526 65.4075 158.237 64.3013 160.085 63.4709C161.965 62.6437 164.119 62.7157 165.939 63.6666C167.748 64.8879 168.794 66.9598 168.702 69.1402C168.584 71.2894 167.875 73.3642 166.653 75.1359C163.548 79.9746 158.603 83.3363 152.961 84.4427" fill="#2F2E41"/>
<path d="M218.783 253.68H158.783C154.364 253.68 150.783 257.262 150.783 261.68C150.783 266.098 154.364 269.68 158.783 269.68H180.783V331.68H196.783V269.68H218.783C223.201 269.68 226.783 266.098 226.783 261.68C226.783 257.262 223.201 253.68 218.783 253.68Z" fill="#3F3D56"/>
<path d="M159.69 64.7236C159.932 58.7254 153.54 53.9759 147.55 54.3514C141.561 54.7268 136.412 58.9399 133.016 63.8892C129.62 68.8343 127.58 74.5622 124.905 79.9314C122.23 85.3007 118.668 90.5578 113.352 93.3402C108.037 96.1184 100.639 95.6227 96.9656 90.8792C94.649 94.3923 94.1451 98.7991 95.609 102.744C97.1128 106.639 99.9175 109.893 103.547 111.955C104.992 112.812 106.535 113.491 108.143 113.976C108.806 112.187 109.739 110.509 110.909 109.001C110.381 110.786 110.179 112.652 110.314 114.508C112.792 114.983 115.342 114.943 117.804 114.39C122.707 113.294 126.806 109.951 128.866 105.369C131.112 100.051 129.968 93.9881 130.449 88.2358C130.925 82.4823 134.392 75.9144 140.165 75.8206C144.561 75.7483 143.979 76.1108 146.765 79.5124" fill="#2F2E41"/>
<path d="M199.611 96.2419C199.611 110.601 187.971 122.242 173.611 122.242C159.252 122.242 145.611 105.601 145.611 91.2419C145.611 76.8825 159.252 70.2419 173.611 70.2419C187.971 70.2419 199.611 81.8825 199.611 96.2419Z" fill="#2F2E41"/>
<path d="M186.424 127.4C199.845 124.654 208.499 111.547 205.753 98.1257C203.006 84.7043 189.9 76.0505 176.478 78.7967C163.057 81.543 154.403 94.6495 157.149 108.071C159.896 121.492 173.002 130.146 186.424 127.4Z" fill="#A0616A"/>
<path d="M212.611 99.2419C205.268 101.247 197.854 103.349 194.991 99.2419C194.435 96.5189 193.381 93.9221 191.881 91.5819C191.599 94.2027 190.984 96.7767 190.051 99.2419C180.774 101.258 172.104 101.74 164.611 99.2419C163.581 101.105 162.983 103.176 162.861 105.302C162.491 105.069 162.103 104.865 161.701 104.692C161.219 104.42 160.644 104.369 160.121 104.552C159.76 104.77 159.52 105.143 159.471 105.562C159.422 105.979 159.442 106.402 159.531 106.812C159.636 108.242 160.064 109.63 160.781 110.872C161.355 111.737 162.266 112.321 163.291 112.482C164.331 118.332 172.611 126.242 172.611 126.242C147.611 127.242 147.611 110.282 147.611 94.2419L150.611 88.2419H160.611V75.2419H188.611C201.865 75.2454 212.608 85.9885 212.611 99.2419Z" fill="#2F2E41"/>
<path d="M440.447 507.411L1.6969 507.719C1.03931 507.722 0.503447 507.192 0.500017 506.534C0.496587 505.877 1.02689 505.341 1.68448 505.337H1.6969L440.447 505.03C441.104 505.032 441.636 505.567 441.634 506.225C441.632 506.879 441.101 507.409 440.447 507.411Z" fill="#CACACA"/>
<path d="M733.447 507.411L506.697 507.719C506.039 507.722 505.503 507.192 505.5 506.534C505.497 505.877 506.027 505.341 506.685 505.337H506.697L733.447 505.03C734.105 505.028 734.639 505.559 734.641 506.217C734.644 506.874 734.112 507.409 733.455 507.411H733.447Z" fill="#CACACA"/>
<path d="M450.474 148.5H364.521C357.056 148.492 351.006 142.442 350.998 134.977V78.0234C351.006 70.5581 357.056 64.5083 364.521 64.5H450.474C457.94 64.5083 463.99 70.5581 463.998 78.0234V134.977C463.99 142.442 457.94 148.492 450.474 148.5ZM364.521 66.5C358.16 66.5072 353.005 71.6622 352.998 78.0234V134.977C353.005 141.338 358.16 146.493 364.521 146.5H450.474C456.836 146.493 461.991 141.338 461.998 134.977V78.0234C461.991 71.6622 456.836 66.5072 450.474 66.5L364.521 66.5Z" fill="#E6E6E6"/>
<path d="M389.989 82.5H366.998V84.5H389.989V82.5Z" fill="#E6E6E6"/>
<path d="M417.998 90.5H366.998V92.5H417.998V90.5Z" fill="#E6E6E6"/>
<path d="M417.998 97.5H366.998V99.5H417.998V97.5Z" fill="#E6E6E6"/>
<path d="M431.998 104.5H366.998V106.5H431.998V104.5Z" fill="#E6E6E6"/>
<path d="M400.998 111.5H366.998V113.5H400.998V111.5Z" fill="#E6E6E6"/>
<path d="M428.998 118.5H366.998V120.5H428.998V118.5Z" fill="#E6E6E6"/>
<path d="M377.998 125.5H366.998V127.5H377.998V125.5Z" fill="#E6E6E6"/>
<path d="M366.249 39.4585C366.152 39.4585 366.055 39.4209 365.982 39.346L363.848 37.1648C363.706 37.0195 363.706 36.7872 363.848 36.6419L365.982 34.4609C366.126 34.3134 366.363 34.311 366.51 34.4551C366.658 34.5995 366.661 34.8363 366.516 34.9839L364.638 36.9034L366.516 38.8231C366.661 38.9706 366.658 39.2074 366.51 39.3518C366.438 39.423 366.343 39.4585 366.249 39.4585Z" fill="#CCCCCC"/>
<path d="M369.834 39.4583C369.74 39.4583 369.646 39.4228 369.573 39.3516C369.425 39.2072 369.423 38.9706 369.567 38.8229L371.445 36.9032L369.567 34.9836C369.423 34.8361 369.425 34.5993 369.573 34.4549C369.72 34.3103 369.957 34.313 370.102 34.4607L372.235 36.6417C372.377 36.787 372.377 37.0193 372.235 37.1646L370.102 39.3458C370.029 39.4206 369.932 39.4583 369.834 39.4583Z" fill="#CCCCCC"/>
<path d="M481.458 34.0449H477.49C477.038 34.0449 476.671 34.4114 476.671 34.8638V38.835C476.671 39.2875 477.038 39.654 477.49 39.654H481.458C481.91 39.654 482.28 39.2875 482.28 38.835V34.8638C482.28 34.4114 481.91 34.0449 481.458 34.0449Z" fill="#CCCCCC"/>
<path d="M471.735 34.0449H467.768C467.315 34.0449 466.949 34.4114 466.949 34.8638V38.835C466.949 39.2875 467.315 39.654 467.768 39.654H471.735C472.188 39.654 472.558 39.2875 472.558 38.835V34.8638C472.558 34.4114 472.188 34.0449 471.735 34.0449Z" fill="#CCCCCC"/>
<path d="M490.619 34.2319H486.652C486.199 34.2319 485.833 34.5984 485.833 35.0509V39.022C485.833 39.4745 486.199 39.841 486.652 39.841H490.619C491.072 39.841 491.442 39.4745 491.442 39.022V35.0509C491.442 34.5984 491.072 34.2319 490.619 34.2319Z" fill="#CCCCCC"/>
<path d="M430.819 35.7424H399.105C398.552 35.7424 398.107 36.1912 398.107 36.7409C398.107 37.2905 398.552 37.7393 399.105 37.7393H430.819C431.368 37.7393 431.817 37.2905 431.817 36.7409C431.817 36.1912 431.368 35.7424 430.819 35.7424Z" fill="#CCCCCC"/>
</g>
<defs>
<clipPath id="clip0_99_2975">
<rect width="802.611" height="507.219" fill="white" transform="translate(0.5 0.5)"/>
</clipPath>
</defs>
</svg>
