<svg width="856" height="612" viewBox="0 0 856 612" fill="none" xmlns="http://www.w3.org/2000/svg">
<g clip-path="url(#clip0_99_3069)">
<path d="M40.0358 124.857C47.5638 124.857 53.6664 118.754 53.6664 111.227C53.6664 103.699 47.5638 97.5959 40.0358 97.5959C32.5079 97.5959 26.4053 103.699 26.4053 111.227C26.4053 118.754 32.5079 124.857 40.0358 124.857Z" fill="#E6E6E6"/>
<path d="M80.9276 124.857C88.4555 124.857 94.5581 118.754 94.5581 111.227C94.5581 103.699 88.4555 97.5959 80.9276 97.5959C73.3996 97.5959 67.297 103.699 67.297 111.227C67.297 118.754 73.3996 124.857 80.9276 124.857Z" fill="#E6E6E6"/>
<path d="M121.819 124.857C129.347 124.857 135.45 118.754 135.45 111.227C135.45 103.699 129.347 97.5959 121.819 97.5959C114.291 97.5959 108.189 103.699 108.189 111.227C108.189 118.754 114.291 124.857 121.819 124.857Z" fill="#E6E6E6"/>
<path d="M162.711 124.857C170.239 124.857 176.342 118.754 176.342 111.227C176.342 103.699 170.239 97.5959 162.711 97.5959C155.183 97.5959 149.08 103.699 149.08 111.227C149.08 118.754 155.183 124.857 162.711 124.857Z" fill="#E6E6E6"/>
<path d="M203.603 124.857C211.131 124.857 217.233 118.754 217.233 111.227C217.233 103.699 211.131 97.5959 203.603 97.5959C196.075 97.5959 189.972 103.699 189.972 111.227C189.972 118.754 196.075 124.857 203.603 124.857Z" fill="#E6E6E6"/>
<path d="M244.494 124.857C252.022 124.857 258.125 118.754 258.125 111.227C258.125 103.699 252.022 97.5959 244.494 97.5959C236.966 97.5959 230.864 103.699 230.864 111.227C230.864 118.754 236.966 124.857 244.494 124.857Z" fill="#E6E6E6"/>
<path d="M285.386 124.857C292.914 124.857 299.017 118.754 299.017 111.227C299.017 103.699 292.914 97.5959 285.386 97.5959C277.858 97.5959 271.755 103.699 271.755 111.227C271.755 118.754 277.858 124.857 285.386 124.857Z" fill="#E6E6E6"/>
<path d="M316.884 127.826H8.53825C7.06765 127.824 5.65777 127.239 4.61789 126.199C3.57801 125.159 2.99306 123.749 2.99133 122.279V100.175C2.99306 98.7043 3.57801 97.2944 4.61789 96.2545C5.65777 95.2146 7.06765 94.6297 8.53825 94.6279H316.884C318.354 94.6297 319.764 95.2146 320.804 96.2545C321.844 97.2944 322.429 98.7043 322.431 100.175V122.279C322.429 123.749 321.844 125.159 320.804 126.199C319.764 127.239 318.354 127.824 316.884 127.826ZM8.53825 96.8467C7.65587 96.8477 6.8099 97.1986 6.18596 97.8226C5.56202 98.4465 5.21106 99.2925 5.2101 100.175V122.279C5.21106 123.161 5.56202 124.007 6.18596 124.631C6.8099 125.255 7.65587 125.606 8.53825 125.607H316.884C317.766 125.606 318.612 125.255 319.236 124.631C319.86 124.007 320.211 123.161 320.212 122.279V100.175C320.211 99.2925 319.86 98.4465 319.236 97.8226C318.612 97.1986 317.766 96.8477 316.884 96.8467L8.53825 96.8467Z" fill="#E6E6E6"/>
<path d="M74.5261 3.68704C75.3711 3.68801 76.1811 4.0241 76.7786 4.62157C77.3761 5.21904 77.7121 6.02909 77.7131 6.87404V75.9367C77.7121 76.7816 77.3761 77.5917 76.7786 78.1891C76.1811 78.7866 75.3711 79.1227 74.5261 79.1237H6.87411C6.02917 79.1227 5.2191 78.7866 4.62163 78.1891C4.02416 77.5917 3.68807 76.7816 3.6871 75.9367V6.8741C3.68807 6.02915 4.02416 5.21908 4.62163 4.62161C5.2191 4.02414 6.02917 3.68805 6.87411 3.68709L74.5261 3.68704ZM74.5261 0.500046H6.87411C5.1836 0.500046 3.56232 1.1716 2.36694 2.36697C1.17157 3.56235 0.5 5.18363 0.5 6.87415V75.9367C0.5 77.6272 1.17157 79.2485 2.36694 80.4438C3.56232 81.6392 5.1836 82.3108 6.87411 82.3108H74.5261C76.2166 82.3108 77.8379 81.6392 79.0333 80.4438C80.2287 79.2485 80.9002 77.6272 80.9002 75.9367V6.8741C80.9002 5.18358 80.2287 3.5623 79.0333 2.36693C77.8379 1.17155 76.2166 0.500048 74.5261 0.500046Z" fill="#E6E6E6"/>
<path d="M63.9739 21.8406H18.8369C18.6269 21.8419 18.4186 21.8016 18.2241 21.7221C18.0297 21.6426 17.8529 21.5254 17.7038 21.3773C17.5548 21.2293 17.4366 21.0531 17.3559 20.8592C17.2752 20.6652 17.2336 20.4572 17.2336 20.2471C17.2336 20.037 17.2752 19.829 17.3559 19.635C17.4366 19.4411 17.5548 19.2649 17.7038 19.1169C17.8529 18.9688 18.0297 18.8516 18.2241 18.7721C18.4186 18.6926 18.6269 18.6523 18.8369 18.6536H63.9739C64.1839 18.6523 64.3922 18.6926 64.5867 18.7721C64.7811 18.8516 64.958 18.9688 65.107 19.1169C65.256 19.2649 65.3742 19.4411 65.4549 19.635C65.5356 19.829 65.5772 20.037 65.5772 20.2471C65.5772 20.4572 65.5356 20.6652 65.4549 20.8592C65.3742 21.0531 65.256 21.2293 65.107 21.3773C64.958 21.5254 64.7811 21.6426 64.5867 21.7221C64.3922 21.8016 64.1839 21.8419 63.9739 21.8406Z" fill="#FBC531"/>
<path d="M63.9739 33.1253H18.8369C18.6269 33.1265 18.4186 33.0863 18.2241 33.0068C18.0297 32.9273 17.8529 32.8101 17.7038 32.662C17.5548 32.5139 17.4366 32.3378 17.3559 32.1438C17.2752 31.9499 17.2336 31.7418 17.2336 31.5318C17.2336 31.3217 17.2752 31.1136 17.3559 30.9197C17.4366 30.7257 17.5548 30.5496 17.7038 30.4015C17.8529 30.2534 18.0297 30.1363 18.2241 30.0567C18.4186 29.9772 18.6269 29.937 18.8369 29.9383H63.9739C64.1839 29.937 64.3922 29.9772 64.5867 30.0567C64.7811 30.1363 64.958 30.2534 65.107 30.4015C65.256 30.5496 65.3742 30.7257 65.4549 30.9197C65.5356 31.1136 65.5772 31.3217 65.5772 31.5318C65.5772 31.7418 65.5356 31.9499 65.4549 32.1438C65.3742 32.3378 65.256 32.5139 65.107 32.662C64.958 32.8101 64.7811 32.9273 64.5867 33.0068C64.3922 33.0863 64.1839 33.1265 63.9739 33.1253Z" fill="#FBC531"/>
<path d="M63.9739 44.409H18.8369C18.6269 44.4102 18.4186 44.37 18.2241 44.2905C18.0297 44.211 17.8529 44.0938 17.7038 43.9457C17.5548 43.7976 17.4366 43.6215 17.3559 43.4275C17.2752 43.2335 17.2336 43.0255 17.2336 42.8154C17.2336 42.6054 17.2752 42.3973 17.3559 42.2034C17.4366 42.0094 17.5548 41.8333 17.7038 41.6852C17.8529 41.5371 18.0297 41.4199 18.2241 41.3404C18.4186 41.2609 18.6269 41.2207 18.8369 41.222H63.9739C64.1839 41.2207 64.3922 41.2609 64.5867 41.3404C64.7811 41.4199 64.958 41.5371 65.107 41.6852C65.256 41.8333 65.3742 42.0094 65.4549 42.2034C65.5356 42.3973 65.5772 42.6054 65.5772 42.8154C65.5772 43.0255 65.5356 43.2335 65.4549 43.4275C65.3742 43.6215 65.256 43.7976 65.107 43.9457C64.958 44.0938 64.7811 44.211 64.5867 44.2905C64.3922 44.37 64.1839 44.4102 63.9739 44.409Z" fill="#FBC531"/>
<path d="M63.9739 55.6936H18.8369C18.6269 55.6949 18.4186 55.6546 18.2241 55.5751C18.0297 55.4956 17.8529 55.3785 17.7038 55.2304C17.5548 55.0823 17.4366 54.9062 17.3559 54.7122C17.2752 54.5182 17.2336 54.3102 17.2336 54.1001C17.2336 53.89 17.2752 53.682 17.3559 53.488C17.4366 53.2941 17.5548 53.118 17.7038 52.9699C17.8529 52.8218 18.0297 52.7046 18.2241 52.6251C18.4186 52.5456 18.6269 52.5053 18.8369 52.5066H63.9739C64.1839 52.5053 64.3922 52.5456 64.5867 52.6251C64.7811 52.7046 64.958 52.8218 65.107 52.9699C65.256 53.118 65.3742 53.2941 65.4549 53.488C65.5356 53.682 65.5772 53.89 65.5772 54.1001C65.5772 54.3102 65.5356 54.5182 65.4549 54.7122C65.3742 54.9062 65.256 55.0823 65.107 55.2304C64.958 55.3785 64.7811 55.4956 64.5867 55.5751C64.3922 55.6546 64.1839 55.6949 63.9739 55.6936Z" fill="#FBC531"/>
<path d="M63.9738 66.9783H18.8369C18.4143 66.9783 18.009 66.8104 17.7101 66.5116C17.4113 66.2128 17.2434 65.8074 17.2434 65.3848C17.2434 64.9622 17.4113 64.5568 17.7101 64.258C18.009 63.9592 18.4143 63.7913 18.8369 63.7913H63.9738C64.3965 63.7913 64.8018 63.9592 65.1006 64.258C65.3995 64.5568 65.5674 64.9622 65.5674 65.3848C65.5674 65.8074 65.3995 66.2128 65.1006 66.5116C64.8018 66.8104 64.3965 66.9783 63.9738 66.9783Z" fill="#FBC531"/>
<path d="M305.587 3.68704C306.432 3.68801 307.242 4.0241 307.84 4.62157C308.437 5.21904 308.773 6.02909 308.774 6.87404V75.9367C308.773 76.7816 308.437 77.5917 307.84 78.1891C307.242 78.7866 306.432 79.1227 305.587 79.1237H237.935C237.09 79.1227 236.28 78.7866 235.683 78.1891C235.085 77.5917 234.749 76.7816 234.748 75.9367V6.8741C234.749 6.02915 235.085 5.21908 235.683 4.62161C236.28 4.02414 237.09 3.68805 237.935 3.68709L305.587 3.68704ZM305.587 0.500046H237.935C236.245 0.500046 234.624 1.1716 233.428 2.36697C232.233 3.56235 231.561 5.18363 231.561 6.87415V75.9367C231.561 77.6272 232.233 79.2485 233.428 80.4438C234.624 81.6392 236.245 82.3108 237.935 82.3108H305.587C307.278 82.3108 308.899 81.6392 310.095 80.4438C311.29 79.2485 311.961 77.6272 311.961 75.9367V6.8741C311.961 5.18358 311.29 3.5623 310.095 2.36693C308.899 1.17155 307.278 0.500046 305.587 0.500046Z" fill="#E6E6E6"/>
<path d="M295.035 21.8406H249.898C249.688 21.8419 249.48 21.8016 249.285 21.7221C249.091 21.6426 248.914 21.5254 248.765 21.3773C248.616 21.2293 248.498 21.0531 248.417 20.8592C248.336 20.6652 248.295 20.4572 248.295 20.2471C248.295 20.037 248.336 19.829 248.417 19.635C248.498 19.4411 248.616 19.2649 248.765 19.1169C248.914 18.9688 249.091 18.8516 249.285 18.7721C249.48 18.6926 249.688 18.6523 249.898 18.6536H295.035C295.456 18.6562 295.859 18.8252 296.156 19.1238C296.452 19.4223 296.619 19.8262 296.619 20.2471C296.619 20.668 296.452 21.0719 296.156 21.3704C295.859 21.669 295.456 21.838 295.035 21.8406Z" fill="#FBC531"/>
<path d="M295.035 33.1253H249.898C249.688 33.1265 249.48 33.0863 249.285 33.0068C249.091 32.9273 248.914 32.8101 248.765 32.662C248.616 32.5139 248.498 32.3378 248.417 32.1438C248.336 31.9499 248.295 31.7418 248.295 31.5318C248.295 31.3217 248.336 31.1136 248.417 30.9197C248.498 30.7257 248.616 30.5496 248.765 30.4015C248.914 30.2534 249.091 30.1363 249.285 30.0567C249.48 29.9772 249.688 29.937 249.898 29.9383H295.035C295.456 29.9408 295.859 30.1099 296.156 30.4084C296.452 30.707 296.619 31.1108 296.619 31.5318C296.619 31.9527 296.452 32.3565 296.156 32.6551C295.859 32.9536 295.456 33.1227 295.035 33.1253Z" fill="#FBC531"/>
<path d="M295.035 44.409H249.898C249.688 44.4102 249.48 44.37 249.285 44.2905C249.091 44.211 248.914 44.0938 248.765 43.9457C248.616 43.7976 248.498 43.6215 248.417 43.4275C248.336 43.2335 248.295 43.0255 248.295 42.8154C248.295 42.6054 248.336 42.3973 248.417 42.2034C248.498 42.0094 248.616 41.8333 248.765 41.6852C248.914 41.5371 249.091 41.4199 249.285 41.3404C249.48 41.2609 249.688 41.2207 249.898 41.222H295.035C295.456 41.2245 295.859 41.3935 296.156 41.6921C296.452 41.9907 296.619 42.3945 296.619 42.8154C296.619 43.2364 296.452 43.6402 296.156 43.9388C295.859 44.2373 295.456 44.4064 295.035 44.409Z" fill="#FBC531"/>
<path d="M295.035 55.6936H249.898C249.688 55.6949 249.48 55.6546 249.285 55.5751C249.091 55.4956 248.914 55.3785 248.765 55.2304C248.616 55.0823 248.498 54.9062 248.417 54.7122C248.336 54.5182 248.295 54.3102 248.295 54.1001C248.295 53.89 248.336 53.682 248.417 53.488C248.498 53.2941 248.616 53.118 248.765 52.9699C248.914 52.8218 249.091 52.7046 249.285 52.6251C249.48 52.5456 249.688 52.5053 249.898 52.5066H295.035C295.456 52.5092 295.859 52.6782 296.156 52.9768C296.452 53.2753 296.619 53.6792 296.619 54.1001C296.619 54.521 296.452 54.9249 296.156 55.2234C295.859 55.522 295.456 55.691 295.035 55.6936Z" fill="#FBC531"/>
<path d="M295.035 66.9783H249.898C249.476 66.9783 249.07 66.8104 248.771 66.5116C248.473 66.2128 248.305 65.8074 248.305 65.3848C248.305 64.9622 248.473 64.5568 248.771 64.258C249.07 63.9592 249.476 63.7913 249.898 63.7913H295.035C295.458 63.7913 295.863 63.9592 296.162 64.258C296.461 64.5568 296.629 64.9622 296.629 65.3848C296.629 65.8074 296.461 66.2128 296.162 66.5116C295.863 66.8104 295.458 66.9783 295.035 66.9783Z" fill="#FBC531"/>
<path d="M535.526 136.479C536.371 136.48 537.181 136.816 537.779 137.413C538.376 138.011 538.712 138.821 538.713 139.666V208.728C538.712 209.573 538.376 210.383 537.779 210.981C537.181 211.578 536.371 211.914 535.526 211.915H467.874C467.029 211.914 466.219 211.578 465.622 210.981C465.024 210.383 464.688 209.573 464.687 208.728V139.666C464.688 138.821 465.024 138.011 465.622 137.413C466.219 136.816 467.029 136.48 467.874 136.479L535.526 136.479ZM535.526 133.292H467.874C466.184 133.292 464.562 133.963 463.367 135.159C462.172 136.354 461.5 137.975 461.5 139.666V208.728C461.5 210.419 462.172 212.04 463.367 213.235C464.562 214.431 466.184 215.102 467.874 215.102H535.526C537.217 215.102 538.838 214.431 540.033 213.235C541.229 212.04 541.9 210.419 541.9 208.728V139.666C541.9 137.975 541.229 136.354 540.033 135.158C538.838 133.963 537.217 133.292 535.526 133.292Z" fill="#FBC531"/>
<path d="M524.974 154.632H479.837C479.627 154.633 479.419 154.593 479.224 154.513C479.03 154.434 478.853 154.317 478.704 154.169C478.555 154.021 478.437 153.844 478.356 153.65C478.275 153.456 478.234 153.248 478.234 153.038C478.234 152.828 478.275 152.62 478.356 152.426C478.437 152.232 478.555 152.056 478.704 151.908C478.853 151.76 479.03 151.643 479.224 151.563C479.419 151.484 479.627 151.444 479.837 151.445H524.974C525.395 151.447 525.798 151.616 526.094 151.915C526.391 152.214 526.558 152.617 526.558 153.038C526.558 153.459 526.391 153.863 526.094 154.162C525.798 154.46 525.395 154.629 524.974 154.632Z" fill="#FBC531"/>
<path d="M524.974 165.917H479.837C479.414 165.917 479.009 165.749 478.71 165.45C478.411 165.151 478.243 164.746 478.243 164.323C478.243 163.9 478.411 163.495 478.71 163.196C479.009 162.897 479.414 162.729 479.837 162.729H524.974C525.397 162.729 525.802 162.897 526.101 163.196C526.399 163.495 526.567 163.9 526.567 164.323C526.567 164.746 526.399 165.151 526.101 165.45C525.802 165.749 525.397 165.917 524.974 165.917Z" fill="#FBC531"/>
<path d="M524.974 177.2H479.837C479.627 177.201 479.419 177.161 479.225 177.081C479.031 177.002 478.854 176.885 478.705 176.737C478.556 176.588 478.438 176.412 478.358 176.219C478.277 176.025 478.236 175.817 478.236 175.607C478.236 175.397 478.277 175.189 478.358 174.995C478.438 174.801 478.556 174.625 478.705 174.477C478.854 174.329 479.031 174.212 479.225 174.132C479.419 174.053 479.627 174.012 479.837 174.013H524.974C525.395 174.016 525.798 174.185 526.095 174.484C526.391 174.782 526.558 175.186 526.558 175.607C526.558 176.028 526.391 176.432 526.095 176.73C525.798 177.029 525.395 177.198 524.974 177.2Z" fill="#FBC531"/>
<path d="M524.974 188.485H479.837C479.627 188.486 479.419 188.446 479.224 188.367C479.03 188.287 478.853 188.17 478.704 188.022C478.555 187.874 478.437 187.698 478.356 187.504C478.275 187.31 478.234 187.102 478.234 186.892C478.234 186.682 478.275 186.474 478.356 186.28C478.437 186.086 478.555 185.909 478.704 185.761C478.853 185.613 479.03 185.496 479.224 185.417C479.419 185.337 479.627 185.297 479.837 185.298H524.974C525.395 185.301 525.798 185.47 526.094 185.768C526.391 186.067 526.558 186.471 526.558 186.892C526.558 187.313 526.391 187.716 526.094 188.015C525.798 188.314 525.395 188.483 524.974 188.485Z" fill="#FBC531"/>
<path d="M524.974 199.77H479.837C479.627 199.771 479.419 199.731 479.224 199.651C479.03 199.572 478.853 199.454 478.704 199.306C478.555 199.158 478.437 198.982 478.356 198.788C478.275 198.594 478.234 198.386 478.234 198.176C478.234 197.966 478.275 197.758 478.356 197.564C478.437 197.37 478.555 197.194 478.704 197.046C478.853 196.898 479.03 196.781 479.224 196.701C479.419 196.622 479.627 196.581 479.837 196.583H524.974C525.395 196.585 525.798 196.754 526.094 197.053C526.391 197.351 526.558 197.755 526.558 198.176C526.558 198.597 526.391 199.001 526.094 199.299C525.798 199.598 525.395 199.767 524.974 199.77Z" fill="#FBC531"/>
<path d="M190.942 82.3108H121.519C119.641 82.3086 117.841 81.5618 116.514 80.2343C115.186 78.9067 114.439 77.1068 114.437 75.2294V25.5531C114.439 23.6756 115.186 21.8755 116.514 20.5478C117.841 19.2201 119.641 18.4732 121.519 18.4709H190.942C192.82 18.473 194.62 19.2198 195.948 20.5475C197.275 21.8753 198.022 23.6754 198.024 25.5531V75.2294C198.022 77.1069 197.275 78.9069 195.947 80.2345C194.62 81.562 192.82 82.3087 190.942 82.3108ZM121.519 21.658C120.486 21.6593 119.496 22.0701 118.766 22.8003C118.036 23.5305 117.625 24.5205 117.624 25.5531V75.2294C117.625 76.2619 118.036 77.2518 118.766 77.9819C119.496 78.712 120.486 79.1226 121.519 79.1237H190.942C191.975 79.1226 192.965 78.712 193.695 77.982C194.425 77.2519 194.836 76.262 194.837 75.2294V25.5531C194.836 24.5204 194.425 23.5304 193.695 22.8002C192.965 22.07 191.975 21.6592 190.942 21.658H121.519Z" fill="#E6E6E6"/>
<path d="M178.799 40.7002H133.662C133.241 40.6976 132.839 40.5286 132.542 40.2301C132.245 39.9315 132.078 39.5277 132.078 39.1067C132.078 38.6858 132.245 38.2819 132.542 37.9834C132.839 37.6848 133.241 37.5158 133.662 37.5132H178.799C179.009 37.5119 179.218 37.5522 179.412 37.6317C179.606 37.7112 179.783 37.8284 179.932 37.9765C180.081 38.1246 180.2 38.3007 180.28 38.4946C180.361 38.6886 180.402 38.8966 180.402 39.1067C180.402 39.3168 180.361 39.5248 180.28 39.7188C180.2 39.9128 180.081 40.0889 179.932 40.237C179.783 40.3851 179.606 40.5022 179.412 40.5817C179.218 40.6612 179.009 40.7015 178.799 40.7002Z" fill="#FBC531"/>
<path d="M178.799 51.9846H133.662C133.241 51.9821 132.839 51.813 132.542 51.5145C132.245 51.2159 132.078 50.8121 132.078 50.3911C132.078 49.9702 132.245 49.5664 132.542 49.2678C132.839 48.9692 133.241 48.8002 133.662 48.7976H178.799C179.009 48.7963 179.218 48.8366 179.412 48.9161C179.606 48.9956 179.783 49.1128 179.932 49.2609C180.081 49.409 180.2 49.5851 180.28 49.7791C180.361 49.973 180.402 50.1811 180.402 50.3911C180.402 50.6012 180.361 50.8092 180.28 51.0032C180.2 51.1972 180.081 51.3733 179.932 51.5214C179.783 51.6695 179.606 51.7867 179.412 51.8662C179.218 51.9457 179.009 51.9859 178.799 51.9846Z" fill="#FBC531"/>
<path d="M178.799 63.2686H133.662C133.241 63.266 132.839 63.097 132.542 62.7984C132.245 62.4998 132.078 62.096 132.078 61.6751C132.078 61.2541 132.245 60.8503 132.542 60.5517C132.839 60.2532 133.241 60.0842 133.662 60.0816H178.799C179.009 60.0803 179.218 60.1205 179.412 60.2C179.606 60.2795 179.783 60.3967 179.932 60.5448C180.081 60.6929 180.2 60.869 180.28 61.063C180.361 61.257 180.402 61.465 180.402 61.6751C180.402 61.8852 180.361 62.0932 180.28 62.2871C180.2 62.4811 180.081 62.6572 179.932 62.8053C179.783 62.9534 179.606 63.0706 179.412 63.1501C179.218 63.2296 179.009 63.2699 178.799 63.2686Z" fill="#FBC531"/>
<path d="M421.3 109.838L354.624 90.5018C352.822 89.9767 351.301 88.7582 350.396 87.1134C349.49 85.4687 349.275 83.532 349.795 81.7282L363.631 34.0177C364.156 32.215 365.375 30.6941 367.02 29.7887C368.664 28.8833 370.601 28.6673 372.405 29.1881L439.081 48.5243C440.884 49.0492 442.405 50.2679 443.31 51.9129C444.216 53.5578 444.432 55.4948 443.911 57.2987L430.075 105.009C429.55 106.812 428.331 108.333 426.686 109.238C425.041 110.143 423.104 110.359 421.3 109.838ZM371.517 32.249C370.525 31.9627 369.46 32.0815 368.556 32.5795C367.651 33.0775 366.981 33.9139 366.692 34.9054L352.856 82.6159C352.57 83.6079 352.688 84.673 353.186 85.5775C353.684 86.4821 354.521 87.1522 355.512 87.4408L422.188 106.777C423.18 107.064 424.245 106.945 425.15 106.447C426.055 105.949 426.725 105.113 427.014 104.122L440.85 56.4111C441.136 55.4189 441.017 54.3537 440.52 53.449C440.022 52.5443 439.185 51.874 438.194 51.5852L371.517 32.249Z" fill="#E6E6E6"/>
<path d="M421.227 66.4918L377.877 53.92C377.472 53.8016 377.13 53.5274 376.927 53.1574C376.724 52.7874 376.675 52.352 376.793 51.9466C376.911 51.5412 377.184 51.199 377.554 50.9951C377.923 50.7912 378.359 50.7423 378.764 50.8591L422.115 63.4308C422.521 63.5485 422.864 63.8227 423.067 64.1929C423.271 64.5632 423.319 64.9992 423.202 65.4051C423.084 65.811 422.81 66.1536 422.44 66.3573C422.069 66.5611 421.633 66.6095 421.227 66.4918Z" fill="#FBC531"/>
<path d="M418.084 77.3298L374.734 64.758C374.533 64.6997 374.345 64.6024 374.182 64.4717C374.018 64.3409 373.882 64.1792 373.781 63.9959C373.681 63.8126 373.617 63.6112 373.594 63.4032C373.571 63.1952 373.589 62.9847 373.647 62.7837C373.705 62.5827 373.803 62.3952 373.933 62.2318C374.064 62.0685 374.226 61.9324 374.409 61.8315C374.592 61.7306 374.794 61.6668 375.002 61.6437C375.21 61.6207 375.42 61.6388 375.621 61.6971L418.972 74.2688C419.377 74.3872 419.719 74.6615 419.922 75.0315C420.125 75.4014 420.173 75.8369 420.056 76.2423C419.938 76.6477 419.665 76.9898 419.295 77.1937C418.925 77.3976 418.49 77.4465 418.084 77.3298Z" fill="#FBC531"/>
<path d="M414.942 88.1673L371.591 75.5955C371.186 75.4772 370.844 75.2029 370.641 74.8329C370.438 74.463 370.39 74.0275 370.507 73.6221C370.625 73.2167 370.898 72.8745 371.268 72.6707C371.637 72.4668 372.073 72.4178 372.478 72.5346L415.829 85.1064C416.235 85.2241 416.578 85.4982 416.781 85.8685C416.985 86.2387 417.034 86.6748 416.916 87.0807C416.798 87.4866 416.524 87.8291 416.154 88.0329C415.784 88.2366 415.348 88.285 414.942 88.1673Z" fill="#FBC531"/>
<path d="M855.918 608.275H156.606V611.275H855.918V608.275Z" fill="#E6E6E6"/>
<path d="M562.64 603.585H448.921L452.776 553.473H558.785L562.64 603.585Z" fill="#E6E6E6"/>
<path d="M570.349 597.803H443.139V609.368H570.349V597.803Z" fill="#E6E6E6"/>
<path d="M723.58 230.628H288.944C285.877 230.628 282.936 231.846 280.767 234.015C278.598 236.184 277.38 239.125 277.38 242.193V507.214H735.145V242.193C735.145 240.674 734.846 239.17 734.264 237.767C733.683 236.364 732.831 235.089 731.757 234.015C730.684 232.941 729.409 232.089 728.006 231.508C726.603 230.927 725.099 230.628 723.58 230.628Z" fill="#3F3D56"/>
<path d="M277.38 507.214V550.581C277.38 552.1 277.679 553.604 278.26 555.007C278.841 556.41 279.693 557.685 280.767 558.759C281.841 559.833 283.116 560.684 284.519 561.266C285.922 561.847 287.426 562.146 288.944 562.146H723.58C726.647 562.146 729.589 560.928 731.757 558.759C733.926 556.59 735.145 553.648 735.145 550.581V507.214H277.38Z" fill="#E6E6E6"/>
<path d="M712.979 254.721H300.509V486.012H712.979V254.721Z" fill="#E6E6E6"/>
<path d="M506.744 545.763C513.131 545.763 518.309 540.585 518.309 534.198C518.309 527.811 513.131 522.634 506.744 522.634C500.357 522.634 495.179 527.811 495.179 534.198C495.179 540.585 500.357 545.763 506.744 545.763Z" fill="#3F3D56"/>
<path d="M313.37 264.49C314.582 264.49 315.565 263.507 315.565 262.295C315.565 261.083 314.582 260.101 313.37 260.101C312.158 260.101 311.175 261.083 311.175 262.295C311.175 263.507 312.158 264.49 313.37 264.49Z" fill="white"/>
<path d="M321.7 264.49C322.912 264.49 323.895 263.507 323.895 262.295C323.895 261.083 322.912 260.101 321.7 260.101C320.488 260.101 319.506 261.083 319.506 262.295C319.506 263.507 320.488 264.49 321.7 264.49Z" fill="white"/>
<path d="M330.031 264.49C331.243 264.49 332.225 263.507 332.225 262.295C332.225 261.083 331.243 260.101 330.031 260.101C328.819 260.101 327.836 261.083 327.836 262.295C327.836 263.507 328.819 264.49 330.031 264.49Z" fill="white"/>
<path d="M701.091 269.753H311.175V464H701.091V269.753Z" fill="white"/>
<path d="M337.094 299.299C336.729 299.299 336.378 299.445 336.12 299.703C335.862 299.961 335.716 300.312 335.716 300.677V370.353C335.716 370.719 335.862 371.069 336.12 371.327C336.378 371.586 336.729 371.731 337.094 371.731H417.559C417.924 371.731 418.274 371.586 418.533 371.327C418.791 371.069 418.937 370.719 418.937 370.353V300.677C418.937 300.312 418.791 299.961 418.533 299.703C418.274 299.445 417.924 299.299 417.559 299.299H337.094Z" fill="#E6E6E6"/>
<path d="M466.29 299.523C465.924 299.523 465.574 299.669 465.315 299.927C465.057 300.185 464.912 300.536 464.911 300.901V370.353C464.912 370.719 465.057 371.069 465.315 371.327C465.574 371.586 465.924 371.731 466.29 371.731H546.498C546.863 371.731 547.214 371.586 547.472 371.327C547.73 371.069 547.876 370.718 547.876 370.353V300.901C547.876 300.536 547.73 300.186 547.472 299.927C547.214 299.669 546.863 299.523 546.498 299.523H466.29Z" fill="#E6E6E6"/>
<path d="M594.131 298.795C593.765 298.795 593.415 298.941 593.157 299.199C592.899 299.458 592.753 299.808 592.753 300.173V370.353C592.753 370.718 592.899 371.069 593.157 371.327C593.415 371.586 593.765 371.731 594.131 371.731H675.173C675.538 371.731 675.889 371.586 676.147 371.327C676.405 371.069 676.55 370.718 676.551 370.353V300.173C676.55 299.808 676.405 299.458 676.147 299.199C675.889 298.941 675.538 298.795 675.173 298.795H594.131Z" fill="#E6E6E6"/>
<path d="M338.565 406.221C337.81 406.222 337.087 406.523 336.553 407.057C336.02 407.592 335.721 408.316 335.721 409.071C335.721 409.825 336.02 410.55 336.553 411.084C337.087 411.618 337.81 411.919 338.565 411.92H414.218C414.972 411.919 415.696 411.618 416.229 411.084C416.763 410.55 417.062 409.825 417.062 409.071C417.062 408.316 416.763 407.592 416.229 407.057C415.696 406.523 414.972 406.222 414.218 406.221H338.565Z" fill="#E6E6E6"/>
<path d="M338.565 419.776C337.81 419.778 337.087 420.079 336.554 420.613C336.02 421.147 335.721 421.871 335.721 422.626C335.721 423.381 336.02 424.106 336.554 424.64C337.087 425.174 337.81 425.475 338.565 425.477H372.627C373.382 425.475 374.106 425.174 374.639 424.64C375.173 424.106 375.472 423.381 375.472 422.626C375.472 421.871 375.173 421.147 374.639 420.613C374.106 420.079 373.382 419.778 372.627 419.776H338.565Z" fill="#FBC531"/>
<path d="M469.149 406.221C468.394 406.222 467.671 406.523 467.138 407.057C466.604 407.592 466.305 408.316 466.305 409.071C466.305 409.825 466.604 410.55 467.138 411.084C467.671 411.618 468.394 411.919 469.149 411.92H544.802C545.556 411.919 546.28 411.618 546.813 411.084C547.347 410.55 547.646 409.825 547.646 409.071C547.646 408.316 547.347 407.592 546.813 407.057C546.28 406.523 545.556 406.222 544.802 406.221H469.149Z" fill="#E6E6E6"/>
<path d="M469.149 419.776C468.394 419.778 467.671 420.079 467.137 420.613C466.604 421.147 466.304 421.871 466.304 422.626C466.304 423.381 466.604 424.106 467.137 424.64C467.671 425.174 468.394 425.475 469.149 425.477H503.212C503.967 425.475 504.69 425.174 505.224 424.64C505.757 424.106 506.056 423.381 506.056 422.626C506.056 421.871 505.757 421.147 505.224 420.613C504.69 420.079 503.967 419.778 503.212 419.776H469.149Z" fill="#FBC531"/>
<path d="M596.47 406.221C595.715 406.222 594.991 406.523 594.458 407.057C593.925 407.592 593.625 408.316 593.625 409.071C593.625 409.825 593.925 410.55 594.458 411.084C594.991 411.618 595.715 411.919 596.47 411.92H672.122C672.877 411.919 673.6 411.618 674.134 411.084C674.667 410.55 674.966 409.825 674.966 409.071C674.966 408.316 674.667 407.592 674.134 407.057C673.6 406.523 672.877 406.222 672.122 406.221H596.47Z" fill="#E6E6E6"/>
<path d="M338.565 392.221C337.81 392.222 337.087 392.523 336.553 393.057C336.02 393.592 335.721 394.316 335.721 395.071C335.721 395.825 336.02 396.55 336.553 397.084C337.087 397.618 337.81 397.919 338.565 397.92H414.218C414.972 397.919 415.696 397.618 416.229 397.084C416.763 396.55 417.062 395.825 417.062 395.071C417.062 394.316 416.763 393.592 416.229 393.057C415.696 392.523 414.972 392.222 414.218 392.221H338.565Z" fill="#E6E6E6"/>
<path d="M469.149 392.221C468.394 392.222 467.671 392.523 467.138 393.057C466.604 393.592 466.305 394.316 466.305 395.071C466.305 395.825 466.604 396.55 467.138 397.084C467.671 397.618 468.394 397.919 469.149 397.92H544.802C545.556 397.919 546.28 397.618 546.813 397.084C547.347 396.55 547.646 395.825 547.646 395.071C547.646 394.316 547.347 393.592 546.813 393.057C546.28 392.523 545.556 392.222 544.802 392.221H469.149Z" fill="#E6E6E6"/>
<path d="M596.47 392.221C595.715 392.222 594.991 392.523 594.458 393.057C593.925 393.592 593.625 394.316 593.625 395.071C593.625 395.825 593.925 396.55 594.458 397.084C594.991 397.618 595.715 397.919 596.47 397.92H672.122C672.877 397.919 673.6 397.618 674.134 397.084C674.667 396.55 674.966 395.825 674.966 395.071C674.966 394.316 674.667 393.592 674.134 393.057C673.6 392.523 672.877 392.222 672.122 392.221H596.47Z" fill="#E6E6E6"/>
<path d="M596.47 419.776C595.715 419.778 594.991 420.079 594.458 420.613C593.924 421.147 593.625 421.871 593.625 422.626C593.625 423.381 593.924 424.106 594.458 424.64C594.991 425.174 595.715 425.475 596.47 425.477H630.531C631.286 425.475 632.01 425.174 632.543 424.64C633.076 424.106 633.376 423.381 633.376 422.626C633.376 421.871 633.076 421.147 632.543 420.613C632.01 420.079 631.286 419.778 630.531 419.776H596.47Z" fill="#FBC531"/>
</g>
<defs>
<clipPath id="clip0_99_3069">
<rect width="855.418" height="610.775" fill="white" transform="translate(0.5 0.5)"/>
</clipPath>
</defs>
</svg>
