<svg width="48" height="48" viewBox="0 0 48 48" fill="none" xmlns="http://www.w3.org/2000/svg">
<path d="M42.2857 0H5.71429C2.56 0 0 2.56 0 5.71429V42.2857C0 45.44 2.56 48 5.71429 48H42.2857C45.44 48 48 45.44 48 42.2857V5.71429C48 2.56 45.44 0 42.2857 0ZM14.8571 18.2857V40H8V18.2857H14.8571ZM8 11.9657C8 10.3657 9.37143 9.14286 11.4286 9.14286C13.4857 9.14286 14.7771 10.3657 14.8571 11.9657C14.8571 13.5657 13.5771 14.8571 11.4286 14.8571C9.37143 14.8571 8 13.5657 8 11.9657ZM40 40H33.1429C33.1429 40 33.1429 29.4171 33.1429 28.5714C33.1429 26.2857 32 24 29.1429 23.9543H29.0514C26.2857 23.9543 25.1429 26.3086 25.1429 28.5714C25.1429 29.6114 25.1429 40 25.1429 40H18.2857V18.2857H25.1429V21.2114C25.1429 21.2114 27.3486 18.2857 31.7829 18.2857C36.32 18.2857 40 21.4057 40 27.7257V40Z" fill="black"/>
</svg>
