<svg width="24" height="24" viewBox="0 0 24 24" fill="none" xmlns="http://www.w3.org/2000/svg">
<path d="M2.45005 10.575L6.65005 6.37504C6.88338 6.1417 7.15838 5.97504 7.47505 5.87504C7.79172 5.77504 8.11672 5.75837 8.45005 5.82504L9.75005 6.10004C8.85005 7.1667 8.14172 8.13337 7.62505 9.00004C7.10838 9.8667 6.60838 10.9167 6.12505 12.15L2.45005 10.575ZM7.57505 12.85C7.95838 11.65 8.47922 10.5167 9.13755 9.45004C9.79588 8.38337 10.5917 7.38337 11.525 6.45004C12.9917 4.98337 14.6667 3.88754 16.55 3.16254C18.4334 2.43754 20.1917 2.2167 21.825 2.50004C22.1084 4.13337 21.8917 5.8917 21.175 7.77504C20.4584 9.65837 19.3667 11.3334 17.9 12.8C16.9834 13.7167 15.9834 14.5125 14.9 15.1875C13.8167 15.8625 12.675 16.3917 11.475 16.775L7.57505 12.85ZM14.475 9.85004C14.8584 10.2334 15.3292 10.425 15.8875 10.425C16.4459 10.425 16.9167 10.2334 17.3 9.85004C17.6834 9.4667 17.875 8.99587 17.875 8.43754C17.875 7.8792 17.6834 7.40837 17.3 7.02504C16.9167 6.6417 16.4459 6.45004 15.8875 6.45004C15.3292 6.45004 14.8584 6.6417 14.475 7.02504C14.0917 7.40837 13.9 7.8792 13.9 8.43754C13.9 8.99587 14.0917 9.4667 14.475 9.85004ZM13.775 21.875L12.175 18.2C13.4084 17.7167 14.4625 17.2167 15.3375 16.7C16.2125 16.1834 17.1834 15.475 18.25 14.575L18.5 15.875C18.5667 16.2084 18.55 16.5375 18.45 16.8625C18.35 17.1875 18.1834 17.4667 17.95 17.7L13.775 21.875ZM4.05005 16.05C4.63338 15.4667 5.34172 15.1709 6.17505 15.1625C7.00838 15.1542 7.71672 15.4417 8.30005 16.025C8.88338 16.6084 9.17505 17.3167 9.17505 18.15C9.17505 18.9834 8.88338 19.6917 8.30005 20.275C7.88338 20.6917 7.18755 21.05 6.21255 21.35C5.23755 21.65 3.89172 21.9167 2.17505 22.15C2.40838 20.4334 2.67505 19.0917 2.97505 18.125C3.27505 17.1584 3.63338 16.4667 4.05005 16.05Z" fill="#FBC531"/>
</svg>
