<svg width="512" height="512" viewBox="0 0 512 512" fill="none" xmlns="http://www.w3.org/2000/svg">
<g filter="url(#filter0_i_86_819)">
<rect width="512" height="512" rx="100" fill="white"/>
<g filter="url(#filter1_d_86_819)">
<path d="M250.44 84L268.58 86.2273C287.48 88.5479 305.737 94.5683 322.31 103.945C338.883 113.321 353.447 125.871 365.17 140.876C376.893 155.881 385.546 173.048 390.635 191.397C395.724 209.746 397.148 228.918 394.828 247.818L383.386 341.007C380.929 361.013 370.626 379.224 354.742 391.633C338.859 404.043 318.696 409.635 298.69 407.178L287.498 405.804C267.492 403.347 249.281 393.044 236.871 377.161C224.462 361.277 218.87 341.115 221.327 321.108L250.44 84Z" fill="url(#paint0_linear_86_819)"/>
</g>
<g filter="url(#filter2_d_86_819)">
<path d="M99 115.31L117.098 112.767C135.954 110.116 155.148 111.206 173.583 115.974C192.018 120.742 209.334 129.094 224.541 140.553C239.749 152.013 252.55 166.355 262.214 182.762C271.879 199.169 278.217 217.319 280.867 236.175L293.934 329.151C296.739 349.111 291.5 369.368 279.37 385.466C267.239 401.563 249.211 412.183 229.251 414.988L218.084 416.557C198.124 419.363 177.867 414.124 161.769 401.993C145.672 389.863 135.052 371.834 132.247 351.874L99 115.31Z" fill="url(#paint1_linear_86_819)"/>
</g>
</g>
<defs>
<filter id="filter0_i_86_819" x="0" y="0" width="512" height="516" filterUnits="userSpaceOnUse" color-interpolation-filters="sRGB">
<feFlood flood-opacity="0" result="BackgroundImageFix"/>
<feBlend mode="normal" in="SourceGraphic" in2="BackgroundImageFix" result="shape"/>
<feColorMatrix in="SourceAlpha" type="matrix" values="0 0 0 0 0 0 0 0 0 0 0 0 0 0 0 0 0 0 127 0" result="hardAlpha"/>
<feMorphology radius="4" operator="erode" in="SourceAlpha" result="effect1_innerShadow_86_819"/>
<feOffset dy="4"/>
<feGaussianBlur stdDeviation="6"/>
<feComposite in2="hardAlpha" operator="arithmetic" k2="-1" k3="1"/>
<feColorMatrix type="matrix" values="0 0 0 0 0 0 0 0 0 0 0 0 0 0 0 0 0 0 0.3 0"/>
<feBlend mode="normal" in2="shape" result="effect1_innerShadow_86_819"/>
</filter>
<filter id="filter1_d_86_819" x="212.76" y="79" width="191.149" height="339.745" filterUnits="userSpaceOnUse" color-interpolation-filters="sRGB">
<feFlood flood-opacity="0" result="BackgroundImageFix"/>
<feColorMatrix in="SourceAlpha" type="matrix" values="0 0 0 0 0 0 0 0 0 0 0 0 0 0 0 0 0 0 127 0" result="hardAlpha"/>
<feOffset dy="3"/>
<feGaussianBlur stdDeviation="4"/>
<feColorMatrix type="matrix" values="0 0 0 0 0 0 0 0 0 0 0 0 0 0 0 0 0 0 0.161 0"/>
<feBlend mode="normal" in2="BackgroundImageFix" result="effect1_dropShadow_86_819"/>
<feBlend mode="normal" in="SourceGraphic" in2="effect1_dropShadow_86_819" result="shape"/>
</filter>
<filter id="filter2_d_86_819" x="91" y="106.355" width="211.674" height="321.942" filterUnits="userSpaceOnUse" color-interpolation-filters="sRGB">
<feFlood flood-opacity="0" result="BackgroundImageFix"/>
<feColorMatrix in="SourceAlpha" type="matrix" values="0 0 0 0 0 0 0 0 0 0 0 0 0 0 0 0 0 0 127 0" result="hardAlpha"/>
<feOffset dy="3"/>
<feGaussianBlur stdDeviation="4"/>
<feColorMatrix type="matrix" values="0 0 0 0 0 0 0 0 0 0 0 0 0 0 0 0 0 0 0.161 0"/>
<feBlend mode="normal" in2="BackgroundImageFix" result="effect1_dropShadow_86_819"/>
<feBlend mode="normal" in="SourceGraphic" in2="effect1_dropShadow_86_819" result="shape"/>
</filter>
<linearGradient id="paint0_linear_86_819" x1="331.469" y1="93.9492" x2="178.196" y2="456.838" gradientUnits="userSpaceOnUse">
<stop stop-color="#4E7DFF"/>
<stop offset="1" stop-color="#273F80"/>
</linearGradient>
<linearGradient id="paint1_linear_86_819" x1="179.844" y1="103.948" x2="279.166" y2="771.395" gradientUnits="userSpaceOnUse">
<stop stop-color="#4EA7FF"/>
<stop offset="1" stop-color="#3671AB"/>
</linearGradient>
</defs>
</svg>
