<svg width="133" height="240" viewBox="0 0 133 240" fill="none" xmlns="http://www.w3.org/2000/svg">
<ellipse cx="47.9567" cy="13.4279" rx="12.149" ry="13.4279" fill="#D9D9D9" fill-opacity="0.3"/>
<circle cx="83.7644" cy="13.4279" r="13.4279" fill="#D9D9D9" fill-opacity="0.3"/>
<circle cx="119.572" cy="13.4279" r="13.4279" fill="#D9D9D9" fill-opacity="0.3"/>
<ellipse cx="13.4279" cy="47.9567" rx="13.4279" ry="12.149" fill="#D9D9D9" fill-opacity="0.3"/>
<circle cx="47.9567" cy="47.9567" r="12.149" fill="#D9D9D9" fill-opacity="0.3"/>
<ellipse cx="83.7644" cy="47.9567" rx="13.4279" ry="12.149" fill="#D9D9D9" fill-opacity="0.3"/>
<ellipse cx="119.572" cy="47.9567" rx="13.4279" ry="12.149" fill="#D9D9D9" fill-opacity="0.3"/>
<circle cx="13.4279" cy="83.7644" r="13.4279" fill="#D9D9D9" fill-opacity="0.3"/>
<ellipse cx="47.9567" cy="83.7644" rx="12.149" ry="13.4279" fill="#D9D9D9" fill-opacity="0.3"/>
<circle cx="83.7644" cy="83.7644" r="13.4279" fill="#D9D9D9" fill-opacity="0.3"/>
<circle cx="13.4279" cy="13.4279" r="13.4279" fill="#D9D9D9" fill-opacity="0.3"/>
<circle cx="119.572" cy="83.7644" r="13.4279" fill="#D9D9D9" fill-opacity="0.3"/>
<circle cx="13.4279" cy="119.572" r="13.4279" fill="#D9D9D9" fill-opacity="0.3"/>
<ellipse cx="47.9567" cy="119.572" rx="12.149" ry="13.4279" fill="#D9D9D9" fill-opacity="0.3"/>
<circle cx="83.7644" cy="119.572" r="13.4279" fill="#D9D9D9" fill-opacity="0.3"/>
<circle cx="119.572" cy="119.572" r="13.4279" fill="#D9D9D9" fill-opacity="0.3"/>
<circle cx="13.4279" cy="155.38" r="13.4279" fill="#D9D9D9" fill-opacity="0.3"/>
<ellipse cx="47.9567" cy="155.38" rx="12.149" ry="13.4279" fill="#D9D9D9" fill-opacity="0.3"/>
<circle cx="83.7644" cy="155.38" r="13.4279" fill="#D9D9D9" fill-opacity="0.3"/>
<circle cx="119.572" cy="155.38" r="13.4279" fill="#D9D9D9" fill-opacity="0.3"/>
<ellipse cx="13.4279" cy="191.188" rx="13.4279" ry="12.149" fill="#D9D9D9" fill-opacity="0.3"/>
<circle cx="47.9567" cy="191.188" r="12.149" fill="#D9D9D9" fill-opacity="0.3"/>
<ellipse cx="83.7644" cy="191.188" rx="13.4279" ry="12.149" fill="#D9D9D9" fill-opacity="0.3"/>
<ellipse cx="119.572" cy="191.188" rx="13.4279" ry="12.149" fill="#D9D9D9" fill-opacity="0.3"/>
<circle cx="13.4279" cy="225.716" r="13.4279" fill="#D9D9D9" fill-opacity="0.3"/>
<ellipse cx="47.9567" cy="225.716" rx="12.149" ry="13.4279" fill="#D9D9D9" fill-opacity="0.3"/>
<circle cx="83.7644" cy="225.716" r="13.4279" fill="#D9D9D9" fill-opacity="0.3"/>
<circle cx="119.572" cy="225.716" r="13.4279" fill="#D9D9D9" fill-opacity="0.3"/>
</svg>
