<svg width="1225" height="586" viewBox="0 0 1225 586" fill="none" xmlns="http://www.w3.org/2000/svg">
<ellipse cx="1139.96" cy="359.428" rx="12.149" ry="13.4279" fill="#949494" fill-opacity="0.3"/>
<circle cx="1175.76" cy="359.428" r="13.4279" fill="#949494" fill-opacity="0.3"/>
<circle cx="1211.57" cy="359.428" r="13.4279" fill="#949494" fill-opacity="0.3"/>
<ellipse cx="1105.43" cy="393.957" rx="13.4279" ry="12.149" fill="#949494" fill-opacity="0.3"/>
<circle cx="1139.96" cy="393.957" r="12.149" fill="#949494" fill-opacity="0.3"/>
<ellipse cx="1175.76" cy="393.957" rx="13.4279" ry="12.149" fill="#949494" fill-opacity="0.3"/>
<ellipse cx="1211.57" cy="393.957" rx="13.4279" ry="12.149" fill="#949494" fill-opacity="0.3"/>
<circle cx="1105.43" cy="429.764" r="13.4279" fill="#949494" fill-opacity="0.3"/>
<ellipse cx="1139.96" cy="429.764" rx="12.149" ry="13.4279" fill="#949494" fill-opacity="0.3"/>
<circle cx="1175.76" cy="429.764" r="13.4279" fill="#949494" fill-opacity="0.3"/>
<circle cx="1105.43" cy="359.428" r="13.4279" fill="#949494" fill-opacity="0.3"/>
<circle cx="1211.57" cy="429.764" r="13.4279" fill="#949494" fill-opacity="0.3"/>
<circle cx="1105.43" cy="465.572" r="13.4279" fill="#949494" fill-opacity="0.3"/>
<ellipse cx="1139.96" cy="465.572" rx="12.149" ry="13.4279" fill="#949494" fill-opacity="0.3"/>
<circle cx="1175.76" cy="465.572" r="13.4279" fill="#949494" fill-opacity="0.3"/>
<circle cx="1211.57" cy="465.572" r="13.4279" fill="#949494" fill-opacity="0.3"/>
<circle cx="1105.43" cy="501.38" r="13.4279" fill="#949494" fill-opacity="0.3"/>
<ellipse cx="1139.96" cy="501.38" rx="12.149" ry="13.4279" fill="#949494" fill-opacity="0.3"/>
<circle cx="1175.76" cy="501.38" r="13.4279" fill="#949494" fill-opacity="0.3"/>
<circle cx="1211.57" cy="501.38" r="13.4279" fill="#949494" fill-opacity="0.3"/>
<ellipse cx="1105.43" cy="537.188" rx="13.4279" ry="12.149" fill="#949494" fill-opacity="0.3"/>
<circle cx="1139.96" cy="537.188" r="12.149" fill="#949494" fill-opacity="0.3"/>
<ellipse cx="1175.76" cy="537.188" rx="13.4279" ry="12.149" fill="#949494" fill-opacity="0.3"/>
<ellipse cx="1211.57" cy="537.188" rx="13.4279" ry="12.149" fill="#949494" fill-opacity="0.3"/>
<circle cx="1105.43" cy="571.716" r="13.4279" fill="#949494" fill-opacity="0.3"/>
<ellipse cx="1139.96" cy="571.716" rx="12.149" ry="13.4279" fill="#949494" fill-opacity="0.3"/>
<circle cx="1175.76" cy="571.716" r="13.4279" fill="#949494" fill-opacity="0.3"/>
<circle cx="1211.57" cy="571.716" r="13.4279" fill="#949494" fill-opacity="0.3"/>
<ellipse cx="225.716" cy="47.9567" rx="12.149" ry="13.4279" transform="rotate(90 225.716 47.9567)" fill="#949494" fill-opacity="0.3"/>
<circle cx="225.716" cy="83.7644" r="13.4279" transform="rotate(90 225.716 83.7644)" fill="#949494" fill-opacity="0.3"/>
<circle cx="225.716" cy="119.572" r="13.4279" transform="rotate(90 225.716 119.572)" fill="#949494" fill-opacity="0.3"/>
<ellipse cx="191.188" cy="13.4279" rx="13.4279" ry="12.149" transform="rotate(90 191.188 13.4279)" fill="#949494" fill-opacity="0.3"/>
<circle cx="191.188" cy="47.9567" r="12.149" transform="rotate(90 191.188 47.9567)" fill="#949494" fill-opacity="0.3"/>
<ellipse cx="191.188" cy="83.7644" rx="13.4279" ry="12.149" transform="rotate(90 191.188 83.7644)" fill="#949494" fill-opacity="0.3"/>
<ellipse cx="191.188" cy="119.572" rx="13.4279" ry="12.149" transform="rotate(90 191.188 119.572)" fill="#949494" fill-opacity="0.3"/>
<circle cx="155.38" cy="13.4279" r="13.4279" transform="rotate(90 155.38 13.4279)" fill="#949494" fill-opacity="0.3"/>
<ellipse cx="155.38" cy="47.9567" rx="12.149" ry="13.4279" transform="rotate(90 155.38 47.9567)" fill="#949494" fill-opacity="0.3"/>
<circle cx="155.38" cy="83.7644" r="13.4279" transform="rotate(90 155.38 83.7644)" fill="#949494" fill-opacity="0.3"/>
<circle cx="225.716" cy="13.4279" r="13.4279" transform="rotate(90 225.716 13.4279)" fill="#949494" fill-opacity="0.3"/>
<circle cx="155.38" cy="119.572" r="13.4279" transform="rotate(90 155.38 119.572)" fill="#949494" fill-opacity="0.3"/>
<circle cx="119.572" cy="13.4279" r="13.4279" transform="rotate(90 119.572 13.4279)" fill="#949494" fill-opacity="0.3"/>
<ellipse cx="119.572" cy="47.9567" rx="12.149" ry="13.4279" transform="rotate(90 119.572 47.9567)" fill="#949494" fill-opacity="0.3"/>
<circle cx="119.572" cy="83.7644" r="13.4279" transform="rotate(90 119.572 83.7644)" fill="#949494" fill-opacity="0.3"/>
<circle cx="119.572" cy="119.572" r="13.4279" transform="rotate(90 119.572 119.572)" fill="#949494" fill-opacity="0.3"/>
<circle cx="83.7645" cy="13.4279" r="13.4279" transform="rotate(90 83.7645 13.4279)" fill="#949494" fill-opacity="0.3"/>
<ellipse cx="83.7645" cy="47.9567" rx="12.149" ry="13.4279" transform="rotate(90 83.7645 47.9567)" fill="#949494" fill-opacity="0.3"/>
<circle cx="83.7645" cy="83.7644" r="13.4279" transform="rotate(90 83.7645 83.7644)" fill="#949494" fill-opacity="0.3"/>
<circle cx="83.7645" cy="119.572" r="13.4279" transform="rotate(90 83.7645 119.572)" fill="#949494" fill-opacity="0.3"/>
<ellipse cx="47.9568" cy="13.4279" rx="13.4279" ry="12.149" transform="rotate(90 47.9568 13.4279)" fill="#949494" fill-opacity="0.3"/>
<circle cx="47.9568" cy="47.9567" r="12.149" transform="rotate(90 47.9568 47.9567)" fill="#949494" fill-opacity="0.3"/>
<ellipse cx="47.9568" cy="83.7644" rx="13.4279" ry="12.149" transform="rotate(90 47.9568 83.7644)" fill="#949494" fill-opacity="0.3"/>
<ellipse cx="47.9568" cy="119.572" rx="13.4279" ry="12.149" transform="rotate(90 47.9568 119.572)" fill="#949494" fill-opacity="0.3"/>
<circle cx="13.4279" cy="13.4279" r="13.4279" transform="rotate(90 13.4279 13.4279)" fill="#949494" fill-opacity="0.3"/>
<ellipse cx="13.4279" cy="47.9567" rx="12.149" ry="13.4279" transform="rotate(90 13.4279 47.9567)" fill="#949494" fill-opacity="0.3"/>
<circle cx="13.4279" cy="83.7644" r="13.4279" transform="rotate(90 13.4279 83.7644)" fill="#949494" fill-opacity="0.3"/>
<circle cx="13.4279" cy="119.572" r="13.4279" transform="rotate(90 13.4279 119.572)" fill="#949494" fill-opacity="0.3"/>
<ellipse cx="719.716" cy="463.957" rx="12.149" ry="13.4279" transform="rotate(90 719.716 463.957)" fill="#949494" fill-opacity="0.3"/>
<circle cx="719.716" cy="499.764" r="13.4279" transform="rotate(90 719.716 499.764)" fill="#949494" fill-opacity="0.3"/>
<circle cx="719.716" cy="535.572" r="13.4279" transform="rotate(90 719.716 535.572)" fill="#949494" fill-opacity="0.3"/>
<ellipse cx="685.188" cy="429.428" rx="13.4279" ry="12.149" transform="rotate(90 685.188 429.428)" fill="#949494" fill-opacity="0.3"/>
<circle cx="685.188" cy="463.957" r="12.149" transform="rotate(90 685.188 463.957)" fill="#949494" fill-opacity="0.3"/>
<ellipse cx="685.188" cy="499.764" rx="13.4279" ry="12.149" transform="rotate(90 685.188 499.764)" fill="#949494" fill-opacity="0.3"/>
<ellipse cx="685.188" cy="535.572" rx="13.4279" ry="12.149" transform="rotate(90 685.188 535.572)" fill="#949494" fill-opacity="0.3"/>
<circle cx="649.38" cy="429.428" r="13.4279" transform="rotate(90 649.38 429.428)" fill="#949494" fill-opacity="0.3"/>
<ellipse cx="649.38" cy="463.957" rx="12.149" ry="13.4279" transform="rotate(90 649.38 463.957)" fill="#949494" fill-opacity="0.3"/>
<circle cx="649.38" cy="499.764" r="13.4279" transform="rotate(90 649.38 499.764)" fill="#949494" fill-opacity="0.3"/>
<circle cx="719.716" cy="429.428" r="13.4279" transform="rotate(90 719.716 429.428)" fill="#949494" fill-opacity="0.3"/>
<circle cx="649.38" cy="535.572" r="13.4279" transform="rotate(90 649.38 535.572)" fill="#949494" fill-opacity="0.3"/>
<circle cx="613.572" cy="429.428" r="13.4279" transform="rotate(90 613.572 429.428)" fill="#949494" fill-opacity="0.3"/>
<ellipse cx="613.572" cy="463.957" rx="12.149" ry="13.4279" transform="rotate(90 613.572 463.957)" fill="#949494" fill-opacity="0.3"/>
<circle cx="613.572" cy="499.764" r="13.4279" transform="rotate(90 613.572 499.764)" fill="#949494" fill-opacity="0.3"/>
<circle cx="613.572" cy="535.572" r="13.4279" transform="rotate(90 613.572 535.572)" fill="#949494" fill-opacity="0.3"/>
<circle cx="577.764" cy="429.428" r="13.4279" transform="rotate(90 577.764 429.428)" fill="#949494" fill-opacity="0.3"/>
<ellipse cx="577.764" cy="463.957" rx="12.149" ry="13.4279" transform="rotate(90 577.764 463.957)" fill="#949494" fill-opacity="0.3"/>
<circle cx="577.764" cy="499.764" r="13.4279" transform="rotate(90 577.764 499.764)" fill="#949494" fill-opacity="0.3"/>
<circle cx="577.764" cy="535.572" r="13.4279" transform="rotate(90 577.764 535.572)" fill="#949494" fill-opacity="0.3"/>
<ellipse cx="541.957" cy="429.428" rx="13.4279" ry="12.149" transform="rotate(90 541.957 429.428)" fill="#949494" fill-opacity="0.3"/>
<circle cx="541.957" cy="463.957" r="12.149" transform="rotate(90 541.957 463.957)" fill="#949494" fill-opacity="0.3"/>
<ellipse cx="541.957" cy="499.764" rx="13.4279" ry="12.149" transform="rotate(90 541.957 499.764)" fill="#949494" fill-opacity="0.3"/>
<ellipse cx="541.957" cy="535.572" rx="13.4279" ry="12.149" transform="rotate(90 541.957 535.572)" fill="#949494" fill-opacity="0.3"/>
<circle cx="507.428" cy="429.428" r="13.4279" transform="rotate(90 507.428 429.428)" fill="#949494" fill-opacity="0.3"/>
<ellipse cx="507.428" cy="463.957" rx="12.149" ry="13.4279" transform="rotate(90 507.428 463.957)" fill="#949494" fill-opacity="0.3"/>
<circle cx="507.428" cy="499.764" r="13.4279" transform="rotate(90 507.428 499.764)" fill="#949494" fill-opacity="0.3"/>
<circle cx="507.428" cy="535.572" r="13.4279" transform="rotate(90 507.428 535.572)" fill="#949494" fill-opacity="0.3"/>
</svg>
