<svg width="1180" height="1363" viewBox="0 0 1180 1363" fill="none" xmlns="http://www.w3.org/2000/svg">
<ellipse cx="1165.72" cy="47.9567" rx="12.149" ry="13.4279" transform="rotate(90 1165.72 47.9567)" fill="#949494" fill-opacity="0.3"/>
<circle cx="1165.72" cy="83.7644" r="13.4279" transform="rotate(90 1165.72 83.7644)" fill="#949494" fill-opacity="0.3"/>
<circle cx="1165.72" cy="119.572" r="13.4279" transform="rotate(90 1165.72 119.572)" fill="#949494" fill-opacity="0.3"/>
<ellipse cx="1131.19" cy="13.4279" rx="13.4279" ry="12.149" transform="rotate(90 1131.19 13.4279)" fill="#949494" fill-opacity="0.3"/>
<circle cx="1131.19" cy="47.9567" r="12.149" transform="rotate(90 1131.19 47.9567)" fill="#949494" fill-opacity="0.3"/>
<ellipse cx="1131.19" cy="83.7644" rx="13.4279" ry="12.149" transform="rotate(90 1131.19 83.7644)" fill="#949494" fill-opacity="0.3"/>
<ellipse cx="1131.19" cy="119.572" rx="13.4279" ry="12.149" transform="rotate(90 1131.19 119.572)" fill="#949494" fill-opacity="0.3"/>
<circle cx="1095.38" cy="13.4279" r="13.4279" transform="rotate(90 1095.38 13.4279)" fill="#949494" fill-opacity="0.3"/>
<ellipse cx="1095.38" cy="47.9567" rx="12.149" ry="13.4279" transform="rotate(90 1095.38 47.9567)" fill="#949494" fill-opacity="0.3"/>
<circle cx="1095.38" cy="83.7644" r="13.4279" transform="rotate(90 1095.38 83.7644)" fill="#949494" fill-opacity="0.3"/>
<circle cx="1165.72" cy="13.4279" r="13.4279" transform="rotate(90 1165.72 13.4279)" fill="#949494" fill-opacity="0.3"/>
<circle cx="1095.38" cy="119.572" r="13.4279" transform="rotate(90 1095.38 119.572)" fill="#949494" fill-opacity="0.3"/>
<circle cx="1059.57" cy="13.4279" r="13.4279" transform="rotate(90 1059.57 13.4279)" fill="#949494" fill-opacity="0.3"/>
<ellipse cx="1059.57" cy="47.9567" rx="12.149" ry="13.4279" transform="rotate(90 1059.57 47.9567)" fill="#949494" fill-opacity="0.3"/>
<circle cx="1059.57" cy="83.7644" r="13.4279" transform="rotate(90 1059.57 83.7644)" fill="#949494" fill-opacity="0.3"/>
<circle cx="1059.57" cy="119.572" r="13.4279" transform="rotate(90 1059.57 119.572)" fill="#949494" fill-opacity="0.3"/>
<circle cx="1023.76" cy="13.4279" r="13.4279" transform="rotate(90 1023.76 13.4279)" fill="#949494" fill-opacity="0.3"/>
<ellipse cx="1023.76" cy="47.9567" rx="12.149" ry="13.4279" transform="rotate(90 1023.76 47.9567)" fill="#949494" fill-opacity="0.3"/>
<circle cx="1023.76" cy="83.7644" r="13.4279" transform="rotate(90 1023.76 83.7644)" fill="#949494" fill-opacity="0.3"/>
<circle cx="1023.76" cy="119.572" r="13.4279" transform="rotate(90 1023.76 119.572)" fill="#949494" fill-opacity="0.3"/>
<ellipse cx="987.957" cy="13.4279" rx="13.4279" ry="12.149" transform="rotate(90 987.957 13.4279)" fill="#949494" fill-opacity="0.3"/>
<circle cx="987.957" cy="47.9567" r="12.149" transform="rotate(90 987.957 47.9567)" fill="#949494" fill-opacity="0.3"/>
<ellipse cx="987.957" cy="83.7644" rx="13.4279" ry="12.149" transform="rotate(90 987.957 83.7644)" fill="#949494" fill-opacity="0.3"/>
<ellipse cx="987.957" cy="119.572" rx="13.4279" ry="12.149" transform="rotate(90 987.957 119.572)" fill="#949494" fill-opacity="0.3"/>
<circle cx="953.428" cy="13.4279" r="13.4279" transform="rotate(90 953.428 13.4279)" fill="#949494" fill-opacity="0.3"/>
<ellipse cx="953.428" cy="47.9567" rx="12.149" ry="13.4279" transform="rotate(90 953.428 47.9567)" fill="#949494" fill-opacity="0.3"/>
<circle cx="953.428" cy="83.7644" r="13.4279" transform="rotate(90 953.428 83.7644)" fill="#949494" fill-opacity="0.3"/>
<circle cx="953.428" cy="119.572" r="13.4279" transform="rotate(90 953.428 119.572)" fill="#949494" fill-opacity="0.3"/>
<ellipse cx="551.957" cy="254.428" rx="12.149" ry="13.4279" fill="#949494" fill-opacity="0.3"/>
<circle cx="587.764" cy="254.428" r="13.4279" fill="#949494" fill-opacity="0.3"/>
<circle cx="623.572" cy="254.428" r="13.4279" fill="#949494" fill-opacity="0.3"/>
<ellipse cx="517.428" cy="288.957" rx="13.4279" ry="12.149" fill="#949494" fill-opacity="0.3"/>
<circle cx="551.957" cy="288.957" r="12.149" fill="#949494" fill-opacity="0.3"/>
<ellipse cx="587.764" cy="288.957" rx="13.4279" ry="12.149" fill="#949494" fill-opacity="0.3"/>
<ellipse cx="623.572" cy="288.957" rx="13.4279" ry="12.149" fill="#949494" fill-opacity="0.3"/>
<circle cx="517.428" cy="324.764" r="13.4279" fill="#949494" fill-opacity="0.3"/>
<ellipse cx="551.957" cy="324.764" rx="12.149" ry="13.4279" fill="#949494" fill-opacity="0.3"/>
<circle cx="587.764" cy="324.764" r="13.4279" fill="#949494" fill-opacity="0.3"/>
<circle cx="517.428" cy="254.428" r="13.4279" fill="#949494" fill-opacity="0.3"/>
<circle cx="623.572" cy="324.764" r="13.4279" fill="#949494" fill-opacity="0.3"/>
<circle cx="517.428" cy="360.572" r="13.4279" fill="#949494" fill-opacity="0.3"/>
<ellipse cx="551.957" cy="360.572" rx="12.149" ry="13.4279" fill="#949494" fill-opacity="0.3"/>
<circle cx="587.764" cy="360.572" r="13.4279" fill="#949494" fill-opacity="0.3"/>
<circle cx="623.572" cy="360.572" r="13.4279" fill="#949494" fill-opacity="0.3"/>
<circle cx="517.428" cy="396.38" r="13.4279" fill="#949494" fill-opacity="0.3"/>
<ellipse cx="551.957" cy="396.38" rx="12.149" ry="13.4279" fill="#949494" fill-opacity="0.3"/>
<circle cx="587.764" cy="396.38" r="13.4279" fill="#949494" fill-opacity="0.3"/>
<circle cx="623.572" cy="396.38" r="13.4279" fill="#949494" fill-opacity="0.3"/>
<ellipse cx="517.428" cy="432.188" rx="13.4279" ry="12.149" fill="#949494" fill-opacity="0.3"/>
<circle cx="551.957" cy="432.188" r="12.149" fill="#949494" fill-opacity="0.3"/>
<ellipse cx="587.764" cy="432.188" rx="13.4279" ry="12.149" fill="#949494" fill-opacity="0.3"/>
<ellipse cx="623.572" cy="432.188" rx="13.4279" ry="12.149" fill="#949494" fill-opacity="0.3"/>
<circle cx="517.428" cy="466.716" r="13.4279" fill="#949494" fill-opacity="0.3"/>
<ellipse cx="551.957" cy="466.716" rx="12.149" ry="13.4279" fill="#949494" fill-opacity="0.3"/>
<circle cx="587.764" cy="466.716" r="13.4279" fill="#949494" fill-opacity="0.3"/>
<circle cx="623.572" cy="466.716" r="13.4279" fill="#949494" fill-opacity="0.3"/>
<ellipse cx="725.957" cy="693.428" rx="12.149" ry="13.4279" fill="#949494" fill-opacity="0.3"/>
<circle cx="761.764" cy="693.428" r="13.4279" fill="#949494" fill-opacity="0.3"/>
<circle cx="797.572" cy="693.428" r="13.4279" fill="#949494" fill-opacity="0.3"/>
<ellipse cx="691.428" cy="727.957" rx="13.4279" ry="12.149" fill="#949494" fill-opacity="0.3"/>
<circle cx="725.957" cy="727.957" r="12.149" fill="#949494" fill-opacity="0.3"/>
<ellipse cx="761.764" cy="727.957" rx="13.4279" ry="12.149" fill="#949494" fill-opacity="0.3"/>
<ellipse cx="797.572" cy="727.957" rx="13.4279" ry="12.149" fill="#949494" fill-opacity="0.3"/>
<circle cx="691.428" cy="763.764" r="13.4279" fill="#949494" fill-opacity="0.3"/>
<ellipse cx="725.957" cy="763.764" rx="12.149" ry="13.4279" fill="#949494" fill-opacity="0.3"/>
<circle cx="761.764" cy="763.764" r="13.4279" fill="#949494" fill-opacity="0.3"/>
<circle cx="691.428" cy="693.428" r="13.4279" fill="#949494" fill-opacity="0.3"/>
<circle cx="797.572" cy="763.764" r="13.4279" fill="#949494" fill-opacity="0.3"/>
<circle cx="691.428" cy="799.572" r="13.4279" fill="#949494" fill-opacity="0.3"/>
<ellipse cx="725.957" cy="799.572" rx="12.149" ry="13.4279" fill="#949494" fill-opacity="0.3"/>
<circle cx="761.764" cy="799.572" r="13.4279" fill="#949494" fill-opacity="0.3"/>
<circle cx="797.572" cy="799.572" r="13.4279" fill="#949494" fill-opacity="0.3"/>
<circle cx="691.428" cy="835.38" r="13.4279" fill="#949494" fill-opacity="0.3"/>
<ellipse cx="725.957" cy="835.38" rx="12.149" ry="13.4279" fill="#949494" fill-opacity="0.3"/>
<circle cx="761.764" cy="835.38" r="13.4279" fill="#949494" fill-opacity="0.3"/>
<circle cx="797.572" cy="835.38" r="13.4279" fill="#949494" fill-opacity="0.3"/>
<ellipse cx="691.428" cy="871.188" rx="13.4279" ry="12.149" fill="#949494" fill-opacity="0.3"/>
<circle cx="725.957" cy="871.188" r="12.149" fill="#949494" fill-opacity="0.3"/>
<ellipse cx="761.764" cy="871.188" rx="13.4279" ry="12.149" fill="#949494" fill-opacity="0.3"/>
<ellipse cx="797.572" cy="871.188" rx="13.4279" ry="12.149" fill="#949494" fill-opacity="0.3"/>
<circle cx="691.428" cy="905.716" r="13.4279" fill="#949494" fill-opacity="0.3"/>
<ellipse cx="725.957" cy="905.716" rx="12.149" ry="13.4279" fill="#949494" fill-opacity="0.3"/>
<circle cx="761.764" cy="905.716" r="13.4279" fill="#949494" fill-opacity="0.3"/>
<circle cx="797.572" cy="905.716" r="13.4279" fill="#949494" fill-opacity="0.3"/>
<ellipse cx="13.4279" cy="729.043" rx="12.149" ry="13.4279" transform="rotate(-90 13.4279 729.043)" fill="#949494" fill-opacity="0.3"/>
<circle cx="13.4279" cy="693.236" r="13.4279" transform="rotate(-90 13.4279 693.236)" fill="#949494" fill-opacity="0.3"/>
<circle cx="13.4279" cy="657.428" r="13.4279" transform="rotate(-90 13.4279 657.428)" fill="#949494" fill-opacity="0.3"/>
<ellipse cx="47.9567" cy="763.572" rx="13.4279" ry="12.149" transform="rotate(-90 47.9567 763.572)" fill="#949494" fill-opacity="0.3"/>
<circle cx="47.9567" cy="729.043" r="12.149" transform="rotate(-90 47.9567 729.043)" fill="#949494" fill-opacity="0.3"/>
<ellipse cx="47.9567" cy="693.236" rx="13.4279" ry="12.149" transform="rotate(-90 47.9567 693.236)" fill="#949494" fill-opacity="0.3"/>
<ellipse cx="47.9567" cy="657.428" rx="13.4279" ry="12.149" transform="rotate(-90 47.9567 657.428)" fill="#949494" fill-opacity="0.3"/>
<circle cx="83.7644" cy="763.572" r="13.4279" transform="rotate(-90 83.7644 763.572)" fill="#949494" fill-opacity="0.3"/>
<ellipse cx="83.7644" cy="729.043" rx="12.149" ry="13.4279" transform="rotate(-90 83.7644 729.043)" fill="#949494" fill-opacity="0.3"/>
<circle cx="83.7644" cy="693.236" r="13.4279" transform="rotate(-90 83.7644 693.236)" fill="#949494" fill-opacity="0.3"/>
<circle cx="13.4279" cy="763.572" r="13.4279" transform="rotate(-90 13.4279 763.572)" fill="#949494" fill-opacity="0.3"/>
<circle cx="83.7644" cy="657.428" r="13.4279" transform="rotate(-90 83.7644 657.428)" fill="#949494" fill-opacity="0.3"/>
<circle cx="119.572" cy="763.572" r="13.4279" transform="rotate(-90 119.572 763.572)" fill="#949494" fill-opacity="0.3"/>
<ellipse cx="119.572" cy="729.043" rx="12.149" ry="13.4279" transform="rotate(-90 119.572 729.043)" fill="#949494" fill-opacity="0.3"/>
<circle cx="119.572" cy="693.236" r="13.4279" transform="rotate(-90 119.572 693.236)" fill="#949494" fill-opacity="0.3"/>
<circle cx="119.572" cy="657.428" r="13.4279" transform="rotate(-90 119.572 657.428)" fill="#949494" fill-opacity="0.3"/>
<circle cx="155.38" cy="763.572" r="13.4279" transform="rotate(-90 155.38 763.572)" fill="#949494" fill-opacity="0.3"/>
<ellipse cx="155.38" cy="729.043" rx="12.149" ry="13.4279" transform="rotate(-90 155.38 729.043)" fill="#949494" fill-opacity="0.3"/>
<circle cx="155.38" cy="693.236" r="13.4279" transform="rotate(-90 155.38 693.236)" fill="#949494" fill-opacity="0.3"/>
<circle cx="155.38" cy="657.428" r="13.4279" transform="rotate(-90 155.38 657.428)" fill="#949494" fill-opacity="0.3"/>
<ellipse cx="191.187" cy="763.572" rx="13.4279" ry="12.149" transform="rotate(-90 191.187 763.572)" fill="#949494" fill-opacity="0.3"/>
<circle cx="191.187" cy="729.043" r="12.149" transform="rotate(-90 191.187 729.043)" fill="#949494" fill-opacity="0.3"/>
<ellipse cx="191.187" cy="693.236" rx="13.4279" ry="12.149" transform="rotate(-90 191.187 693.236)" fill="#949494" fill-opacity="0.3"/>
<ellipse cx="191.187" cy="657.428" rx="13.4279" ry="12.149" transform="rotate(-90 191.187 657.428)" fill="#949494" fill-opacity="0.3"/>
<circle cx="225.716" cy="763.572" r="13.4279" transform="rotate(-90 225.716 763.572)" fill="#949494" fill-opacity="0.3"/>
<ellipse cx="225.716" cy="729.043" rx="12.149" ry="13.4279" transform="rotate(-90 225.716 729.043)" fill="#949494" fill-opacity="0.3"/>
<circle cx="225.716" cy="693.236" r="13.4279" transform="rotate(-90 225.716 693.236)" fill="#949494" fill-opacity="0.3"/>
<circle cx="225.716" cy="657.428" r="13.4279" transform="rotate(-90 225.716 657.428)" fill="#949494" fill-opacity="0.3"/>
<ellipse cx="694.428" cy="1315.04" rx="12.149" ry="13.4279" transform="rotate(-90 694.428 1315.04)" fill="#949494" fill-opacity="0.3"/>
<circle cx="694.428" cy="1279.24" r="13.4279" transform="rotate(-90 694.428 1279.24)" fill="#949494" fill-opacity="0.3"/>
<circle cx="694.428" cy="1243.43" r="13.4279" transform="rotate(-90 694.428 1243.43)" fill="#949494" fill-opacity="0.3"/>
<ellipse cx="728.957" cy="1349.57" rx="13.4279" ry="12.149" transform="rotate(-90 728.957 1349.57)" fill="#949494" fill-opacity="0.3"/>
<circle cx="728.957" cy="1315.04" r="12.149" transform="rotate(-90 728.957 1315.04)" fill="#949494" fill-opacity="0.3"/>
<ellipse cx="728.957" cy="1279.24" rx="13.4279" ry="12.149" transform="rotate(-90 728.957 1279.24)" fill="#949494" fill-opacity="0.3"/>
<ellipse cx="728.957" cy="1243.43" rx="13.4279" ry="12.149" transform="rotate(-90 728.957 1243.43)" fill="#949494" fill-opacity="0.3"/>
<circle cx="764.764" cy="1349.57" r="13.4279" transform="rotate(-90 764.764 1349.57)" fill="#949494" fill-opacity="0.3"/>
<ellipse cx="764.764" cy="1315.04" rx="12.149" ry="13.4279" transform="rotate(-90 764.764 1315.04)" fill="#949494" fill-opacity="0.3"/>
<circle cx="764.764" cy="1279.24" r="13.4279" transform="rotate(-90 764.764 1279.24)" fill="#949494" fill-opacity="0.3"/>
<circle cx="694.428" cy="1349.57" r="13.4279" transform="rotate(-90 694.428 1349.57)" fill="#949494" fill-opacity="0.3"/>
<circle cx="764.764" cy="1243.43" r="13.4279" transform="rotate(-90 764.764 1243.43)" fill="#949494" fill-opacity="0.3"/>
<circle cx="800.572" cy="1349.57" r="13.4279" transform="rotate(-90 800.572 1349.57)" fill="#949494" fill-opacity="0.3"/>
<ellipse cx="800.572" cy="1315.04" rx="12.149" ry="13.4279" transform="rotate(-90 800.572 1315.04)" fill="#949494" fill-opacity="0.3"/>
<circle cx="800.572" cy="1279.24" r="13.4279" transform="rotate(-90 800.572 1279.24)" fill="#949494" fill-opacity="0.3"/>
<circle cx="800.572" cy="1243.43" r="13.4279" transform="rotate(-90 800.572 1243.43)" fill="#949494" fill-opacity="0.3"/>
<circle cx="836.38" cy="1349.57" r="13.4279" transform="rotate(-90 836.38 1349.57)" fill="#949494" fill-opacity="0.3"/>
<ellipse cx="836.38" cy="1315.04" rx="12.149" ry="13.4279" transform="rotate(-90 836.38 1315.04)" fill="#949494" fill-opacity="0.3"/>
<circle cx="836.38" cy="1279.24" r="13.4279" transform="rotate(-90 836.38 1279.24)" fill="#949494" fill-opacity="0.3"/>
<circle cx="836.38" cy="1243.43" r="13.4279" transform="rotate(-90 836.38 1243.43)" fill="#949494" fill-opacity="0.3"/>
<ellipse cx="872.188" cy="1349.57" rx="13.4279" ry="12.149" transform="rotate(-90 872.188 1349.57)" fill="#949494" fill-opacity="0.3"/>
<circle cx="872.188" cy="1315.04" r="12.149" transform="rotate(-90 872.188 1315.04)" fill="#949494" fill-opacity="0.3"/>
<ellipse cx="872.188" cy="1279.24" rx="13.4279" ry="12.149" transform="rotate(-90 872.188 1279.24)" fill="#949494" fill-opacity="0.3"/>
<ellipse cx="872.188" cy="1243.43" rx="13.4279" ry="12.149" transform="rotate(-90 872.188 1243.43)" fill="#949494" fill-opacity="0.3"/>
<circle cx="906.716" cy="1349.57" r="13.4279" transform="rotate(-90 906.716 1349.57)" fill="#949494" fill-opacity="0.3"/>
<ellipse cx="906.716" cy="1315.04" rx="12.149" ry="13.4279" transform="rotate(-90 906.716 1315.04)" fill="#949494" fill-opacity="0.3"/>
<circle cx="906.716" cy="1279.24" r="13.4279" transform="rotate(-90 906.716 1279.24)" fill="#949494" fill-opacity="0.3"/>
<circle cx="906.716" cy="1243.43" r="13.4279" transform="rotate(-90 906.716 1243.43)" fill="#949494" fill-opacity="0.3"/>
</svg>
